<svg width="1080" height="82" viewBox="0 0 1080 82" fill="none" xmlns="http://www.w3.org/2000/svg">
<path d="M-412.174 -361.131C-410.634 -370.847 -402.258 -378 -392.421 -378H1563.04C1580.12 -378 1589.34 -357.965 1578.23 -344.99L1244.14 45.0764C1240.54 49.2791 1235.36 51.8027 1229.83 52.0469L917.557 65.8395C869.917 67.9436 822.188 66.5229 774.758 61.5889V61.5889C624.107 45.9172 472.137 47.9876 321.969 67.7576L283.67 72.7997C222.025 80.9155 159.756 83.2642 97.6739 79.8152L-178 64.5L-454.393 43.1677C-466.035 42.2691 -474.435 31.6289 -472.607 20.0956L-412.174 -361.131Z" fill="black" fill-opacity="0.1"/>
</svg>
