<svg width="430" height="225" viewBox="0 0 430 225" fill="none" xmlns="http://www.w3.org/2000/svg">
<path d="M16.4004 198.361V110.034L24.892 105.753L33.3836 110.034V198.361H16.4004Z" stroke="#ACA19E"/>
<path d="M40.5488 198.36V100.314L49.0404 95.5679L57.532 100.314V198.36H40.5488Z" stroke="#ACA19E"/>
<path d="M64.6982 198.361V94.5564L73.1898 89.534L81.6814 94.5564V198.361H64.6982Z" stroke="#ACA19E"/>
<path d="M88.8467 198.36V100.314L97.3383 95.5679L105.83 100.314V198.36H88.8467Z" stroke="#ACA19E"/>
<path d="M112.996 198.361V110.034L121.488 105.753L129.979 110.034V198.361H112.996Z" stroke="#ACA19E"/>
<path d="M137.145 198.36V100.314L145.636 95.5679L154.128 100.314V198.36H137.145Z" stroke="#ACA19E"/>
<path d="M161.294 198.361V94.5564L169.786 89.534L178.277 94.5564V198.361H161.294Z" stroke="#ACA19E"/>
<path d="M185.442 198.36V100.314L193.934 95.5679L202.426 100.314V198.36H185.442Z" stroke="#ACA19E"/>
<path d="M209.591 198.361V110.034L218.082 105.753L226.574 110.034V198.361H209.591Z" stroke="#ACA19E"/>
<path d="M233.74 198.36V100.314L242.232 95.5679L250.723 100.314V198.36H233.74Z" stroke="#ACA19E"/>
<path d="M257.889 198.361V94.5564L266.38 89.534L274.872 94.5564V198.361H257.889Z" stroke="#ACA19E"/>
<path d="M282.038 198.36V100.314L290.53 95.5679L299.021 100.314V198.36H282.038Z" stroke="#ACA19E"/>
<path d="M306.187 198.361V110.034L314.678 105.753L323.17 110.034V198.361H306.187Z" stroke="#ACA19E"/>
<path d="M330.335 198.36V100.314L338.827 95.5679L347.318 100.314V198.36H330.335Z" stroke="#ACA19E"/>
<path d="M354.484 198.361V94.5564L362.976 89.534L371.468 94.5564V198.361H354.484Z" stroke="#ACA19E"/>
<path d="M378.633 198.36V100.314L387.124 95.5679L395.616 100.314V198.36H378.633Z" stroke="#ACA19E"/>
<path d="M402.782 198.361V110.034L411.274 105.753L419.765 110.034V198.361H402.782Z" stroke="#ACA19E"/>
<path d="M1 126.226H424.376V131.891H1V126.226Z" fill="#FDF0ED"/>
<path d="M1 126.226H424.376V131.891H1V126.226Z" stroke="#ACA19E"/>
<path d="M1 126.226H424.376V131.891H1V126.226Z" stroke="black" stroke-opacity="0.2"/>
<path d="M426.43 193.002V198.667H3.05469" stroke="#ACA19E"/>
<path d="M5.62402 158.243H429V163.909H5.62402V158.243Z" fill="#FDF0ED" stroke="#ACA19E"/>
<ellipse cx="295.215" cy="211.243" rx="20.7948" ry="5.29834" fill="#303030" fill-opacity="0.24"/>
<ellipse cx="364.813" cy="211.243" rx="20.7948" ry="5.29834" fill="#303030" fill-opacity="0.24"/>
<path d="M374.41 95.8683L377.604 84.7257C381.293 86.4173 392.06 92.0046 392.344 92.285C392.699 92.6355 392.892 94.2387 391.301 94.3829C391.134 94.398 390.951 94.3874 390.758 94.356L392.855 95.4126C393.079 96.0375 393.162 97.2891 391.697 97.2958C391.54 97.2965 391.363 97.2755 391.171 97.2363L392.532 97.918C392.501 98.8962 391.982 100.624 390.156 99.7089C390.065 99.6633 389.971 99.6158 389.876 99.5668C390.161 99.8099 390.294 100.001 390.204 100.11C389.696 100.718 389.17 101.914 387.434 100.856C386.045 100.009 383.255 98.5634 382.034 97.9462C382.827 98.5947 384.239 100.002 383.541 100.443C382.669 100.995 382.019 102.269 377.604 97.1546C376.108 96.6059 374.852 96.0685 374.41 95.8683Z" fill="#EBA38B"/>
<path d="M386.909 92.4172L392.855 95.4124C393.079 96.0374 393.162 97.2889 391.697 97.2956C390.232 97.3023 387.077 95.4257 385.683 94.4866L392.532 97.9178C392.501 98.896 391.982 100.624 390.156 99.7087C388.329 98.7937 385.558 97.1541 384.4 96.4486" stroke="#D1917B" stroke-linecap="round"/>
<path d="M301.29 88.1652L308.093 95.1908C305.54 98.568 300.35 105.384 300.012 105.631C299.589 105.939 298.027 105.981 298.305 104.447C298.334 104.286 298.391 104.112 298.471 103.93L296.93 105.841C296.283 106 295.082 105.968 295.456 104.567C295.496 104.416 295.561 104.249 295.648 104.069L294.652 105.309C293.738 105.193 292.244 104.543 293.581 102.879C293.647 102.796 293.716 102.71 293.787 102.624C293.484 102.875 293.269 102.985 293.19 102.889C292.748 102.35 291.758 101.74 293.206 100.174C294.365 98.9216 296.453 96.3826 297.352 95.2697C296.534 95.9704 294.841 97.1953 294.606 96.4891C294.312 95.6065 293.28 94.871 299.248 91.1044C300.154 89.7227 300.987 88.5692 301.29 88.1652Z" fill="#EBA38B"/>
<path d="M301.299 100.422L296.931 105.842C296.283 106.001 295.082 105.968 295.456 104.567C295.83 103.166 298.418 100.316 299.666 99.0666L294.579 105.045C294.579 105.045 292.244 104.544 293.581 102.879C294.918 101.214 297.183 98.7098 298.149 97.6657M297.55 95.3702C298.503 95.7009 301.541 94.8242 302.776 92.5449" stroke="#D1917B" stroke-linecap="round"/>
<path d="M378.394 179.683L365.238 155.034L350.597 167.704L356.962 179.683V192.123L362.055 198.342L378.394 179.683Z" fill="#EBA38B"/>
<path d="M378.394 179.683L365.238 155.034L350.597 167.704L355.265 175.076L369.482 179.683L356.962 192.123L362.055 198.342L378.394 179.683Z" fill="#D1917B"/>
<path d="M313.671 199.281L322.23 172.351L303.824 168.623L299.646 181.688L290.982 189.828L289.982 198.079L313.671 199.281Z" fill="#EBA38B"/>
<path d="M322.23 172.351L314.848 195.577L313.671 199.281L289.982 198.079L310.918 196.269L314.848 195.577L303.824 168.623L322.23 172.351Z" fill="#D1917B"/>
<path d="M373.514 175.766C374.872 175.029 374.787 174.614 373.938 173.002C374.151 172.771 374.363 172.311 374.363 172.311C378.395 177.379 383.275 188.255 382.214 189.127C374.363 195.577 359.807 206.312 353.356 211.472C348.773 210.735 346.421 204.415 346.99 203.179C348.263 200.415 355.053 185.902 355.053 185.902C355.053 185.902 355.053 181.525 355.902 179.452C357.6 178.761 361.165 177.609 361.844 178.53C362.523 179.452 362.692 181.832 362.692 182.907C363.47 181.986 365.239 179.913 366.087 178.991C367.148 177.839 371.817 176.687 373.514 175.766Z" fill="#FAF7F0"/>
<path fill-rule="evenodd" clip-rule="evenodd" d="M381.839 185.969C382.422 187.638 382.647 188.827 382.325 189.092C377.778 192.834 370.98 198.016 364.811 202.719C360.33 206.134 356.181 209.297 353.467 211.472C352.393 211.299 351.442 210.819 350.622 210.17L381.839 185.969Z" fill="#737474"/>
<path d="M357.4 185.211C357.223 187.515 352.86 192.997 350.822 192.813C348.785 192.629 357.175 184.29 357.4 185.211ZM357.4 185.211C358.449 187.975 360.316 191.431 362.692 191.431C365.069 191.431 357.471 184.29 357.4 185.211Z" stroke="#362736"/>
<path d="M354.417 191.2L358.873 192.582" stroke="#362736" stroke-linecap="round"/>
<path d="M352.507 194.426L356.963 195.808" stroke="#362736" stroke-linecap="round"/>
<path d="M350.81 197.65L355.266 199.033" stroke="#362736" stroke-linecap="round"/>
<path d="M313.966 192.962C315.404 193.49 315.616 193.133 316.074 191.344C316.374 191.345 316.825 191.185 316.825 191.185C316.345 197.861 312.662 209.28 311.345 209.075C301.599 207.559 284.33 203.886 276.413 202.542C273.67 198.489 276.151 192.227 277.36 191.796C280.065 190.833 294.341 185.857 294.341 185.857C294.341 185.857 297.205 182.776 299.16 181.972C300.806 182.795 304.069 184.734 303.944 185.906C303.819 187.078 302.38 188.884 301.677 189.641C302.827 189.592 305.429 189.497 306.629 189.503C308.129 189.511 312.168 192.301 313.966 192.962Z" fill="#FAF7F0"/>
<path fill-rule="evenodd" clip-rule="evenodd" d="M313.148 206.563C312.466 208.187 311.847 209.198 311.447 209.136C305.798 208.262 297.623 206.666 290.204 205.217C284.815 204.165 279.826 203.191 276.493 202.628C275.85 201.678 275.495 200.607 275.343 199.518L313.148 206.563Z" fill="#737474"/>
<path d="M296.445 187.181C294.813 188.665 288.154 189.158 286.841 187.457C285.528 185.756 296.89 186.359 296.445 187.181ZM296.445 187.181C295.374 189.934 294.427 193.806 296.099 195.639C297.772 197.472 297.098 186.587 296.445 187.181Z" stroke="#362736"/>
<path d="M290.426 189.095L292.657 193.504" stroke="#362736" stroke-linecap="round"/>
<path d="M286.972 189.891L289.203 194.3" stroke="#362736" stroke-linecap="round"/>
<path d="M283.666 190.852L285.897 195.261" stroke="#362736" stroke-linecap="round"/>
<path d="M341.26 69.5696L316.646 67.957C311.836 94.6023 339.138 158.259 343.594 174.845C365.662 180.743 362.975 171.927 376.696 167.013L360.994 137.757L341.26 69.5696Z" fill="#D7D4D4"/>
<path d="M346.778 67.957H316.646C311.837 94.6023 303.703 153.882 298.822 173.233C320.89 179.13 317.99 183.676 331.712 178.761L336.805 140.06L346.778 98.1345V67.957Z" fill="#E5E5E5"/>
<path d="M321.739 41.9263C324.795 37.3191 331.924 33.4797 334.046 32.4814L311.766 99.0562L295.003 88.9203C302.642 74.9449 318.684 46.5336 321.739 41.9263Z" fill="#BE9FFD"/>
<path d="M330.438 38.4703L333.621 29.9468L338.926 29.0254L340.411 38.0095L330.438 38.4703Z" fill="#EBA38B"/>
<path d="M338.926 33.863L333.197 30.1772L338.926 29.0254L340.412 38.0095L338.926 33.863Z" fill="#D1917B"/>
<path d="M328.211 36.167L325.559 39.8528C322.588 50.0655 319.83 69.0628 321.527 69.7999C323.225 70.5371 333.728 69.9535 340.518 69.1088L339.776 36.167H328.211Z" fill="white"/>
<path d="M335.107 30.4474C339.85 30.4474 343.671 26.4973 343.671 21.6544C343.671 16.8114 339.85 12.8613 335.107 12.8613C330.365 12.8613 326.544 16.8114 326.544 21.6544C326.544 26.4973 330.365 30.4474 335.107 30.4474Z" fill="#EBA38B" stroke="#EBA38B"/>
<path d="M340.047 32.548C339.029 33.6537 333.823 34.3909 331.348 34.6213C328.377 68.1006 331.475 89.5397 330.287 101.887C341.66 107.784 355.75 101.887 355.75 97.9709C355.75 94.0548 349.384 75.3954 349.384 75.3954C354.547 84.6099 365.935 103.039 370.179 103.039C374.423 103.039 380.163 91.0699 382.002 82.0089C378.394 80.4732 375.424 76.6436 365.875 62.6585C355.69 41.2348 341.321 31.1658 340.047 32.548Z" fill="#BE9FFD"/>
<path d="M321.951 101.821L329.802 34.7852L326.619 36.8584C326.619 36.8584 324.709 37.7799 321.951 41.4657C319.192 45.1515 310.917 95.8312 310.917 100.438C310.917 101.842 317.283 101.36 321.951 101.821Z" fill="#BE9FFD"/>
<path d="M326.62 21.1931L327.893 17.0466C327.893 17.0466 330.706 20.6478 334.046 19.8109C336.805 19.1198 337.441 23.7271 337.654 22.5753C337.866 21.4235 339.351 18.1984 341.473 20.0413C343.595 21.8842 342.534 24.0429 342.322 24.4182C341.888 25.1849 340.837 25.8004 340.837 25.8004C340.837 25.8004 341.049 27.4129 338.927 29.4862L339.563 32.9416C339.563 32.9416 345.105 35.2874 347.839 37.7792C350.409 40.1216 352.931 44.9204 352.931 44.9204L365.875 62.6584C367.148 62.1976 369.44 59.9862 369.27 55.7475C369.058 50.4491 360.57 49.9884 361.419 46.3026C362.098 43.354 362.439 40.1458 361.419 36.6274C359.958 31.5877 352.931 31.8819 352.931 26.7218C349.961 14.743 341.261 7.83208 333.622 8.9839C324.286 10.3917 326.62 21.1931 326.62 21.1931Z" fill="#00507D"/>
<ellipse cx="4.26267" cy="5.04881" rx="4.26267" ry="5.04881" transform="matrix(0.970464 0.241247 -0.206379 0.978472 335.069 0)" fill="#00507D"/>
<g filter="url(#filter0_f_560_6348)">
<ellipse cx="334.046" cy="26.4922" rx="1.90973" ry="2.07326" fill="#FF8888" fill-opacity="0.72"/>
</g>
<path d="M339.351 21.6542C340.412 21.1935 341.26 22.3453 340.199 23.9579" stroke="#D9876B" stroke-linecap="round"/>
<defs>
<filter id="filter0_f_560_6348" x="330.137" y="22.4189" width="7.81934" height="8.14648" filterUnits="userSpaceOnUse" color-interpolation-filters="sRGB">
<feFlood flood-opacity="0" result="BackgroundImageFix"/>
<feBlend mode="normal" in="SourceGraphic" in2="BackgroundImageFix" result="shape"/>
<feGaussianBlur stdDeviation="1" result="effect1_foregroundBlur_560_6348"/>
</filter>
</defs>
</svg>
