<svg width="153" height="174" viewBox="0 0 153 174" fill="none" xmlns="http://www.w3.org/2000/svg">
<path d="M43.133 100.912C44.2607 100.912 45.1749 99.9977 45.1749 98.8701C45.1749 97.7424 44.2607 96.8281 43.133 96.8281C42.0053 96.8281 41.0911 97.7424 41.0911 98.8701C41.0911 99.9977 42.0053 100.912 43.133 100.912Z" fill="#D7E8F0"/>
<path d="M29.5664 77.9687C30.1302 77.9687 30.5874 77.5116 30.5874 76.9477C30.5874 76.3837 30.1302 75.9268 29.5664 75.9268C29.0026 75.9268 28.5454 76.3837 28.5454 76.9477C28.5454 77.5116 29.0026 77.9687 29.5664 77.9687Z" fill="#D7E8F0"/>
<path d="M70.208 64.5826C70.7138 64.5826 71.1239 64.1727 71.1239 63.6668C71.1239 63.1611 70.7138 62.751 70.208 62.751C69.7023 62.751 69.2922 63.1611 69.2922 63.6668C69.2922 64.1727 69.7023 64.5826 70.208 64.5826Z" fill="#D7E8F0"/>
<path d="M110.037 33.273C110.543 33.273 110.953 32.8629 110.953 32.3572C110.953 31.8513 110.543 31.4414 110.037 31.4414C109.532 31.4414 109.122 31.8513 109.122 32.3572C109.122 32.8629 109.532 33.273 110.037 33.273Z" fill="#D7E8F0"/>
<path d="M49.085 56.9609C49.2939 57.0374 49.5129 57.0839 49.735 57.0986H49.7408C49.7495 57.0996 49.7585 57.1005 49.7673 57.1011C49.7897 57.102 49.8123 57.1013 49.8344 57.0986H49.9645C49.8975 57.1053 49.8306 57.1062 49.7673 57.1011H49.7671C49.8302 57.1062 49.8973 57.1062 49.9643 57.1062H49.8344C49.8014 57.1101 49.7681 57.1101 49.735 57.1062C49.5281 57.1057 49.3224 57.0774 49.1232 57.0221C49.1155 57.0145 49.1098 57.0049 49.1041 56.9954C49.0983 56.9858 49.0926 56.9762 49.085 56.9686V56.9609Z" fill="#BE9FFD"/>
<path d="M60.698 57.099C61.3806 57.0761 61.9006 56.8925 62.5277 56.1431V56.1507C62.6568 55.9968 62.7887 55.8421 62.9244 55.6897C63.8282 54.6741 64.8956 53.7552 66.3286 53.7818C66.2644 53.783 66.2009 53.7858 66.1382 53.7908C66.2009 53.7885 66.2644 53.7881 66.3286 53.7895C64.7609 53.8143 63.6233 55.0035 62.6577 56.1507C61.9847 56.9384 61.4398 57.0914 60.698 57.1067C60.8068 57.103 60.9116 57.0954 61.0133 57.0818C60.9118 57.0916 60.807 57.0969 60.698 57.099Z" fill="#BE9FFD"/>
<path d="M66.4817 53.789C66.5249 53.7852 66.5685 53.7852 66.6117 53.789V53.7966C68.5045 53.9439 67.8908 55.5595 66.8182 57.0756L66.6729 57.1062C66.675 57.1033 66.6771 57.1003 66.6792 57.0972L66.6729 57.0986C67.2465 56.2879 67.7072 55.4524 67.7072 54.8157C67.7072 54.8109 67.7074 54.806 67.7074 54.8012C67.7057 54.2546 67.3663 53.8664 66.4817 53.7966C66.5 53.7951 66.5186 53.7942 66.5369 53.794C66.5188 53.7921 66.5004 53.7905 66.4817 53.789Z" fill="#BE9FFD"/>
<path d="M102.982 96.1063C103.098 95.962 103.221 95.8241 103.351 95.6934C103.359 95.718 103.366 95.7429 103.373 95.7677C103.412 95.9052 103.451 96.0457 103.497 96.1752C103.424 96.1207 103.339 96.0859 103.249 96.0738C103.159 96.0618 103.067 96.0729 102.982 96.1063Z" fill="#BE9FFD"/>
<path d="M131.189 159.703C133.411 159.557 135.566 158.885 137.477 157.744C147.743 151.66 151.264 136.768 151.037 125.669C150.942 121.714 150.43 117.78 149.507 113.934C147.676 106.135 144.29 98.6725 139.993 92.0553C134.525 83.6428 120.05 72.6817 124.465 59.2676" stroke="#CCDDE2" stroke-miterlimit="10"/>
<path d="M79.0298 10.9083C80.2496 10.2337 81.5298 9.67493 82.8537 9.23909C118.033 -2.28987 137.242 34.6334 125.66 55.072C125.37 55.5852 125.11 56.1142 124.88 56.657" stroke="#CCDDE2" stroke-miterlimit="10"/>
<path d="M40.2367 135.819C35.8573 132.73 31.6872 129.355 27.7537 125.715C15.46 114.346 3.33262 99.0489 4.48169 81.3138C5.5084 65.4448 16.8309 52.3882 30.2928 44.9202C39.2942 39.9243 50.2648 39.0754 58.6601 32.9763C62.8281 29.9593 66.3365 26.0131 68.6882 21.4245C69.3809 20.076 70.199 18.7957 71.1317 17.6006" stroke="#CCDDE2" stroke-miterlimit="10"/>
<path d="M31.4589 157.167C31.3442 158.123 30.48 158.436 29.6847 159.255L29.6235 159.316H9.59025C9.19811 159.326 8.80807 159.257 8.44289 159.114C8.07772 158.971 7.74485 158.756 7.46399 158.482C7.18312 158.209 6.96 157.882 6.80762 157.52C6.65524 157.159 6.57666 156.771 6.57666 156.378C6.57666 155.986 6.65524 155.598 6.80762 155.236C6.96 154.875 7.18312 154.548 7.46399 154.274C7.74485 154 8.07772 153.785 8.44289 153.642C8.80807 153.499 9.19811 153.431 9.59025 153.441L25.3407 150.997C25.3407 150.997 24.8169 157.526 31.4589 157.167Z" fill="#BE9FFD"/>
<path d="M107.718 172.118C107.498 172.391 107.223 172.616 106.911 172.777C106.599 172.939 106.258 173.035 105.907 173.058C105.557 173.081 105.206 173.031 104.875 172.912C104.545 172.793 104.243 172.607 103.988 172.365C103.61 172.033 103.2 171.74 102.763 171.491C105.267 163.585 97.2181 158.161 97.0078 158.023C98.111 158.415 99.1607 158.788 100.141 159.157C100.87 159.425 101.558 159.687 102.21 159.922C104.561 160.819 106.466 162.604 107.512 164.893C108.361 166.765 109.173 170.397 107.718 172.118Z" fill="#BE9FFD"/>
<path d="M67.3171 74.3024C67.3171 74.3024 62.8738 84.3285 70.7586 94.5574C70.7586 94.5574 79.1711 90.4333 79.1615 93.588C79.1615 93.588 84.7348 110.843 85.1688 121.571C85.1688 121.571 89.203 125.542 91.4132 123.357C93.6234 121.171 103.65 110.403 104.206 102.744C104.762 95.0851 102.887 96.1041 102.887 96.1041C102.887 96.1041 110.668 86.5846 125.065 92.6856C125.065 92.6856 131.619 122.15 99.7014 130.402C99.7014 130.402 124.91 143.694 124.557 147.35C124.557 147.35 132.669 133.184 132.013 121.064C131.357 108.945 131.218 87.4832 114.756 72.5778L102.892 66.2933L100.763 70.2988C100.763 70.2988 95.2772 76.1244 92.7726 76.3481C90.2679 76.5718 87.3446 75.2583 87.6581 69.947C87.9717 64.6356 89.1877 65.2417 86.3198 66.2072C83.4519 67.1728 67.3171 74.3024 67.3171 74.3024Z" fill="#2E2E2E"/>
<path d="M110.003 43.422C109.136 42.7847 108.195 42.2551 107.2 41.8446L105.63 41.185C105.284 41.0397 104.925 40.902 104.565 40.7873C101.906 39.9595 99.7855 39.8314 98.0763 40.1048C97.2859 40.2235 96.5171 40.456 95.7934 40.795C94.074 41.6213 92.7112 43.0411 91.9562 44.7928C91.7267 45.3129 91.2507 45.7584 90.6694 46.1178C91.0518 43.3302 92.4533 39.5771 97.2484 39.0436C100.176 38.7301 102.963 39.3419 105.391 40.3074C107.043 41.1651 108.591 42.2102 110.003 43.422Z" fill="#BE9FFD"/>
<path d="M110.003 43.422C109.136 42.7847 108.195 42.2551 107.2 41.8446L105.63 41.185C105.284 41.0397 104.925 40.902 104.565 40.7873C101.906 39.9595 99.7855 39.8314 98.0763 40.1048C97.2859 40.2235 96.5171 40.456 95.7934 40.795C94.074 41.6213 92.7112 43.0411 91.9562 44.7928C91.7267 45.3129 91.2507 45.7584 90.6694 46.1178C91.0518 43.3302 92.4533 39.5771 97.2484 39.0436C100.176 38.7301 102.963 39.3419 105.391 40.3074C107.043 41.1651 108.591 42.2102 110.003 43.422Z" fill="#BE9FFD"/>
<path d="M114.201 52.6222C114.187 53.0704 114.147 53.5172 114.079 53.9606C114.055 54.177 114.019 54.3921 113.972 54.6049C113.972 54.6049 113.972 54.6278 113.972 54.6355C113.934 54.8783 113.88 55.1182 113.811 55.3544C113.136 58.0311 111.628 60.4879 109.33 62.0193C107.376 63.3214 104.978 63.7802 102.65 63.7955C102.336 63.8051 102.013 63.7955 101.694 63.7802C100.774 60.9315 104.881 60.0807 104.236 57.4384C104.212 57.3321 104.181 57.2275 104.145 57.1248C103.625 55.6832 101.762 55.7865 100.483 55.1479C100.583 54.6125 101.158 54.037 101.426 53.2359C101.808 52.0486 101.319 51.1997 100.437 50.5325C100.246 49.8728 99.709 49.3604 99.0283 48.9245C98.5863 48.6494 98.171 48.3339 97.7875 47.9819C97.6774 47.7755 97.5852 47.5598 97.5122 47.3376C97.412 47.0459 97.3353 46.7466 97.2827 46.4428C96.7837 43.5749 99.3362 41.1009 102.242 41.403C103.422 41.5339 104.586 41.7825 105.716 42.1448C106.076 42.2595 106.435 42.3972 106.781 42.5425L108.351 43.2021C109.346 43.6124 110.287 44.142 111.154 44.7795C111.167 44.7944 111.183 44.8072 111.2 44.8177C111.209 44.8177 111.2 44.833 111.217 44.833C112.123 44.7967 113.043 45.3071 112.716 46.156C112.697 46.2058 112.741 46.2 112.741 46.2344C113.17 46.9019 113.503 47.6265 113.729 48.3873C114.12 49.7629 114.28 51.194 114.201 52.6222Z" fill="#BE9FFD"/>
<path d="M84.1805 52.2223V53.4574C84.1822 53.5953 84.1342 53.7289 84.0455 53.8342C83.9566 53.9396 83.8329 54.0094 83.6967 54.031L68.9749 56.6809L66.6079 57.1111C67.1815 56.2985 67.6346 55.463 67.6422 54.8283C67.6422 54.2681 67.3115 53.8723 66.4167 53.8015C64.6959 53.6792 63.4819 54.9353 62.4628 56.1532C61.482 57.3252 60.7708 57.1092 59.2909 57.1092H49.7695C49.5294 57.1098 49.2904 57.079 49.0583 57.0174C48.6783 56.5289 48.473 55.927 48.4751 55.3082V50.232C48.4753 49.4963 48.7629 48.7898 49.2764 48.2631C49.79 47.7363 50.489 47.4308 51.2245 47.4119C51.2455 47.6419 51.3031 47.8671 51.3946 48.0791C51.4906 48.3361 51.6451 48.5673 51.8459 48.754C52.0518 48.9414 52.3189 49.0473 52.5972 49.0523C52.6963 49.05 52.7944 49.032 52.8879 48.9988C53.1982 48.8814 53.4595 48.6623 53.6297 48.3774C54.0675 47.7044 54.1058 46.8479 54.1287 46.041C54.1593 46.7083 54.0752 47.3794 54.1975 48.0332C54.3046 48.6068 54.6029 49.2129 55.1019 49.4959C55.1753 49.5378 55.252 49.5737 55.3313 49.6029C55.5202 49.6714 55.7225 49.6949 55.9221 49.6718C56.2043 49.6513 56.4762 49.5563 56.7098 49.3965C57.11 49.1202 57.4109 48.7227 57.5683 48.2627C57.6841 47.9313 57.756 47.586 57.7824 47.236C57.7851 47.9952 57.9143 48.7487 58.1648 49.4653C58.2545 49.7167 58.3835 49.9523 58.5472 50.1631C58.6133 50.2446 58.6877 50.3188 58.769 50.3849C59.06 50.5949 59.4146 50.6975 59.7727 50.6755C59.9941 50.6629 60.2117 50.6111 60.4151 50.5226C61.1589 50.1861 61.6483 49.4041 61.7726 48.5992C61.8108 49.3735 62.2238 50.2702 62.937 50.6297C63.1526 50.7476 63.3949 50.8082 63.6406 50.8055C63.8501 50.8017 64.0576 50.7629 64.2543 50.6908C64.5768 50.5689 64.8669 50.374 65.102 50.1217C65.337 49.8693 65.5108 49.5662 65.6098 49.2359C65.8163 48.5686 65.7628 47.2972 65.4569 46.5591C66.0611 46.6203 66.7666 46.735 67.2331 46.8345L66.7054 47.1098L84.1805 52.2223Z" fill="#D7E8F0"/>
<path d="M84.7466 121.335C84.4407 114.07 82.9705 105.418 79.6686 95.2221C77.856 89.6182 77.009 85.0104 76.9077 81.2344" stroke="black" stroke-miterlimit="10"/>
<path d="M109.112 135.495L100.367 130.413L90.1781 124.486L84.7463 121.33L76.0145 116.251C73.0563 114.652 69.6739 114.014 66.3363 114.424C62.9986 114.834 59.8715 116.273 57.3884 118.54L25.7421 150.423C25.2779 150.89 24.6734 151.192 24.0214 151.282L9.2345 153.333C8.49095 153.449 7.81795 153.84 7.34857 154.428C6.879 155.017 6.64747 155.759 6.69928 156.51C6.75128 157.261 7.08281 157.965 7.62867 158.483C8.17472 159.001 8.89494 159.296 9.64748 159.308H27.0059C27.5439 159.307 28.072 159.163 28.5355 158.889L40.1447 152.007L60.3443 140.057C63.063 138.449 66.2617 138.677 68.8906 140.348C70.489 141.367 71.7241 142.883 73.116 144.16C77.0026 147.721 81.2838 150.826 85.8762 153.414C87.5918 154.381 89.3489 155.273 91.1474 156.09" stroke="black" stroke-miterlimit="10"/>
<path d="M100.025 159.162C100.025 159.162 100.025 159.162 100.04 159.162C102.098 159.345 104.165 159.394 106.229 159.308C111.773 159.101 116.769 156.505 120.861 152.161C133.722 138.51 137.575 107.613 121.052 79.5323C121.044 79.52 121.036 79.5072 121.029 79.494C117.396 73.3357 110.259 68.7547 102.736 66.5713" stroke="black" stroke-miterlimit="10"/>
<path d="M121.035 79.502C121.035 79.502 140.241 117.804 100.367 130.413" stroke="black" stroke-miterlimit="10"/>
<path d="M90.178 124.492C93.4569 121.612 107.385 108.466 103.546 96.5621C99.2023 83.0945 102.781 79.502 102.781 79.502" stroke="black" stroke-miterlimit="10"/>
<path opacity="0.28" d="M73.2366 47.8633L74.9917 48.2839L71.3858 56.6429H69.2922L73.2366 47.8633Z" fill="white"/>
<path opacity="0.28" d="M57.3884 47.8633L59.1436 48.2839L55.5377 56.6429H53.446L57.3884 47.8633Z" fill="white"/>
<path d="M88.4459 65.5625C88.4459 65.5625 61.891 73.1338 54.9641 84.873" stroke="black" stroke-miterlimit="10"/>
<path d="M48.3299 56.6377C43.7413 68.7421 43.5348 81.8026 44.3148 90.1902C44.4552 91.6842 44.9291 93.1277 45.7018 94.414C46.4744 95.7004 47.5259 96.7969 48.7788 97.6227C50.0319 98.4484 51.4542 98.9824 52.9411 99.1851C54.4278 99.3877 55.9413 99.2541 57.3695 98.7939L78.7028 92.0371" stroke="black" stroke-miterlimit="10"/>
<path d="M88.4459 65.5622C87.9029 67.3633 87.5645 69.3077 87.6505 71.1909C87.7347 73.0092 88.5721 75.2251 90.3272 76.0377C91.4209 76.5424 92.7229 76.4048 93.8337 75.9421C97.6232 74.3686 101.116 70.539 102.885 66.914L101.474 63.5547" stroke="black" stroke-miterlimit="10"/>
<path d="M91.2872 75.8984L87.8591 62.3906" stroke="black" stroke-miterlimit="10"/>
<path d="M96.4822 61.0045C96.4822 61.0045 92.5761 65.1496 85.9245 61.5169C79.2729 57.8842 84.0355 53.9609 84.0355 53.9609" stroke="black" stroke-miterlimit="10"/>
<path d="M65.214 149.626C68.6765 150.024 72.5902 150.813 76.6034 151.817C76.8959 151.886 77.1865 151.962 77.4848 152.039C80.672 152.859 83.9127 153.802 87.0444 154.765C91.8568 156.268 96.3842 157.838 100.023 159.163C100.757 159.43 101.462 159.692 102.126 159.927C104.5 160.816 106.43 162.601 107.502 164.898C108.361 166.745 109.188 170.384 107.709 172.114C107.482 172.388 107.203 172.613 106.886 172.775C106.57 172.936 106.224 173.032 105.87 173.055C105.516 173.078 105.16 173.028 104.826 172.909C104.491 172.789 104.185 172.603 103.925 172.361C102.172 170.736 89.7154 163.964 61.8318 162.34C41.5462 161.161 39.6687 155.178 40.1524 152.016" stroke="black" stroke-miterlimit="10"/>
<path d="M77.4849 152.043C79.2454 151.557 81.0409 151.208 82.8555 151.001" stroke="black" stroke-miterlimit="10"/>
<path d="M65.5583 46.5635C66.2183 46.6222 66.8741 46.7218 67.5219 46.8617L84.3125 50.8768V53.4522C84.3119 53.5889 84.2634 53.7214 84.1754 53.8261C84.0875 53.9309 83.9655 54.0015 83.8307 54.0257L66.7323 57.104" stroke="black" stroke-miterlimit="10"/>
<path d="M90.3864 46.2704C90.3864 46.2704 89.461 38.9171 96.0419 38.2403C103.546 37.4755 110.037 43.4713 110.037 43.4713" stroke="black" stroke-miterlimit="10"/>
<path d="M51.5859 46.3848H49.8843C49.1366 46.3853 48.4196 46.6825 47.8907 47.2113C47.3621 47.7401 47.0648 48.4571 47.0642 49.2049V54.283C47.0636 54.6543 47.1365 55.0221 47.2783 55.3653C47.42 55.7085 47.6282 56.0203 47.8905 56.2828C48.1531 56.5455 48.4649 56.7539 48.8079 56.896C49.1511 57.0379 49.5188 57.1109 49.89 57.1107H59.4153C60.8932 57.1107 61.6045 57.3248 62.5853 56.1547C63.6043 54.9368 64.8146 53.6807 66.5392 53.8031C68.4511 53.9484 67.8106 55.5869 66.7303 57.1126C65.9101 58.2598 64.8184 59.3649 64.4016 59.6708C62.9512 60.7185 61.3356 61.516 59.6218 62.0301C58.8652 62.2645 58.1957 62.719 57.6988 63.3358C57.2019 63.9526 56.9001 64.7036 56.8323 65.4926C56.3652 70.7885 56.8772 76.1251 58.3427 81.2355" stroke="black" stroke-miterlimit="10"/>
<path d="M61.893 48.6623C61.8395 49.8572 62.7764 51.2663 64.3786 50.6908C64.7011 50.5689 64.9911 50.374 65.2263 50.1217C65.4613 49.8695 65.6351 49.5662 65.7341 49.2359C65.9559 48.5151 66.0247 47.5419 65.6423 46.8383C65.6014 46.7509 65.5502 46.6687 65.4894 46.5936C65.4741 46.5783 65.4588 46.5553 65.4435 46.54" stroke="black" stroke-miterlimit="10"/>
<path d="M61.2123 45.6912C61.719 46.542 62.0516 47.5878 61.9063 48.5839C61.7878 49.3984 61.3022 50.1861 60.5508 50.5207C60.2886 50.6463 59.9976 50.6999 59.708 50.6756C59.4183 50.6515 59.1403 50.5504 58.9027 50.3831C58.6212 50.137 58.4117 49.819 58.2966 49.4634C57.8741 48.3545 57.8626 47.0888 57.9276 45.9187C57.9276 46.7122 57.9773 47.5056 57.6924 48.2646C57.5314 48.7222 57.232 49.1185 56.8359 49.3984C56.6368 49.5353 56.4093 49.625 56.1705 49.6609C55.9315 49.6967 55.6878 49.6774 55.4574 49.6049C54.8169 49.3793 54.4402 48.6987 54.3217 48.0314C54.2031 47.3641 54.2834 46.6777 54.2509 45.999C54.2318 46.8192 54.1993 47.6853 53.7538 48.3755C53.5225 48.7369 53.1459 49.0428 52.7176 49.0504C52.4403 49.0472 52.1742 48.9417 51.97 48.7541C51.7691 48.5662 51.6129 48.3354 51.5131 48.0792C51.2636 47.4563 51.2636 46.7613 51.5131 46.1386C51.6725 45.6919 52.0025 45.327 52.4308 45.1233C52.6183 45.043 52.822 45.0067 53.0258 45.0172C53.2296 45.0277 53.4282 45.0847 53.6066 45.1838C53.785 45.283 53.9385 45.4214 54.0552 45.5889C54.1718 45.7564 54.2485 45.9483 54.2796 46.15C54.3899 45.8946 54.5534 45.6656 54.7591 45.4784C54.9649 45.2912 55.2081 45.1499 55.4727 45.0641C56.0074 44.8966 56.5833 44.9161 57.1055 45.1195C57.336 45.196 57.5446 45.3272 57.7135 45.5019C57.7964 45.5902 57.858 45.6967 57.8936 45.8126C57.9289 45.9286 57.9373 46.0512 57.918 46.1711C57.9958 45.9067 58.1299 45.6621 58.3111 45.4545C58.4922 45.2467 58.7161 45.0805 58.9673 44.9673C59.2187 44.8543 59.4916 44.7968 59.7671 44.7989C60.0428 44.8012 60.3146 44.8627 60.5641 44.9799C61.0077 45.1711 61.2333 45.6874 61.4379 46.1003C61.4379 45.8212 61.9427 45.3814 62.1587 45.2725C63.455 44.6167 65.0266 45.7294 65.6575 46.8345" stroke="black" stroke-miterlimit="10"/>
<path d="M98.0459 40.1055C98.0459 40.1055 95.0805 42.2736 96.3251 45.9808C96.7764 47.3192 97.7036 48.1643 98.868 48.908C99.9712 49.6116 100.682 50.5236 100.239 51.8791C99.7724 53.2653 98.4149 53.9632 100.086 55.0052C101.357 55.8024 103.434 55.5787 103.984 57.1083C105.042 60.0029 100.575 60.8079 101.533 63.7656" stroke="black" stroke-miterlimit="10"/>
<path d="M141.741 116.01C138.124 115.35 135.401 113.123 133.503 110.035C131.782 107.24 130.788 104.049 130.138 100.858C130.138 100.84 130.138 100.831 130.138 100.825L124.618 80.7499C124.612 80.7447 124.607 80.7382 124.605 80.7308C124.601 80.7162 124.595 80.7021 124.587 80.6887C124.587 80.6887 124.587 80.6772 124.587 80.6734C124.513 80.4707 124.293 79.9258 124.014 79.0884C124.015 79.0834 124.015 79.0783 124.014 79.0731C123.147 76.4557 122.542 73.7587 122.207 71.022C122.108 70.2209 122.029 69.3796 121.987 68.5173C121.987 68.3261 121.964 68.1349 121.945 67.9533C121.774 66.2613 121.322 64.6095 120.607 63.0664C120.557 62.9421 120.496 62.8179 120.438 62.707C120.356 62.5368 120.28 62.3724 120.192 62.208C119.936 61.7013 119.666 61.2348 119.389 60.7893C119.228 60.5331 119.066 60.2922 118.909 60.0551C118.429 59.3477 117.953 58.7397 117.528 58.2311L117.115 57.7608C117.031 57.6576 116.943 57.56 116.861 57.4778C116.657 57.2541 116.479 57.0801 116.341 56.9348C116.295 56.8813 113.724 55.6156 113.682 55.5831L113.959 53.9561C116.465 53.9561 120.991 55.5315 122.867 56.6117C126.606 58.7703 129.077 62.9383 129.813 67.1006C130.222 69.4179 130.298 71.7906 130.69 74.1097C131.661 79.9144 135.661 84.7879 139.403 89.2293C140.923 91.0227 142.768 92.7186 144.536 94.3552C144.686 94.5005 144.837 94.6439 144.984 94.7777C145.263 95.0301 145.533 95.2844 145.794 95.5425L145.921 95.6668C147.967 97.6183 149.663 99.9071 150.934 102.433C150.938 102.435 150.941 102.437 150.943 102.441C150.946 102.444 150.947 102.448 150.947 102.452C151.383 103.344 151.643 104.311 151.712 105.301C151.709 105.32 151.709 105.338 151.712 105.356C151.792 106.219 151.811 107.114 151.867 108.033C151.864 108.201 151.851 108.368 151.829 108.534C151.824 108.666 151.81 108.798 151.788 108.928C151.765 109.168 151.727 109.406 151.674 109.641C151.672 109.684 151.663 109.726 151.647 109.765C151.63 109.872 151.608 109.977 151.58 110.081C151.547 110.211 151.515 110.341 151.481 110.463C151.446 110.586 151.406 110.714 151.368 110.846C151.312 111.016 151.253 111.182 151.177 111.345C151.132 111.475 151.08 111.603 151.02 111.727C150.935 111.92 150.839 112.108 150.733 112.289C150.698 112.37 150.655 112.446 150.605 112.519C150.528 112.667 150.441 112.81 150.345 112.947C148.448 115.752 144.942 116.595 141.741 116.01Z" fill="#BE9FFD"/>
<path d="M124.582 80.6687C124.161 79.7127 123.717 78.7567 123.26 77.8008C123.505 78.2118 123.752 78.6325 123.995 79.0703C123.996 79.0753 123.996 79.0806 123.995 79.0856C126.58 83.7832 131.977 107.94 129.91 99.2221C128.927 95.0789 126.197 83.2154 130.126 100.826L124.606 80.7509C124.601 80.7457 124.596 80.7392 124.593 80.7318C124.589 80.7172 124.583 80.7031 124.576 80.6897C124.576 80.6897 124.587 80.6725 124.582 80.6687Z" fill="#2E2E2E"/>
<path d="M114.06 52.6104C117.157 52.6104 120.943 54.0844 122.822 55.1628C126.568 57.3118 129.034 61.4913 129.765 65.6536C130.172 67.9746 130.252 70.3416 130.642 72.6665C131.615 78.4692 134.711 83.6104 138.46 88.048C140.357 90.262 142.376 92.3684 144.507 94.3574C146.708 96.4433 148.813 98.1813 150.243 100.902C152.098 104.449 152.685 109.448 150.35 112.93C148.458 115.75 144.957 116.597 141.747 116.014C138.127 115.354 135.399 113.127 133.504 110.043C131.61 106.959 130.828 103.504 129.872 100.04L126.721 88.5011C125.147 82.7386 122.897 76.9741 122.182 71.0203C122.086 70.2135 122.016 69.3761 121.968 68.5195C121.968 68.3283 121.939 68.1372 121.92 67.946C121.629 65.3486 120.745 62.853 119.335 60.6519C118.642 59.5489 117.832 58.5234 116.92 57.5928C115.981 56.6369 114.714 56.1551 113.67 55.3482" stroke="black" stroke-miterlimit="10"/>
<path d="M84.3105 51.175L86.1728 50.0279C86.3383 49.8602 86.4318 49.6344 86.4328 49.3988V48.3186C86.432 48.1182 86.4993 47.9236 86.6236 47.7666C86.7481 47.6095 86.9221 47.4995 87.1173 47.4544C88.2558 47.2097 89.3554 46.8095 90.3848 46.2652C91.0826 45.8828 91.6638 45.3857 91.9258 44.7873C92.6814 43.0357 94.044 41.6161 95.763 40.7894C96.4867 40.4502 97.2557 40.2177 98.0459 40.0992C99.7475 39.8258 101.87 39.9501 104.533 40.7799C104.896 40.8927 105.254 41.0303 105.604 41.1775L107.172 41.8391C108.935 42.5482 110.506 43.6615 111.76 45.0894C112.592 46.0417 113.212 47.16 113.578 48.3702C114.974 53.129 113.45 59.1574 109.181 62.0042C106.961 63.4821 104.164 63.8856 101.549 63.7708" stroke="black" stroke-miterlimit="10"/>
<path d="M92.0327 47.1084C92.0327 47.1084 93.2774 48.2403 92.5298 50.0451" stroke="black" stroke-miterlimit="10"/>
<path d="M0 159.356H45.829" stroke="black" stroke-miterlimit="10"/>
<path d="M102.122 159.937H143.634" stroke="black" stroke-miterlimit="10"/>
<path d="M73.1182 33.2482L76.378 31.4414L76.8044 37.1218L80.6971 34.9651L80.1407 43.7848L78.4448 38.8004L75.2194 40.6703L73.1182 33.2482Z" fill="#D7E8F0"/>
<path d="M94.5622 18.0713L98.2216 20.53L91.8912 24.9045L96.2638 27.8394L85.8438 33.252L90.7555 27.912L87.0406 25.5393L94.5622 18.0713Z" fill="#BE9FFD"/>
<path d="M81.412 16.3176L77.8654 12.6945L76.9381 14.0041L75.659 12.6945L72.686 16.8931L63.4246 6.49785L66.2829 2.63574L71.2463 10.8399L72.4565 9.20897L76.1026 4.27618L76.9228 6.13649L81.412 16.3176Z" fill="#BE9FFD"/>
<path d="M61.2239 6.49489L65.2906 1L71.2443 10.8388L76.1006 4.27514L83.2111 20.4004L75.6609 12.6896L71.7166 18.2743L61.2239 6.49489Z" stroke="black" stroke-miterlimit="10"/>
</svg>
