<svg width="106" height="121" viewBox="0 0 106 121" fill="none" xmlns="http://www.w3.org/2000/svg">
<path d="M81.9702 23.423C84.9545 22.0254 89.6054 24.8775 91.6614 26.4787C94.0646 28.3404 96.0028 30.7098 97.4934 33.1493C104.262 44.2241 107.819 57.4 102.257 69.4005C100.384 73.4631 97.462 77.1245 93.7017 80.1197C91.5876 81.7949 87.2368 83.375 86.6022 85.9374C86.4662 86.5737 86.52 87.2285 86.7593 87.8428C87.5996 90.191 90.1363 91.8187 92.0745 93.5283C101.381 101.754 94.652 114.505 84.7017 120" stroke="#CCDDE2" stroke-miterlimit="10"/>
<path d="M8.98926 66.6047C11.895 64.0065 15.6082 62.2506 19.3417 60.6349C23.3847 58.8856 27.3633 57.1244 31.0387 54.8528C33.2763 53.4728 35.3933 51.9594 37.3733 50.3242" stroke="#CCDDE2" stroke-miterlimit="10"/>
<path d="M4.27241 99.515C0.559289 91.4402 -0.383128 82.1847 3.49021 74.1191" stroke="#CCDDE2" stroke-miterlimit="10"/>
<path d="M52.9279 16.0417V7.38644C52.9279 6.79029 52.6466 6.21857 52.1458 5.79703C51.6451 5.37548 50.9659 5.13867 50.2577 5.13867H16.2097C15.5015 5.13867 14.8223 5.37548 14.3216 5.79703C13.8209 6.21857 13.5396 6.79029 13.5396 7.38644V48.0869C13.5425 48.6814 13.8251 49.2508 14.3255 49.6703C14.826 50.0898 15.5036 50.3255 16.2097 50.3255H50.2624C50.5931 50.3276 50.9209 50.2746 51.2268 50.1694" stroke="black" stroke-linecap="round" stroke-linejoin="round"/>
<path d="M49.1767 6.51367H17.2962C15.8848 6.51367 14.7407 7.47683 14.7407 8.66489V46.8069C14.7407 47.995 15.8848 48.9581 17.2962 48.9581H49.1767C50.5881 48.9581 51.7322 47.995 51.7322 46.8069V8.66489C51.7322 7.47683 50.5881 6.51367 49.1767 6.51367Z" fill="#00D2C4"/>
<path d="M48.6811 9.79883H18.197C17.4908 9.79883 16.9185 10.2806 16.9185 10.8751V16.6691C16.9185 17.2635 17.4908 17.7454 18.197 17.7454H48.6811C49.3873 17.7454 49.9596 17.2635 49.9596 16.6691V10.8751C49.9596 10.2806 49.3873 9.79883 48.6811 9.79883Z" fill="#00D2C4"/>
<path d="M33.2358 13.1448C33.7753 13.1448 34.2127 12.7766 34.2127 12.3224C34.2127 11.8682 33.7753 11.5 33.2358 11.5C32.6962 11.5 32.2588 11.8682 32.2588 12.3224C32.2588 12.7766 32.6962 13.1448 33.2358 13.1448Z" fill="#D7E8F0"/>
<path d="M30.5078 16.0408C30.5078 15.4317 30.7952 14.8475 31.3068 14.4168C31.8186 13.9861 32.5125 13.7441 33.2361 13.7441C33.9597 13.7441 34.6537 13.9861 35.1652 14.4168C35.677 14.8475 35.9644 15.4317 35.9644 16.0408H30.5078Z" fill="#D7E8F0"/>
<path d="M33.4353 26.2617C32.3944 26.2612 31.3766 26.5206 30.5109 27.0071C29.6451 27.4936 28.9702 28.1853 28.5715 28.9949C28.1729 29.8043 28.0684 30.6951 28.2714 31.5546C28.4743 32.4141 28.9755 33.2036 29.7115 33.8232C30.4476 34.4428 31.3854 34.8647 32.4064 35.0356C33.4275 35.2064 34.4857 35.1185 35.4473 34.7829C36.4088 34.4473 37.2306 33.8791 37.8086 33.1503C38.3865 32.4215 38.6947 31.5647 38.694 30.6885C38.6936 29.5145 38.1394 28.3888 37.1533 27.5587C36.1673 26.7286 34.83 26.262 33.4353 26.2617ZM33.4353 34.0469C33.2316 34.0469 33.0362 33.9788 32.8922 33.8576C32.7482 33.7362 32.6673 33.5719 32.6673 33.4004C32.6673 33.2289 32.7482 33.0644 32.8922 32.9431C33.0362 32.8219 33.2316 32.7538 33.4353 32.7538C33.6391 32.7538 33.8345 32.8219 33.9785 32.9431C34.1225 33.0644 34.2034 33.2289 34.2034 33.4004C34.2034 33.5719 34.1225 33.7362 33.9785 33.8576C33.8345 33.9788 33.6391 34.0469 33.4353 34.0469ZM34.4092 29.0688C34.2443 30.0287 34.1045 31.0402 33.7699 31.9777C33.6882 32.1998 33.1872 32.1998 33.1055 31.9777C32.8652 31.2756 32.6805 30.5609 32.5526 29.8383C32.4505 29.3094 32.0814 28.4632 32.4348 27.9502C32.7395 27.4953 33.605 27.4385 34.1045 27.6765C34.7233 27.974 34.4861 28.5915 34.4092 29.0688Z" fill="#D7E8F0"/>
<path d="M33.4355 34.047C33.8598 34.047 34.2036 33.7576 34.2036 33.4005C34.2036 33.0435 33.8598 32.7539 33.4355 32.7539C33.0113 32.7539 32.6675 33.0435 32.6675 33.4005C32.6675 33.7576 33.0113 34.047 33.4355 34.047Z" fill="white"/>
<path d="M34.4094 29.0673C34.2444 30.0273 34.1047 31.0388 33.7701 31.9762C33.6884 32.1983 33.1874 32.1983 33.1057 31.9762C32.8654 31.2742 32.6807 30.5596 32.5528 29.8369C32.4507 29.308 32.0816 28.4618 32.435 27.9487C32.7397 27.4939 33.6052 27.437 34.1047 27.675C34.7235 27.9725 34.4863 28.59 34.4094 29.0673Z" fill="white"/>
<path d="M20.2227 21.293H45.913" stroke="white" stroke-miterlimit="10"/>
<path d="M20.2227 23.4199H45.913" stroke="white" stroke-miterlimit="10"/>
<path d="M20.2227 37.1289H45.913" stroke="white" stroke-miterlimit="10"/>
<path d="M52.1677 42.6161C52.2651 42.6796 52.4347 15.947 52.4347 15.947L42.7702 12.8027C42.7702 12.8027 35.5859 27.6261 36.0209 27.7755L37.9608 28.4366C37.9608 28.4366 38.4398 28.118 39.5503 30.42C40.6608 32.7219 48.6651 40.3485 52.1677 42.6161Z" fill="white"/>
<path d="M26.1899 39.1426H39.9461" stroke="white" stroke-miterlimit="10"/>
<path d="M90.8394 54.644C90.7137 55.797 89.0237 69.0218 90.6619 71.6041C91.2556 72.5389 85.3624 71.6437 85.0074 71.575C79.667 70.5172 74.6659 68.5669 69.9852 66.1949C65.3046 63.8228 61.1689 60.7011 56.2888 58.5974C55.3872 58.2087 53.3908 57.3572 53.9814 56.2426C54.9867 54.3439 56.2212 51.7232 56.3186 49.4054L56.2888 46.3643C56.2888 46.3643 55.5757 44.455 57.9019 46.1276C60.2281 47.8002 70.8727 52.2098 77.7633 47.1008C84.654 41.9917 85.0624 37.951 85.0624 37.951C85.0624 37.951 80.6503 28.8621 68.0894 34.422L72.5266 24.7698C72.5266 24.7698 71.9188 24.1206 73.8413 24.2409C75.7638 24.3613 79.3293 23.5613 79.7707 20.5956C79.7707 20.5956 79.8052 19.6277 81.8393 21.4577C83.8733 23.2876 93.486 30.4342 90.8394 54.644Z" fill="#2E2E2E"/>
<path d="M66.145 20.4067C67.2228 19.7414 68.4298 19.2389 69.7121 18.9219" stroke="black" stroke-miterlimit="10"/>
<path d="M61.3705 65.5352L52.7317 91.8261L44.8782 115.734L39.8771 116.131C38.7305 116.22 37.6647 116.666 36.8884 117.382C36.1121 118.098 35.6813 119.032 35.6802 120.001H51.1468L62.349 103.749L70.6816 91.6569L83.7089 72.7492C84.0859 72.1978 84.4519 71.6464 84.8084 71.0832C84.8144 71.0767 84.8177 71.0689 84.8178 71.0607" stroke="black" stroke-miterlimit="10"/>
<path d="M90.5189 56.6655C90.6367 56.0229 90.7404 55.3803 90.8331 54.7338C90.8331 54.7034 90.8331 54.6769 90.8425 54.6465C91.3712 50.7309 91.4837 46.7834 91.1786 42.851C91.1807 42.8397 91.1807 42.828 91.1786 42.8166C90.8331 38.5366 89.9001 34.0411 88.0372 29.6579C87.4963 28.3938 86.8273 27.171 86.0378 26.0033C85.9796 25.9068 85.9137 25.8116 85.8414 25.7164C85.5932 25.3515 85.3262 24.9958 85.0561 24.6441C84.6901 24.18 84.3021 23.7291 83.8953 23.2994C83.2887 22.6469 82.616 22.0399 81.8848 21.4853C81.8801 21.4839 81.8757 21.4816 81.8723 21.4787C81.8687 21.4757 81.866 21.4721 81.8644 21.4681C81.3211 21.0631 80.7437 20.692 80.1366 20.3575C80.0236 20.2927 79.9105 20.2319 79.7958 20.171C79.7781 20.1595 79.759 20.1494 79.7393 20.1406" stroke="black" stroke-miterlimit="10"/>
<path d="M70.6815 91.6543L82.8292 119.999H65.3003C65.3003 119.078 65.6973 118.188 66.4178 117.495C67.1384 116.802 68.1333 116.353 69.2176 116.232L73.0328 115.802C73.0328 115.802 67.9029 110.116 62.3521 103.745" stroke="black" stroke-miterlimit="10"/>
<path d="M72.8365 24.0958L67.5716 35.5409C67.4126 35.8864 67.1735 36.2019 66.8684 36.4689C66.5632 36.736 66.1978 36.9491 65.7938 37.0961C65.3899 37.2433 64.9551 37.3212 64.515 37.3254C64.0749 37.3296 63.6381 37.2602 63.2302 37.121L50.7588 32.8714C50.7527 32.8571 50.7474 32.8426 50.7431 32.8278C50.586 32.2989 48.9745 27.2295 47.0206 27.2295C45.5206 27.2295 46.2352 29.7298 46.8635 31.1446C46.9357 31.2966 47.0033 31.4394 47.0645 31.5611L46.9672 31.5267L37.2021 28.1762L43.3608 14.5098L55.3845 18.4196L72.8365 24.0958Z" fill="#D7E8F0"/>
<path d="M47.0613 31.565C46.4063 30.3023 45.3633 27.2334 47.022 27.2334C48.9759 27.2334 50.5859 32.3068 50.7445 32.8317L50.7602 32.8753L63.23 37.1262C63.6385 37.2652 64.0758 37.3344 64.5166 37.3297C64.9571 37.325 65.3922 37.2466 65.7965 37.0989C66.2007 36.9512 66.566 36.7372 66.8709 36.4695C67.1759 36.2019 67.4147 35.8857 67.573 35.5396L73.4395 22.7802L54.7922 16.7125L42.7701 12.8027L36.0161 27.7755L47.0613 31.565Z" stroke="black" stroke-miterlimit="10"/>
<path d="M85.7145 31.2418C86.0883 36.729 84.6322 43.7487 76.3217 47.8806C64.0279 53.9998 47.757 40.1364 41.7334 33.409C40.7381 32.3041 39.8974 31.1062 39.2281 29.839C39.0252 29.4702 38.8551 29.0893 38.7192 28.6992" stroke="black" stroke-miterlimit="10"/>
<path d="M56.181 45.1797C56.181 45.1797 57.1234 50.9591 54.2176 55.8725L54.2302 55.8592C54.2302 55.8592 54.2302 55.8685 54.2207 55.8725C49.76 62.9159 43.3735 74.1521 46.9358 82.3168C48.1469 85.0935 50.2343 88.399 52.7301 91.8262" stroke="black" stroke-miterlimit="10"/>
<path d="M77.811 11.6878L77.8204 11.7249C77.8959 12.499 77.6032 13.2667 77.0064 13.859C76.4096 14.4514 75.5576 14.82 74.6382 14.8836C74.0495 14.9266 73.4578 14.8396 72.9214 14.6311C72.7678 14.5762 72.6201 14.5104 72.48 14.4341C72.4227 14.4005 72.3759 14.3557 72.3435 14.3036C72.3112 14.2513 72.2942 14.1934 72.2942 14.1346C72.2942 14.0758 72.3112 14.0178 72.3435 13.9658C72.3759 13.9135 72.4227 13.8687 72.48 13.8351C73.1554 13.4252 73.7727 12.854 73.9486 12.185C74.0014 11.9793 74.0058 11.7668 73.9612 11.5596C73.9131 11.2955 73.7837 11.0468 73.5858 10.838C73.3879 10.6293 73.1286 10.4677 72.8334 10.3696C72.7411 10.3466 72.6454 10.3336 72.5491 10.3312C72.2774 10.3127 71.9208 10.3418 71.8502 10.5111C72.197 9.69063 72.2113 8.79654 71.891 7.96844C71.6918 7.45611 71.356 6.98891 70.9093 6.60262C70.9296 6.75228 70.9106 6.90387 70.8532 7.0466C70.7961 7.18934 70.7021 7.31969 70.5784 7.42839C70.4544 7.53711 70.3037 7.62149 70.1365 7.67557C69.9696 7.72951 69.7904 7.75186 69.6119 7.74102C68.2281 7.70135 67.9674 6.5907 67.9674 6.5907C67.9674 6.5907 67.9674 6.60394 67.9674 6.61187C67.3643 7.87721 65.6114 7.91158 64.3548 7.34966C63.9092 7.15719 63.5178 6.88669 63.2066 6.55633C62.8501 5.25923 64.1208 4.00578 65.5862 3.82596C65.6176 3.0009 66.3323 2.11764 67.2967 2.05021C67.6327 2.02604 67.9702 2.07819 68.2742 2.20121C68.5781 2.32424 68.8371 2.51363 69.0245 2.74966C69.0512 2.78536 69.081 2.82371 69.1046 2.86337C69.4988 2.38209 70.1444 1.85452 70.8324 1.8056C71.3095 1.77741 71.7855 1.8734 72.1957 2.08059C72.606 2.28779 72.9305 2.59614 73.1256 2.96386C73.1256 2.90701 73.7303 2.6743 73.7915 2.65314C74.3564 2.47239 74.9765 2.45498 75.5543 2.60364C76.1322 2.75229 76.635 3.05859 76.9832 3.47424C77.0182 3.58915 77.0413 3.70638 77.0523 3.82464C77.0869 4.17826 77.0223 4.53378 76.8638 4.86256C77.087 4.91615 77.2956 5.00599 77.478 5.12701C77.8725 5.37019 78.1374 5.73462 78.2146 6.14115C78.2225 6.18214 78.2272 6.22313 78.2303 6.26411C78.2617 6.57392 78.1831 6.8846 78.0042 7.15661C78.4686 7.26831 78.8905 7.48014 79.228 7.77116C79.5654 8.06218 79.8068 8.42236 79.9283 8.81598C79.9666 8.94622 79.9923 9.07897 80.0052 9.21265C80.0588 9.77922 79.8657 10.3427 79.4619 10.7982C79.0582 11.2536 78.4713 11.5699 77.811 11.6878Z" fill="#FE9CFF"/>
<path d="M77.8108 11.6881L77.8202 11.7251C77.8958 12.4993 77.603 13.2669 77.0063 13.8593C76.4094 14.4516 75.5576 14.8203 74.638 14.8839C74.0494 14.9269 73.4576 14.8399 72.9212 14.6313C73.5966 14.2215 74.2139 13.6489 74.3882 12.9799C74.4501 12.7312 74.4434 12.4737 74.3684 12.2275C74.2935 11.9814 74.1526 11.753 73.9563 11.5598C73.9082 11.2959 73.7788 11.0471 73.5809 10.8383C73.383 10.6295 73.1237 10.4679 72.8285 10.3698C72.7362 10.3468 72.6405 10.3339 72.5442 10.3315C72.6374 9.50458 72.4063 8.67462 71.8861 7.96869C71.687 7.45638 71.3511 6.98918 70.9044 6.60288C70.9247 6.75254 70.9057 6.90415 70.8484 7.04688C70.7912 7.18961 70.6974 7.31997 70.5735 7.42867C70.4496 7.53738 70.2988 7.62174 70.1317 7.67582C69.9647 7.72976 69.7855 7.75224 69.607 7.74127C68.2233 7.7016 67.9625 6.59098 67.9625 6.59098C67.9625 6.59098 67.9625 6.6042 67.9625 6.61213C67.3594 7.87746 65.6065 7.91183 64.3499 7.34993C63.9043 7.15746 63.5129 6.88696 63.2017 6.5566C62.8452 5.25951 64.1159 4.00604 65.5813 3.82622C65.6128 3.00116 66.3274 2.11792 67.2918 2.05049C67.6278 2.02632 67.9653 2.07845 68.2693 2.20148C68.5732 2.3245 68.8322 2.51391 69.0196 2.74994C69.0463 2.78564 69.0761 2.82398 69.0997 2.86365C69.4939 2.38236 70.1395 1.8548 70.8275 1.80588C71.3054 1.77684 71.7825 1.87244 72.1937 2.07968C72.6047 2.28692 72.9302 2.59574 73.1254 2.96414C73.1254 2.90728 73.7301 2.67457 73.7914 2.65342C74.3562 2.47267 74.9763 2.45524 75.5542 2.60391C76.132 2.75257 76.6348 3.05886 76.983 3.47451C77.0181 3.58941 77.0411 3.70665 77.0521 3.8249C77.0867 4.17853 77.0221 4.53406 76.8637 4.86284C77.0868 4.91643 77.2956 5.00626 77.4778 5.12728C77.4491 5.30893 77.3925 5.48668 77.3097 5.65617C77.6581 5.74205 77.9715 5.90776 78.2145 6.13481C78.2223 6.1758 78.227 6.21679 78.2302 6.25778C78.2616 6.56759 78.1829 6.87826 78.004 7.15028C78.2377 7.2064 78.4617 7.28821 78.67 7.39356C78.636 7.58687 78.5616 7.77353 78.4501 7.94489C79.0439 8.08557 79.5645 8.39008 79.9281 8.80962C79.9664 8.93986 79.9922 9.07261 80.005 9.20628C80.0606 9.77391 79.8686 10.3392 79.4646 10.796C79.0606 11.2528 78.4727 11.57 77.8108 11.6881Z" fill="#00D2C4"/>
<path d="M65.605 9.03711C65.605 9.03711 67.5966 9.06091 68.0537 10.4757" stroke="black" stroke-miterlimit="10"/>
<path d="M65.0912 13.2777C64.6381 13.3718 64.1677 13.3912 63.7059 13.3346C63.619 13.322 63.5372 13.292 63.4671 13.247C63.3972 13.2019 63.3412 13.1434 63.3039 13.0762C63.2669 13.009 63.2494 12.9352 63.2535 12.8612C63.2576 12.7872 63.2829 12.715 63.3273 12.651C63.742 12.0599 64.1692 11.4755 64.6342 10.9136C64.707 10.842 64.752 10.7535 64.7629 10.6597C64.7629 10.6597 64.5713 8.91042 64.9907 7.56836" stroke="black" stroke-miterlimit="10"/>
<path d="M66.6584 10.525C66.7005 10.2431 66.5037 9.99013 66.2189 9.95999C65.934 9.92984 65.6689 10.1339 65.6268 10.4156C65.5847 10.6975 65.7815 10.9505 66.0664 10.9806C66.3512 11.0108 66.6163 10.8067 66.6584 10.525Z" fill="black"/>
<path d="M76.0688 14.5098C76.1113 14.8602 77.9788 17.2864 79.6673 19.9652C79.6665 19.9696 79.6665 19.9741 79.6673 19.9785C79.6987 20.0353 79.7301 20.0961 79.7663 20.157" stroke="black" stroke-linecap="round" stroke-linejoin="round"/>
<path d="M69.332 17.0762L69.9195 20.5959" stroke="black" stroke-miterlimit="10"/>
<path d="M64.3721 13.3652C64.3721 13.3652 65.2234 16.8506 67.3171 17.3782C69.4109 17.9057 71.2282 15.7069 71.2282 15.7069" stroke="black" stroke-linecap="round" stroke-linejoin="round"/>
<path d="M64.9438 14.9395C65.222 15.0763 65.5363 15.1526 65.8583 15.1613C66.1803 15.17 66.4998 15.1111 66.7879 14.9897" stroke="black" stroke-linecap="round" stroke-linejoin="round"/>
<path d="M68.8749 2.70401C68.8499 2.43364 68.7417 2.17342 68.5607 1.94902C68.3306 1.65168 67.9887 1.42787 67.5897 1.31338C67.1906 1.19888 66.7576 1.20028 66.3596 1.31739C65.9617 1.43448 65.6218 1.6605 65.3944 1.95934C65.1669 2.25816 65.0652 2.61252 65.1052 2.96581" stroke="black" stroke-miterlimit="10" stroke-linecap="round"/>
<path d="M68.0645 5.11238C68.025 4.73043 67.8756 4.36232 67.6293 4.03984C67.383 3.71733 67.0474 3.45013 66.6509 3.26128C64.6546 2.32118 62.0959 4.14716 62.8106 5.95595C63.0619 6.58533 63.6603 7.04282 64.342 7.34692C65.5985 7.90888 67.3577 7.87583 67.9546 6.60913L67.964 6.5893C67.964 6.5893 68.2247 7.69865 69.6085 7.73964C69.7873 7.75021 69.9665 7.7276 70.1336 7.67353C70.3007 7.61931 70.4518 7.53484 70.5759 7.4261C70.7 7.31736 70.7941 7.18698 70.8517 7.0442C70.9092 6.90142 70.9289 6.74973 70.9091 6.59987C72.0997 7.63122 72.4106 9.17292 71.8515 10.5097C71.9536 10.269 72.6368 10.3127 72.8347 10.3682C73.6861 10.6181 74.14 11.4656 73.9515 12.1849C73.774 12.8579 73.1567 13.4265 72.4845 13.839C72.4271 13.8725 72.3803 13.9172 72.348 13.9691C72.3156 14.0212 72.2987 14.0791 72.2987 14.1378C72.2987 14.1966 72.3156 14.2545 72.348 14.3064C72.3803 14.3585 72.4271 14.4032 72.4845 14.4367C73.1245 14.783 73.883 14.9411 74.641 14.8862C75.5604 14.8225 76.412 14.4541 77.0087 13.862C77.6054 13.2699 77.8985 12.5027 77.8233 11.7288L77.8138 11.6917C78.4206 11.5848 78.9675 11.3099 79.3671 10.9108C79.7667 10.5118 79.996 10.0116 80.0186 9.49012C80.0411 8.96864 79.8557 8.45562 79.4917 8.03317C79.1277 7.61076 78.6061 7.30305 78.0102 7.15917C78.1891 6.88715 78.2678 6.57647 78.2364 6.26667C78.1932 5.84638 77.9543 5.45756 77.5716 5.18506C77.189 4.91257 76.6939 4.77853 76.1944 4.81224" stroke="black" stroke-linecap="round" stroke-linejoin="round"/>
<path d="M68.7949 1.88576C69.1719 1.35688 69.5881 1.0607 70.3656 1.00649C70.848 0.973316 71.3307 1.06789 71.7461 1.27699C72.1616 1.48608 72.4889 1.79925 72.6824 2.17269C72.6557 2.12112 73.2871 1.87915 73.3515 1.858C73.6033 1.77697 73.868 1.72796 74.1369 1.71255C74.854 1.68007 75.5585 1.88198 76.1031 2.27615C76.6478 2.67033 76.9905 3.22631 77.0599 3.8281C77.0945 4.18173 77.0299 4.53725 76.8714 4.86604" stroke="black" stroke-linecap="square" stroke-linejoin="round"/>
<path d="M79.6671 19.9707C79.6671 19.9707 81.1341 24.0775 72.7466 24.2996" stroke="black" stroke-miterlimit="10"/>
<path d="M36.0572 61.1139C36.043 58.1111 39.5488 57.3033 41.2279 57.3297C51.6338 57.4963 53.2029 43.3301 53.2029 43.3301" stroke="black" stroke-linecap="round" stroke-linejoin="round"/>
<path d="M90.5197 56.666C90.5197 56.666 89.2914 66.8656 90.5197 70.2981C91.748 73.7305 84.6846 71.0372 84.6846 71.0372" stroke="black" stroke-miterlimit="10"/>
<path d="M20.1475 64.3516H11.9814" stroke="black" stroke-linecap="round" stroke-linejoin="round"/>
<path d="M49.406 64.3516H33.7808" stroke="black" stroke-linecap="round" stroke-linejoin="round"/>
<path d="M31.5396 64.3516H22.3149" stroke="black" stroke-linecap="round" stroke-linejoin="round"/>
<path d="M31.3027 61.1152H22.1816" stroke="black" stroke-linecap="round" stroke-linejoin="round"/>
<path d="M38.5701 61.1152H33.646" stroke="black" stroke-linecap="round" stroke-linejoin="round"/>
<path d="M51.0872 61.1152H41.5767" stroke="black" stroke-linecap="round" stroke-linejoin="round"/>
<path d="M19.9027 61.1152H18.2896" stroke="black" stroke-linecap="round" stroke-linejoin="round"/>
<path d="M31.001 60.8223H33.1104C33.1104 60.8223 35.5277 62.7434 33.1104 64.9423V66.4787H31.001" stroke="black" stroke-linecap="round" stroke-linejoin="round"/>
<path d="M21.7119 60.8223C21.7119 60.8223 24.1292 62.7434 21.7119 64.9423V66.4787" stroke="black" stroke-linecap="round" stroke-linejoin="round"/>
<path d="M21.7115 66.4787H19.6021V64.9423C22.0209 62.7434 19.6021 60.8223 19.6021 60.8223H21.7115" stroke="black" stroke-linecap="round" stroke-linejoin="round"/>
<path d="M31.001 60.8223C31.001 60.8223 33.4198 62.7434 31.001 64.9423V66.4787" stroke="black" stroke-linecap="round" stroke-linejoin="round"/>
<path d="M19.6021 64.9414H21.7115" stroke="black" stroke-linecap="round" stroke-linejoin="round"/>
<path d="M31.001 64.9414H33.1104" stroke="black" stroke-linecap="round" stroke-linejoin="round"/>
<path d="M39.1321 60.1328C38.8629 60.422 38.6709 60.7566 38.5698 61.1139C38.4366 61.6416 38.3863 62.1817 38.4206 62.7204C38.43 63.2493 38.5085 63.7914 39.1054 64.0691C40.0023 64.4908 41.0798 63.8879 41.1269 63.0232C41.1782 62.3732 41.3294 61.7314 41.5761 61.1139C41.5855 61.0835 41.5965 61.057 41.6059 61.0319" stroke="black" stroke-linecap="round" stroke-linejoin="round"/>
<path d="M41.6064 61.0293C42.3541 60.8971 43.4677 60.552 44.0347 59.6621" stroke="black" stroke-linecap="round" stroke-linejoin="round"/>
<path d="M36.5044 64.3516C36.5044 64.3516 37.0918 65.6553 38.5699 65.8139C40.0479 65.9726 39.1133 64.3516 39.1133 64.3516C39.1133 64.3516 39.7259 65.494 40.4673 65.5323C41.2086 65.5706 41.8495 65.0034 41.5934 64.3516C41.5934 64.3516 41.8196 65.4001 42.916 65.285C44.0123 65.17 43.56 64.3516 43.56 64.3516" stroke="black" stroke-linecap="round" stroke-linejoin="round"/>
<g opacity="0.54">
<path opacity="0.54" d="M19.6446 82.9229L18.5844 95.8119C18.0095 96.6872 17.3624 97.462 16.786 97.9406C16.709 97.9168 16.6289 97.893 16.5551 97.864C16.4137 97.823 16.2739 97.7754 16.1404 97.7317C13.9917 96.9384 12.3707 95.4615 11.8838 93.7942C11.4566 92.3278 11.843 90.7438 11.0136 89.3661C10.0021 87.6697 7.24397 86.6053 6.91256 84.6894C6.59842 82.8978 8.51309 81.2516 8.20367 79.4984C7.84555 77.515 4.95233 76.3356 4.41201 74.3959C4.07431 73.1901 4.37588 71.807 4.25494 70.5615C4.112 69.1738 3.83289 67.7985 3.4209 66.4494C7.69162 66.185 12.0393 68.1683 13.4231 71.0071C14.554 73.3302 13.8723 76.0447 15.6425 78.1616C16.6038 79.308 18.2059 80.1648 19.0336 81.3653C19.2889 81.7394 19.4737 82.1442 19.5818 82.5659C19.5896 82.595 19.5896 82.6254 19.5959 82.6479C19.6038 82.6955 19.6101 82.7312 19.6163 82.7669C19.6305 82.87 19.6446 82.9229 19.6446 82.9229Z" fill="#00D2C4" fill-opacity="0.79"/>
<path opacity="0.54" d="M19.6523 82.919H19.6445C19.6445 82.919 19.6303 82.8661 19.6162 82.7656C19.6296 82.8063 19.639 82.8479 19.6445 82.8899C19.6523 82.9005 19.6523 82.9124 19.6523 82.919Z" fill="#00D2C4" fill-opacity="0.79"/>
</g>
<path d="M33.7622 77.893C33.1999 79.5656 30.181 80.5824 29.815 82.2973C29.4915 83.8165 31.4862 85.2353 31.1564 86.7783C30.8061 88.435 27.9396 89.3513 26.8872 90.8177C26.0296 92.0077 26.4302 93.3709 25.9872 94.6362C25.4752 96.0735 23.7883 97.356 21.5343 98.0356C21.3945 98.078 21.261 98.1189 21.1196 98.1546C21.0427 98.1718 20.9626 98.1956 20.8809 98.2128C20.1364 97.6985 19.2866 96.7941 18.5908 95.8183L19.651 82.9293H19.6589C20.4804 82.3436 21.4212 81.8054 22.0746 81.1549C22.7846 80.4515 23.1144 79.6833 23.3312 78.8794H23.3343V78.7908C23.6485 77.5188 23.672 76.1887 24.382 74.9828C25.8207 72.5288 30.3365 70.8205 34.7831 71.0452C34.3639 72.2039 34.0768 73.3935 33.9255 74.598C33.7967 75.6637 34.114 76.8577 33.7622 77.893Z" fill="#00D2C4"/>
<path d="M23.3346 78.7793V78.8687H23.314C23.3251 78.838 23.3346 78.8086 23.3346 78.7793Z" fill="#FE9CFF"/>
<path d="M23.3345 78.7785C23.3345 78.8076 23.3204 78.8366 23.3141 78.8671C23.1036 79.671 22.7738 80.4392 22.0576 81.1426C21.4041 81.7931 20.4633 82.3326 19.6418 82.917C19.6418 82.917 19.6418 82.8985 19.634 82.8932C19.6285 82.8513 19.6191 82.8096 19.6057 82.7689C19.6057 82.7332 19.5931 82.6975 19.5853 82.6499C19.5853 82.6274 19.5853 82.597 19.5711 82.5679C19.4631 82.1464 19.2782 81.7414 19.023 81.3674C18.1952 80.1668 16.5931 79.31 15.6318 78.1636C15.6318 78.1636 16.0669 72.1211 19.7392 70.2819C23.2277 68.5432 23.3345 77.7723 23.3345 78.7785Z" fill="#00D2C4"/>
<path d="M23.3346 78.7793V78.8687H23.314C23.3251 78.838 23.3346 78.8086 23.3346 78.7793Z" fill="#FE9CFF"/>
<path d="M19.6445 82.8958V82.9249C19.6445 82.9249 19.6303 82.872 19.6162 82.7715C19.6296 82.8122 19.639 82.8537 19.6445 82.8958Z" fill="#FE9CFF"/>
<path d="M19.3179 82.9248C20.1363 82.3378 21.085 81.793 21.7415 81.1438C23.5824 79.3139 22.874 76.9762 24.0551 74.9704C25.4923 72.519 30.0238 70.8107 34.4594 71.0355C34.0363 72.1935 33.7481 73.3833 33.5987 74.5883C33.4668 75.6606 33.7825 76.8559 33.4416 77.8938C32.8762 79.5651 29.8589 80.5792 29.4913 82.2955C29.1662 83.8134 31.1657 85.2321 30.8343 86.7751C30.4824 88.4319 27.6191 89.3468 26.5635 90.8132C25.7044 92.0032 26.108 93.3664 25.662 94.6344C25.1216 96.1629 23.2478 97.5142 20.7928 98.1502C20.7143 98.1726 20.6357 98.1951 20.5509 98.2123C19.8064 97.698 18.9567 96.7949 18.2593 95.8178" stroke="black" stroke-miterlimit="10"/>
<path d="M31.7455 72.959C25.1187 78.9632 22.0072 91.6234 20.7899 98.1538C20.6909 98.7052 20.6014 99.2116 20.5244 99.6638" stroke="black" stroke-miterlimit="10"/>
<path d="M32.3567 103.342L29.3032 118.486C29.2311 118.902 28.9864 119.282 28.6124 119.559C28.2385 119.837 27.7597 119.994 27.2613 120.002H11.3408C10.8383 119.992 10.3562 119.832 9.98179 119.55C9.60734 119.268 9.36513 118.882 9.29885 118.463L6.4873 103.342H32.3567Z" stroke="black" stroke-miterlimit="10"/>
<path d="M35.2528 101.653C35.1664 102.608 34.268 103.343 33.1905 103.343H5.70329C4.63678 103.343 3.7462 102.624 3.6441 101.68C3.5263 100.601 4.48285 99.666 5.70329 99.666H33.1905C34.3999 99.666 35.3517 100.582 35.2528 101.653Z" stroke="black" stroke-miterlimit="10"/>
<path d="M16.4598 97.9442C17.6394 96.9578 19.0828 94.7629 19.7237 92.9687C20.2499 91.4891 19.3216 89.9673 19.1095 88.4507C18.7766 86.0707 20.1792 83.5201 18.7012 81.3676C17.8781 80.167 16.276 79.3128 15.3147 78.1625C13.543 76.047 14.2231 73.3364 13.0906 71.0133C11.7116 68.1692 7.36388 66.1925 3.09473 66.4503C3.50279 67.8011 3.77908 69.1777 3.92091 70.5664C4.04814 71.8079 3.74342 73.191 4.07798 74.4008C4.61987 76.3405 7.51624 77.5146 7.87121 79.5019C8.18535 81.2591 6.26596 82.9027 6.58167 84.6916C6.92094 86.6102 9.66809 87.6706 10.6843 89.3696C11.5089 90.75 11.1226 92.3314 11.5514 93.7964C12.0885 95.6263 13.9891 97.2342 16.4598 97.9442Z" stroke="black" stroke-miterlimit="10"/>
<path d="M5.7002 68.6797C12.0615 75.6345 15.0553 90.2979 16.2239 97.8676C16.3244 98.5287 16.4139 99.1251 16.4846 99.6632" stroke="black" stroke-miterlimit="10"/>
<path d="M15.3145 78.1645C15.3145 78.1645 15.7511 72.1219 19.4218 70.284C23.0925 68.4462 23.0203 78.7489 23.0203 78.7489" stroke="black" stroke-miterlimit="10"/>
<path d="M19.3184 82.9241C19.3184 82.9241 18.5676 79.4665 19.8823 76.0684" stroke="black" stroke-miterlimit="10"/>
<path d="M103.806 64.3516H90.064" stroke="black" stroke-linecap="round" stroke-linejoin="round"/>
<path d="M104.029 61.1152H90.5034" stroke="black" stroke-linecap="round" stroke-linejoin="round"/>
<path d="M7.60107 120H95.1171" stroke="black" stroke-miterlimit="10"/>
</svg>
