<svg width="123" height="120" viewBox="0 0 123 120" fill="none" xmlns="http://www.w3.org/2000/svg">
<path d="M35.737 73.0784C36.2311 73.0784 36.6316 72.5637 36.6316 71.9289C36.6316 71.294 36.2311 70.7793 35.737 70.7793C35.2429 70.7793 34.8423 71.294 34.8423 71.9289C34.8423 72.5637 35.2429 73.0784 35.737 73.0784Z" fill="#D7E8F0"/>
<path d="M35.3599 68.4824C36.1845 70.0059 35.7385 71.9276 35.7385 71.9276C35.7385 71.9276 37.0104 71.133 38.145 72.26" stroke="#BE9FFD" stroke-miterlimit="10"/>
<path d="M35.7368 75.7075C35.7368 75.7075 36.9494 72.638 35.7368 71.9281C35.5131 71.7966 33.7076 70.737 32.5205 72.2605" stroke="#BE9FFD" stroke-miterlimit="10"/>
<path d="M88.2257 73.2913C88.7198 73.2913 89.1204 72.7768 89.1204 72.1417C89.1204 71.5069 88.7198 70.9922 88.2257 70.9922C87.7316 70.9922 87.3311 71.5069 87.3311 72.1417C87.3311 72.7768 87.7316 73.2913 88.2257 73.2913Z" fill="#D7E8F0"/>
<path d="M85.9971 70.1645C87.4294 70.4173 88.2257 72.1416 88.2257 72.1416C88.2257 72.1416 88.6299 70.4017 90.0474 70.0918" stroke="#BE9FFD" stroke-miterlimit="10"/>
<path d="M86.2351 75.4035C86.1947 74.0843 86.8671 73.2032 87.4478 72.6942C87.6918 72.4751 87.9534 72.2898 88.228 72.142C88.372 72.0642 88.5292 72.0365 88.6842 72.0618C88.8391 72.0869 88.9861 72.1641 89.1105 72.2855C89.2617 72.416 89.3978 72.5734 89.5147 72.7529" stroke="#BE9FFD" stroke-miterlimit="10"/>
<path d="M62.4629 75.8809V43.5186C62.4668 41.8324 62.9899 40.2168 63.918 39.0246C64.8461 37.8325 66.1036 37.1608 67.416 37.1562H80.6058C93.2068 37.1562 103.512 50.4021 103.512 66.5875V78.9175" stroke="#BE9FFD" stroke-miterlimit="10"/>
<path d="M62.623 93.3642C62.5597 93.0614 62.5147 92.753 62.4883 92.4414" stroke="#BE9FFD" stroke-miterlimit="10"/>
<path d="M72.9367 55.2718C73.4308 55.2718 73.8314 54.7572 73.8314 54.1222C73.8314 53.4874 73.4308 52.9727 72.9367 52.9727C72.4426 52.9727 72.042 53.4874 72.042 54.1222C72.042 54.7572 72.4426 55.2718 72.9367 55.2718Z" fill="#D7E8F0"/>
<path d="M72.5576 50.6777C73.3836 52.2012 72.9362 54.1229 72.9362 54.1229C72.9362 54.1229 74.2082 53.3283 75.3441 54.4553" stroke="#BE9FFD" stroke-miterlimit="10"/>
<path d="M72.936 57.9028C72.936 57.9028 74.1487 54.8333 72.936 54.1235C72.7123 53.9919 70.9068 52.9324 69.7197 54.4559" stroke="#BE9FFD" stroke-miterlimit="10"/>
<path d="M88.2257 55.4846C88.7198 55.4846 89.1204 54.9699 89.1204 54.3351C89.1204 53.7002 88.7198 53.1855 88.2257 53.1855C87.7316 53.1855 87.3311 53.7002 87.3311 54.3351C87.3311 54.9699 87.7316 55.4846 88.2257 55.4846Z" fill="#D7E8F0"/>
<path d="M85.9971 52.3579C87.4294 52.6106 88.2257 54.335 88.2257 54.335C88.2257 54.335 88.6299 52.5951 90.0474 52.2852" stroke="#BE9FFD" stroke-miterlimit="10"/>
<path d="M90.3895 56.8966C90.3895 56.8966 89.453 53.6696 88.2255 54.3344C87.9992 54.4573 86.168 55.4458 86.2367 57.5995" stroke="#BE9FFD" stroke-miterlimit="10"/>
<path d="M50.2892 73.0784C50.7833 73.0784 51.1839 72.5637 51.1839 71.9289C51.1839 71.294 50.7833 70.7793 50.2892 70.7793C49.7951 70.7793 49.3945 71.294 49.3945 71.9289C49.3945 72.5637 49.7951 73.0784 50.2892 73.0784Z" fill="#D7E8F0"/>
<path d="M50.6693 68.4824C49.8433 70.0059 50.2893 71.9276 50.2893 71.9276C50.2893 71.9276 49.0173 71.133 47.8828 72.26" stroke="#BE9FFD" stroke-miterlimit="10"/>
<path d="M50.289 75.7075C50.289 75.7075 49.0763 72.638 50.289 71.9281C50.514 71.7966 52.3195 70.737 53.5066 72.2605" stroke="#BE9FFD" stroke-miterlimit="10"/>
<path d="M59.8742 91.3008V91.7665C59.8753 92.307 59.8214 92.8454 59.7139 93.3679" stroke="#BE9FFD" stroke-miterlimit="10"/>
<path d="M19.6787 65.0323C19.6868 64.8089 19.6949 64.5856 19.707 64.3692C19.707 64.3588 19.707 64.3536 19.707 64.3467C20.5155 49.0857 30.5375 37.166 42.613 37.166H54.9162C56.2283 37.1688 57.4862 37.8384 58.4153 39.0288C59.3443 40.2194 59.869 41.8338 59.8747 43.5197V76.4862" stroke="#BE9FFD" stroke-miterlimit="10"/>
<path d="M50.2892 55.2718C50.7833 55.2718 51.1839 54.7572 51.1839 54.1222C51.1839 53.4874 50.7833 52.9727 50.2892 52.9727C49.7951 52.9727 49.3945 53.4874 49.3945 54.1222C49.3945 54.7572 49.7951 55.2718 50.2892 55.2718Z" fill="#D7E8F0"/>
<path d="M50.6693 50.6777C49.8433 52.2012 50.2893 54.1229 50.2893 54.1229C50.2893 54.1229 49.0173 53.3283 47.8828 54.4553" stroke="#BE9FFD" stroke-miterlimit="10"/>
<path d="M50.289 57.9028C50.289 57.9028 49.0763 54.8333 50.289 54.1235C50.514 53.9919 52.3195 52.9324 53.5066 54.4559" stroke="#BE9FFD" stroke-miterlimit="10"/>
<path d="M35.0001 55.4846C35.4942 55.4846 35.8948 54.9699 35.8948 54.3351C35.8948 53.7002 35.4942 53.1855 35.0001 53.1855C34.5061 53.1855 34.1055 53.7002 34.1055 54.3351C34.1055 54.9699 34.5061 55.4846 35.0001 55.4846Z" fill="#D7E8F0"/>
<path d="M37.2285 52.3579C35.7976 52.6106 34.9999 54.335 34.9999 54.335C34.9999 54.335 34.5957 52.5951 33.1782 52.2852" stroke="#BE9FFD" stroke-miterlimit="10"/>
<path d="M32.8374 56.8966C32.8374 56.8966 33.7806 53.6696 35 54.3344C35.2277 54.4573 37.0575 55.4458 36.9888 57.5995" stroke="#BE9FFD" stroke-miterlimit="10"/>
<path d="M81.9683 83.8581C78.4665 81.9526 74.7687 80.7077 70.9896 80.1618C70.9896 80.1618 48.985 77.3901 51.6287 83.8581C53.8667 89.3375 62.4618 92.4329 62.4618 92.4329C63.3417 92.5974 64.2862 92.7359 65.3022 92.8363C78.1794 94.1261 81.9683 83.8581 81.9683 83.8581ZM81.9683 83.8581C81.9225 83.7888 81.874 83.7247 81.8336 83.6624C81.6544 83.4149 81.4738 83.1707 81.2946 82.9336C77.441 77.9701 72.1012 75.4234 66.6442 75.5099C62.7044 75.5705 57.1355 76.405 53.7091 80.1618" stroke="#BE9FFD" stroke-miterlimit="10"/>
<path d="M50.9722 84.6912L50.9841 84.6758" stroke="#BE9FFD" stroke-miterlimit="10"/>
<path d="M15.3193 94.5284C15.9634 96.2354 16.7476 97.8177 17.4321 98.7076C17.5081 98.6757 17.5827 98.6389 17.6557 98.5968C19.9207 97.4819 21.6468 95.1343 22.1453 92.4716C22.559 90.2591 22.183 87.8838 22.9794 85.8046C23.9495 83.2493 26.5945 81.6496 26.9165 78.767C27.2224 76.0784 25.3778 73.6027 25.6782 70.9556L25.716 70.6855" stroke="#BE9FFD" stroke-miterlimit="10"/>
<path d="M16.3018 72.0536C17.0563 71.0304 17.9321 70.0817 18.5385 68.9373C20.2348 65.7501 19.5827 61.6661 20.6728 58.1776C21.9973 53.9031 26.1742 50.9288 30.2731 51.3149C29.8828 53.3498 29.6179 55.4211 29.4808 57.5093C29.3609 59.3808 29.6492 61.4652 29.3312 63.2744C29.1826 64.0183 28.9221 64.7176 28.5645 65.3329C26.1042 67.2701 25.6824 70.9491 25.6824 70.9491" stroke="#BE9FFD" stroke-miterlimit="10"/>
<path d="M17.4121 101.231C17.4822 100.442 17.5644 99.5607 17.656 98.6016C18.4308 90.7209 20.0449 77.7227 22.9958 66.9993L24.1896 63.0174C25.2338 59.8354 26.4222 56.9771 27.7629 54.6797" stroke="#BE9FFD" stroke-miterlimit="10"/>
<path d="M23.5724 104.422L21.841 117.55C21.8003 117.91 21.6617 118.239 21.4497 118.479C21.2378 118.72 20.9663 118.856 20.6836 118.864H11.6357C11.3501 118.856 11.076 118.718 10.8632 118.473C10.6503 118.228 10.5129 117.893 10.4756 117.529L8.87891 104.422H23.5724Z" stroke="#BE9FFD" stroke-miterlimit="10"/>
<path d="M25.2178 102.957C25.2019 103.346 25.0726 103.712 24.8555 103.984C24.6386 104.255 24.3497 104.412 24.0469 104.422H8.43449C8.13482 104.412 7.8485 104.26 7.63212 103.993C7.41568 103.727 7.2847 103.366 7.26493 102.981C7.19756 102.045 7.74057 101.234 8.43449 101.234H24.0415C24.209 101.24 24.3739 101.289 24.5258 101.381C24.6775 101.472 24.8129 101.603 24.9236 101.764C25.034 101.926 25.1173 102.116 25.168 102.321C25.2186 102.526 25.2356 102.743 25.2178 102.957Z" stroke="#BE9FFD" stroke-miterlimit="10"/>
<path d="M16.2642 76.1458C16.2642 74.9581 16.2561 73.2926 16.248 71.5527L16.2723 71.7449C16.2723 71.7968 16.2804 71.8401 16.2858 71.8765C16.2912 71.9128 16.2979 71.9942 16.3019 72.0496C16.4219 73.3775 16.3612 74.7556 16.2642 76.1458Z" stroke="#BE9FFD" stroke-miterlimit="10"/>
<path d="M11.415 79.1814C12.3852 86.3246 13.0319 93.0972 13.4456 98.0936V98.104L13.6639 98.2306C14.2028 97.3875 14.7836 96.0456 15.3198 94.5238C15.8821 92.9219 16.333 91.2592 16.6672 89.5551C17.1537 86.9773 16.2994 84.3198 16.1013 81.6796C16.0266 80.3848 16.0431 79.084 16.1512 77.793" stroke="#BE9FFD" stroke-miterlimit="10"/>
<path d="M13.6852 101.235C13.6191 100.302 13.5369 99.2514 13.4453 98.1191" stroke="#BE9FFD" stroke-miterlimit="10"/>
<path d="M3.7334 47.2148C7.37814 54.751 9.82639 67.4705 11.4136 79.1876" stroke="#BE9FFD" stroke-miterlimit="10"/>
<path d="M12.6045 63.7507C12.6045 63.7507 13.0087 53.2143 16.3961 50.0115C19.7835 46.8087 19.7094 64.7687 19.7094 64.7687" stroke="#BE9FFD" stroke-miterlimit="10"/>
<path d="M16.3007 72.0531C16.3007 72.0531 15.6081 66.0266 16.8221 60.1074" stroke="#BE9FFD" stroke-miterlimit="10"/>
<path d="M18.458 51.2933C22.4369 40.2877 31.5077 33.0078 42.1724 33.0078H81.0371C95.1486 33.0078 106.585 47.7027 106.585 65.8341" stroke="#BE9FFD" stroke-miterlimit="10"/>
<path d="M106.588 65.8301V78.56" stroke="#BE9FFD" stroke-miterlimit="10"/>
<path d="M16.1577 77.9698C16.1901 77.4176 16.2318 76.867 16.2642 76.3148C16.2642 75.1271 16.2561 73.4617 16.248 71.7218C16.1575 70.9557 15.9838 70.2098 15.732 69.5057C14.972 67.4161 13.4912 65.9255 12.6033 63.9207C10.9689 60.2297 11.5968 55.5051 10.5525 51.4557C9.27651 46.5078 5.2693 43.0557 1.32812 43.511C1.70562 45.8786 1.9604 48.2761 2.09076 50.687C2.20664 52.8494 1.92637 55.2627 2.23628 57.3627C2.73482 60.7404 5.40943 62.7885 5.73955 66.2562C6.02924 69.317 4.2574 72.1857 4.54709 75.2985C4.8031 78.0339 6.54934 79.7738 7.6879 81.9379C7.94433 82.4131 8.16153 82.9214 8.33602 83.4545C9.09596 85.8626 8.74024 88.6205 9.13234 91.1706C9.61067 94.2627 11.2707 96.9877 13.4441 98.2826V98.2722C13.0398 93.2758 12.3836 86.4997 11.4135 79.36" stroke="#BE9FFD" stroke-miterlimit="10"/>
<path d="M25.4916 82.016C25.7476 82.3502 26.2691 83.0202 26.5008 83.401C27.9574 85.8456 28.6634 88.8943 30.2736 91.2176C30.7391 91.8881 31.3092 92.4254 31.9469 92.7945C32.5847 93.1634 33.2756 93.3557 33.9749 93.3592H81.3068C83.2834 93.3592 85.2654 93.3436 87.2461 93.3592C87.6625 93.3592 88.0802 93.3592 88.4925 93.3592C90.5769 93.3748 92.0254 93.0891 93.1977 90.6654C93.552 89.94 93.8714 89.1869 94.2042 88.4442C94.894 86.848 95.5745 85.2621 96.4543 83.8719C96.4543 83.8719 96.4543 83.8719 96.4543 83.8615C97.0763 82.8569 97.8208 81.9882 98.6587 81.2889C100.141 80.1013 101.788 79.2947 103.509 78.9136C104.522 78.6752 105.55 78.5565 106.58 78.5587C110.547 78.5412 114.372 80.4555 117.284 83.9161C120.197 87.3765 121.98 92.1264 122.277 97.209C122.573 102.292 121.359 107.33 118.88 111.309C116.401 115.288 112.841 117.913 108.917 118.655C108.146 118.803 107.368 118.875 106.588 118.873H19.1602" stroke="#BE9FFD" stroke-miterlimit="10"/>
<path d="M10.3249 116.989C4.83148 113.748 0.936118 106.669 1.00079 98.5008C1.01525 96.6926 1.22475 94.8958 1.6233 93.1616C2.6352 88.8075 4.84226 85.0732 7.68664 82.459" stroke="#BE9FFD" stroke-miterlimit="10"/>
<path d="M78.3274 93.3674C77.6999 93.2144 77.08 93.0144 76.4707 92.7684C76.4707 92.7684 91.1427 84.4169 96.4878 64.5352C96.4878 64.5352 99.0924 75.4957 96.4636 83.8646C96.4636 83.8646 96.4636 83.8646 96.4636 83.875" stroke="#BE9FFD" stroke-miterlimit="10"/>
<path d="M94.209 88.4473C93.9987 88.7373 93.7769 89.0136 93.5447 89.2748C91.7427 91.2851 89.58 92.688 87.251 93.3571" stroke="#BE9FFD" stroke-miterlimit="10"/>
<path d="M80.5938 82.0935C81.51 80.2844 82.5084 78.7003 83.5082 77.7983C87.0532 74.6214 95.011 68.9793 96.4878 64.5352" stroke="#BE9FFD" stroke-miterlimit="10"/>
<path d="M76.4707 92.7672C76.4707 92.7672 76.8466 91.4999 77.4772 89.6855" stroke="#BE9FFD" stroke-miterlimit="10"/>
<path d="M8.87646 47.674C12.8891 44.4175 17.5282 43.4843 22.3856 43.7388" stroke="#BE9FFD" stroke-miterlimit="10"/>
<path d="M5.88776 84.3758C5.88776 84.3758 -0.472015 70.1795 2.41279 58.2148" stroke="#BE9FFD" stroke-miterlimit="10"/>
<path d="M106.572 78.4771C111.348 70.7176 113.155 60.2643 112.231 50.5399C111.123 38.9214 105.914 26.7524 96.1092 25.0731C86.3041 23.3938 77.3115 30.8919 67.916 33.0075" stroke="#BE9FFD" stroke-miterlimit="10"/>
<path d="M82.8154 111.296C82.8169 113.299 82.2004 115.221 81.1009 116.64C80.0014 118.059 78.5089 118.861 76.9502 118.869C67.2097 118.928 47.0067 119.028 34.7196 118.992C34.8544 117.098 34.6779 114.877 34.5337 113.545C34.8731 113.469 35.2071 113.358 35.5321 113.211C35.7423 113.116 35.9498 113.026 36.156 112.929L36.2301 112.913L36.222 112.903C48.8715 107.112 53.0444 100.462 54.1843 98.1024C54.2207 98.1388 54.2625 98.1769 54.3042 98.2132C54.5849 98.4565 54.9259 98.5564 55.2609 98.4937L66.9915 96.3573C69.5076 95.9074 72.0716 96.3158 74.4259 97.5417C76.7804 98.7676 78.8423 100.768 80.4049 103.341C81.7308 105.521 82.6915 108.528 82.8154 111.296Z" fill="#BE9FFD"/>
<path d="M34.5098 113.305L36.1563 112.928C35.9501 113.025 35.7426 113.115 35.5324 113.21C35.2073 113.357 34.8734 113.468 34.534 113.544C34.5259 113.46 34.5179 113.38 34.5098 113.305Z" fill="#BE9FFD"/>
<path d="M54.1846 98.1015C53.0447 100.461 48.8718 107.104 36.2223 112.902C34.4088 110.017 33.4222 106.418 33.4278 102.71C33.429 100.68 33.7241 98.6671 34.2982 96.7754L44.5641 63.0818C44.5641 63.0818 41.4233 46.4479 48.9472 24.0905C49.0269 23.6707 49.0166 23.2309 48.9176 22.818C50.2717 21.5871 52.5947 22.0009 53.6968 22.2986V96.7546C53.6964 97.0112 53.7398 97.265 53.8242 97.4977C53.9084 97.7305 54.0315 97.9366 54.1846 98.1015Z" fill="#2E2E2E"/>
<path d="M102.257 105.519C102.257 105.519 95.5981 116.019 90.0643 117.133C90.0058 117.057 89.9518 116.976 89.9026 116.89C89.6803 116.508 89.5725 116.045 89.4202 115.616C89.3565 115.437 89.2789 115.266 89.1885 115.107L90.4187 113.39C90.708 112.984 91.1023 112.728 91.528 112.67C91.9535 112.611 92.3812 112.754 92.7308 113.071L93.1633 113.461C94.3396 114.532 95.8379 112.728 94.8395 111.222C94.5633 110.809 94.2463 110.443 93.8963 110.135C95.361 109.577 98.747 108.231 98.1757 105.516C97.5653 102.642 99.7118 101.783 99.8344 101.88C100.333 102.293 100.786 102.79 101.182 103.359C101.615 104.013 101.976 104.74 102.257 105.519Z" fill="#BE9FFD"/>
<path d="M103.376 118.408C103.376 118.408 98.8312 118.71 95.084 118.64H95.0705H94.9722C94.7283 118.625 94.4521 118.615 94.1543 118.594C100.276 116.795 103.491 111.073 103.619 110.852C104.222 114.468 104.242 117.964 103.376 118.408Z" fill="#BE9FFD"/>
<path d="M46.1025 118.996H47.683" stroke="black" stroke-miterlimit="10"/>
<path d="M87.1484 108.177V103.676C87.1483 103.211 87.2194 102.75 87.358 102.319C87.4965 101.889 87.6997 101.498 87.9558 101.169C88.2119 100.84 88.5161 100.579 88.8508 100.401C89.1855 100.222 89.5443 100.131 89.9066 100.131H92.3319V99.123C92.3325 99.0676 92.3438 99.0134 92.3648 98.9651C92.3858 98.9168 92.4159 98.876 92.4524 98.8464C92.4888 98.8169 92.5303 98.7994 92.5732 98.7956C92.6162 98.792 92.6592 98.8022 92.6984 98.8252L95.0941 100.304C95.0941 100.304 98.755 99.8796 101.182 103.363C103.608 106.846 104.942 117.608 103.374 118.404C103.374 118.404 98.8211 118.705 95.0699 118.636" stroke="black" stroke-miterlimit="10"/>
<path d="M80.4038 103.34C80.4806 103.464 87.1476 104.834 87.1476 104.834" stroke="black" stroke-miterlimit="10"/>
<path d="M95.0498 101.777C95.0498 101.777 95.3355 102.913 95.0498 103.72" stroke="black" stroke-miterlimit="10"/>
<path d="M102.255 105.52C102.255 105.52 95.5178 116.151 89.957 117.157" stroke="black" stroke-miterlimit="10"/>
<path d="M94.1543 118.588C100.274 116.789 103.491 111.067 103.619 110.846" stroke="black" stroke-miterlimit="10"/>
<path d="M95.6682 109.291H95.6646" stroke="black" stroke-miterlimit="10"/>
<path d="M81.7402 115.587C83.4488 114.273 88.263 112.351 89.4205 115.615C89.5727 116.046 89.6805 116.512 89.9015 116.891C90.8689 118.553 93.5206 118.541 94.9705 118.636C96.0363 118.705 97.1088 118.714 98.176 118.651" stroke="black" stroke-miterlimit="10"/>
<path d="M54.3154 98.1895C54.3154 98.1895 52.6608 101.539 50.7354 102.748" stroke="black" stroke-miterlimit="10"/>
<path d="M99.8332 101.885C99.7106 101.783 97.5641 102.643 98.1745 105.521C98.7498 108.235 95.3611 109.582 93.8965 110.141C94.2473 110.448 94.5647 110.813 94.8397 111.228C95.8381 112.735 94.3398 114.537 93.1675 113.465L92.7296 113.072C92.3808 112.753 91.953 112.61 91.5272 112.668C91.1014 112.727 90.7072 112.984 90.4188 113.391L89.0391 115.321" stroke="black" stroke-miterlimit="10"/>
<path d="M72.8935 104.523L36.2305 112.913" stroke="black" stroke-miterlimit="10"/>
<path d="M34.7198 118.991C29.0607 118.973 25.0778 118.926 24.5752 118.836C24.5752 117.914 25.3459 116.932 26.2958 116.125C27.2458 115.319 28.3682 114.721 29.0729 114.552L34.5097 113.305L36.2303 112.912C34.412 110.026 33.4223 106.423 33.4277 102.71C33.4289 100.679 33.724 98.6668 34.2981 96.7751L44.564 63.0815C44.564 63.0815 41.4232 46.4476 48.9472 24.0902C49.0268 23.6704 49.0165 23.2306 48.9175 22.8177C48.8022 22.3302 48.5677 21.9034 48.2488 21.6006C47.9299 21.2978 47.5436 21.1351 47.147 21.1367H47.0527C46.5818 21.1356 46.1207 20.9629 45.7232 20.6384C45.3256 20.3142 45.0079 19.8514 44.8068 19.3043C44.6057 18.7571 44.5295 18.1478 44.5872 17.5474C44.645 16.9469 44.8341 16.3797 45.1326 15.9118L50.9265 1.73279C51.131 1.4132 51.4074 1.1826 51.7177 1.07249C52.0281 0.962383 52.3575 0.977961 52.6606 1.1175C52.9637 1.25687 53.226 1.51327 53.4114 1.85155C53.5969 2.18967 53.6965 2.59322 53.6968 3.00699V96.7543C53.6981 97.0055 53.7412 97.2536 53.8233 97.4818C53.9054 97.7098 54.0246 97.9127 54.1728 98.0767C54.3209 98.2406 54.4947 98.362 54.6825 98.4326C54.8702 98.5031 55.0675 98.5211 55.2611 98.4856L66.9917 96.3492C69.5078 95.8993 72.0718 96.3077 74.4261 97.5336C76.7806 98.7595 78.8426 100.76 80.4051 103.333C81.731 105.513 82.6957 108.527 82.8157 111.297C82.8171 113.299 82.2006 115.221 81.1011 116.641C80.0016 118.06 78.5089 118.862 76.9504 118.869C67.21 118.928 47.0069 119.029 34.7198 118.992" stroke="black" stroke-miterlimit="10"/>
</svg>
