<svg width="541" height="398" viewBox="0 0 541 398" fill="none" xmlns="http://www.w3.org/2000/svg">
<path fill-rule="evenodd" clip-rule="evenodd" d="M268.81 380.547C242.333 375.916 219.455 360.117 192.706 357.392C150.586 353.102 88.9594 395.783 67.2926 360.02C43.6903 321.061 128.662 279.995 118.959 235.665C109.447 192.205 26.3657 190.419 20.5245 146.336C15.6899 109.851 63.9692 85.0496 96.6177 67.0567C125.877 50.9317 161.002 51.1107 194.538 50.4359C220.008 49.9235 243.863 68.6659 268.81 63.5923C302.66 56.7079 324.955 16.4655 359.519 16.8826C392.23 17.2772 442.332 33.5353 442.744 65.691C443.351 113.074 344.168 137.049 361.623 181.219C383.085 235.525 489.073 207.728 518.795 258.132C537.901 290.532 493.732 331.539 464.247 355.254C435.568 378.321 395.919 381.758 359.18 386.513C328.867 390.436 298.911 385.813 268.81 380.547Z" fill="url(#paint0_linear_155_1853)"/>
<mask id="mask0_155_1853" style="mask-type:alpha" maskUnits="userSpaceOnUse" x="0" y="0" width="541" height="398">
<rect width="541" height="398" rx="30" fill="#C4C4C4"/>
</mask>
<g mask="url(#mask0_155_1853)">
<path d="M324.776 32.8867C324.776 32.8867 351.411 39.1707 361.956 51.2981C372.501 63.4255 368.876 94.6831 366.127 112.677C363.378 130.671 356.008 143.68 364.729 149.964C373.449 156.248 376.577 150.427 376.577 150.427C376.577 150.427 364.729 170.184 352.24 172.897C339.752 175.61 322.383 160.305 319.634 146.833C316.885 133.361 315.037 113.118 317.264 99.1816C319.492 85.2455 323.852 80.5151 326.056 71.0776C328.259 61.64 326.506 45.9184 326.506 45.9184L324.776 32.8867Z" fill="#263238"/>
<path d="M286.199 373.775C339.464 373.775 382.644 338.363 382.644 294.681C382.644 250.998 339.464 215.586 286.199 215.586C232.933 215.586 189.753 250.998 189.753 294.681C189.753 338.363 232.933 373.775 286.199 373.775Z" fill="#70BFBA"/>
<path d="M204.398 108.688L202.289 107.32L192.455 92.8969L200.322 77.3608L218 76.2246L220.109 77.6159L204.398 108.688Z" fill="#393762"/>
<path d="M222.075 107.57L204.397 108.683L194.563 94.2604L202.407 78.7244L220.108 77.6113L229.919 92.0343L222.075 107.57Z" fill="#636183"/>
<path d="M264.635 102.124C260.215 106.895 256.44 112.202 253.402 117.915C247.431 128.582 232.336 143.422 229.54 146.437C228.223 148.058 226.534 149.352 224.611 150.216C221.948 142.588 219.842 134.785 218.308 126.866C216.91 117.591 214.8 99.3647 214.8 99.3647L220.417 88.3736C220.417 88.3736 215.843 79.4229 214.09 78.7737C212.336 78.1244 208.829 79.0983 203.568 83.5736C198.308 88.0489 196.175 92.5011 198.639 97.9735C201.104 103.446 206.364 108.965 205.748 117.892C205.132 126.819 205.417 158.1 208.568 168.396C211.72 178.691 211.388 178.715 215.677 178.715C219.966 178.715 232.265 173.544 245.18 167.12C252.744 163.423 259.165 157.821 263.782 150.889L264.635 102.124Z" fill="#FFEDE5"/>
<path d="M291.316 96.6445C285.424 95.6643 279.395 95.7744 273.544 96.9691C264.823 99.0329 260.297 104.482 258.544 114.383C256.79 124.285 250.534 136.574 254.729 145.85C258.923 155.125 262.738 162.244 263.094 169.733C263.264 176.882 262.924 184.034 262.075 191.136C261.381 192.556 260.59 193.927 259.705 195.24C259.705 195.24 258.994 200.69 241.553 195.913C224.112 191.136 201.814 192.504 178.804 197.629C155.795 202.753 143.591 206.904 142.548 214.347C141.506 221.791 141.506 268.237 143.591 281.894C144.764 291.09 144.532 300.406 142.904 309.535C137.125 313.47 130.927 316.782 124.42 319.413C114.657 323.169 109.088 325.21 110.818 328.688C112.548 332.166 119.183 332.792 127.548 332.792C135.913 332.792 147.43 332.12 147.43 332.12C147.43 332.12 136.979 338.589 129.989 343.018C122.998 347.447 116.411 348.491 119.539 353.267C122.667 358.044 152.714 356.676 159.989 356.676C167.264 356.676 175.676 353.94 176.363 350.879C177.051 347.818 174.278 337.221 174.278 333.14C174.278 329.059 173.235 310.949 177.406 302.764C181.577 294.578 187.88 270.695 187.525 261.489C187.169 252.283 186.482 246.486 186.482 246.486C186.482 246.486 226.529 251.866 242.169 257.315C257.809 262.764 292.714 267.216 309.113 259.379C325.511 251.541 332.122 241.964 329.681 228.33C327.241 214.695 320.606 205.814 322.359 189.768C324.113 173.722 324.089 158.047 328.283 150.209C332.478 142.371 341.885 128.366 341.174 119.16C340.463 109.954 323.046 100.61 314.326 97.317C305.606 94.0242 291.316 96.6445 291.316 96.6445Z" fill="#FFEDE5"/>
<path d="M142.454 215.164C141.412 222.653 141.412 269.053 143.497 282.711C144.67 291.906 144.438 301.222 142.81 310.351C137.031 314.286 130.834 317.598 124.326 320.229C114.563 323.986 108.995 326.026 110.724 329.504C112.454 332.983 119.089 333.609 127.454 333.609C134.563 333.609 143.876 333.122 146.554 332.959C148.236 332.426 151.53 331.29 151.53 330.64C151.53 329.991 154.303 305.134 154.658 281.157C155.014 257.181 157.81 229.494 157.81 229.494L154.682 217.204C151.812 214.567 148.721 212.17 145.44 210.039C143.846 211.339 142.785 213.159 142.454 215.164Z" fill="#FFEDE5"/>
<path d="M150.819 321.6C150.819 321.6 149.777 319.281 148.023 314.782C147.714 313.615 147.051 312.566 146.12 311.775C145.189 310.984 144.035 310.489 142.81 310.354C137.031 314.289 130.834 317.601 124.326 320.232C114.563 323.988 108.995 326.029 110.724 329.507C112.454 332.985 119.089 333.611 127.454 333.611C134.563 333.611 143.876 333.124 146.554 332.962C148.236 332.429 151.53 331.292 151.53 330.643C151.53 330.272 151.862 326.933 152.336 321.762L150.819 321.6Z" fill="#263238"/>
<path d="M285.394 207.306C276.414 202.681 268.596 196.163 262.503 188.223C262.313 190.24 262.147 191.655 262.052 191.956C261.359 193.375 260.567 194.747 259.683 196.06C259.683 196.06 258.972 201.509 241.531 196.733C224.09 191.956 201.792 193.324 178.782 198.449C155.772 203.573 143.569 207.724 142.526 215.167C142.526 215.515 142.526 215.956 142.384 216.466C143.726 218.381 145.174 220.223 146.72 221.985C149.756 225.314 153.557 227.889 157.81 229.498C158.877 234.274 165.488 249.277 175.251 249.277C185.014 249.277 186.412 247.236 186.412 247.236C186.412 247.236 226.531 252.686 242.171 258.135C257.811 263.584 292.716 268.036 309.114 260.199C325.512 252.361 332.124 242.784 329.683 229.15C328.599 223.911 327.15 218.751 325.346 213.706C314.73 214.263 297.621 213.915 285.394 207.306Z" fill="#263238"/>
<path d="M262.075 191.956C261.382 193.375 260.59 194.747 259.706 196.06C259.706 196.06 258.995 201.509 241.554 196.733C224.113 191.956 201.814 193.324 178.805 198.449C155.795 203.573 143.592 207.724 142.549 215.167C142.336 216.674 142.17 219.805 142.051 223.816C146.636 227.154 152.108 229.127 157.81 229.497C160.304 225.283 163.904 221.796 168.236 219.399C172.569 217.002 177.478 215.781 182.454 215.863C200.085 215.863 274.611 217.208 274.611 217.208L284.564 195.017C284.564 195.017 272.715 186.831 262.976 181.498C262.668 186.739 262.241 191.376 262.075 191.956Z" fill="#263238"/>
<path d="M322.502 193.744C323.402 189.965 341.175 169.977 342.952 163.02C344.729 156.064 351.246 134.893 345.322 122.719C339.397 110.545 331.98 107.647 331.98 107.647C326.537 103.732 320.614 100.499 314.35 98.0239C305.653 94.6152 291.34 97.3514 291.34 97.3514C285.448 96.3712 279.419 96.4813 273.568 97.676C264.848 99.7398 260.321 105.189 258.568 115.09C256.814 124.992 250.535 137.397 254.729 146.673C258.923 155.948 262.739 163.067 263.094 170.556C263.264 177.705 262.924 184.857 262.075 191.959C261.382 193.378 260.59 194.75 259.705 196.063V196.202C262.288 201.42 268.212 212.434 274.729 217.211C280.846 217.394 286.729 219.555 291.459 223.356C298.568 229.501 307.17 230.845 316.578 230.845C321.042 230.671 325.46 229.89 329.706 228.527C327.336 216.376 321.862 207.912 322.241 194.51C322.38 194.274 322.468 194.014 322.502 193.744Z" fill="#70BFBA"/>
<path d="M318.711 76.8504C318.711 76.8504 327.455 63.7027 328.853 52.4565C330.251 41.2102 328.165 30.7292 315.606 24.1438C303.047 17.5584 284.563 24.1438 278.995 30.7292C273.426 37.3146 274.113 49.8362 272.715 52.5724C271.317 55.3086 265.037 59.7376 265.748 61.4535C266.459 63.1694 270.985 65.5114 270.985 65.5114L273.355 76.0852C274.042 79.1692 276.127 83.2503 278.568 83.2503C281.886 82.9118 285.178 82.3697 288.426 81.6272C288.426 81.6272 289.113 92.2937 287.052 96.5835C284.279 102.381 269.99 137.116 276.27 140.641C282.549 144.166 309.113 116.896 316.767 111.099C324.421 105.302 314.398 98.1371 314.398 98.1371C314.398 98.1371 310.962 97.998 312.36 89.4647C312.973 84.6827 315.21 80.2406 318.711 76.8504Z" fill="#FFEDE5"/>
<path d="M159.895 357.426C167.217 357.426 175.582 354.69 176.269 351.629C176.838 349.171 175.179 341.959 174.468 337.043C173.025 337.549 171.518 337.861 169.989 337.971C166.248 338.097 162.505 337.754 158.852 336.951C158.769 335.538 158.416 334.154 157.809 332.87C156.767 330.551 151.553 330.551 151.553 330.551L145.795 333.009H147.359C147.359 333.009 136.909 339.478 129.918 343.907C122.928 348.336 116.34 349.38 119.468 354.156C122.596 358.933 152.572 357.426 159.895 357.426Z" fill="#263238"/>
<path d="M333.355 54.8228C334.729 43.5765 328.165 30.7303 315.606 24.1449C305.109 18.7188 290.511 22.3826 282.691 27.5071C284.255 27.7842 285.661 28.6084 286.649 29.826C291.696 35.2288 289.018 45.1069 293.545 49.6054C298.071 54.1039 300.417 52.759 300.417 52.759C300.417 52.759 305.488 44.6664 307.763 52.759C310.037 60.8517 306.862 64.3531 304.564 65.327C302.928 65.9294 301.238 66.3797 299.516 66.6719C299.516 66.6719 311.838 77.3152 318.71 76.9442C318.71 76.8515 331.957 66.0922 333.355 54.8228Z" fill="#263238"/>
<path d="M210.44 113.555L208.355 112.164L198.521 97.7409L206.365 82.2048L224.042 81.0918L226.151 82.4599L210.44 113.555Z" fill="#393762"/>
<path d="M228.141 112.422L210.44 113.558L200.629 99.112L208.473 83.5759L226.151 82.4629L235.985 96.8859L228.141 112.422Z" fill="#636183"/>
<path d="M351.15 242.785C348.688 237.112 347.26 231.062 346.932 224.907C346.932 218.623 339.562 202.414 339.562 198.82C340.559 184.701 342.331 170.644 344.87 156.711C348.898 143.447 348.567 129.094 345.32 122.717C342.074 116.34 329.017 117.5 325.462 127.934C321.908 138.369 322.121 158.612 322.121 158.612C320.936 167.702 320.131 187.968 319.751 200.142C319.491 210.971 321.837 221.892 327.145 229.684C334.657 240.721 338.211 255.191 340.51 255.191C342.808 255.191 354.989 253.707 354.989 253.707C354.989 253.707 355.628 252.478 351.15 242.785Z" fill="#FFEDE5"/>
<path d="M357.716 265.534C357.716 265.534 360.085 252.966 359.564 250.253C359.043 247.54 351.294 249.372 348.071 249.372C344.848 249.372 342.573 248.909 343.024 250.717C343.474 252.526 349.919 253.036 349.919 253.036L352.289 253.917L357.716 265.534Z" fill="#FFEDE5"/>
<path d="M373.473 256.629H326.174V262.913H373.473V256.629Z" fill="#636183"/>
<path d="M390.914 242.717H370.25V275.969H390.914V242.717Z" fill="#636183"/>
<path d="M327.075 242.717H306.412V275.969H327.075V242.717Z" fill="#636183"/>
<path d="M334.895 251.689L337.478 264.025C337.647 264.849 338.114 265.586 338.793 266.101C339.472 266.616 340.317 266.875 341.175 266.831C344.397 266.646 349.397 266.367 352.336 266.066C356.933 265.625 358.307 266.97 358.781 263.747C358.995 262.124 359.35 259.109 359.658 256.559C359.72 256 359.658 255.435 359.477 254.902C359.295 254.369 358.999 253.881 358.608 253.469C358.217 253.058 357.74 252.734 357.21 252.519C356.68 252.304 356.109 252.203 355.535 252.223C351.957 252.223 347.454 252.501 346.364 252.501C344.54 252.594 338.568 247.655 334.895 251.689Z" fill="#FFEDE5"/>
</g>
<defs>
<linearGradient id="paint0_linear_155_1853" x1="20.1877" y1="16.8794" x2="687.581" y2="86.9133" gradientUnits="userSpaceOnUse">
<stop stop-color="#C150F6" stop-opacity="0.23"/>
<stop offset="1" stop-color="#BE9FFD"/>
</linearGradient>
</defs>
</svg>
