<svg width="123" height="120" viewBox="0 0 123 120" fill="none" xmlns="http://www.w3.org/2000/svg">
<path d="M32.2759 45.8691C32.2759 45.8691 34.26 50.874 40.8245 51.1194" stroke="#CCDDE2" stroke-miterlimit="10"/>
<path d="M48.5317 50.2452C48.5317 50.2452 52.306 49.2558 54.7848 45.4668" stroke="#CCDDE2" stroke-miterlimit="10"/>
<path d="M104.265 118.925C104.642 118.69 107.005 118.925 107.45 118.925C108.418 118.929 109.383 118.836 110.333 118.648C122.233 116.263 123.289 98.8337 121.784 87.1296C121.462 84.6753 120.912 82.2563 120.139 79.9047C117.911 73.0194 113.918 66.641 109.042 61.4056C107.229 59.4605 105.04 57.7473 103.851 55.3089C101.675 50.8432 103.378 45.6644 104.39 41.1327C105.738 35.0508 106.303 28.4284 99.6614 25.4023C85.7102 19.0427 70.2764 30.4557 70.2764 30.4557" stroke="#CCDDE2" stroke-miterlimit="10"/>
<path d="M10.9374 97.4355C10.1529 101.314 10.1125 105.372 11.4469 109.079C12.6385 112.388 14.992 115.788 18.0693 117.678C19.8332 118.75 21.9109 119.186 23.9571 118.914" stroke="#CCDDE2" stroke-miterlimit="10"/>
<path d="M40.8213 60.1384V47.1619V46.7791V43.6855V42.5331V36.2598" stroke="#CCDDE2" stroke-miterlimit="10"/>
<path d="M49.3796 57.7998V51.4227C49.38 51.1621 49.2982 50.908 49.146 50.6967C48.9938 50.4852 48.779 50.327 48.5317 50.2446L44.833 49.0112V36.2598" stroke="#CCDDE2" stroke-miterlimit="10"/>
<path d="M40.8213 47.1602C41.8821 47.4607 43.7167 47.8624 44.8301 47.6279" stroke="#CCDDE2" stroke-miterlimit="10"/>
<path d="M40.8213 43.6895C42.1409 43.7946 43.7867 43.9092 44.8327 44.1814" stroke="#CCDDE2" stroke-miterlimit="10"/>
<path d="M40.8213 46.7777C42.0075 46.6105 43.7382 46.2466 44.8327 45.7734" stroke="#CCDDE2" stroke-miterlimit="10"/>
<path d="M40.8213 42.5327C43.1303 41.8924 44.2734 41.1025 44.8327 40.4434" stroke="#CCDDE2" stroke-miterlimit="10"/>
<path d="M20.7969 39.3516L15.7866 39.7586" stroke="#CCDDE2" stroke-miterlimit="10"/>
<path d="M20.1657 37.1445L15.2026 37.5462" stroke="#CCDDE2" stroke-miterlimit="10"/>
<path d="M74.6641 32.727L96.3807 30.9626C96.6784 30.9388 96.9735 31.0341 97.201 31.2277C97.4284 31.4214 97.5698 31.6973 97.5938 31.9951C97.5938 32.0234 97.5938 32.053 97.5938 32.0867C97.5943 32.3701 97.4878 32.6432 97.2956 32.8514C97.1034 33.0595 96.8398 33.1876 96.5572 33.2096L75.5631 34.912" stroke="#CCDDE2" stroke-miterlimit="10"/>
<path d="M41.415 37.6836L36.7188 38.061" stroke="#CCDDE2" stroke-miterlimit="10"/>
<path d="M53.7833 36.6816L44.4502 37.4378" stroke="#CCDDE2" stroke-miterlimit="10"/>
<path d="M40.9887 35.4551L37.5703 35.7328" stroke="#CCDDE2" stroke-miterlimit="10"/>
<path d="M52.7941 34.5L44.5083 35.1686" stroke="#CCDDE2" stroke-miterlimit="10"/>
<path d="M30.6043 99.8263C30.6946 99.775 30.7836 99.7225 30.8739 99.6686C31.6961 99.1712 31.804 98.446 31.1219 97.8071C28.2104 95.0815 24.8298 92.7496 21.1229 91.2534C17.8798 89.9432 14.0517 89.1237 10.5524 89.559C8.93491 89.7612 4.88302 90.5605 5.93036 93.0744C6.15547 93.6136 6.58142 94.0423 7.00871 94.4413C12.6579 99.6955 23.1732 104.068 30.6043 99.8263Z" stroke="#CCDDE2" stroke-miterlimit="10"/>
<path d="M6.31435 93.7915C0.954957 87.4037 7.52749 69.7659 10.3352 62.297C11.5403 59.0836 11.6023 55.5978 11.4015 52.2037C11.3395 50.9986 9.84324 43.5109 11.9999 43.7211C12.3396 43.7548 12.6065 43.9988 12.8316 44.2603C13.4591 44.9846 13.8438 45.8874 13.9315 46.8416C14.3219 46.4525 14.7681 46.1236 15.2552 45.8657C15.5282 45.7189 15.8131 45.5958 16.1071 45.4977C16.336 45.3996 16.5853 45.3589 16.8336 45.3791C17.6127 45.5139 17.8473 46.541 17.6842 47.3201C17.4079 48.7301 16.2554 49.276 15.5086 50.3705C15.4124 50.5133 15.3277 50.6633 15.2552 50.8194C14.6918 51.9867 14.7578 53.4114 14.8508 54.6933C14.986 56.3312 15.4066 57.933 16.0936 59.4259" stroke="#CCDDE2" stroke-miterlimit="10"/>
<path d="M29.3506 83.4434C30.7228 87.8565 31.5221 92.4408 31.5693 97.0845C31.5787 97.567 31.5693 98.0455 31.5558 98.5281V98.5847C31.5577 98.6748 31.5541 98.7647 31.545 98.8543" stroke="#CCDDE2" stroke-miterlimit="10"/>
<path d="M15.2558 50.8184C15.2558 50.8184 11.6743 49.9355 10.9424 48.3477" stroke="#CCDDE2" stroke-miterlimit="10"/>
<path d="M15.2554 45.8698C15.2554 45.8698 17.6709 35.6255 12.6701 36.2994C7.66927 36.9734 10.938 44.0945 10.938 44.0945" stroke="#CCDDE2" stroke-miterlimit="10"/>
<path d="M12.8233 40.5118C13.8647 40.5118 14.709 39.6675 14.709 38.626C14.709 37.5846 13.8647 36.7402 12.8233 36.7402C11.7818 36.7402 10.9375 37.5846 10.9375 38.626C10.9375 39.6675 11.7818 40.5118 12.8233 40.5118Z" stroke="#CCDDE2" stroke-miterlimit="10"/>
<path d="M88.2715 67.4557C88.7289 67.8692 89.3237 68.0978 89.9403 68.0973C91.1925 68.0973 92.2115 67.1888 92.2115 66.0754C92.2115 63.446 92.2084 60.8175 92.2021 58.19C92.2021 56.6277 92.5364 53.6582 89.9403 53.6582C88.161 53.6582 87.6636 55.0587 87.669 56.3878V57.8368" stroke="#CCDDE2" stroke-miterlimit="10"/>
<path d="M88.2715 50.8053C88.4888 51.0284 88.7483 51.206 89.0346 51.3283C89.321 51.4504 89.6289 51.5146 89.9402 51.517C90.2379 51.5173 90.5325 51.4588 90.8075 51.3449C91.0826 51.2311 91.3324 51.0642 91.5428 50.8538C91.7534 50.6434 91.9202 50.3935 92.034 50.1185C92.1478 49.8435 92.2063 49.5487 92.2061 49.2511C92.2061 46.3153 92.203 43.3795 92.1967 40.4437C92.1967 38.7035 92.5364 35.3809 89.9402 35.3809C88.161 35.3809 87.6636 36.9485 87.6636 38.4312V39.6444" stroke="#CCDDE2" stroke-miterlimit="10"/>
<path d="M89.5415 53.6533H90.3422V51.1191H89.5415V53.6533Z" fill="#D7E8F0"/>
<path d="M86.0068 71.5558C87.259 71.5558 88.274 70.6473 88.274 69.5272C88.274 66.8987 88.2709 64.2708 88.2646 61.6431C88.2646 60.0822 88.6015 57.1113 86.0068 57.1113C84.2288 57.1113 83.7301 58.5145 83.7314 59.8409C83.7368 62.8531 83.7395 65.8667 83.7395 68.8815C83.7395 69.3587 83.7395 69.8453 83.9148 70.2968C84.2059 71.0638 85.1144 71.5558 86.0068 71.5558Z" stroke="#CCDDE2" stroke-miterlimit="10"/>
<path d="M86.0058 54.9773C86.6071 54.9773 87.1838 54.7383 87.609 54.3132C88.0342 53.8881 88.273 53.3113 88.273 52.7101C88.273 49.7743 88.2699 46.8385 88.2636 43.9027C88.2636 42.1585 88.6006 38.8398 86.0058 38.8398C84.2279 38.8398 83.7291 40.4075 83.7305 41.8889C83.7305 45.2551 83.7332 48.6213 83.7386 51.9876C83.7386 52.5268 83.7386 53.066 83.9124 53.5701C84.2049 54.426 85.1148 54.9773 86.0058 54.9773Z" stroke="#CCDDE2" stroke-miterlimit="10"/>
<path d="M85.6064 57.1083H86.4071V54.5742H85.6064V57.1083Z" fill="#D7E8F0"/>
<path d="M86.1927 38.869C85.5281 37.234 85.6441 35.5895 85.9231 34.069C86.0188 33.5568 86.1334 33.0648 86.2425 32.5863C86.3484 32.1284 86.6055 31.7197 86.9725 31.4262C87.3394 31.1327 87.7946 30.9714 88.2645 30.9688H88.2739C88.7903 30.9685 89.2881 31.1607 89.6703 31.5079" stroke="#CCDDE2" stroke-miterlimit="10"/>
<path d="M90.3947 33.7148C90.361 34.7932 89.9404 35.3836 89.9404 35.3836" stroke="#CCDDE2" stroke-miterlimit="10"/>
<path d="M75.1213 109.748C75.0566 110.179 74.928 110.598 74.7398 110.991C74.7156 110.499 75.1213 109.748 75.1213 109.748Z" fill="#2E2E2E"/>
<path d="M66.1333 109.237C66.2479 108.205 66.9165 106.799 67.4812 105.193C67.0324 106.675 66.3382 108.18 66.1333 109.237Z" fill="#2E2E2E"/>
<path d="M67.8612 110.64C67.5255 110.822 67.0915 110.979 66.5981 110.611C67.0093 110.732 67.4451 110.742 67.8612 110.64Z" fill="#2E2E2E"/>
<path d="M67.7155 103.941C67.7159 103.597 67.6452 103.256 67.5079 102.94C67.3705 102.624 67.1695 102.34 66.9175 102.105C67.3421 102.441 67.7586 102.952 67.7155 103.941Z" fill="#2E2E2E"/>
<path d="M68.4702 110.426C68.6355 110.344 68.7926 110.247 68.9393 110.135C68.7978 110.365 68.6867 110.612 68.609 110.871C68.5942 110.604 68.547 110.474 68.4702 110.426Z" fill="#2E2E2E"/>
<path d="M70.6551 112.002C70.0769 112.342 69.442 112.406 69.0376 112.055C69.5983 112.327 70.178 112.207 70.6551 112.002Z" fill="#2E2E2E"/>
<path d="M71.7608 111.818C71.6557 111.683 71.5411 111.583 71.3564 111.617C71.4373 111.564 71.5047 111.516 71.5613 111.482C71.7703 111.339 71.7271 111.564 71.7608 111.818Z" fill="#2E2E2E"/>
<path d="M72.3672 112.315C72.9455 112.268 73.6828 112.206 74.261 111.65C74.2273 111.703 74.199 111.766 74.1653 111.832C73.8445 112.497 73.0088 112.315 72.3672 112.315Z" fill="#2E2E2E"/>
<path d="M74.9067 111.343C74.7811 111.312 74.6496 111.312 74.5239 111.343C74.6055 111.232 74.6776 111.114 74.7396 110.99C74.7354 111.058 74.7485 111.127 74.7777 111.188C74.8069 111.25 74.8513 111.303 74.9067 111.343Z" fill="#2E2E2E"/>
<path d="M75.5132 111.473C75.408 111.454 75.3123 111.43 75.2261 111.411C75.838 111.377 76.4931 111.401 77.0054 110.842C76.6225 111.287 76.0968 111.587 75.5132 111.473Z" fill="#2E2E2E"/>
<path d="M77.1621 110.641C77.2246 110.548 77.2807 110.451 77.3302 110.35C77.2807 110.45 77.2245 110.548 77.1621 110.641Z" fill="#2E2E2E"/>
<path d="M77.5657 109.764C77.5374 109.856 77.5065 109.945 77.4756 110.033C77.5108 109.945 77.5409 109.855 77.5657 109.764Z" fill="#2E2E2E"/>
<path d="M77.3315 110.349C77.3845 110.245 77.432 110.139 77.474 110.031C77.4341 110.14 77.3864 110.246 77.3315 110.349Z" fill="#2E2E2E"/>
<path d="M77.6073 105.905C77.5825 105.864 77.5498 105.829 77.5113 105.801C77.4728 105.774 77.4291 105.754 77.3828 105.743L77.688 105.586C77.6464 105.688 77.6193 105.795 77.6073 105.905Z" fill="#2E2E2E"/>
<path d="M99.6587 95.9277C95.4275 100.193 89.9387 101.58 89.9387 101.58C90.1733 105.354 89.351 118.047 89.289 118.601C89.227 119.155 86.1753 118.969 86.1753 118.969L73.0464 118.95C73.4508 118.83 73.8349 118.706 74.1935 118.568C80.5571 116.141 80.979 111.277 80.0462 107.772C79.5205 105.792 79.0272 105.211 78.612 105.137C79.7591 104.598 81.5519 103.841 83.288 103.421C86.1564 102.728 95.6283 100.14 98.645 96.75C98.9397 96.4266 99.2815 96.1493 99.6587 95.9277Z" fill="#2E2E2E"/>
<path d="M98.5264 69.0312C98.5264 69.0312 94.0109 64.9375 88.9305 70.4358C85.349 74.3138 85.2048 77.2725 85.4353 78.6838C85.562 78.9732 85.6473 79.279 85.6887 79.5923L86.143 79.8983L85.8316 79.8686C86.3964 81.0117 88.3414 85.4639 85.9273 88.3512C83.1344 91.6886 79.6392 96.0344 70.2063 99.7116C70.2063 99.7116 65.5209 98.3353 64.2444 101.538C64.2444 101.538 65.7595 101.268 66.3714 101.715C63.5556 101.438 54.24 101.653 54.24 101.653C54.24 101.653 48.4601 102.509 47.0299 107.718C45.5998 112.928 47.5138 114.025 50.3634 117.367C50.9025 117.994 51.8461 118.515 53.0741 118.926L45.8923 118.917L46.5002 117.86C47.1742 116.214 45.5391 115.899 45.5391 115.899C43.8744 115.756 44.3044 114.78 44.3044 114.78C42.5359 103.66 42.8998 86.9965 43.4161 82.7694C43.9324 78.5422 43.1762 79.7716 43.1762 79.7716C41.8431 81.2152 34.083 82.7694 34.083 82.7694C37.7494 80.5507 39.0165 77.6472 39.6527 70.797C40.2741 64.1409 36.7074 61.689 36.5012 61.5502C36.4997 61.5495 36.4981 61.5492 36.4965 61.5492C36.4949 61.5492 36.4932 61.5495 36.4918 61.5502L50.3431 57.385L59.6911 55.9414C59.5482 56.3822 59.3042 56.2676 58.8351 56.3337L58.0089 56.4536C58.0408 56.4555 58.0715 56.4658 58.0982 56.4831C58.125 56.5007 58.1466 56.5249 58.1612 56.5534C58.1725 56.5872 58.179 56.6227 58.18 56.6585C58.2717 58.5914 59.528 60.2588 61.1549 61.2307C63.406 62.5786 66.5763 62.5449 68.8813 61.3156C70.5352 60.4314 71.3723 58.7343 71.2954 56.893C80.9116 58.0765 91.8542 61.7861 98.5264 69.0312Z" fill="#2E2E2E"/>
<path d="M58.062 101.371L59.9316 102.706L59.7739 102.604C58.4296 101.801 56.8918 101.378 55.3257 101.382L58.062 101.371Z" fill="#D7E8F0"/>
<path d="M71.5544 111.042C71.5504 111.105 71.5344 111.167 71.5074 111.224C71.5006 110.984 71.5598 110.851 71.5544 111.042Z" fill="#D7E8F0"/>
<path d="M80.4054 110.045C80.4047 112.344 79.4912 114.548 77.8656 116.174C76.2401 117.799 74.0356 118.713 71.7368 118.714H55.3257C57.1256 118.714 58.881 118.154 60.3481 117.111C61.815 116.068 62.9212 114.594 63.5125 112.894C64.104 111.194 64.1514 109.352 63.6484 107.624C63.1453 105.896 62.1167 104.367 60.7053 103.25C60.4567 103.057 60.1981 102.877 59.9302 102.711H67.4787C67.7078 103.088 68.0327 104.078 67.2306 106.259C66.1307 109.242 65.5713 110.466 67.0959 110.728C68.6204 110.991 68.8482 109.515 68.9371 110.141C69.0261 110.766 67.9275 111.288 69.0328 112.063C70.0222 112.756 71.2515 111.809 71.505 111.231C71.505 111.656 71.7058 112.412 72.8003 112.345C74.5216 112.239 74.8222 110.623 74.8222 110.623C74.8519 110.851 74.9578 111.062 75.1228 111.222C75.2878 111.382 75.5021 111.481 75.7307 111.504C76.557 111.599 77.9306 110.441 77.8012 108.692C77.6717 106.942 77.1649 105.517 78.3268 105.135C78.4726 105.092 78.6033 105.009 78.7043 104.896C79.8125 106.384 80.4094 108.19 80.4054 110.045Z" fill="#D7E8F0"/>
<path d="M74.3083 45.5032C74.2877 45.5059 74.2669 45.5059 74.2463 45.5032C74.3043 45.785 74.4094 46.0855 74.4808 46.3875C74.5373 46.6138 74.5614 46.8471 74.5523 47.0803C74.4754 48.1762 73.7017 48.7679 72.649 48.7976C72.6751 49.0486 72.6247 49.3014 72.5044 49.5233C72.3841 49.7451 72.1996 49.9253 71.975 50.0404C71.4116 50.3369 70.4923 50.2695 70.0623 49.7492C69.5609 49.1413 69.8089 48.3905 70.1162 47.7273C70.2254 47.4928 70.3359 47.2731 70.4263 47.0722C70.5368 46.8229 70.6325 46.5748 70.7174 46.3214C71.0179 45.3848 71.25 44.4274 71.4116 43.4571C71.612 42.4789 71.7444 41.488 71.8079 40.4916C71.7418 40.2476 71.7836 39.8985 71.6879 39.6451C71.5491 39.252 71.2961 38.9094 70.9614 38.6611C70.2726 38.1543 69.3587 38.188 68.6281 37.7391C67.9673 37.3267 67.4461 36.7251 67.1319 36.0124C67.0685 35.8641 67.0119 35.6727 66.9257 35.5056C66.8858 35.4158 66.8269 35.3359 66.7531 35.2711C66.4229 34.9947 66.2328 35.4813 66.032 35.6754C65.8247 35.8672 65.5788 36.0126 65.3107 36.1017C65.0427 36.1906 64.7587 36.2214 64.4778 36.1917C64.2656 36.1641 64.059 36.1031 63.8658 36.0111C63.7238 35.9336 63.5909 35.8404 63.4696 35.7334C63.3264 35.5934 63.1594 35.4801 62.9762 35.3991C62.6325 35.2643 62.6136 35.8385 62.5651 36.034C62.4694 36.3885 62.3022 36.6756 61.968 36.8427C61.7819 36.9341 61.578 36.9835 61.3708 36.987C61.1294 36.9957 60.8883 36.9634 60.6578 36.8913C60.4356 36.825 60.2245 36.7263 60.031 36.5988C59.9963 36.5749 59.9556 36.5614 59.9137 36.5597C59.8716 36.5581 59.8301 36.5683 59.7937 36.5893C59.7573 36.6104 59.7276 36.6412 59.708 36.6784C59.6885 36.7156 59.6798 36.7577 59.6832 36.7996C59.7493 38.6692 57.9996 39.3203 57.2825 39.5063C57.0129 42.4717 57.8217 45.7553 59.4392 48.2989C59.3787 48.678 59.2244 49.0362 58.9904 49.3408C57.8082 49.6374 56.4455 49.3179 55.9346 48.2989C55.3954 47.2205 55.4655 45.7122 56.308 44.9371C55.7243 44.8481 55.5599 43.9841 55.8955 43.4773C55.9238 43.4301 55.9386 43.4018 55.9184 43.3533C55.847 43.1578 54.9883 42.9961 54.7538 42.9206C54.419 42.8002 54.1168 42.6037 53.871 42.3462C53.6254 42.0889 53.4431 41.7779 53.3385 41.4379C52.8411 39.7974 54.1028 38.0478 55.6812 37.6502C55.2121 36.8239 54.5907 36.154 54.3333 35.1983C54.0758 34.2426 54.2227 33.2424 54.9546 32.5294C55.2504 32.2475 55.6116 32.0437 56.0058 31.9364C56.3999 31.829 56.8147 31.8216 57.2124 31.9147C57.4451 32.0841 57.6513 32.2873 57.8244 32.5172C57.7176 32.3603 57.6325 32.1898 57.571 32.0104C58.1057 32.1925 58.5748 32.5288 58.9189 32.9769C58.3029 32.0535 58.5321 30.7959 59.2263 29.9831C60.062 29.0032 61.7065 28.7875 62.8549 29.2903C62.9378 29.329 63.0176 29.374 63.0935 29.4251C63.204 29.5599 63.3132 29.6946 63.4237 29.8214C63.4364 29.7868 63.4508 29.7531 63.4669 29.7203C63.699 29.9594 63.919 30.21 64.126 30.4711C64.8728 28.3535 67.8315 28.3481 69.3951 29.4534C69.7635 29.7157 70.065 30.061 70.2753 30.4616C70.3553 30.8133 70.3489 31.1791 70.2564 31.5278C70.1607 31.8635 70.2375 32.1169 70.4519 32.1883C70.6136 32.2274 70.784 32.2053 70.9304 32.1263C71.5046 31.8675 71.9777 31.5521 72.6423 31.6235C74.8178 31.854 76.3949 34.6739 75.109 36.5152C75.0331 36.6296 74.9468 36.7371 74.8515 36.836C74.6695 37.022 74.2625 37.2283 74.1776 37.4857C74.1753 37.4918 74.1753 37.4985 74.1776 37.5046C74.0158 38.0438 75.2155 38.1691 75.5363 38.3133C78.3588 39.4928 77.7604 45.3213 74.3083 45.5032Z" fill="#00D2C4"/>
<path d="M58.0093 56.4456L58.8356 56.3257C59.0632 56.2941 59.2776 56.1995 59.4544 56.0526C59.6311 55.9057 59.7632 55.7121 59.8357 55.494C59.8647 55.4186 59.8837 55.3398 59.8923 55.2595L59.9018 55.1934L60.0069 54.3995L60.72 49.9863" stroke="black" stroke-miterlimit="10"/>
<path d="M70.0625 49.7539L70.1299 55.7792V55.9706C70.1333 56.1652 70.2036 56.3526 70.3291 56.5014C70.4546 56.6502 70.6274 56.7512 70.8187 56.7874L71.3013 56.8831" stroke="black" stroke-miterlimit="10"/>
<path d="M57.2726 39.498C56.9424 43.0552 58.1757 47.0761 60.4901 49.7248C64.8035 54.665 68.443 49.7248 68.443 49.7248" stroke="black" stroke-miterlimit="10"/>
<path d="M71.8514 40.5997C71.7261 40.3639 71.8002 39.9393 71.691 39.6414C71.5487 39.2503 71.2953 38.9092 70.9618 38.6601C70.2716 38.1559 69.3577 38.1869 68.6285 37.7408C67.9646 37.3261 67.441 36.7212 67.1256 36.0046C67.0258 35.7782 66.9476 35.4304 66.7508 35.266C66.4206 34.9964 66.2292 35.4749 66.0256 35.6703C65.7399 35.9371 65.3804 36.1115 64.9941 36.1711C64.6077 36.2308 64.2124 36.1727 63.8595 36.0046C63.532 35.8442 63.3069 35.5207 62.9658 35.3927C62.6248 35.2646 62.6059 35.8294 62.5547 36.0275C62.4617 36.3794 62.2946 36.6665 61.9589 36.8363C61.3618 37.1315 60.5449 36.9374 60.0233 36.5883C59.9882 36.5647 59.9473 36.5514 59.9049 36.5499C59.8626 36.5485 59.8208 36.559 59.7843 36.5802C59.7476 36.6015 59.7178 36.6326 59.698 36.67C59.6784 36.7074 59.6696 36.7498 59.6728 36.7918C59.755 39.144 56.9702 39.5632 56.9702 39.5632" stroke="black" stroke-miterlimit="10"/>
<path d="M61.2008 44.6682C62.593 44.6682 63.7214 43.5397 63.7214 42.1476C63.7214 40.7554 62.593 39.627 61.2008 39.627C59.8087 39.627 58.6802 40.7554 58.6802 42.1476C58.6802 43.5397 59.8087 44.6682 61.2008 44.6682Z" stroke="black" stroke-miterlimit="10"/>
<path d="M67.7355 44.4475C69.1276 44.4475 70.2561 43.319 70.2561 41.9269C70.2561 40.5349 69.1276 39.4062 67.7355 39.4062C66.3433 39.4062 65.2148 40.5349 65.2148 41.9269C65.2148 43.319 66.3433 44.4475 67.7355 44.4475Z" stroke="black" stroke-miterlimit="10"/>
<path d="M60.1479 42.4043C60.1479 42.4043 61.1629 43.5689 62.2089 42.4043" stroke="black" stroke-miterlimit="10"/>
<path d="M66.7046 42.4043C66.7046 42.4043 67.7209 43.5689 68.7656 42.4043" stroke="black" stroke-miterlimit="10"/>
<path d="M63.7231 42.1502C63.7231 42.1502 64.2947 41.2201 65.214 41.9278" stroke="black" stroke-miterlimit="10"/>
<path d="M62.5636 38.4118C62.5636 38.4118 59.9473 36.4115 57.7515 38.2986" stroke="black" stroke-miterlimit="10"/>
<path d="M70.2176 37.3624C70.2176 37.3624 67.1106 36.2773 65.6104 38.7467" stroke="black" stroke-miterlimit="10"/>
<path d="M59.3474 48.2115C59.3413 48.6303 59.2038 49.0365 58.9542 49.3727C58.7044 49.709 58.3554 49.9583 57.9563 50.0851C56.665 50.4679 55.2982 49.4974 54.7388 48.3786C54.5342 47.9922 54.4406 47.5566 54.4684 47.1203C54.4963 46.684 54.6445 46.2638 54.8965 45.9065C54.9192 45.8706 54.9341 45.8305 54.9407 45.7886C54.9473 45.7468 54.9453 45.7039 54.9349 45.6628C54.9244 45.6217 54.9057 45.5831 54.8799 45.5496C54.8541 45.5159 54.8217 45.4878 54.7846 45.4671C54.5336 45.3164 54.3261 45.1031 54.1822 44.8482C54.0383 44.5933 53.9631 44.3054 53.9637 44.0126C53.964 43.8893 53.9776 43.7665 54.0042 43.646C54.0124 43.6021 54.0115 43.5569 54.0012 43.5134C53.9911 43.4697 53.972 43.4287 53.945 43.393C53.9182 43.3573 53.8841 43.3275 53.8451 43.3057C53.8062 43.2837 53.7629 43.2702 53.7184 43.2659C53.5866 43.2544 53.4558 43.2323 53.3275 43.1998C52.9679 43.0723 52.6432 42.8625 52.3791 42.5869C52.1152 42.3114 51.9192 41.9781 51.807 41.6133C51.2679 39.8489 52.6306 37.9645 54.3277 37.5399C53.8209 36.6502 53.1509 35.9331 52.8733 34.9006C52.5956 33.8681 52.7587 32.8005 53.5472 32.0309C54.7671 30.8366 56.8362 31.2086 57.8215 32.5188C57.157 31.524 57.4064 30.1707 58.1518 29.2959C59.0508 28.2445 60.8193 28.0154 62.0527 28.5505C62.6417 28.8093 63.0192 29.3444 63.4209 29.8175C64.2296 27.5463 67.404 27.5261 69.0822 28.723C69.9624 29.3485 70.5366 30.4875 70.2495 31.524C70.1012 32.0511 70.3735 32.3665 70.9235 32.1225C71.4977 31.8691 71.9708 31.5483 72.6353 31.6197C74.9403 31.8637 76.5754 35.0192 74.8446 36.8322C74.6626 37.0236 74.2556 37.2244 74.1706 37.4819C73.9738 38.0319 75.1991 38.1653 75.5186 38.3041C78.3775 39.5052 77.7508 45.3956 74.2461 45.5142C74.3513 46.017 74.5912 46.571 74.5521 47.0873C74.4753 48.1832 73.7016 48.7749 72.6488 48.8086C72.7257 49.3019 72.4197 49.8128 71.9749 50.0474C71.4114 50.3479 70.4921 50.2765 70.0621 49.7562C69.3882 48.934 70.0824 47.857 70.4261 47.0738C70.9329 45.9254 71.1809 44.688 71.4114 43.4586C71.6213 42.4406 71.7565 41.4084 71.8158 40.3705V40.3274" stroke="black" stroke-miterlimit="10"/>
<path d="M31.8709 14.1577L30.8438 18.1597H30.8721L31.2212 17.2471L38.531 11.5952L39.2724 8.68369L31.8709 14.1577ZM34.533 5.81124C34.3456 5.9109 34.181 6.04875 34.0501 6.21589C33.9191 6.38304 33.8247 6.57579 33.7728 6.78176L32.2658 12.6426L39.7293 6.87611L40.8576 2.44141L34.533 5.81124ZM35.7893 8.10273C35.699 8.56238 35.4173 8.89667 35.1585 8.84814C34.8997 8.79962 34.7662 8.38041 34.8619 7.91672C34.9576 7.45303 35.2353 7.11739 35.4941 7.16996C35.7529 7.22253 35.881 7.63096 35.7893 8.09465V8.10273ZM32.0151 17.8618L32.2308 17.8038C32.3161 17.768 32.4079 17.75 32.5004 17.7513C32.6025 17.7517 32.7032 17.775 32.7952 17.8193C32.8871 17.8638 32.968 17.9282 33.0317 18.008C33.0955 18.0878 33.1405 18.1808 33.1635 18.2803C33.1866 18.3798 33.187 18.4832 33.1649 18.5829L31.9315 23.4692L35.7853 22.4178L38.0849 13.3597L32.0151 17.8618Z" fill="#D7E8F0"/>
<path d="M29.6851 65.2351C30.2108 61.1482 30.4561 56.9804 30.9696 52.8624L31.0532 52.2181C31.1974 51.1047 31.3673 49.9913 31.5749 48.8901C31.5817 48.837 31.5917 48.7843 31.6045 48.7324C31.7231 48.08 31.8539 47.433 32.0089 46.7846C32.4497 44.8449 33.5685 43.4255 34.6603 41.8458L34.729 41.6759C37.0891 38.24 38.3961 34.1904 38.4898 30.023C38.5154 28.516 38.4561 25.5371 36.728 24.9197C35.7575 24.572 34.729 25.25 34.1912 26.025C33.9665 26.3442 33.7852 26.6919 33.652 27.0589" stroke="black" stroke-miterlimit="10"/>
<path d="M21.0261 45.0859C19.3088 51.2393 16.4498 57.0354 15.044 63.2736C13.754 68.9875 13.3658 77.3029 18.7791 81.1365C23.5359 84.5063 30.4549 83.676 35.7712 82.39C37.3187 82.0221 38.8422 81.5588 40.3326 81.003C41.481 80.5771 42.5567 80.0177 43.6795 79.5594C43.6795 79.5594 41.6185 100.086 44.4883 115.807" stroke="black" stroke-miterlimit="10"/>
<path d="M21.0271 45.0853L21.3115 44.0636C21.6901 42.7085 21.5989 41.2653 21.0527 39.9686L20.4893 38.6206C20.1213 37.4991 20.0067 36.9559 20.4677 35.8587C20.6867 35.3414 20.9937 34.8657 21.3748 34.4528C22.4882 33.2248 24.0559 32.6142 25.6694 32.4066C27.2828 32.1991 29.0675 32.3608 30.3669 33.4068C31.2485 34.1185 32.0788 35.8088 31.5073 36.9114C31.0881 37.7202 30.2025 37.9494 29.4476 37.6609C29.1837 37.5629 28.9461 37.4052 28.7534 37.1999C27.8638 36.2671 25.9228 36.0771 25.2569 36.9829" stroke="black" stroke-miterlimit="10"/>
<path d="M21.7471 31.5946C21.6123 31.0743 21.6325 30.4165 21.9426 29.5727C22.3874 28.3663 23.6827 27.5737 24.9458 27.0534C25.4068 26.862 25.8651 26.7056 26.2708 26.583C27.6484 26.1584 29.1594 25.9346 30.6219 26.0829C31.1163 26.1315 31.6055 26.225 32.0831 26.3619C32.6337 26.5215 33.1605 26.754 33.6494 27.0534C34.8625 27.7934 35.6713 28.9203 36.166 30.399C36.5933 31.6741 36.7591 33.1906 35.6996 33.9872" stroke="black" stroke-miterlimit="10"/>
<path d="M31.6852 35.9016L32.0613 36.6524C32.5318 37.1686 33.1842 37.4948 34.0832 37.2711C35.8355 36.8343 36.0108 35.384 35.7007 33.9929C35.6484 33.7406 35.5809 33.4917 35.4986 33.2475C35.0942 32.0222 34.4512 31.0355 33.5616 30.3157C32.9289 29.8044 32.1981 29.4282 31.4143 29.2104C30.7771 29.0261 30.1199 28.9207 29.4571 28.8963C28.1512 28.8551 26.8478 29.0375 25.6034 29.4355C24.3579 29.817 22.6554 30.4734 21.7483 31.6003C21.5451 31.8474 21.3849 32.1267 21.2738 32.4266C20.9948 33.1841 20.9476 33.7988 21.046 34.2948L21.1336 34.745" stroke="black" stroke-miterlimit="10"/>
<path d="M27 29.0894V29.084" stroke="black" stroke-miterlimit="10"/>
<path d="M46.5866 117.396C46.5755 117.801 46.407 118.186 46.1167 118.469C45.8267 118.752 45.4378 118.911 45.0325 118.912H31.8712C31.5755 118.913 31.2862 118.826 31.0396 118.663C31.0494 118.259 31.2167 117.875 31.5058 117.592C31.7948 117.309 32.1827 117.151 32.587 117.15H45.755C46.0496 117.153 46.3377 117.238 46.5866 117.396Z" fill="#D7E8F0"/>
<path d="M46.5866 117.396C46.5755 117.801 46.407 118.186 46.1167 118.469C45.8267 118.752 45.4378 118.911 45.0325 118.912H31.8712C31.5755 118.913 31.2862 118.826 31.0396 118.663C31.0494 118.259 31.2167 117.875 31.5058 117.592C31.7948 117.309 32.1827 117.151 32.587 117.15H45.755C46.0496 117.153 46.3377 117.238 46.5866 117.396Z" fill="#D7E8F0"/>
<path d="M30.8481 18.1633L33.7745 6.77997C33.828 6.57468 33.9235 6.38274 34.0547 6.21627C34.186 6.04964 34.3503 5.91207 34.5374 5.81213L43.5686 1L38.2847 21.734L31.9157 23.4701" stroke="black" stroke-miterlimit="10"/>
<path d="M28.5417 37.008V37.0121L28.1185 38.6983L24.8228 38.7064L25.2541 36.9865L25.2595 36.9824" stroke="black" stroke-linecap="round" stroke-linejoin="round"/>
<path d="M27.9824 26.1863L29.9477 18.4006L32.2311 17.7994C32.3141 17.7634 32.4035 17.7447 32.494 17.7441C32.5963 17.7448 32.697 17.7685 32.7889 17.8133C32.8808 17.858 32.9616 17.9227 33.0253 18.0027C33.0889 18.0827 33.134 18.1759 33.157 18.2755C33.1801 18.3751 33.1806 18.4786 33.1585 18.5785L31.2566 26.1782" stroke="black" stroke-linecap="round" stroke-linejoin="round"/>
<path d="M33.5697 24.1172L32.9429 26.6796" stroke="black" stroke-linecap="round" stroke-linejoin="round"/>
<path d="M30.2284 37.7734L29.5801 40.4208" stroke="black" stroke-linecap="round" stroke-linejoin="round"/>
<path d="M28.1185 38.7012L29.5796 40.4238H26.3311L24.8228 38.7093L28.1185 38.7012Z" stroke="black" stroke-linecap="round" stroke-linejoin="round"/>
<path d="M35.7937 8.09591C35.8859 7.63303 35.7529 7.21638 35.4965 7.16529C35.2403 7.11434 34.9579 7.44822 34.8657 7.9111C34.7735 8.37399 34.9065 8.79063 35.1629 8.84158C35.4191 8.89267 35.7015 8.55879 35.7937 8.09591Z" fill="black"/>
<path d="M46.6567 110.252C46.657 111.966 47.1656 113.642 48.1183 115.068C49.071 116.493 50.4249 117.604 52.009 118.26C53.5929 118.916 55.3358 119.087 57.0172 118.752C58.6988 118.418 60.2433 117.592 61.4555 116.38C62.6675 115.167 63.493 113.623 63.8274 111.941C64.1618 110.26 63.9901 108.517 63.3339 106.933C62.6778 105.349 61.5667 103.995 60.1412 103.043C58.7156 102.09 57.0398 101.582 55.3253 101.582C54.1867 101.582 53.0593 101.806 52.0072 102.241C50.9553 102.677 49.9995 103.316 49.1945 104.121C48.3894 104.926 47.7509 105.882 47.3155 106.934C46.8801 107.986 46.6562 109.113 46.6567 110.252Z" stroke="black" stroke-miterlimit="10"/>
<path d="M31.8713 118.918H45.0326C45.8924 118.918 46.5894 118.221 46.5894 117.362C46.5894 116.502 45.8924 115.805 45.0326 115.805H31.8713C31.0115 115.805 30.3145 116.502 30.3145 117.362C30.3145 118.221 31.0115 118.918 31.8713 118.918Z" stroke="black" stroke-miterlimit="10"/>
<path d="M29.6851 63.3353C32.0035 62.9201 34.26 62.2569 36.4975 61.5425C38.5976 60.8685 40.6869 60.1514 42.8005 59.5341C45.3103 58.8075 47.8391 58.1295 50.3974 57.5742C51.6982 57.2925 53.0084 57.0431 54.3226 56.8476C54.5235 56.8193 54.727 56.7897 54.9251 56.7668C55.3983 56.7034 55.8768 56.6468 56.3553 56.5942C56.8338 56.5417 57.3393 56.4985 57.838 56.4406C57.8965 56.4313 57.9561 56.4313 58.0146 56.4406C58.0466 56.4426 58.0773 56.4527 58.104 56.4702C58.1308 56.4877 58.1524 56.5119 58.1669 56.5403C58.1783 56.5743 58.1847 56.6097 58.1858 56.6455C58.2775 58.5784 59.5337 60.2458 61.1607 61.2177C63.4117 62.5656 66.5821 62.5319 68.8871 61.3026C70.541 60.4183 71.378 58.7213 71.3012 56.88C80.912 58.0716 91.8518 61.7811 98.5295 69.0195L98.5578 69.0492C100.4 71.032 101.886 73.3174 102.952 75.805C106.052 83.1485 104.587 92.2619 98.0362 97.2372C94.6946 99.7767 90.6643 101.416 86.5464 102.611C83.6443 103.463 79.8296 103.874 77.3804 105.744" stroke="black" stroke-miterlimit="10"/>
<path d="M68.9408 109.858C68.9026 109.85 68.8603 109.836 68.8208 109.824" stroke="black" stroke-miterlimit="10"/>
<path d="M82.1105 75.043C84.5125 76.496 86.0303 79.9158 86.7515 82.5119C87.7678 86.1688 85.7904 89.3324 83.1349 91.6873C81.8315 92.8451 80.3878 93.8089 78.9725 94.8185C76.3939 96.6625 73.7614 98.373 70.8269 99.5956C70.3943 99.7762 69.9333 99.7102 69.479 99.6226C68.9048 99.5147 68.3467 99.3301 67.7658 99.2613C67.1188 99.1858 66.5675 99.4123 66.0135 99.7385C65.1823 100.233 64.4224 100.839 63.7543 101.538L55.3257 101.582C57.6247 101.582 59.8297 102.496 61.4553 104.121C63.0809 105.747 63.9943 107.952 63.9943 110.251C63.9943 112.55 63.0809 114.755 61.4553 116.381C59.8297 118.006 57.6247 118.92 55.3257 118.92H71.7381C73.3619 118.92 74.953 118.463 76.33 117.603C77.7072 116.743 78.8149 115.513 79.5272 114.054C80.2393 112.595 80.5274 110.965 80.3582 109.35C80.1892 107.735 79.5698 106.2 78.5708 104.92" stroke="black" stroke-miterlimit="10"/>
<path d="M57.6491 110.401C57.6495 110.712 57.5884 111.021 57.4694 111.308C57.3505 111.596 57.1759 111.857 56.9558 112.078C56.7358 112.298 56.4745 112.473 56.1867 112.592C55.899 112.711 55.5908 112.772 55.2794 112.772C54.6605 112.757 54.0719 112.501 53.6395 112.058C53.2069 111.615 52.9648 111.021 52.9648 110.402C52.9648 109.782 53.2069 109.188 53.6395 108.745C54.0719 108.302 54.6605 108.046 55.2794 108.031C55.5906 108.031 55.8989 108.092 56.1864 108.211C56.4741 108.33 56.7353 108.505 56.9554 108.725C57.1755 108.945 57.3499 109.206 57.469 109.494C57.588 109.781 57.6492 110.09 57.6491 110.401Z" fill="#D7E8F0"/>
<path d="M75.3517 106.489C75.488 106.914 75.5496 107.36 75.5337 107.806C75.5264 108.262 75.4566 108.716 75.3261 109.154C75.283 109.302 75.2372 109.446 75.1913 109.586C75.1698 109.642 75.1495 109.692 75.128 109.743C74.9978 110.022 74.8971 110.315 74.8274 110.615C74.7721 110.946 74.8395 111.259 75.2318 111.407C75.4395 111.472 75.6587 111.489 75.8739 111.459C76.089 111.429 76.295 111.352 76.4773 111.234C78.181 110.01 77.96 107.647 77.3925 105.745C77.2658 105.32 77.1229 104.918 76.9733 104.559" stroke="black" stroke-miterlimit="10"/>
<path d="M74.8704 110.392C74.6412 110.985 74.1964 111.74 73.6573 112.082C73.6573 112.082 73.6492 112.082 73.6451 112.091C73.4045 112.229 73.1363 112.314 72.8595 112.337C72.5827 112.36 72.3042 112.322 72.0438 112.225C71.328 111.905 71.5302 111.193 71.7971 110.596C71.882 110.412 71.9669 110.244 72.0397 110.1C72.6315 108.862 72.7528 107.607 72.6126 106.176" stroke="black" stroke-miterlimit="10"/>
<path d="M71.8026 110.594C71.6597 110.948 71.068 111.833 70.487 112.151C70.053 112.389 69.4262 112.376 69.0353 112.059C68.2791 111.45 68.7023 110.342 69.0474 109.626C69.6432 108.389 69.937 106.851 69.5758 105.5" stroke="black" stroke-miterlimit="10"/>
<path d="M63.7646 101.539C64.8646 101.539 65.579 101.575 65.9213 101.602C66.0765 101.612 66.2285 101.65 66.3702 101.714C68.8329 102.902 66.9202 107.327 66.3972 108.411C66.1276 108.978 65.765 110.237 66.6007 110.613C66.8362 110.7 67.0876 110.734 67.3376 110.714C67.5877 110.693 67.8302 110.619 68.0484 110.495C68.5233 110.195 68.9175 109.784 69.1968 109.296C69.1968 109.296 69.1968 109.288 69.2049 109.279" stroke="black" stroke-miterlimit="10"/>
<path d="M89.8746 101.291C90.0404 106.975 89.9096 113.037 89.2505 118.972" stroke="black" stroke-miterlimit="10"/>
<path d="M21.7456 118.918H107.449" stroke="black" stroke-miterlimit="10"/>
<path d="M65.5332 48.3199C65.5332 48.3199 66.9175 48.4547 67.8746 46.8574" stroke="black" stroke-miterlimit="10"/>
<path d="M58.6401 27.0742C58.6401 27.0998 69.3266 27.329 69.3266 27.329L68.813 32.3285C68.813 32.3285 68.3277 32.9782 66.2263 33.6265C64.1249 34.2749 60.104 34.686 59.3653 31.9996C58.9215 30.3939 58.6779 28.7396 58.6401 27.0742Z" fill="white"/>
<path d="M68.5918 24.218C71.8713 23.1842 74.4149 19.6957 72.5979 16.3394C70.9709 13.3335 67.1293 12.6002 64.9254 15.4524C64.9254 15.4524 62.5355 10.9894 58.551 12.7417C56.8688 13.4831 55.5451 15.2529 55.0639 17.0012C54.1339 20.3791 56.3755 22.9995 59.5121 23.8541C59.5121 23.8541 62.5679 24.6952 64.0681 22.6234C64.0681 22.6234 64.7718 23.4902 66.6845 23.8541" stroke="black" stroke-miterlimit="10"/>
<path d="M58.0869 23.3086L59.3728 32.0567C59.4013 32.2617 59.4723 32.4586 59.5814 32.6346C59.6906 32.8106 59.8353 32.9617 60.0064 33.0784C61.0497 33.7726 63.6148 34.8577 67.9592 33.011C68.2077 32.9045 68.4234 32.7336 68.5837 32.5158C68.7438 32.298 68.8429 32.0412 68.8704 31.7723L69.6926 23.7628" stroke="black" stroke-miterlimit="10"/>
<path d="M74.7359 110.991C74.7116 110.499 75.1174 109.748 75.1174 109.748C75.0527 110.179 74.9241 110.598 74.7359 110.991Z" fill="#2E2E2E"/>
<path d="M85.689 79.5918L86.1432 79.8978L85.8318 79.8681C85.7415 79.6875 85.689 79.5918 85.689 79.5918Z" fill="#2E2E2E"/>
<path d="M66.6009 110.614C66.0752 110.46 65.9889 109.953 66.1332 109.236C66.0658 109.829 66.1803 110.298 66.6009 110.614Z" fill="black"/>
<path d="M66.3867 101.727C66.5707 101.825 66.7411 101.947 66.8935 102.089C66.7116 101.946 66.5296 101.832 66.3867 101.727Z" fill="black"/>
<path d="M67.4863 105.19C67.5979 104.839 67.6715 104.478 67.706 104.111C67.6878 104.48 67.6138 104.843 67.4863 105.19Z" fill="black"/>
<path d="M68.4703 110.425C68.2764 110.518 68.073 110.59 67.8638 110.64C68.1307 110.498 68.3409 110.339 68.4703 110.425Z" fill="black"/>
<path d="M68.6186 110.989C68.6334 111.505 68.7911 111.854 69.0351 112.055C68.504 111.802 68.4959 111.299 68.6091 110.869C68.6151 110.909 68.6183 110.949 68.6186 110.989Z" fill="black"/>
<path d="M70.8992 111.839C71.0287 111.729 71.1833 111.652 71.3495 111.615C71.1314 111.767 70.8988 111.896 70.6553 112.002C70.7398 111.953 70.8213 111.898 70.8992 111.839Z" fill="black"/>
<path d="M72.3673 112.312C71.8848 112.352 71.789 112.07 71.7607 111.816C71.9225 112.028 72.0519 112.312 72.3673 112.312Z" fill="black"/>
<path d="M74.5175 111.344C74.4428 111.454 74.3567 111.556 74.2607 111.649C74.3101 111.522 74.4004 111.414 74.5175 111.344Z" fill="black"/>
<path d="M74.916 111.344C75.0021 111.364 75.1015 111.387 75.2212 111.411C75.1147 111.426 75.0064 111.402 74.916 111.344Z" fill="black"/>
<path d="M78.6123 105.137C78.2201 105.325 77.8992 105.483 77.689 105.588C77.713 105.534 77.7511 105.487 77.7995 105.453C78.0192 105.319 78.2915 105.081 78.6123 105.137Z" fill="black"/>
<path d="M71.5544 111.042C71.5504 111.105 71.5344 111.167 71.5074 111.224C71.5006 110.984 71.5598 110.851 71.5544 111.042Z" fill="#D7E8F0"/>
<path d="M9.89987 40.2355L2.21664 40.8568C2.06909 40.8687 1.92066 40.8513 1.77984 40.8058C1.63901 40.7602 1.50854 40.6873 1.39589 40.5913C1.28323 40.4953 1.19059 40.3781 1.12327 40.2462C1.05594 40.1144 1.01524 39.9706 1.0035 39.823C0.980015 39.5254 1.07552 39.2306 1.26905 39.0032C1.4626 38.7756 1.7384 38.6342 2.03601 38.6098L10.2126 37.9453" stroke="#CCDDE2" stroke-miterlimit="10"/>
<path d="M11.0967 37.877H11.0913" stroke="#CCDDE2" stroke-miterlimit="10"/>
<path d="M42.8257 38.2666C43.9326 38.2666 44.8301 37.3693 44.8301 36.2622C44.8301 35.1553 43.9326 34.2578 42.8257 34.2578C41.7187 34.2578 40.8213 35.1553 40.8213 36.2622C40.8213 37.3693 41.7187 38.2666 42.8257 38.2666Z" stroke="#CCDDE2" stroke-miterlimit="10"/>
<path d="M110.333 118.642V79.8984H120.14C120.912 82.25 121.463 84.6689 121.784 87.1234C123.29 98.8275 122.233 116.256 110.333 118.642Z" stroke="#CCDDE2" stroke-miterlimit="10"/>
<path d="M110.333 92.2656H122.283" stroke="#CCDDE2" stroke-miterlimit="10"/>
<path d="M110.333 103.66H121.657" stroke="#CCDDE2" stroke-miterlimit="10"/>
</svg>
