<svg width="143" height="139" viewBox="0 0 143 139" fill="none" xmlns="http://www.w3.org/2000/svg">
<mask id="mask0_157_4511" style="mask-type:luminance" maskUnits="userSpaceOnUse" x="0" y="0" width="143" height="139">
<path d="M142.911 0H0V139H142.911V0Z" fill="white"/>
</mask>
<g mask="url(#mask0_157_4511)">
<path d="M8.96316 31.584L8.25146 33.5119" stroke="#DEBFFF" stroke-miterlimit="10"/>
<path d="M6.8996 37.1699L2.33789 49.5187" stroke="#DEBFFF" stroke-miterlimit="10" stroke-dasharray="25.64 27.97 27.97 25.64"/>
<path d="M1.71759 51.1953L-29.2012 134.884" stroke="#DEBFFF" stroke-miterlimit="10" stroke-dasharray="27.97 27.97 25.64 27.97 27.97 25.64"/>
<path d="M7.60001 19.5859L6.87402 21.5111" stroke="#DEBFFF" stroke-miterlimit="10"/>
<path d="M5.4191 25.373L0.504395 38.4154" stroke="#DEBFFF" stroke-miterlimit="10" stroke-dasharray="27.14 29.61 29.61 27.14"/>
<path d="M-0.162927 40.1895L-33.4697 128.585" stroke="#DEBFFF" stroke-miterlimit="10" stroke-dasharray="29.61 29.61 27.14 29.61 29.61 27.14"/>
<path d="M6.23523 7.58789L5.50781 9.51165" stroke="#DEBFFF" stroke-miterlimit="10"/>
<path d="M3.95 13.6348L-1.31055 27.5459" stroke="#DEBFFF" stroke-miterlimit="10" stroke-dasharray="28.96 31.6 31.6 28.96"/>
<path d="M2.69375 1.42383L-2.23096 14.6107" stroke="#DEBFFF" stroke-miterlimit="10" stroke-dasharray="27.41 29.9 29.9 27.41"/>
<path d="M69.1886 78.3012C69.1515 78.3818 69.12 78.4624 69.0843 78.5472C66.369 84.9649 64.4811 92.653 64.041 101.849C56.5124 83.9126 44.0163 75.2293 32.8936 71.0593C33.0922 65.0656 33.9497 54.642 37.451 48.2383C37.451 48.2383 43.3746 49.5852 50.8303 55.2675C56.7125 59.7489 63.5551 66.9379 69.1886 78.3012Z" fill="#BE9FFD"/>
<path d="M70.2993 78.2042L70.0464 78.1486C70.0821 78.0625 70.1136 77.9804 70.1493 77.8984C70.1993 77.9985 70.2493 78.1042 70.2993 78.2042Z" fill="#BE9FFD"/>
<path d="M70.2993 78.2042L70.0464 78.1486C70.0821 78.0625 70.1136 77.9804 70.1493 77.8984C70.1993 77.9985 70.2493 78.1042 70.2993 78.2042Z" fill="#BE9FFD"/>
<path d="M65.4305 119.377C65.359 119.377 65.2875 119.377 65.2147 119.377C37.1227 119.377 13.8525 98.6659 9.68235 71.6207C9.39653 69.3119 9.35938 67.9344 9.35938 67.9344C9.35938 67.9344 19.4932 66.935 31.249 71.4331C41.6715 75.4238 53.3688 83.7318 60.4186 100.901V100.914C60.4614 101.015 60.5043 101.118 60.5415 101.225C62.6494 106.418 64.3257 112.419 65.4219 119.344C65.4262 119.351 65.4305 119.364 65.4305 119.377Z" fill="#BE9FFD"/>
<path d="M130.822 68.7617C128.137 99.4029 102.584 123.458 71.4224 123.581C71.4409 122.191 71.8883 106.461 81.6476 92.2027C86.0126 85.7691 91.8745 80.4262 98.7583 76.6069C98.9541 76.4985 99.1442 76.3942 99.3429 76.2886C99.5829 76.1496 99.8273 76.03 100.072 75.9021C100.135 75.866 100.203 75.834 100.272 75.7979C100.51 75.6756 100.751 75.5519 100.995 75.4337C101.122 75.3698 101.249 75.3072 101.379 75.2475C101.642 75.1085 101.91 74.9875 102.177 74.8652C102.444 74.7429 102.68 74.6331 102.933 74.5191C102.964 74.5066 102.991 74.4927 103.023 74.4788C103.213 74.3926 103.403 74.3106 103.594 74.2286C103.833 74.1202 104.073 74.0187 104.318 73.92C105.032 73.6198 105.762 73.332 106.51 73.0596L106.767 72.9637C107.084 72.8455 107.4 72.7329 107.722 72.6231C114.2 70.3894 121.831 68.9799 130.822 68.7617Z" fill="#BE9FFD"/>
<path d="M88.4151 54.5484C82.0513 59.2369 74.8801 66.6275 70.1497 77.9004C64.5276 66.312 57.6979 58.9811 51.8257 54.4094C55.2941 48.1197 63.1514 35.3442 70.2998 29.3672C70.2998 29.3644 81.1138 39.7616 88.4151 54.5484Z" fill="#BE9FFD"/>
<path d="M107.094 71.4276C106.779 71.5347 106.468 71.6459 106.157 71.7612L105.904 71.8558C105.171 72.1226 104.452 72.4048 103.76 72.6981C103.52 72.7968 103.286 72.8955 103.046 73.0025C102.856 73.0831 102.668 73.1624 102.483 73.2472L102.393 73.2875C102.144 73.3987 101.895 73.5113 101.652 73.6266C101.409 73.742 101.128 73.8727 100.871 74.0019C100.742 74.0589 100.618 74.1215 100.493 74.184C100.253 74.3008 100.017 74.4203 99.7788 74.5412C99.7116 74.5774 99.6445 74.608 99.583 74.6441C99.3429 74.7692 99.1028 74.8943 98.8684 75.0236C98.6727 75.125 98.4854 75.2279 98.2968 75.3349C91.5441 79.0807 85.7941 84.3218 81.5134 90.6333C71.9383 104.619 71.501 120.046 71.4839 121.412L71.461 121.372C70.3177 114.131 68.5613 107.858 66.3591 102.429L66.532 101.873L66.2305 102.101C66.2305 102.101 66.2305 102.101 66.2305 102.091C66.6592 92.892 68.517 85.2012 71.168 78.7807L71.4167 78.835C71.3681 78.7363 71.3195 78.6334 71.2738 78.5361C75.9055 67.4828 82.9396 60.234 89.1762 55.6345C96.5333 50.2135 102.808 48.4648 102.808 48.4648C106.17 52.4889 106.934 64.7973 107.094 71.4276Z" fill="#BE9FFD"/>
<path d="M64.7183 103.449V103.434C64.7183 103.434 64.7183 103.445 64.7183 103.449Z" stroke="#DEBFFF" stroke-miterlimit="10"/>
<path d="M70.1477 78.0383C70.1091 78.1245 70.0763 78.2107 70.0377 78.3024C67.1795 85.226 65.1787 93.5202 64.7128 103.441C56.7641 84.0946 43.5763 74.7232 31.8262 70.2252C32.0363 63.7589 32.9423 52.5152 36.638 45.6055C36.638 45.6055 42.8918 47.058 50.7647 53.1879C56.9742 58.0237 64.2012 65.7785 70.1477 78.0383Z" stroke="#DEBFFF" stroke-miterlimit="10"/>
<path d="M70.3121 78.3635L70.0435 78.3051C70.082 78.2134 70.1149 78.1272 70.1535 78.041C70.2007 78.1467 70.2535 78.2592 70.3121 78.3635Z" stroke="#DEBFFF" stroke-miterlimit="10"/>
<path d="M64.7183 103.449V103.434C64.7183 103.434 64.7183 103.445 64.7183 103.449Z" stroke="#DEBFFF" stroke-miterlimit="10"/>
<path d="M70.3121 78.3635L70.0435 78.3051C70.082 78.2134 70.1149 78.1272 70.1535 78.041C70.2007 78.1467 70.2535 78.2592 70.3121 78.3635Z" stroke="#DEBFFF" stroke-miterlimit="10"/>
<path opacity="0.9" d="M21.7007 101.421C21.1819 100.805 20.6717 100.17 20.1815 99.5347C13.5765 90.988 9.22566 80.9972 7.5096 70.4364C7.08802 67.8482 7.14518 66.2803 7.14518 66.2803C7.14518 66.2803 18.5666 65.1544 31.823 70.2251C43.5717 74.7232 56.7595 84.0918 64.7082 103.446V103.46C64.7583 103.575 64.8083 103.691 64.8512 103.81C67.2306 109.666 69.1199 116.43 70.3575 124.243C70.3575 124.257 70.3575 124.272 70.3575 124.286C70.2732 124.286 70.1946 124.286 70.1103 124.286C53.7127 124.261 38.7642 117.91 27.5014 107.524C26.3238 106.442 25.1805 105.31 24.0873 104.141" stroke="#DEBFFF" stroke-miterlimit="10"/>
<path d="M64.7183 103.449V103.434C64.7183 103.434 64.7183 103.445 64.7183 103.449Z" stroke="#DEBFFF" stroke-miterlimit="10"/>
<path opacity="0.9" d="M133.216 66.2852C130.376 98.6972 103.348 124.144 70.3823 124.275C70.4023 122.801 70.8754 106.164 81.1992 91.0814C85.8164 84.2751 92.0177 78.6231 99.3003 74.5835C99.5061 74.4681 99.7076 74.3583 99.9177 74.2471C100.172 74.1081 100.431 73.9691 100.688 73.8384C100.755 73.7995 100.831 73.7661 100.9 73.7272C101.154 73.5979 101.407 73.4673 101.666 73.3422C101.8 73.2755 101.934 73.2032 102.073 73.1462C102.35 73.0072 102.633 72.8682 102.916 72.7417C103.199 72.6152 103.448 72.4957 103.715 72.3761L103.811 72.333C104.012 72.2413 104.214 72.1551 104.419 72.0676C104.672 71.9522 104.927 71.8465 105.185 71.7409C105.937 71.4226 106.713 71.1196 107.503 70.8318L107.776 70.7304C108.111 70.6053 108.447 70.4848 108.785 70.369C115.634 68.0074 123.707 66.5159 133.216 66.2852Z" stroke="#DEBFFF" stroke-miterlimit="10"/>
<path d="M89.4692 53.3347C82.7367 58.2956 75.1524 66.1143 70.1476 78.0364C64.2011 65.7766 56.9741 58.0204 50.7646 53.1859C54.4317 46.532 62.7449 33.017 70.3063 26.6953C70.312 26.6953 81.7449 37.6944 89.4692 53.3347Z" stroke="#DEBFFF" stroke-miterlimit="10"/>
<path d="M26.071 88.7459C26.0729 88.7364 26.0729 88.7266 26.071 88.7169C26.071 88.7073 26.071 88.699 26.071 88.6797C26.0688 88.6643 26.0688 88.6484 26.071 88.6328C26.0744 88.6665 26.0805 88.6996 26.0895 88.7321C26.0876 88.7356 26.0849 88.7386 26.0818 88.7409C26.0786 88.7434 26.075 88.7451 26.071 88.7459Z" fill="white"/>
<path d="M26.1255 97.9837C25.8984 98.6947 25.6088 99.3854 25.2595 100.048C25.1609 100.235 25.0623 100.418 24.9536 100.604C24.5832 101.282 24.1276 101.912 23.5974 102.48C23.5031 102.451 23.4102 102.414 23.3259 102.379C23.3059 102.379 23.2916 102.365 23.2759 102.361C21.5609 101.634 20.2747 100.276 19.8932 98.7468C19.5516 97.3999 19.8574 95.9418 19.2001 94.6755C18.394 93.1173 16.2075 92.1401 15.936 90.3804C15.6887 88.7346 17.2122 87.2237 16.9649 85.6113C16.6791 83.789 14.3768 82.7062 13.9524 80.9256C13.6794 79.8136 13.9224 78.5445 13.8238 77.4033C13.7102 76.1288 13.4884 74.8656 13.1606 73.6267C13.3193 73.617 13.4765 73.6128 13.6351 73.6086C16.8749 73.5544 20.0661 75.3253 21.1151 77.8134C21.9597 79.8247 21.5295 82.1474 22.6528 84.0336C22.72 84.156 22.7958 84.2734 22.88 84.3853C23.0274 84.5831 23.1863 84.7724 23.3559 84.9524L23.7118 85.3138C23.7703 85.3708 23.8347 85.4236 23.8947 85.4862C23.9547 85.5487 24.0176 85.6029 24.0776 85.6655C24.6364 86.184 25.2052 86.7094 25.5767 87.3335C25.6099 87.3877 25.6395 87.4439 25.6653 87.5017C25.6998 87.5587 25.7294 87.6182 25.7539 87.6796C25.7858 87.7424 25.814 87.8069 25.8383 87.8728C25.8683 87.9451 25.8926 88.0215 25.9169 88.0938C25.9526 88.2092 25.9869 88.3204 26.0112 88.4358C26.0112 88.465 26.0112 88.4886 26.0212 88.5122C26.0312 88.5358 26.0212 88.5317 26.0212 88.5414C26.0233 88.551 26.0233 88.561 26.0212 88.5706C26.0212 88.5901 26.0212 88.604 26.0312 88.6179V88.6276C26.0319 88.6457 26.0353 88.6634 26.0412 88.6804C26.0412 88.6999 26.0412 88.7082 26.0412 88.7179C26.0431 88.7277 26.0431 88.7375 26.0412 88.7471V88.7569L25.6596 94.1264C25.9026 95.4233 26.5114 96.7188 26.1255 97.9837Z" fill="white"/>
<path d="M28.9993 84.951C29.2466 83.7862 29.2666 82.5644 29.8296 81.4524C30.8786 79.4035 33.9455 77.9162 37.1567 77.8203H37.2153C37.5011 77.8203 37.8041 77.8203 38.1013 77.8356C37.7692 78.9012 37.542 79.9948 37.4225 81.1021C37.3139 82.0876 37.5654 83.1871 37.2896 84.1379C36.8394 85.6766 34.44 86.6107 34.1456 88.1842C33.8883 89.5742 35.4761 90.8835 35.2145 92.3027C34.9287 93.822 32.6564 94.6657 31.8161 96.0112C31.1387 97.1038 31.4545 98.359 31.1016 99.5196C30.6914 100.841 29.3466 102.022 27.5602 102.642C27.4473 102.68 27.343 102.718 27.2287 102.751C27.1686 102.767 27.1001 102.79 27.04 102.806C27.02 102.79 27.0014 102.771 26.9757 102.751C26.4041 102.275 25.7581 101.471 25.2236 100.611L25.2636 100.063C25.6129 99.4006 25.9026 98.7101 26.1297 97.9989C26.5155 96.734 25.9067 95.4386 25.6838 94.1403L26.0654 88.7707L26.184 88.6748C26.2272 88.6437 26.2682 88.6098 26.3069 88.5734C26.8957 88.1119 27.5288 87.6699 27.9847 87.1444C28.5477 86.4995 28.8107 85.7934 28.985 85.0594" fill="white"/>
<path d="M28.9849 85.0284C28.9849 85.0036 28.9934 84.9801 28.999 84.9512L28.9849 85.0284Z" fill="white"/>
<path d="M28.9997 84.9461C28.9997 84.9753 28.9897 84.9989 28.9854 85.0239C28.8168 85.7648 28.5567 86.4709 27.985 87.1089C27.5291 87.6344 26.896 88.0819 26.3072 88.5379C26.2689 88.5747 26.2279 88.6086 26.1843 88.6393L26.0657 88.7408C26.0682 88.7345 26.0682 88.7276 26.0657 88.7213C26.0657 88.7019 26.0557 88.688 26.0514 88.6741C26.0491 88.6585 26.0491 88.6425 26.0514 88.6268V88.6171C26.0514 88.6032 26.0514 88.5893 26.0414 88.5698C26.0436 88.5602 26.0436 88.5504 26.0414 88.5406C26.0436 88.536 26.0446 88.5312 26.0446 88.526C26.0446 88.521 26.0436 88.516 26.0414 88.5115C26.0377 88.4857 26.0324 88.4602 26.0257 88.435C26.0014 88.3196 25.9671 88.2084 25.9314 88.0931C25.9071 88.0208 25.8828 87.9443 25.8528 87.872C25.8285 87.8062 25.8003 87.7417 25.7685 87.6788C25.7469 87.6162 25.7172 87.5564 25.6799 87.5009C25.654 87.4431 25.6244 87.3869 25.5913 87.3327C25.2197 86.7128 24.6509 86.1874 24.0921 85.6647C24.0321 85.6022 23.9678 85.5396 23.9092 85.4854C23.8506 85.4312 23.7849 85.3701 23.7263 85.3131L23.3704 84.9517C23.2008 84.7717 23.0419 84.5823 22.8945 84.3845C22.8945 84.3845 23.2418 78.8245 26.1643 77.144C28.9111 75.5441 28.9997 84.0078 28.9997 84.9461Z" fill="white"/>
<path d="M28.9849 85.0284C28.9849 85.0036 28.9934 84.9801 28.999 84.9512L28.9849 85.0284Z" fill="white"/>
<path d="M26.0652 88.7269V88.7518C26.067 88.7422 26.067 88.7325 26.0652 88.7228C26.0652 88.7132 26.0652 88.7049 26.0652 88.6856C26.0629 88.6701 26.0629 88.6543 26.0652 88.6387C26.0631 88.668 26.0631 88.6976 26.0652 88.7269Z" fill="white"/>
<path d="M35.9605 79.5996C30.6914 85.1151 28.2133 96.7425 27.2501 102.746C27.1715 103.252 27.1 103.719 27.0386 104.136" fill="white"/>
<path d="M36.4423 107.515L34.0128 121.426C33.9551 121.806 33.7607 122.155 33.464 122.409C33.1673 122.664 32.7876 122.808 32.3922 122.816H19.736C19.3363 122.807 18.9527 122.66 18.6549 122.4C18.3571 122.141 18.1647 121.786 18.1125 121.401L15.876 107.512L36.4423 107.515Z" fill="white"/>
<path d="M38.7503 105.961C38.7282 106.373 38.5468 106.762 38.2427 107.05C37.9386 107.338 37.534 107.504 37.1097 107.514H15.2558C14.8356 107.504 14.4345 107.342 14.1312 107.059C13.8278 106.776 13.6443 106.393 13.6166 105.985C13.5237 104.992 14.284 104.135 15.2558 104.135H37.1097C38.0701 104.136 38.8275 104.978 38.7503 105.961Z" fill="white"/>
<path d="M26.081 88.7551C26.0807 88.7242 26.0755 88.6934 26.0654 88.6641L26.081 88.7551Z" fill="white"/>
<path d="M15.2515 75.668C20.3091 82.062 22.6828 95.5283 23.6189 102.482C23.6989 103.086 23.7704 103.638 23.8261 104.132" fill="white"/>
<path d="M26.5256 82.459C25.8926 84.3549 25.8625 86.2704 25.9369 87.4824C25.9579 87.8741 26.0009 88.2645 26.0655 88.6516" fill="white"/>
<path d="M26.071 88.7459C26.0729 88.7364 26.0729 88.7266 26.071 88.7169C26.071 88.7073 26.071 88.699 26.071 88.6797C26.0688 88.6643 26.0688 88.6484 26.071 88.6328C26.0744 88.6665 26.0805 88.6996 26.0895 88.7321C26.0876 88.7356 26.0849 88.7386 26.0818 88.7409C26.0786 88.7434 26.075 88.7451 26.071 88.7459Z" stroke="#DEBFFF" stroke-miterlimit="10"/>
<path d="M26.1255 97.9837C25.8984 98.6947 25.6088 99.3854 25.2595 100.048C25.1609 100.235 25.0623 100.418 24.9536 100.604C24.5832 101.282 24.1276 101.912 23.5974 102.48C23.5031 102.451 23.4102 102.414 23.3259 102.379C23.3059 102.379 23.2916 102.365 23.2759 102.361C21.5609 101.634 20.2747 100.276 19.8932 98.7468C19.5516 97.3999 19.8574 95.9418 19.2001 94.6755C18.394 93.1173 16.2075 92.1401 15.936 90.3804C15.6887 88.7346 17.2122 87.2237 16.9649 85.6113C16.6791 83.789 14.3768 82.7062 13.9524 80.9256C13.6794 79.8136 13.9224 78.5445 13.8238 77.4033C13.7102 76.1288 13.4884 74.8656 13.1606 73.6267C13.3193 73.617 13.4765 73.6128 13.6351 73.6086C16.8749 73.5544 20.0661 75.3253 21.1151 77.8134C21.9597 79.8247 21.5295 82.1474 22.6528 84.0336C22.72 84.156 22.7958 84.2734 22.88 84.3853C23.0274 84.5831 23.1863 84.7724 23.3559 84.9524L23.7118 85.3138C23.7703 85.3708 23.8347 85.4236 23.8947 85.4862C23.9547 85.5487 24.0176 85.6029 24.0776 85.6655C24.6364 86.184 25.2052 86.7094 25.5767 87.3335C25.6099 87.3877 25.6395 87.4439 25.6653 87.5017C25.6998 87.5587 25.7294 87.6182 25.7539 87.6796C25.7858 87.7424 25.814 87.8069 25.8383 87.8728C25.8683 87.9451 25.8926 88.0215 25.9169 88.0938C25.9526 88.2092 25.9869 88.3204 26.0112 88.4358C26.0112 88.465 26.0112 88.4886 26.0212 88.5122C26.0312 88.5358 26.0212 88.5317 26.0212 88.5414C26.0233 88.551 26.0233 88.561 26.0212 88.5706C26.0212 88.5901 26.0212 88.604 26.0312 88.6179V88.6276C26.0319 88.6457 26.0353 88.6634 26.0412 88.6804C26.0412 88.6999 26.0412 88.7082 26.0412 88.7179C26.0431 88.7277 26.0431 88.7375 26.0412 88.7471V88.7569L25.6596 94.1264C25.9026 95.4233 26.5114 96.7188 26.1255 97.9837Z" stroke="#DEBFFF" stroke-miterlimit="10"/>
<path d="M28.9993 84.951C29.2466 83.7862 29.2666 82.5644 29.8296 81.4524C30.8786 79.4035 33.9455 77.9162 37.1567 77.8203H37.2153C37.5011 77.8203 37.8041 77.8203 38.1013 77.8356C37.7692 78.9012 37.542 79.9948 37.4225 81.1021C37.3139 82.0876 37.5654 83.1871 37.2896 84.1379C36.8394 85.6766 34.44 86.6107 34.1456 88.1842C33.8883 89.5742 35.4761 90.8835 35.2145 92.3027C34.9287 93.822 32.6564 94.6657 31.8161 96.0112C31.1387 97.1038 31.4545 98.359 31.1016 99.5196C30.6914 100.841 29.3466 102.022 27.5602 102.642C27.4473 102.68 27.343 102.718 27.2287 102.751C27.1686 102.767 27.1001 102.79 27.04 102.806C27.02 102.79 27.0014 102.771 26.9757 102.751C26.4041 102.275 25.7581 101.471 25.2236 100.611L25.2636 100.063C25.6129 99.4006 25.9026 98.7101 26.1297 97.9989C26.5155 96.734 25.9067 95.4386 25.6838 94.1403L26.0654 88.7707L26.184 88.6748C26.2272 88.6437 26.2682 88.6098 26.3069 88.5734C26.8957 88.1119 27.5288 87.6699 27.9847 87.1444C28.5477 86.4995 28.8107 85.7934 28.985 85.0594" stroke="#DEBFFF" stroke-miterlimit="10"/>
<path d="M28.9849 85.0284C28.9849 85.0036 28.9934 84.9801 28.999 84.9512" stroke="#DEBFFF" stroke-miterlimit="10"/>
<path d="M28.9997 84.9461C28.9997 84.9753 28.9897 84.9989 28.9854 85.0239C28.8168 85.7648 28.5567 86.4709 27.985 87.1089C27.5291 87.6344 26.896 88.0819 26.3072 88.5379C26.2689 88.5747 26.2279 88.6086 26.1843 88.6393L26.0657 88.7408C26.0682 88.7345 26.0682 88.7276 26.0657 88.7213C26.0657 88.7019 26.0557 88.688 26.0514 88.6741C26.0491 88.6585 26.0491 88.6425 26.0514 88.6268V88.6171C26.0514 88.6032 26.0514 88.5893 26.0414 88.5698C26.0436 88.5602 26.0436 88.5504 26.0414 88.5406C26.0436 88.536 26.0446 88.5312 26.0446 88.526C26.0446 88.521 26.0436 88.516 26.0414 88.5115C26.0377 88.4857 26.0324 88.4602 26.0257 88.435C26.0014 88.3196 25.9671 88.2084 25.9314 88.0931C25.9071 88.0208 25.8828 87.9443 25.8528 87.872C25.8285 87.8062 25.8003 87.7417 25.7685 87.6788C25.7469 87.6162 25.7172 87.5564 25.6799 87.5009C25.654 87.4431 25.6244 87.3869 25.5913 87.3327C25.2197 86.7128 24.6509 86.1874 24.0921 85.6647C24.0321 85.6022 23.9678 85.5396 23.9092 85.4854C23.8506 85.4312 23.7849 85.3701 23.7263 85.3131L23.3704 84.9517C23.2008 84.7717 23.0419 84.5823 22.8945 84.3845C22.8945 84.3845 23.2418 78.8245 26.1643 77.144C28.9111 75.5441 28.9997 84.0078 28.9997 84.9461Z" stroke="#DEBFFF" stroke-miterlimit="10"/>
<path d="M28.9849 85.0284C28.9849 85.0036 28.9934 84.9801 28.999 84.9512" stroke="#DEBFFF" stroke-miterlimit="10"/>
<path d="M26.0652 88.7269V88.7518C26.067 88.7422 26.067 88.7325 26.0652 88.7228C26.0652 88.7132 26.0652 88.7049 26.0652 88.6856C26.0629 88.6701 26.0629 88.6543 26.0652 88.6387C26.0631 88.668 26.0631 88.6976 26.0652 88.7269Z" stroke="#DEBFFF" stroke-miterlimit="10"/>
<path d="M35.9605 79.5996C30.6914 85.1151 28.2133 96.7425 27.2501 102.746C27.1715 103.252 27.1 103.719 27.0386 104.136" stroke="#DEBFFF" stroke-miterlimit="10"/>
<path d="M36.4423 107.515L34.0128 121.426C33.9551 121.806 33.7607 122.155 33.464 122.409C33.1673 122.664 32.7876 122.808 32.3922 122.816H19.736C19.3363 122.807 18.9527 122.66 18.6549 122.4C18.3571 122.141 18.1647 121.786 18.1125 121.401L15.876 107.512L36.4423 107.515Z" stroke="#DEBFFF" stroke-miterlimit="10"/>
<path d="M38.7503 105.961C38.7282 106.373 38.5468 106.762 38.2427 107.05C37.9386 107.338 37.534 107.504 37.1097 107.514H15.2558C14.8356 107.504 14.4345 107.342 14.1312 107.059C13.8278 106.776 13.6443 106.393 13.6166 105.985C13.5237 104.992 14.284 104.135 15.2558 104.135H37.1097C38.0701 104.136 38.8275 104.978 38.7503 105.961Z" stroke="#DEBFFF" stroke-miterlimit="10"/>
<path d="M26.081 88.7551C26.0807 88.7242 26.0755 88.6934 26.0654 88.6641L26.081 88.7551Z" stroke="#DEBFFF" stroke-miterlimit="10"/>
<path d="M15.2515 75.668C20.3091 82.062 22.6828 95.5283 23.6189 102.482C23.6989 103.086 23.7704 103.638 23.8261 104.132" stroke="#DEBFFF" stroke-miterlimit="10"/>
<path d="M26.5256 82.459C25.8926 84.3549 25.8625 86.2704 25.9369 87.4824C25.9579 87.8741 26.0009 88.2645 26.0655 88.6516" stroke="#DEBFFF" stroke-miterlimit="10"/>
<path d="M108.785 70.368C108.446 70.4838 108.109 70.6043 107.776 70.7294L107.503 70.8309C106.713 71.1186 105.931 71.4216 105.185 71.74C104.926 71.8456 104.672 71.9512 104.419 72.0666C104.213 72.1542 104.012 72.2404 103.81 72.3321L103.714 72.3752C103.447 72.4947 103.178 72.6156 102.915 72.7407C102.653 72.8658 102.344 73.0049 102.072 73.1452C101.929 73.2078 101.799 73.2745 101.665 73.3412C101.406 73.4663 101.153 73.597 100.899 73.7263C100.828 73.7652 100.756 73.7985 100.687 73.8375C100.43 73.9765 100.172 74.1071 99.9172 74.2461C99.7071 74.3573 99.5056 74.4671 99.2998 74.5825C92.0172 78.622 85.8159 84.2741 81.1987 91.0804C70.8749 106.163 70.4018 122.8 70.3818 124.274L70.359 124.229C69.1228 116.422 67.2321 109.656 64.8569 103.796L65.0427 103.2L64.7183 103.444C64.7183 103.444 64.7183 103.444 64.7183 103.435C65.1827 93.5143 67.1792 85.2257 70.0431 78.2966L70.3118 78.355C70.2589 78.2479 70.206 78.1381 70.1532 78.0325C75.155 66.1104 82.7422 58.2945 89.4747 53.3308C97.4091 47.4928 104.176 45.5996 104.176 45.5996C107.789 49.9447 108.612 63.2193 108.785 70.368Z" stroke="#DEBFFF" stroke-miterlimit="10"/>
<path d="M109.267 121.689C108.214 121.483 107.179 121.238 106.17 120.95C102.026 119.773 97.2055 117.76 95.5577 113.531C95.1444 112.438 95.0141 111.263 95.1783 110.11C95.3426 108.957 95.7964 107.861 96.4995 106.918C97.2462 105.914 98.2947 105.159 99.5006 104.757C102.123 103.933 105.024 105.217 106.969 107.12C108.914 109.023 110.166 111.466 111.685 113.7C110.309 110.699 108.91 107.613 108.72 104.332C108.577 101.774 109.291 99.0023 111.101 97.08C112.768 95.3119 116.674 93.926 118.969 95.2257C120.486 96.0833 121.089 97.907 121.35 99.5931C122.065 104.206 121.147 108.895 120.234 113.475C120.847 111.026 121.506 108.554 122.754 106.346C124.001 104.137 125.918 102.184 128.369 101.367C130.084 100.794 132.124 100.857 133.563 101.934C134.905 102.94 135.504 104.639 135.689 106.276C135.997 109.021 135.333 111.807 134.189 114.338C129.923 123.768 118.098 123.411 109.267 121.689Z" fill="white"/>
<path d="M118.889 117.021C118.889 117.021 125.463 118.798 127.784 109.91L118.889 117.021Z" fill="white"/>
<path d="M115.964 101.85C114.136 105.881 115.964 117.974 115.964 117.974V101.85Z" fill="white"/>
<path d="M109.871 116.745C109.596 116.699 106.96 116.341 104.712 115.336C102.971 114.557 101.462 113.39 101.462 111.686" fill="white"/>
<path d="M105.241 111.686C105.241 111.686 102.669 114.605 104.712 115.336L105.241 111.686Z" fill="white"/>
<path d="M103.534 117.99C103.9 117.496 105.802 118.488 107.044 116.154L103.534 117.99Z" fill="white"/>
<path d="M115.152 107.182C114.502 106.708 112.795 107.182 112.552 103.389L115.152 107.182Z" fill="white"/>
<path d="M115.435 110.739C115.435 110.739 118.279 109.741 118.279 107.574L115.435 110.739Z" fill="white"/>
<path d="M121.548 117.07C121.548 117.07 123.032 113.345 123.641 111.686L121.548 117.07Z" fill="white"/>
<path d="M126.154 113.51C126.154 113.51 127.783 114.761 129.727 112.752L126.154 113.51Z" fill="white"/>
<path d="M126.154 111.686C126.154 111.686 125.102 111.243 125.583 108.68L126.154 111.686Z" fill="white"/>
<path d="M109.267 121.689C108.202 121.55 107.179 121.238 106.17 120.95C102.026 119.773 97.2055 117.76 95.5577 113.531C95.1444 112.438 95.0141 111.263 95.1783 110.11C95.3426 108.957 95.7964 107.861 96.4995 106.918C97.2462 105.914 98.2947 105.159 99.5006 104.757C102.123 103.933 105.024 105.217 106.969 107.12C108.914 109.023 110.166 111.466 111.685 113.7C110.309 110.699 108.91 107.613 108.72 104.332C108.577 101.774 109.291 99.0023 111.101 97.08C112.768 95.3119 116.674 93.926 118.969 95.2257C120.486 96.0833 121.089 97.907 121.35 99.5931C122.065 104.206 121.147 108.895 120.234 113.475C120.847 111.026 121.506 108.554 122.754 106.346C124.001 104.137 125.918 102.184 128.369 101.367C130.084 100.794 132.124 100.857 133.563 101.934C134.905 102.94 135.504 104.639 135.689 106.276C135.997 109.021 135.374 111.825 134.189 114.338C129.855 123.519 117.936 122.826 109.267 121.689Z" stroke="#DEBFFF" stroke-miterlimit="10"/>
<path d="M118.889 117.021C118.889 117.021 125.463 118.798 127.784 109.91" stroke="#DEBFFF" stroke-miterlimit="10"/>
<path d="M115.964 101.85C114.136 105.881 115.964 117.974 115.964 117.974" stroke="#DEBFFF" stroke-miterlimit="10"/>
<path d="M109.871 116.745C109.596 116.699 106.96 116.341 104.712 115.336C102.971 114.557 101.462 113.39 101.462 111.686" stroke="#DEBFFF" stroke-miterlimit="10"/>
<path d="M105.241 111.686C105.241 111.686 102.669 114.605 104.712 115.336" stroke="#DEBFFF" stroke-miterlimit="10"/>
<path d="M103.534 117.99C103.9 117.496 105.802 118.488 107.044 116.154" stroke="#DEBFFF" stroke-miterlimit="10"/>
<path d="M115.152 107.182C114.502 106.708 112.795 107.182 112.552 103.389" stroke="#DEBFFF" stroke-miterlimit="10"/>
<path d="M115.435 110.739C115.435 110.739 118.279 109.741 118.279 107.574" stroke="#DEBFFF" stroke-miterlimit="10"/>
<path d="M121.548 117.07C121.548 117.07 123.032 113.345 123.641 111.686" stroke="#DEBFFF" stroke-miterlimit="10"/>
<path d="M126.154 113.51C126.154 113.51 127.783 114.761 129.727 112.752" stroke="#DEBFFF" stroke-miterlimit="10"/>
<path d="M126.154 111.686C126.154 111.686 125.102 111.243 125.583 108.68" stroke="#DEBFFF" stroke-miterlimit="10"/>
<path d="M113.077 104.517C113.441 103.342 113.515 102.101 113.294 100.894C113.175 100.199 112.84 98.306 111.801 98.5993C111.499 98.6813 111.321 98.9315 111.208 99.2151C111.341 98.5896 110.41 98.1948 109.956 98.1378C108.804 97.9794 107.962 98.7675 107.413 99.7294C106.211 101.842 103.016 102.862 100.789 102.867C97.6582 102.867 95.7875 100.504 95.2502 97.4456C93.8211 89.3586 93.4395 69.8777 78.461 64.5374C77.6381 64.2411 76.7973 63.9951 75.9429 63.8007V63.8243C75.9329 63.8243 75.9229 63.8243 75.9129 63.7909C75.9065 63.7723 75.9016 63.7533 75.8986 63.7339C76.3722 63.6657 76.8413 63.5706 77.3034 63.449C77.9022 63.3003 78.5196 63.1265 78.9555 62.754C79.48 62.312 79.6572 61.6628 79.7015 61.0415C79.7015 60.9456 79.7115 60.8441 79.7115 60.7482C79.7165 60.67 79.7165 60.5916 79.7115 60.5133C79.7115 60.4021 79.7115 60.2909 79.7115 60.1755C79.7115 60.0894 79.7115 59.9976 79.7115 59.9114L80.4403 57.6485C80.7076 57.1426 80.9734 56.6352 81.0906 56.0959C81.1396 55.8786 81.1612 55.6565 81.1549 55.4342C81.1549 55.387 81.1549 55.3383 81.1549 55.2855C81.1006 54.3473 80.6304 53.4187 79.973 52.6445C79.8528 51.6177 79.6459 50.6025 79.3542 49.6088C78.4339 46.3562 76.5946 42.82 73.0033 41.8387C70.3508 41.1172 67.2597 41.1603 64.653 42.1278C64.6507 42.1286 64.6483 42.1292 64.6458 42.1292C64.6434 42.1292 64.641 42.1286 64.6387 42.1278C64.469 42.1767 64.3053 42.2429 64.1499 42.3252C63.2996 42.7727 63.0066 43.7972 63.0524 44.9231C63.0521 44.9859 63.0569 45.0486 63.0667 45.1107C63.0667 45.1927 63.0767 45.2789 63.091 45.3609C63.2196 46.4632 63.6455 47.5974 64.1799 48.33C64.1556 48.3869 64.1299 48.4398 64.1099 48.4981C63.8841 49.0027 63.5914 49.4766 63.2396 49.9076C62.4536 50.8806 61.3903 51.5909 60.6229 52.5639C59.8555 53.5369 59.4067 54.8046 59.6096 56.0222C59.8069 57.2009 60.5686 58.2309 60.7415 59.4041C60.9044 60.4772 60.5986 61.7045 61.2717 62.5663C61.6861 63.0904 62.3735 63.3308 63.0324 63.5129C63.3182 63.5908 63.604 63.6519 63.8898 63.7159C63.8541 63.8159 63.8441 63.8215 63.8241 63.8257C63.0039 64.0132 62.1963 64.2493 61.406 64.5332L61.2874 64.5763C46.4318 69.982 46.0417 89.3767 44.6212 97.4387C44.0881 100.497 42.2131 102.86 39.0819 102.86C36.8554 102.86 33.6599 101.835 32.458 99.7224C31.9035 98.7605 31.0689 97.9724 29.9156 98.1309C29.4655 98.1934 28.5851 98.559 28.6695 99.1553C28.6675 99.1775 28.6675 99.1998 28.6695 99.222V99.2457C28.6695 99.2457 28.6695 99.2609 28.6695 99.2651V99.2804C28.5608 98.9718 28.3836 98.698 28.0607 98.6062C27.0217 98.313 26.6858 100.203 26.5672 100.901C26.3461 102.108 26.4206 103.349 26.7845 104.523C27.2646 106.077 28.2679 107.531 29.757 108.161C30.9865 108.652 32.2709 109 33.5842 109.198C31.6063 111.07 30.3244 113.5 30.3844 116.608C30.4287 118.554 31.6363 119.914 33.5198 120.823C35.9336 121.996 39.4564 122.434 43.0377 122.467H43.0577C42.65 122.542 42.2517 122.66 41.8701 122.819C41.4305 122.997 41.0168 123.231 40.6397 123.514C40.5053 123.616 40.3767 123.721 40.2538 123.831C40.1892 123.885 40.1276 123.943 40.0695 124.004C39.9523 124.12 39.8379 124.241 39.7293 124.366C39.5187 124.613 39.3276 124.875 39.1577 125.15C39.0734 125.289 38.9948 125.428 38.9262 125.567C38.8576 125.706 38.7918 125.861 38.7318 126.005C38.6393 126.224 38.5653 126.451 38.5103 126.683C38.4703 126.833 38.436 126.982 38.406 127.136C38.1487 128.618 38.5003 130.148 39.5778 131.249C39.7742 131.448 39.988 131.63 40.2167 131.793C40.3353 131.875 40.4596 131.952 40.5868 132.029C40.8562 132.183 41.1393 132.313 41.4328 132.418C41.7552 132.535 42.0864 132.628 42.4232 132.696C44.7927 133.162 46.6762 131.666 48.8142 131.028C50.0332 130.677 51.3022 130.52 52.5727 130.561C53.401 130.585 54.2265 130.665 55.0437 130.799C64.0152 132.226 73.119 132.707 82.1967 132.233C88.3304 131.905 94.5871 131.156 100.409 129.158C104.791 127.654 109.613 125.012 111.771 120.93C112.536 119.492 112.932 117.896 112.924 116.277C112.924 112.876 111.495 110.341 109.268 108.47C109.554 108.368 109.831 108.267 110.104 108.151C111.593 107.524 112.597 106.071 113.077 104.517Z" fill="white"/>
<path d="M52.5684 130.567C51.297 130.525 50.0268 130.682 48.807 131.032C46.6704 131.67 44.7855 133.167 42.4146 132.7C36.2422 131.49 37.5299 123.486 43.0619 122.466H43.0705C43.6007 122.455 44.1309 122.451 44.6568 122.451H44.6911C47.2392 122.451 49.7216 122.516 51.7595 121.832C51.5623 122.002 46.6004 126.286 52.5684 130.567Z" fill="#BE9FFD"/>
<path d="M78.458 64.5215C78.458 64.5215 78.458 64.5326 78.458 64.5368C79.195 66.7545 80.0963 68.9175 81.1547 71.0086L81.1676 71.0322" stroke="black" stroke-miterlimit="10"/>
<path d="M85.8733 103.195C78.9879 104.262 72.3096 105.898 65.2856 105.028C61.4813 104.551 57.7513 103.603 53.9956 102.863C56.3351 99.2013 57.2411 94.4864 56.8753 90.3831C56.638 87.6879 55.3661 85.0803 55.4304 82.3962C55.4747 80.5781 55.8206 78.7683 56.3008 77.0169C56.866 74.954 57.6335 72.9488 58.593 71.0288C58.593 71.0204 58.6031 71.0149 58.6073 71.0051C59.6669 68.9154 60.5695 66.754 61.3084 64.5375C62.1288 64.2403 62.968 63.9943 63.8207 63.8008L63.9636 64.8058C64.3152 67.1688 65.1412 70.5798 67.6793 71.696C68.2051 71.9202 68.773 72.0361 69.3471 72.0365C70.4789 72.1477 71.9938 71.696 71.9938 71.696C74.5305 70.584 75.3522 67.1729 75.7095 64.8058L75.8524 63.8008C76.7049 63.9927 77.544 64.237 78.3648 64.5319C79.1035 66.7493 80.0062 68.9117 81.0658 71.0024C81.0712 71.0092 81.0748 71.0174 81.0758 71.026C82.0331 72.9453 82.7989 74.9497 83.3624 77.0113C83.8725 78.7641 84.1652 80.5702 84.2341 82.3906C84.2984 85.0747 83.0322 87.6824 82.7893 90.3776C82.4006 94.6115 83.3752 99.4904 85.8733 103.195Z" fill="#2E2E2E"/>
<path d="M109.263 108.465C111.49 110.336 112.919 112.871 112.923 116.278C112.93 117.896 112.534 119.491 111.769 120.928C109.614 125.006 104.792 127.644 100.403 129.152C94.5794 131.15 88.3256 131.897 82.189 132.227C73.1139 132.703 64.0123 132.223 55.0431 130.797C54.2236 130.663 53.3956 130.585 52.565 130.563C51.2941 130.522 50.0246 130.679 48.805 131.029C46.6685 131.667 44.7835 133.164 42.4126 132.697C36.2403 131.486 37.5279 123.482 43.06 122.462" stroke="black" stroke-miterlimit="10"/>
<path d="M94.7111 118.584C92.8818 122.655 88.3544 121.261 83.3797 118.332C80.2943 116.514 77.6633 116.254 76.1084 116.315C78.2992 116.125 80.2157 115.467 80.753 113.058C81.1889 111.098 80.0542 109.305 78.092 108.727C82.8081 108.526 87.6513 108.866 91.4913 111.756C91.4913 111.756 96.5446 114.509 94.7111 118.584Z" fill="#BE9FFD"/>
<path d="M67.535 61.5777C67.476 62.0105 67.3172 62.4249 67.0705 62.7898C66.6747 63.3193 66.0259 63.6168 65.3642 63.7085C64.9542 63.6528 64.5487 63.5693 64.1509 63.4583C63.4892 63.2749 62.8061 63.0344 62.3902 62.5104C61.7128 61.6444 62.0244 60.417 61.8614 59.3453C61.6828 58.175 60.9211 57.1408 60.7282 55.9676C60.5209 54.75 60.9711 53.4851 61.7371 52.5079C62.4002 51.6739 63.2762 51.0262 64.0037 50.252C64.0037 50.352 63.9937 50.4591 63.9879 50.5647C63.7248 50.8604 63.5266 51.2054 63.4053 51.5782C63.2838 51.951 63.242 52.344 63.2821 52.7331C63.3223 53.1223 63.4436 53.4994 63.6387 53.8413C63.8337 54.1834 64.0984 54.4831 64.4167 54.7222C64.6939 55.8717 65.4013 58.3682 67.1677 59.8499C67.3189 60.053 67.434 60.2796 67.5078 60.5199C67.5939 60.8666 67.6032 61.2271 67.535 61.5777Z" fill="#BE9FFD"/>
<path d="M81.1031 56.0348C80.8716 57.1065 80.0398 58.0448 79.8069 59.1178C79.6783 59.7294 79.7383 60.3591 79.6983 60.9804C79.678 61.3824 79.5755 61.7766 79.3967 62.1397C79.2824 62.3483 79.1321 62.5364 78.9523 62.6957C78.5164 63.0668 77.8976 63.2448 77.3002 63.3907C76.3842 63.6173 75.4295 63.8077 74.4806 63.7229C73.3973 63.6214 72.3041 62.9528 71.9082 61.9381C71.5967 61.1445 71.8439 60.5231 72.2598 59.9505V59.9407C72.7139 59.6081 73.1302 59.2293 73.5017 58.8106C75.2166 54.6504 75.9998 55.818 76.207 54.4655C76.993 53.9457 76.3999 53.0032 76.3999 52.0122C76.3999 51.3046 76.357 50.9307 75.9269 50.4303L76.8201 50.2274C76.4542 49.8034 76.6972 49.9494 76.1327 49.7868L75.9269 49.809C75.6196 49.8563 76.2213 49.6797 75.8526 49.7395C68.6784 50.8974 67.3051 42.966 67.0621 41.7303C66.8449 41.9555 66.0403 41.8207 65.8674 42.0709C65.7931 42.1779 66.5819 43.4776 66.5162 43.5874C66.4976 43.5054 66.4819 43.4345 66.4719 43.3761C66.2584 43.5978 66.0634 43.8358 65.8888 44.0878C65.3104 44.8915 64.8756 45.7843 64.6026 46.7288C64.5926 46.7566 64.5869 46.7899 64.5769 46.8191C64.4748 47.3085 64.3445 47.7921 64.1867 48.2675C63.5436 47.3876 63.0435 45.9156 63.0435 44.6201C63.0435 43.5957 63.355 42.6741 64.1453 42.2571C64.1679 42.2446 64.1913 42.2335 64.2153 42.2238C64.3507 42.1582 64.4911 42.1033 64.6355 42.0598C64.6355 42.0598 64.6455 42.0598 64.6512 42.0598C67.2579 41.0868 70.3533 41.0451 73.0001 41.7665C76.5957 42.7478 78.4307 46.2895 79.3567 49.5407C79.6464 50.5349 79.8533 51.55 79.9755 52.5765C80.8316 53.5801 81.3603 54.8269 81.1031 56.0348Z" fill="#BE9FFD"/>
<path d="M49.6284 110.88L56.9668 110.311C62.5699 109.878 68.1739 109.445 73.7789 109.011C75.1808 108.906 76.6371 108.786 78.0905 108.725C82.8065 108.524 87.6498 108.864 91.4898 111.754C91.4898 111.754 96.5431 114.507 94.7096 118.582C92.876 122.656 88.3529 121.259 83.3782 118.33C80.2927 116.512 77.6617 116.252 76.1069 116.313H76.0912C75.9225 116.321 75.761 116.333 75.621 116.348C75.283 116.373 74.9482 116.428 74.6206 116.512C68.9128 118.26 60.0751 120.69 51.7706 121.827C49.4259 122.163 47.0637 122.371 44.6951 122.45H44.6608C44.122 122.469 43.5918 122.474 43.0659 122.465H43.0473C39.4617 122.435 35.9404 121.995 33.5252 120.824C31.6416 119.91 30.4354 118.555 30.3926 116.608C30.334 113.496 31.613 111.067 33.5966 109.192" stroke="black" stroke-miterlimit="10"/>
<path d="M109.243 101.452C110.199 101.023 111.321 99.6299 111.191 99.0684" stroke="black" stroke-miterlimit="10"/>
<path d="M102.475 107.29C103.917 107.6 103.255 104.521 104.789 104.269C104.789 104.269 105.409 104.176 105.533 104.686C105.619 105.035 105.503 105.462 105.433 105.798C105.369 106.108 105.319 106.493 105.183 106.771C105.31 106.46 105.417 106.142 105.503 105.818C105.597 105.478 105.664 105.132 105.703 104.782C105.791 104.226 105.854 103.627 106.068 103.114C106.183 102.796 106.421 102.534 106.731 102.383C107.408 102.105 107.84 102.8 107.899 103.403C107.908 103.471 107.911 103.538 107.907 103.606C107.907 103.698 107.899 103.784 107.891 103.87C107.826 104.925 107.71 106.247 107.103 107.074C107.71 106.24 107.834 104.963 107.89 103.904C107.919 103.337 107.913 102.75 108.127 102.236C108.208 102.029 108.335 101.842 108.499 101.689C108.659 101.542 108.87 101.457 109.09 101.453C109.26 101.468 109.422 101.525 109.562 101.618C109.702 101.712 109.816 101.839 109.891 101.987C110.049 102.295 110.133 102.634 110.139 102.978C110.232 104.487 109.869 105.991 108.722 106.996" stroke="black" stroke-miterlimit="10"/>
<path d="M81.1572 71.0078C82.1234 72.9342 82.8946 74.9476 83.4595 77.0196C83.9426 78.771 84.287 80.578 84.3313 82.3961C84.3956 85.0816 83.1265 87.6892 82.885 90.3858C82.2762 97.2204 85.1945 105.744 92.3857 108.299C95.2197 109.306 98.2737 109.68 101.282 109.611C104.14 109.546 107.459 109.265 110.104 108.154C111.593 107.526 112.596 106.069 113.079 104.518C113.441 103.343 113.516 102.102 113.298 100.894C113.175 100.199 112.842 98.3074 111.8 98.6007C111.454 98.6952 111.273 99.0094 111.166 99.3444C110.951 100.039 111.063 100.77 111.038 101.485C111.011 102.486 110.861 104.44 109.918 105.109" stroke="black" stroke-miterlimit="10"/>
<path d="M63.9282 63.8008L64.0711 64.8058C64.4256 67.1688 65.2487 70.5784 67.7868 71.6946C68.3112 71.9207 68.8782 72.0376 69.4517 72.0379C70.5864 72.1491 72.0984 71.6946 72.0984 71.6946C74.6351 70.5826 75.4583 67.1729 75.8141 64.8058L75.957 63.8008" stroke="black" stroke-miterlimit="10"/>
<path d="M61.4147 64.5215C61.4147 64.5215 61.4147 64.5326 61.4147 64.5368C60.6778 66.7548 59.7761 68.9178 58.7165 71.0086L58.7051 71.0322" stroke="black" stroke-miterlimit="10"/>
<path d="M28.7064 99.3423L28.6836 99.2701C28.6787 99.2605 28.6758 99.25 28.675 99.2395C28.675 99.2395 28.675 99.2325 28.675 99.2284C28.5221 98.5945 29.4524 98.197 29.9155 98.1358C31.0587 97.976 31.9062 98.7655 32.4564 99.7288C33.6569 101.84 36.8538 102.86 39.0803 102.863C42.2129 102.863 44.0893 100.5 44.6238 97.4422C46.0444 89.3538 46.4331 69.8743 61.4116 64.5326C62.2343 64.2389 63.0748 63.9942 63.9282 63.8L64.1555 63.75" stroke="black" stroke-miterlimit="10"/>
<path d="M75.7231 63.7617C75.7975 63.7728 75.8661 63.7923 75.9432 63.8076C76.7961 64.0009 77.636 64.2446 78.4585 64.5373C93.4369 69.8791 93.8257 89.3586 95.2462 97.447C95.7807 100.505 97.6571 102.868 100.791 102.868C103.016 102.868 106.213 101.845 107.414 99.7335C107.964 98.7703 108.804 97.9807 109.955 98.1406C110.44 98.2059 111.462 98.6493 111.164 99.3471" stroke="black" stroke-miterlimit="10"/>
<path d="M30.6276 101.452C29.6716 101.023 28.5497 99.6299 28.6798 99.0684" stroke="black" stroke-miterlimit="10"/>
<path d="M37.395 107.29C35.9516 107.6 36.6133 104.521 35.0799 104.269C35.0799 104.269 34.4596 104.176 34.3353 104.686C34.251 105.035 34.3653 105.462 34.4368 105.798C34.5011 106.108 34.5511 106.493 34.6854 106.771C34.5591 106.46 34.4526 106.142 34.3667 105.818C34.2727 105.478 34.2058 105.132 34.1667 104.782C34.0795 104.226 34.0152 103.627 33.8008 103.114C33.6868 102.796 33.4494 102.533 33.1391 102.383C32.4617 102.105 32.0301 102.8 31.9701 103.403C31.9621 103.471 31.9597 103.539 31.963 103.606C31.963 103.698 31.9701 103.784 31.9787 103.87C32.043 104.925 32.1602 106.247 32.7661 107.074C32.1602 106.24 32.0344 104.963 31.9801 103.904C31.9501 103.337 31.9573 102.75 31.7415 102.236C31.662 102.029 31.5355 101.842 31.3713 101.689C31.2107 101.542 30.9992 101.458 30.7782 101.453C30.6092 101.468 30.447 101.525 30.3071 101.618C30.1672 101.712 30.0544 101.839 29.9794 101.987C29.8209 102.295 29.736 102.634 29.7307 102.978C29.6378 104.487 29.9994 105.991 31.1469 106.996" stroke="black" stroke-miterlimit="10"/>
<path d="M58.7136 71.0078C57.7472 72.9341 56.9765 74.9475 56.4127 77.0196C55.9283 78.771 55.5853 80.578 55.541 82.3961C55.4767 85.0816 56.7457 87.6892 56.9858 90.3858C57.596 97.2204 54.6764 105.744 47.4851 108.299C44.6512 109.306 41.5972 109.68 38.5903 109.611C35.7321 109.546 32.4137 109.265 29.7684 108.154C28.2779 107.526 27.2761 106.069 26.7916 104.518C26.4337 103.342 26.3617 102.102 26.5815 100.894C26.7044 100.199 27.0374 98.3074 28.0792 98.6007C28.4236 98.6952 28.6066 99.0094 28.7137 99.3444C28.9267 100.039 28.8166 100.77 28.8395 101.485C28.8681 102.486 29.0181 104.44 29.9614 105.109" stroke="black" stroke-miterlimit="10"/>
<path d="M66.5207 43.3848C66.2914 43.6236 66.0812 43.8792 65.8919 44.1493C65.2909 44.9778 64.8457 45.9036 64.5772 46.8834C64.4751 47.3727 64.3439 47.8558 64.1842 48.3304C64.1613 48.3874 64.137 48.4416 64.1141 48.4986C63.8893 49.004 63.5976 49.4787 63.2467 49.9108C62.4606 50.8741 61.3974 51.5913 60.6271 52.5657C59.8568 53.5401 59.4095 54.8064 59.6139 56.0254C59.8111 57.2014 60.5728 58.2327 60.7486 59.4045C60.9101 60.4776 60.6057 61.7036 61.2788 62.5668C61.6918 63.0936 62.3778 63.334 63.038 63.5134C63.7411 63.7052 64.4671 63.8539 65.1902 63.7914C65.9134 63.7288 66.6422 63.4216 67.0695 62.8475C67.3186 62.4849 67.4777 62.071 67.534 61.6382C67.601 61.2885 67.5913 60.9291 67.5054 60.5832C67.3625 60.0828 66.9881 59.6783 66.6479 59.2697C65.6003 57.951 64.8521 56.4312 64.4528 54.8106" stroke="black" stroke-miterlimit="10"/>
<path d="M75.9783 51.1186C75.9783 50.7628 75.9626 50.4111 75.9312 50.0566" stroke="black" stroke-miterlimit="10"/>
<path d="M64.2627 48.1582C64.1038 48.9722 64.012 49.7972 63.9883 50.6255" stroke="black" stroke-miterlimit="10"/>
<path d="M77.0479 49.8726C76.8949 49.899 76.0818 50.0297 75.9317 50.0533C67.8558 51.3043 67.5 45.6498 66.521 43.3897C66.521 43.3897 65.9823 41.3742 64.1544 42.3291C62.3266 43.284 63.0612 46.9161 64.2631 48.4451" stroke="black" stroke-miterlimit="10"/>
<path d="M65.0806 45.5372V45.5332" stroke="black" stroke-miterlimit="10"/>
<path d="M78.2319 50.8984L79.9783 52.6429" stroke="black" stroke-miterlimit="10"/>
<path d="M66.6533 59.2676C66.6733 59.2912 66.689 59.3135 66.7119 59.3399C66.7318 59.3686 66.7542 59.3956 66.7791 59.4205C66.8188 59.4743 66.8623 59.5253 66.9091 59.5734C66.9134 59.5805 66.9187 59.5871 66.9249 59.5928C67.2737 59.9783 67.6974 60.2927 68.1719 60.5182C68.6462 60.7436 69.1617 60.8755 69.6887 60.9064C70.9749 61.0051 71.7853 60.5089 72.2611 60.0126" stroke="black" stroke-miterlimit="10"/>
<path d="M73.7086 55.8469C75.3448 55.8469 76.6712 54.5567 76.6712 52.9655C76.6712 51.374 75.3448 50.084 73.7086 50.084C72.0725 50.084 70.7461 51.374 70.7461 52.9655C70.7461 54.5567 72.0725 55.8469 73.7086 55.8469Z" stroke="black" stroke-miterlimit="10"/>
<path d="M66.2262 55.3899C67.8624 55.3899 69.1888 54.0998 69.1888 52.5084C69.1888 50.917 67.8624 49.627 66.2262 49.627C64.59 49.627 63.2637 50.917 63.2637 52.5084C63.2637 54.0998 64.59 55.3899 66.2262 55.3899Z" stroke="black" stroke-miterlimit="10"/>
<path d="M65.583 51.8045C65.583 51.8045 66.7906 51.3652 67.7267 51.8183" stroke="black" stroke-miterlimit="10"/>
<path d="M72.2456 52.2029C72.2456 52.2029 73.4532 51.7636 74.3893 52.2168" stroke="black" stroke-miterlimit="10"/>
<path d="M70.099 57.3797C70.5323 57.3797 70.8836 57.0381 70.8836 56.6166C70.8836 56.1952 70.5323 55.8535 70.099 55.8535C69.6657 55.8535 69.3145 56.1952 69.3145 56.6166C69.3145 57.0381 69.6657 57.3797 70.099 57.3797Z" stroke="black" stroke-miterlimit="10"/>
<path d="M64.1543 42.3307C66.8596 41.1673 70.1866 41.0672 73.0148 41.8373C76.609 42.8103 78.4454 46.3562 79.3672 49.6088C79.6581 50.6026 79.8651 51.6179 79.986 52.6446C80.8434 53.644 81.3679 54.8936 81.1078 56.1001C80.8763 57.1732 80.0488 58.1128 79.813 59.1859C79.683 59.7961 79.7459 60.4272 79.703 61.0457C79.6601 61.6643 79.4786 62.3134 78.957 62.7554C78.5211 63.1307 77.9052 63.3114 77.3035 63.4504C76.3889 63.6798 75.4342 63.8674 74.4882 63.7826C73.4006 63.6839 72.3102 63.0153 71.9158 61.9993C71.3942 60.6593 72.4617 59.8072 73.2349 58.8648C73.7243 58.2722 74.1581 57.6381 74.5311 56.9702C74.8012 56.4768 75.0361 55.966 75.2342 55.4412" stroke="black" stroke-miterlimit="10"/>
<path d="M54.1074 102.859C57.8603 103.599 61.5902 104.548 65.3974 105.021C72.4243 105.897 79.0982 104.259 85.9865 103.19" stroke="black" stroke-miterlimit="10"/>
<path d="M16.1572 122.818H41.8712" stroke="black" stroke-miterlimit="10"/>
<path d="M111.08 122.336H133.216" stroke="black" stroke-miterlimit="10"/>
<path d="M126.602 89.459C127.915 90.5599 129.088 91.8102 130.095 93.1828C131.943 95.6424 132.989 98.586 133.096 101.631" stroke="#DEBFFF" stroke-miterlimit="10"/>
<path d="M80.7871 39.0858C83.4338 37.536 86.1891 36.1668 89.1217 35.1938C96.433 32.7599 104.585 33.3034 110.377 38.6341C115.399 43.2531 117.772 50.1085 118.257 56.6805C118.257 56.7764 118.273 56.8778 118.277 56.9793C118.5 60.3667 118.317 64.1045 118.291 67.8477" stroke="#DEBFFF" stroke-miterlimit="10"/>
<path d="M23.1514 67.6369C23.8145 63.5239 22.9985 59.6555 22.5626 55.4216C21.4307 44.385 25.0364 31.1925 38.0999 29.5425C45.1982 28.6418 50.9618 31.2217 55.7594 36.1673C56.8383 37.2793 57.9159 38.5817 59.0592 39.8424" stroke="#DEBFFF" stroke-miterlimit="10"/>
<path d="M18.0549 104.067C18.0549 104.067 8.16264 99.8271 9.14587 91.8652C9.43169 89.619 10.5164 87.6076 11.8912 85.7617" stroke="#DEBFFF" stroke-miterlimit="10"/>
</g>
</svg>
