<svg width="360" height="355" viewBox="0 0 360 355" fill="none" xmlns="http://www.w3.org/2000/svg">
<path d="M91.3911 99.1104C113.308 96.352 125.44 106.1 118.494 120.88C111.548 135.659 88.152 149.879 66.2352 152.637C44.3114 155.397 32.1793 145.648 39.1252 130.869C46.0711 116.089 69.4673 101.87 91.3911 99.1104Z" fill="#ECEDEE" stroke="#3D3D3C" stroke-width="0.96" stroke-linecap="round" stroke-linejoin="round"/>
<path d="M128.43 133.689C128.45 133.533 128.451 133.383 128.466 133.228C128.488 133.002 128.508 132.777 128.519 132.555C128.525 132.445 128.542 132.33 128.546 132.22C128.551 132.04 128.535 131.868 128.533 131.69C128.531 131.482 128.531 131.274 128.519 131.07C128.515 130.988 128.52 130.903 128.514 130.822C128.498 130.614 128.46 130.416 128.434 130.212C128.411 130.023 128.393 129.831 128.361 129.645C128.351 129.591 128.349 129.535 128.339 129.481C128.295 129.247 128.227 129.023 128.17 128.794C128.128 128.621 128.094 128.446 128.044 128.277C128.034 128.245 128.03 128.212 128.02 128.18C127.898 127.783 127.754 127.392 127.59 127.01L119.49 108.201C119.666 108.614 119.817 109.037 119.944 109.468C119.994 109.636 120.027 109.812 120.07 109.983C120.14 110.265 120.211 110.547 120.261 110.837C120.292 111.022 120.311 111.214 120.334 111.403C120.37 111.686 120.403 111.97 120.419 112.261C120.431 112.465 120.431 112.673 120.433 112.882C120.436 113.167 120.434 113.454 120.419 113.746C120.408 113.968 120.388 114.193 120.366 114.419C120.338 114.706 120.302 114.997 120.257 115.29C120.219 115.536 120.175 115.783 120.125 116.032C120.068 116.316 120.001 116.603 119.928 116.892C119.856 117.179 119.776 117.468 119.689 117.759C119.561 118.182 119.431 118.606 119.269 119.039C119.262 119.059 119.256 119.079 119.248 119.099C119.028 119.684 118.777 120.278 118.494 120.88C118.27 121.357 118.027 121.834 117.769 122.31C117.646 122.536 117.51 122.76 117.38 122.986C117.245 123.22 117.116 123.454 116.974 123.688C116.836 123.914 116.684 124.138 116.539 124.363C116.389 124.596 116.245 124.83 116.087 125.062C115.789 125.499 115.48 125.935 115.157 126.369C115.13 126.406 115.1 126.442 115.073 126.479C114.774 126.877 114.465 127.274 114.145 127.669C114.027 127.815 113.901 127.96 113.78 128.105C113.544 128.39 113.307 128.674 113.06 128.957C112.911 129.127 112.755 129.295 112.603 129.464C112.369 129.724 112.135 129.984 111.892 130.242C111.759 130.384 111.623 130.524 111.487 130.665C111.23 130.932 110.969 131.198 110.703 131.463C110.555 131.61 110.406 131.757 110.255 131.903C109.981 132.17 109.702 132.435 109.419 132.699C109.276 132.832 109.134 132.966 108.989 133.099C108.636 133.422 108.275 133.743 107.909 134.062C107.831 134.13 107.756 134.199 107.677 134.267C107.209 134.67 106.732 135.07 106.245 135.466C106.15 135.542 106.051 135.617 105.956 135.694C105.562 136.011 105.164 136.327 104.758 136.639C104.577 136.778 104.39 136.914 104.206 137.052C103.879 137.298 103.552 137.544 103.217 137.787C103.006 137.94 102.79 138.091 102.576 138.242C102.266 138.462 101.956 138.681 101.641 138.898C101.332 139.11 101.016 139.319 100.702 139.528C100.439 139.702 100.178 139.879 99.911 140.051C99.5873 140.261 99.2577 140.466 98.9291 140.672C98.6756 140.831 98.4243 140.992 98.168 141.148C97.324 141.664 96.4646 142.167 95.5897 142.657C95.3902 142.77 95.1898 142.881 94.9887 142.992C94.2978 143.374 93.5995 143.747 92.8937 144.113C92.7865 144.168 92.6812 144.226 92.5735 144.281C91.8214 144.666 91.061 145.04 90.2923 145.403C90.0719 145.508 89.8491 145.608 89.6275 145.712C89.0946 145.959 88.5587 146.201 88.0198 146.439C87.7585 146.555 87.4965 146.668 87.2339 146.781C86.7262 146.998 86.2159 147.21 85.703 147.418C85.457 147.518 85.212 147.619 84.965 147.717C84.35 147.96 83.7319 148.196 83.1109 148.424C82.9839 148.471 82.858 148.521 82.7309 148.567C81.989 148.837 81.2438 149.095 80.4954 149.343C80.2857 149.413 80.0747 149.477 79.8645 149.545C79.3188 149.721 78.7723 149.894 78.2241 150.059C77.9538 150.14 77.6831 150.217 77.4123 150.295C76.9062 150.441 76.3994 150.583 75.8918 150.719C75.6122 150.794 75.3325 150.867 75.0526 150.939C74.4989 151.081 73.9448 151.215 73.3903 151.343C73.1559 151.398 72.9217 151.455 72.6873 151.507C71.866 151.689 71.0447 151.858 70.2235 152.012C70.0875 152.037 69.9518 152.058 69.8158 152.082C69.0513 152.22 68.2879 152.344 67.5255 152.454C67.0953 152.517 66.6648 152.583 66.2355 152.637C65.3539 152.748 64.4902 152.836 63.6407 152.907C63.4672 152.922 63.2991 152.93 63.127 152.943C62.4977 152.99 61.8776 153.026 61.2664 153.052C61.0167 153.063 60.7698 153.07 60.5234 153.077C60.0053 153.091 59.4962 153.095 58.9924 153.093C58.7074 153.093 58.4209 153.093 58.1404 153.088C57.6194 153.077 57.1103 153.054 56.6057 153.027C56.3824 153.015 56.1536 153.008 55.9336 152.992C55.2187 152.942 54.5182 152.877 53.8384 152.794C53.7638 152.785 53.6941 152.771 53.6199 152.761C53.0167 152.683 52.4276 152.592 51.8528 152.488C51.6367 152.449 51.4296 152.402 51.2176 152.359C50.7946 152.273 50.3761 152.184 49.97 152.084C49.7401 152.027 49.5159 151.966 49.2913 151.904C48.9163 151.802 48.5488 151.694 48.1889 151.58C47.9708 151.51 47.754 151.44 47.5417 151.366C47.1824 151.241 46.8345 151.107 46.4922 150.968C46.3053 150.893 46.1146 150.82 45.9328 150.742C45.5367 150.569 45.157 150.385 44.7855 150.195C44.6765 150.139 44.5603 150.089 44.4536 150.031C43.9836 149.78 43.5348 149.514 43.1073 149.234C42.9959 149.161 42.8954 149.082 42.787 149.007C42.478 148.794 42.1759 148.577 41.891 148.349C41.7514 148.238 41.6211 148.121 41.4873 148.005C41.2498 147.801 41.0186 147.593 40.7998 147.378C40.669 147.25 40.5428 147.118 40.4188 146.986C40.2142 146.768 40.0203 146.544 39.8342 146.315C39.7241 146.18 39.6128 146.045 39.5092 145.906C39.3215 145.654 39.15 145.395 38.9843 145.132C38.9058 145.007 38.8204 144.886 38.7468 144.759C38.5175 144.368 38.3115 143.963 38.1301 143.547L46.2302 162.355C46.4117 162.772 46.6177 163.177 46.8469 163.569C46.9205 163.695 47.0058 163.817 47.0845 163.941C47.2502 164.204 47.4217 164.464 47.6092 164.715C47.713 164.854 47.8241 164.989 47.9343 165.124C48.1205 165.353 48.3143 165.577 48.519 165.795C48.643 165.928 48.769 166.059 48.8997 166.187C49.1187 166.402 49.3498 166.61 49.5873 166.814C49.7212 166.93 49.8514 167.047 49.9911 167.158C50.2756 167.385 50.577 167.602 50.8854 167.815C50.9945 167.89 51.0957 167.97 51.2079 168.043C51.6353 168.323 52.0837 168.589 52.5531 168.84C52.6611 168.898 52.7789 168.949 52.8892 169.005C53.2593 169.194 53.6375 169.378 54.0323 169.55C54.2144 169.629 54.4053 169.702 54.5927 169.778C54.9352 169.916 55.2831 170.05 55.6426 170.175C55.8546 170.249 56.0709 170.319 56.2887 170.389C56.6479 170.503 57.015 170.611 57.3901 170.713C57.6155 170.775 57.8405 170.836 58.0713 170.893C58.4767 170.993 58.894 171.082 59.3161 171.167C59.5287 171.211 59.7362 171.258 59.953 171.297C60.5299 171.402 61.1216 171.493 61.7281 171.572C61.7993 171.581 61.8661 171.594 61.9376 171.603C62.6178 171.687 63.3185 171.751 64.0339 171.801C64.2532 171.817 64.4811 171.824 64.7037 171.836C65.2097 171.863 65.7198 171.886 66.2422 171.897C66.5213 171.903 66.8059 171.902 67.0896 171.903C67.3709 171.904 67.6444 171.912 67.9303 171.909C68.158 171.905 68.3946 171.892 68.6251 171.886C68.8709 171.879 69.1168 171.872 69.3659 171.861C69.9765 171.836 70.5969 171.8 71.2269 171.752C71.3992 171.739 71.5672 171.731 71.7409 171.716C71.7915 171.713 71.8401 171.711 71.8908 171.706C72.6914 171.637 73.5064 171.551 74.3357 171.447C74.6367 171.409 74.9379 171.368 75.2394 171.326C75.3679 171.308 75.497 171.282 75.6256 171.264C76.388 171.152 77.1514 171.028 77.9158 170.891C78.0183 170.873 78.1204 170.86 78.2228 170.841C78.2565 170.835 78.2901 170.827 78.3237 170.821C79.1442 170.668 79.9649 170.5 80.7856 170.317C80.847 170.303 80.9087 170.292 80.9702 170.278C81.1452 170.239 81.3197 170.192 81.4947 170.151C82.0476 170.023 82.6001 169.89 83.1522 169.748C83.2806 169.716 83.4094 169.688 83.5378 169.655C83.6897 169.615 83.8406 169.569 83.9925 169.528C84.4991 169.392 85.0049 169.251 85.51 169.105C85.6832 169.055 85.8575 169.011 86.0307 168.96C86.1294 168.931 86.2271 168.897 86.3257 168.867C86.8731 168.703 87.4186 168.531 87.9635 168.355C88.1331 168.299 88.304 168.251 88.4732 168.195C88.5141 168.181 88.5546 168.166 88.5954 168.152C89.3438 167.904 90.0892 167.645 90.8315 167.376C90.8477 167.37 90.864 167.365 90.88 167.359C90.9894 167.319 91.0971 167.275 91.2062 167.235C91.8288 167.005 92.4487 166.769 93.0659 166.526C93.1405 166.496 93.2164 166.47 93.291 166.44C93.4624 166.372 93.6305 166.297 93.8014 166.228C94.3145 166.02 94.8255 165.807 95.3342 165.59C95.4641 165.534 95.5965 165.483 95.7261 165.427C95.8586 165.369 95.9878 165.307 96.12 165.249C96.6592 165.011 97.1951 164.768 97.7277 164.521C97.8845 164.448 98.0446 164.38 98.2008 164.306C98.2654 164.276 98.328 164.243 98.3924 164.212C99.1606 163.848 99.9216 163.473 100.675 163.089C100.699 163.077 100.723 163.067 100.746 163.055C100.828 163.012 100.908 162.967 100.989 162.924C101.697 162.559 102.397 162.185 103.089 161.801C103.2 161.74 103.314 161.683 103.425 161.622C103.515 161.572 103.6 161.517 103.69 161.467C104.563 160.975 105.423 160.472 106.269 159.957C106.305 159.935 106.343 159.915 106.379 159.893C106.598 159.758 106.811 159.618 107.028 159.482C107.357 159.276 107.686 159.071 108.01 158.862C108.278 158.688 108.541 158.511 108.806 158.334C109.119 158.126 109.433 157.918 109.741 157.707C109.808 157.661 109.879 157.616 109.946 157.57C110.193 157.399 110.432 157.224 110.676 157.052C110.89 156.9 111.106 156.749 111.317 156.596C111.652 156.354 111.979 156.107 112.306 155.861C112.49 155.723 112.677 155.587 112.858 155.448C113.259 155.14 113.651 154.829 114.041 154.515C114.142 154.434 114.246 154.355 114.347 154.274C114.819 153.89 115.283 153.502 115.738 153.11C115.752 153.099 115.764 153.088 115.777 153.076C115.856 153.008 115.931 152.939 116.009 152.871C116.375 152.552 116.735 152.231 117.089 151.908C117.235 151.775 117.376 151.641 117.519 151.508C117.802 151.244 118.081 150.979 118.356 150.712C118.506 150.566 118.655 150.42 118.802 150.273C119.069 150.008 119.331 149.741 119.588 149.472C119.723 149.332 119.86 149.192 119.992 149.051C120.05 148.99 120.111 148.929 120.169 148.868C120.351 148.672 120.523 148.473 120.701 148.276C120.854 148.106 121.011 147.936 121.161 147.765C121.406 147.485 121.641 147.203 121.876 146.92C121.999 146.772 122.126 146.626 122.246 146.478C122.562 146.088 122.866 145.697 123.161 145.303C123.192 145.262 123.227 145.22 123.258 145.178C123.569 144.76 123.868 144.341 124.156 143.92C124.167 143.904 124.176 143.888 124.187 143.871C124.345 143.639 124.489 143.406 124.64 143.172C124.785 142.947 124.936 142.723 125.074 142.497C125.217 142.264 125.346 142.029 125.481 141.795C125.602 141.584 125.732 141.373 125.847 141.162C125.855 141.148 125.861 141.133 125.869 141.119C126.127 140.643 126.369 140.167 126.594 139.689C126.717 139.428 126.834 139.169 126.945 138.911C127.089 138.574 127.224 138.24 127.348 137.908C127.356 137.888 127.362 137.869 127.369 137.849C127.478 137.557 127.582 137.266 127.675 136.979C127.721 136.84 127.747 136.707 127.789 136.568C127.877 136.277 127.956 135.988 128.029 135.701C128.066 135.554 128.119 135.402 128.151 135.256C128.183 135.116 128.197 134.981 128.225 134.842C128.275 134.592 128.319 134.345 128.357 134.099C128.378 133.964 128.412 133.823 128.43 133.689Z" fill="#93C9C7"/>
<mask id="mask0_520_4935" style="mask-type:luminance" maskUnits="userSpaceOnUse" x="37" y="109" width="91" height="64">
<path fill-rule="evenodd" clip-rule="evenodd" d="M127.362 134.674C127.382 134.518 127.383 134.368 127.398 134.213C127.42 133.988 127.44 133.762 127.452 133.54C127.457 133.43 127.475 133.315 127.478 133.206C127.483 133.026 127.468 132.853 127.466 132.676C127.464 132.468 127.463 132.259 127.452 132.055C127.447 131.973 127.452 131.888 127.446 131.807C127.43 131.599 127.392 131.401 127.367 131.198C127.343 131.008 127.325 130.816 127.293 130.63C127.284 130.577 127.282 130.52 127.272 130.466C127.228 130.232 127.16 130.008 127.103 129.779C127.06 129.607 127.026 129.431 126.976 129.262C126.967 129.231 126.962 129.197 126.952 129.166C126.83 128.768 126.687 128.377 126.522 127.995L118.422 109.186C118.598 109.6 118.749 110.023 118.876 110.453C118.926 110.622 118.96 110.797 119.002 110.969C119.073 111.25 119.143 111.532 119.193 111.822C119.225 112.008 119.243 112.199 119.266 112.388C119.302 112.671 119.335 112.955 119.351 113.246C119.363 113.45 119.364 113.659 119.366 113.867C119.369 114.152 119.366 114.439 119.351 114.732C119.34 114.954 119.32 115.178 119.298 115.404C119.27 115.692 119.234 115.982 119.189 116.276C119.151 116.521 119.107 116.768 119.057 117.018C119 117.302 118.934 117.588 118.861 117.877C118.788 118.164 118.708 118.453 118.621 118.745C118.493 119.167 118.363 119.592 118.202 120.024C118.194 120.045 118.188 120.064 118.18 120.085C117.96 120.669 117.709 121.263 117.427 121.865C117.202 122.342 116.959 122.819 116.701 123.295C116.579 123.521 116.443 123.746 116.313 123.971C116.178 124.205 116.049 124.44 115.906 124.673C115.768 124.899 115.617 125.124 115.472 125.349C115.322 125.581 115.177 125.815 115.019 126.047C114.722 126.485 114.412 126.92 114.09 127.355C114.062 127.391 114.032 127.427 114.005 127.464C113.706 127.862 113.397 128.259 113.078 128.655C112.959 128.801 112.833 128.945 112.712 129.091C112.476 129.375 112.239 129.66 111.992 129.942C111.843 130.112 111.688 130.281 111.535 130.45C111.301 130.709 111.067 130.97 110.824 131.228C110.692 131.369 110.555 131.509 110.419 131.65C110.162 131.917 109.901 132.183 109.635 132.448C109.487 132.595 109.338 132.742 109.188 132.889C108.914 133.155 108.635 133.42 108.351 133.684C108.208 133.818 108.067 133.951 107.922 134.084C107.568 134.408 107.208 134.729 106.841 135.047C106.763 135.115 106.688 135.184 106.609 135.252C106.142 135.655 105.665 136.055 105.178 136.451C105.083 136.528 104.984 136.603 104.888 136.679C104.494 136.997 104.096 137.312 103.69 137.624C103.509 137.763 103.322 137.899 103.139 138.037C102.811 138.283 102.484 138.53 102.15 138.772C101.938 138.925 101.722 139.076 101.508 139.228C101.198 139.447 100.889 139.667 100.573 139.883C100.264 140.095 99.9487 140.304 99.6341 140.513C99.371 140.688 99.1099 140.864 98.8434 141.037C98.5197 141.246 98.1901 141.452 97.8615 141.658C97.608 141.816 97.3566 141.977 97.1004 142.133C96.2564 142.649 95.397 143.153 94.5221 143.643C94.3225 143.755 94.1222 143.867 93.9211 143.978C93.2302 144.359 92.5318 144.733 91.8261 145.098C91.7188 145.154 91.6135 145.211 91.5059 145.266C90.7537 145.651 89.9933 146.025 89.2247 146.388C89.0042 146.493 88.7815 146.594 88.5599 146.697C88.0269 146.944 87.491 147.187 86.9522 147.424C86.6908 147.54 86.4289 147.654 86.1663 147.766C85.6586 147.983 85.1483 148.196 84.6354 148.403C84.3893 148.503 84.1444 148.605 83.8974 148.702C83.2823 148.946 82.6643 149.181 82.0433 149.409C81.9163 149.456 81.7904 149.506 81.6632 149.553C80.9213 149.822 80.1762 150.08 79.4278 150.328C79.2181 150.398 79.0071 150.462 78.7969 150.53C78.2512 150.706 77.7047 150.88 77.1565 151.044C76.8862 151.125 76.6154 151.202 76.3447 151.281C75.8386 151.427 75.3317 151.568 74.8242 151.704C74.5446 151.779 74.2649 151.853 73.985 151.925C73.4313 152.066 72.8772 152.2 72.3226 152.328C72.0882 152.383 71.854 152.44 71.6197 152.492C70.7983 152.675 69.9771 152.843 69.1559 152.997C69.0198 153.022 68.8841 153.043 68.7482 153.068C67.9837 153.205 67.2203 153.329 66.4579 153.44C66.0277 153.502 65.5972 153.569 65.1679 153.623C64.2863 153.734 63.4226 153.822 62.5731 153.893C62.3995 153.907 62.2315 153.915 62.0593 153.928C61.4301 153.975 60.8099 154.012 60.1988 154.038C59.9491 154.048 59.7022 154.055 59.4558 154.062C58.9376 154.076 58.4286 154.08 57.9247 154.079C57.6398 154.078 57.3533 154.079 57.0728 154.073C56.5518 154.062 56.0427 154.039 55.5381 154.012C55.3148 154 55.086 153.993 54.866 153.978C54.151 153.927 53.4506 153.863 52.7708 153.779C52.6961 153.77 52.6264 153.756 52.5522 153.747C51.949 153.669 51.36 153.577 50.7851 153.473C50.569 153.434 50.362 153.387 50.15 153.344C49.727 153.258 49.3084 153.169 48.9024 153.069C48.6724 153.012 48.4483 152.951 48.2237 152.89C47.8487 152.787 47.4812 152.679 47.1213 152.565C46.9032 152.496 46.6864 152.425 46.4741 152.351C46.1148 152.226 45.7669 152.092 45.4245 151.954C45.2377 151.878 45.047 151.806 44.8651 151.727C44.469 151.554 44.0894 151.37 43.7179 151.18C43.6089 151.124 43.4926 151.074 43.3859 151.017C42.916 150.765 42.4672 150.499 42.0397 150.219C41.9283 150.146 41.8278 150.067 41.7194 149.992C41.4103 149.779 41.1083 149.562 40.8233 149.335C40.6837 149.223 40.5534 149.106 40.4197 148.991C40.1822 148.786 39.951 148.578 39.7321 148.363C39.6014 148.235 39.4752 148.104 39.3511 147.971C39.1466 147.753 38.9526 147.529 38.7666 147.3C38.6565 147.165 38.5451 147.03 38.4416 146.891C38.2539 146.64 38.0824 146.38 37.9167 146.118C37.8382 145.993 37.7528 145.872 37.6792 145.745C37.4498 145.353 37.2439 144.948 37.0625 144.532L45.1626 163.341C45.3441 163.757 45.55 164.162 45.7793 164.554C45.8529 164.681 45.9382 164.802 46.0168 164.926C46.1826 165.189 46.3541 165.449 46.5416 165.7C46.6454 165.839 46.7565 165.974 46.8667 166.109C47.0529 166.338 47.2466 166.562 47.4513 166.78C47.5754 166.913 47.7014 167.044 47.8321 167.172C48.0511 167.388 48.2821 167.595 48.5197 167.8C48.6535 167.915 48.7837 168.032 48.9235 168.143C49.208 168.371 49.5094 168.587 49.8177 168.8C49.9269 168.875 50.0281 168.955 50.1403 169.028C50.5676 169.308 51.016 169.574 51.4855 169.825C51.5935 169.884 51.7113 169.934 51.8215 169.991C52.1917 170.18 52.5699 170.364 52.9647 170.535C53.1468 170.615 53.3377 170.687 53.5251 170.763C53.8676 170.901 54.2154 171.035 54.575 171.161C54.787 171.234 55.0033 171.305 55.2211 171.374C55.5803 171.488 55.9474 171.597 56.3224 171.698C56.5479 171.76 56.7729 171.821 57.0037 171.878C57.4091 171.978 57.8264 172.067 58.2485 172.153C58.4611 172.196 58.6685 172.243 58.8854 172.282C59.4622 172.387 60.0539 172.479 60.6605 172.557C60.7317 172.566 60.7984 172.579 60.8699 172.588C61.5501 172.672 62.2509 172.736 62.9662 172.787C63.1855 172.802 63.4135 172.809 63.6361 172.821C64.142 172.848 64.6522 172.872 65.1746 172.882C65.4537 172.888 65.7382 172.887 66.0219 172.888C66.3032 172.889 66.5768 172.898 66.8626 172.894C67.0903 172.891 67.327 172.877 67.5575 172.871C67.8032 172.864 68.0492 172.857 68.2983 172.847C68.9089 172.821 69.5293 172.785 70.1593 172.737C70.3316 172.724 70.4995 172.716 70.6733 172.702C70.7239 172.698 70.7724 172.696 70.8231 172.692C71.6237 172.623 72.4387 172.536 73.2681 172.432C73.569 172.394 73.8703 172.354 74.1718 172.311C74.3003 172.294 74.4294 172.268 74.558 172.249C75.3204 172.138 76.0838 172.013 76.8482 171.876C76.9506 171.858 77.0527 171.846 77.1552 171.827C77.1889 171.821 77.2225 171.812 77.2561 171.806C78.0766 171.653 78.8972 171.485 79.7179 171.302C79.7794 171.288 79.8411 171.278 79.9026 171.264C80.0776 171.225 80.2521 171.177 80.4271 171.136C80.98 171.008 81.5325 170.875 82.0846 170.733C82.213 170.701 82.3418 170.673 82.4702 170.64C82.6221 170.6 82.773 170.554 82.9249 170.513C83.4314 170.377 83.9373 170.237 84.4424 170.09C84.6156 170.04 84.7899 169.996 84.963 169.945C85.0617 169.916 85.1595 169.882 85.2581 169.853C85.8055 169.688 86.351 169.516 86.8958 169.34C87.0655 169.285 87.2364 169.236 87.4056 169.18C87.4465 169.166 87.4869 169.151 87.5278 169.138C88.2762 168.889 89.0215 168.63 89.7639 168.361C89.7801 168.356 89.7963 168.35 89.8124 168.345C89.9218 168.305 90.0294 168.261 90.1386 168.22C90.7612 167.99 91.3811 167.754 91.9982 167.511C92.0729 167.482 92.1488 167.455 92.2234 167.425C92.3948 167.357 92.5629 167.282 92.7338 167.213C93.2469 167.005 93.7578 166.792 94.2665 166.575C94.3965 166.519 94.5289 166.468 94.6585 166.412C94.7909 166.354 94.9202 166.292 95.0523 166.234C95.5916 165.996 96.1275 165.754 96.66 165.506C96.8169 165.433 96.977 165.365 97.1332 165.292C97.1978 165.261 97.2603 165.228 97.3247 165.197C98.093 164.833 98.8539 164.458 99.6076 164.074C99.6311 164.063 99.6553 164.052 99.6786 164.04C99.7608 163.998 99.8399 163.952 99.9219 163.91C100.63 163.544 101.33 163.17 102.021 162.787C102.132 162.726 102.247 162.669 102.357 162.607C102.447 162.557 102.533 162.503 102.622 162.452C103.495 161.96 104.355 161.457 105.202 160.942C105.238 160.92 105.275 160.9 105.311 160.878C105.531 160.743 105.743 160.603 105.961 160.467C106.289 160.261 106.618 160.057 106.942 159.847C107.21 159.673 107.473 159.496 107.739 159.32C108.052 159.111 108.365 158.904 108.673 158.693C108.741 158.646 108.811 158.601 108.878 158.555C109.125 158.384 109.365 158.21 109.608 158.037C109.822 157.885 110.038 157.735 110.25 157.582C110.584 157.339 110.911 157.093 111.239 156.846C111.422 156.708 111.609 156.572 111.79 156.433C112.192 156.126 112.584 155.814 112.973 155.501C113.074 155.42 113.179 155.34 113.279 155.259C113.752 154.875 114.216 154.487 114.671 154.095C114.684 154.084 114.696 154.073 114.71 154.061C114.788 153.993 114.863 153.925 114.941 153.856C115.307 153.538 115.668 153.217 116.022 152.893C116.167 152.761 116.308 152.627 116.451 152.493C116.734 152.229 117.013 151.964 117.288 151.697C117.438 151.551 117.587 151.405 117.734 151.258C118.001 150.993 118.263 150.726 118.521 150.458C118.656 150.318 118.792 150.178 118.925 150.037C118.983 149.975 119.044 149.914 119.101 149.853C119.284 149.657 119.456 149.458 119.633 149.261C119.787 149.091 119.943 148.921 120.093 148.751C120.338 148.47 120.573 148.188 120.808 147.905C120.931 147.758 121.059 147.611 121.179 147.463C121.494 147.073 121.799 146.682 122.093 146.289C122.124 146.247 122.159 146.205 122.19 146.163C122.502 145.745 122.801 145.326 123.088 144.905C123.099 144.889 123.108 144.873 123.119 144.857C123.277 144.624 123.422 144.391 123.572 144.158C123.717 143.933 123.868 143.709 124.006 143.483C124.149 143.249 124.278 143.014 124.413 142.78C124.535 142.569 124.664 142.359 124.78 142.147C124.787 142.133 124.794 142.118 124.801 142.104C125.059 141.628 125.301 141.152 125.527 140.674C125.649 140.414 125.766 140.154 125.877 139.896C126.022 139.559 126.156 139.225 126.281 138.894C126.288 138.873 126.294 138.854 126.302 138.834C126.411 138.542 126.514 138.252 126.608 137.964C126.653 137.825 126.679 137.692 126.721 137.554C126.809 137.262 126.889 136.973 126.961 136.686C126.998 136.539 127.051 136.387 127.084 136.241C127.116 136.101 127.129 135.966 127.157 135.827C127.207 135.577 127.251 135.33 127.289 135.085C127.31 134.949 127.345 134.809 127.362 134.674Z" fill="white"/>
</mask>
<g mask="url(#mask0_520_4935)">
<ellipse cx="36.4391" cy="112.218" rx="0.748451" ry="0.752173" fill="white" stroke="#3D3D3C" stroke-width="0.96" stroke-linecap="round" stroke-linejoin="round"/>
<ellipse cx="42.6925" cy="112.218" rx="0.748451" ry="0.752173" fill="white" stroke="#3D3D3C" stroke-width="0.96" stroke-linecap="round" stroke-linejoin="round"/>
<ellipse cx="48.9457" cy="112.218" rx="0.748451" ry="0.752173" fill="white" stroke="#3D3D3C" stroke-width="0.96" stroke-linecap="round" stroke-linejoin="round"/>
<ellipse cx="55.1989" cy="112.218" rx="0.748451" ry="0.752173" fill="white" stroke="#3D3D3C" stroke-width="0.96" stroke-linecap="round" stroke-linejoin="round"/>
<ellipse cx="61.4521" cy="112.218" rx="0.748451" ry="0.752173" fill="white" stroke="#3D3D3C" stroke-width="0.96" stroke-linecap="round" stroke-linejoin="round"/>
<ellipse cx="67.7052" cy="112.218" rx="0.748451" ry="0.752173" fill="white" stroke="#3D3D3C" stroke-width="0.96" stroke-linecap="round" stroke-linejoin="round"/>
<ellipse cx="73.9587" cy="112.218" rx="0.748451" ry="0.752173" fill="white" stroke="#3D3D3C" stroke-width="0.96" stroke-linecap="round" stroke-linejoin="round"/>
<ellipse cx="86.465" cy="112.218" rx="0.748451" ry="0.752173" fill="white" stroke="#3D3D3C" stroke-width="0.96" stroke-linecap="round" stroke-linejoin="round"/>
<ellipse cx="80.2118" cy="112.218" rx="0.748451" ry="0.752173" fill="white" stroke="#3D3D3C" stroke-width="0.96" stroke-linecap="round" stroke-linejoin="round"/>
<ellipse cx="92.7182" cy="112.218" rx="0.748451" ry="0.752173" fill="white" stroke="#3D3D3C" stroke-width="0.96" stroke-linecap="round" stroke-linejoin="round"/>
<ellipse cx="98.9716" cy="112.218" rx="0.748451" ry="0.752173" fill="white" stroke="#3D3D3C" stroke-width="0.96" stroke-linecap="round" stroke-linejoin="round"/>
<ellipse cx="105.225" cy="112.218" rx="0.748451" ry="0.752173" fill="white" stroke="#3D3D3C" stroke-width="0.96" stroke-linecap="round" stroke-linejoin="round"/>
<ellipse cx="111.478" cy="112.218" rx="0.748451" ry="0.752173" fill="white" stroke="#3D3D3C" stroke-width="0.96" stroke-linecap="round" stroke-linejoin="round"/>
<ellipse cx="117.731" cy="112.218" rx="0.748451" ry="0.752173" fill="white" stroke="#3D3D3C" stroke-width="0.96" stroke-linecap="round" stroke-linejoin="round"/>
<ellipse cx="123.984" cy="112.218" rx="0.748451" ry="0.752173" fill="white" stroke="#3D3D3C" stroke-width="0.96" stroke-linecap="round" stroke-linejoin="round"/>
<ellipse cx="36.4391" cy="118.405" rx="0.748451" ry="0.752173" fill="white" stroke="#3D3D3C" stroke-width="0.96" stroke-linecap="round" stroke-linejoin="round"/>
<ellipse cx="42.6925" cy="118.405" rx="0.748451" ry="0.752173" fill="white" stroke="#3D3D3C" stroke-width="0.96" stroke-linecap="round" stroke-linejoin="round"/>
<ellipse cx="48.9457" cy="118.405" rx="0.748451" ry="0.752173" fill="white" stroke="#3D3D3C" stroke-width="0.96" stroke-linecap="round" stroke-linejoin="round"/>
<ellipse cx="55.1989" cy="118.405" rx="0.748451" ry="0.752173" fill="white" stroke="#3D3D3C" stroke-width="0.96" stroke-linecap="round" stroke-linejoin="round"/>
<ellipse cx="61.4521" cy="118.405" rx="0.748451" ry="0.752173" fill="white" stroke="#3D3D3C" stroke-width="0.96" stroke-linecap="round" stroke-linejoin="round"/>
<ellipse cx="67.7052" cy="118.405" rx="0.748451" ry="0.752173" fill="white" stroke="#3D3D3C" stroke-width="0.96" stroke-linecap="round" stroke-linejoin="round"/>
<ellipse cx="73.9587" cy="118.405" rx="0.748451" ry="0.752173" fill="white" stroke="#3D3D3C" stroke-width="0.96" stroke-linecap="round" stroke-linejoin="round"/>
<ellipse cx="86.465" cy="118.405" rx="0.748451" ry="0.752173" fill="white" stroke="#3D3D3C" stroke-width="0.96" stroke-linecap="round" stroke-linejoin="round"/>
<ellipse cx="80.2118" cy="118.405" rx="0.748451" ry="0.752173" fill="white" stroke="#3D3D3C" stroke-width="0.96" stroke-linecap="round" stroke-linejoin="round"/>
<ellipse cx="92.7182" cy="118.405" rx="0.748451" ry="0.752173" fill="white" stroke="#3D3D3C" stroke-width="0.96" stroke-linecap="round" stroke-linejoin="round"/>
<ellipse cx="98.9716" cy="118.405" rx="0.748451" ry="0.752173" fill="white" stroke="#3D3D3C" stroke-width="0.96" stroke-linecap="round" stroke-linejoin="round"/>
<ellipse cx="105.225" cy="118.405" rx="0.748451" ry="0.752173" fill="white" stroke="#3D3D3C" stroke-width="0.96" stroke-linecap="round" stroke-linejoin="round"/>
<ellipse cx="111.478" cy="118.405" rx="0.748451" ry="0.752173" fill="white" stroke="#3D3D3C" stroke-width="0.96" stroke-linecap="round" stroke-linejoin="round"/>
<ellipse cx="117.731" cy="118.405" rx="0.748451" ry="0.752173" fill="white" stroke="#3D3D3C" stroke-width="0.96" stroke-linecap="round" stroke-linejoin="round"/>
<ellipse cx="123.984" cy="118.405" rx="0.748451" ry="0.752173" fill="white" stroke="#3D3D3C" stroke-width="0.96" stroke-linecap="round" stroke-linejoin="round"/>
<ellipse cx="36.4391" cy="124.59" rx="0.748451" ry="0.752173" fill="white" stroke="#3D3D3C" stroke-width="0.96" stroke-linecap="round" stroke-linejoin="round"/>
<ellipse cx="42.6925" cy="124.59" rx="0.748451" ry="0.752173" fill="white" stroke="#3D3D3C" stroke-width="0.96" stroke-linecap="round" stroke-linejoin="round"/>
<ellipse cx="48.9457" cy="124.59" rx="0.748451" ry="0.752173" fill="white" stroke="#3D3D3C" stroke-width="0.96" stroke-linecap="round" stroke-linejoin="round"/>
<ellipse cx="55.1989" cy="124.59" rx="0.748451" ry="0.752173" fill="white" stroke="#3D3D3C" stroke-width="0.96" stroke-linecap="round" stroke-linejoin="round"/>
<ellipse cx="61.4521" cy="124.59" rx="0.748451" ry="0.752173" fill="white" stroke="#3D3D3C" stroke-width="0.96" stroke-linecap="round" stroke-linejoin="round"/>
<ellipse cx="67.7052" cy="124.59" rx="0.748451" ry="0.752173" fill="white" stroke="#3D3D3C" stroke-width="0.96" stroke-linecap="round" stroke-linejoin="round"/>
<ellipse cx="73.9587" cy="124.59" rx="0.748451" ry="0.752173" fill="white" stroke="#3D3D3C" stroke-width="0.96" stroke-linecap="round" stroke-linejoin="round"/>
<ellipse cx="86.465" cy="124.59" rx="0.748451" ry="0.752173" fill="white" stroke="#3D3D3C" stroke-width="0.96" stroke-linecap="round" stroke-linejoin="round"/>
<ellipse cx="80.2118" cy="124.59" rx="0.748451" ry="0.752173" fill="white" stroke="#3D3D3C" stroke-width="0.96" stroke-linecap="round" stroke-linejoin="round"/>
<ellipse cx="92.7182" cy="124.59" rx="0.748451" ry="0.752173" fill="white" stroke="#3D3D3C" stroke-width="0.96" stroke-linecap="round" stroke-linejoin="round"/>
<ellipse cx="98.9716" cy="124.59" rx="0.748451" ry="0.752173" fill="white" stroke="#3D3D3C" stroke-width="0.96" stroke-linecap="round" stroke-linejoin="round"/>
<ellipse cx="105.225" cy="124.59" rx="0.748451" ry="0.752173" fill="white" stroke="#3D3D3C" stroke-width="0.96" stroke-linecap="round" stroke-linejoin="round"/>
<ellipse cx="111.478" cy="124.59" rx="0.748451" ry="0.752173" fill="white" stroke="#3D3D3C" stroke-width="0.96" stroke-linecap="round" stroke-linejoin="round"/>
<ellipse cx="117.731" cy="124.59" rx="0.748451" ry="0.752173" fill="white" stroke="#3D3D3C" stroke-width="0.96" stroke-linecap="round" stroke-linejoin="round"/>
<ellipse cx="123.984" cy="124.59" rx="0.748451" ry="0.752173" fill="white" stroke="#3D3D3C" stroke-width="0.96" stroke-linecap="round" stroke-linejoin="round"/>
<ellipse cx="36.4391" cy="130.777" rx="0.748451" ry="0.752173" fill="white" stroke="#3D3D3C" stroke-width="0.96" stroke-linecap="round" stroke-linejoin="round"/>
<ellipse cx="42.6925" cy="130.777" rx="0.748451" ry="0.752173" fill="white" stroke="#3D3D3C" stroke-width="0.96" stroke-linecap="round" stroke-linejoin="round"/>
<ellipse cx="48.9457" cy="130.777" rx="0.748451" ry="0.752173" fill="white" stroke="#3D3D3C" stroke-width="0.96" stroke-linecap="round" stroke-linejoin="round"/>
<ellipse cx="55.1989" cy="130.777" rx="0.748451" ry="0.752173" fill="white" stroke="#3D3D3C" stroke-width="0.96" stroke-linecap="round" stroke-linejoin="round"/>
<ellipse cx="61.4521" cy="130.777" rx="0.748451" ry="0.752173" fill="white" stroke="#3D3D3C" stroke-width="0.96" stroke-linecap="round" stroke-linejoin="round"/>
<ellipse cx="67.7052" cy="130.777" rx="0.748451" ry="0.752173" fill="white" stroke="#3D3D3C" stroke-width="0.96" stroke-linecap="round" stroke-linejoin="round"/>
<ellipse cx="73.9587" cy="130.777" rx="0.748451" ry="0.752173" fill="white" stroke="#3D3D3C" stroke-width="0.96" stroke-linecap="round" stroke-linejoin="round"/>
<ellipse cx="86.465" cy="130.777" rx="0.748451" ry="0.752173" fill="white" stroke="#3D3D3C" stroke-width="0.96" stroke-linecap="round" stroke-linejoin="round"/>
<ellipse cx="80.2118" cy="130.777" rx="0.748451" ry="0.752173" fill="white" stroke="#3D3D3C" stroke-width="0.96" stroke-linecap="round" stroke-linejoin="round"/>
<ellipse cx="92.7182" cy="130.777" rx="0.748451" ry="0.752173" fill="white" stroke="#3D3D3C" stroke-width="0.96" stroke-linecap="round" stroke-linejoin="round"/>
<ellipse cx="98.9716" cy="130.777" rx="0.748451" ry="0.752173" fill="white" stroke="#3D3D3C" stroke-width="0.96" stroke-linecap="round" stroke-linejoin="round"/>
<ellipse cx="105.225" cy="130.777" rx="0.748451" ry="0.752173" fill="white" stroke="#3D3D3C" stroke-width="0.96" stroke-linecap="round" stroke-linejoin="round"/>
<ellipse cx="111.478" cy="130.777" rx="0.748451" ry="0.752173" fill="white" stroke="#3D3D3C" stroke-width="0.96" stroke-linecap="round" stroke-linejoin="round"/>
<ellipse cx="117.731" cy="130.777" rx="0.748451" ry="0.752173" fill="white" stroke="#3D3D3C" stroke-width="0.96" stroke-linecap="round" stroke-linejoin="round"/>
<ellipse cx="123.984" cy="130.777" rx="0.748451" ry="0.752173" fill="white" stroke="#3D3D3C" stroke-width="0.96" stroke-linecap="round" stroke-linejoin="round"/>
<ellipse cx="36.4391" cy="136.962" rx="0.748451" ry="0.752173" fill="white" stroke="#3D3D3C" stroke-width="0.96" stroke-linecap="round" stroke-linejoin="round"/>
<ellipse cx="42.6925" cy="136.962" rx="0.748451" ry="0.752173" fill="white" stroke="#3D3D3C" stroke-width="0.96" stroke-linecap="round" stroke-linejoin="round"/>
<ellipse cx="48.9457" cy="136.962" rx="0.748451" ry="0.752173" fill="white" stroke="#3D3D3C" stroke-width="0.96" stroke-linecap="round" stroke-linejoin="round"/>
<ellipse cx="55.1989" cy="136.962" rx="0.748451" ry="0.752173" fill="white" stroke="#3D3D3C" stroke-width="0.96" stroke-linecap="round" stroke-linejoin="round"/>
<ellipse cx="61.4521" cy="136.962" rx="0.748451" ry="0.752173" fill="white" stroke="#3D3D3C" stroke-width="0.96" stroke-linecap="round" stroke-linejoin="round"/>
<ellipse cx="67.7052" cy="136.962" rx="0.748451" ry="0.752173" fill="white" stroke="#3D3D3C" stroke-width="0.96" stroke-linecap="round" stroke-linejoin="round"/>
<ellipse cx="73.9587" cy="136.962" rx="0.748451" ry="0.752173" fill="white" stroke="#3D3D3C" stroke-width="0.96" stroke-linecap="round" stroke-linejoin="round"/>
<ellipse cx="86.465" cy="136.962" rx="0.748451" ry="0.752173" fill="white" stroke="#3D3D3C" stroke-width="0.96" stroke-linecap="round" stroke-linejoin="round"/>
<ellipse cx="80.2118" cy="136.962" rx="0.748451" ry="0.752173" fill="white" stroke="#3D3D3C" stroke-width="0.96" stroke-linecap="round" stroke-linejoin="round"/>
<ellipse cx="92.7182" cy="136.962" rx="0.748451" ry="0.752173" fill="white" stroke="#3D3D3C" stroke-width="0.96" stroke-linecap="round" stroke-linejoin="round"/>
<ellipse cx="98.9716" cy="136.962" rx="0.748451" ry="0.752173" fill="white" stroke="#3D3D3C" stroke-width="0.96" stroke-linecap="round" stroke-linejoin="round"/>
<ellipse cx="105.225" cy="136.962" rx="0.748451" ry="0.752173" fill="white" stroke="#3D3D3C" stroke-width="0.96" stroke-linecap="round" stroke-linejoin="round"/>
<ellipse cx="111.478" cy="136.962" rx="0.748451" ry="0.752173" fill="white" stroke="#3D3D3C" stroke-width="0.96" stroke-linecap="round" stroke-linejoin="round"/>
<ellipse cx="117.731" cy="136.962" rx="0.748451" ry="0.752173" fill="white" stroke="#3D3D3C" stroke-width="0.96" stroke-linecap="round" stroke-linejoin="round"/>
<ellipse cx="123.984" cy="136.962" rx="0.748451" ry="0.752173" fill="white" stroke="#3D3D3C" stroke-width="0.96" stroke-linecap="round" stroke-linejoin="round"/>
<ellipse cx="36.4391" cy="143.149" rx="0.748451" ry="0.752173" fill="white" stroke="#3D3D3C" stroke-width="0.96" stroke-linecap="round" stroke-linejoin="round"/>
<ellipse cx="42.6925" cy="143.149" rx="0.748451" ry="0.752173" fill="white" stroke="#3D3D3C" stroke-width="0.96" stroke-linecap="round" stroke-linejoin="round"/>
<ellipse cx="48.9457" cy="143.149" rx="0.748451" ry="0.752173" fill="white" stroke="#3D3D3C" stroke-width="0.96" stroke-linecap="round" stroke-linejoin="round"/>
<ellipse cx="55.1989" cy="143.149" rx="0.748451" ry="0.752173" fill="white" stroke="#3D3D3C" stroke-width="0.96" stroke-linecap="round" stroke-linejoin="round"/>
<ellipse cx="61.4521" cy="143.149" rx="0.748451" ry="0.752173" fill="white" stroke="#3D3D3C" stroke-width="0.96" stroke-linecap="round" stroke-linejoin="round"/>
<ellipse cx="67.7052" cy="143.149" rx="0.748451" ry="0.752173" fill="white" stroke="#3D3D3C" stroke-width="0.96" stroke-linecap="round" stroke-linejoin="round"/>
<ellipse cx="73.9587" cy="143.149" rx="0.748451" ry="0.752173" fill="white" stroke="#3D3D3C" stroke-width="0.96" stroke-linecap="round" stroke-linejoin="round"/>
<ellipse cx="86.465" cy="143.149" rx="0.748451" ry="0.752173" fill="white" stroke="#3D3D3C" stroke-width="0.96" stroke-linecap="round" stroke-linejoin="round"/>
<ellipse cx="80.2118" cy="143.149" rx="0.748451" ry="0.752173" fill="white" stroke="#3D3D3C" stroke-width="0.96" stroke-linecap="round" stroke-linejoin="round"/>
<ellipse cx="92.7182" cy="143.149" rx="0.748451" ry="0.752173" fill="white" stroke="#3D3D3C" stroke-width="0.96" stroke-linecap="round" stroke-linejoin="round"/>
<ellipse cx="98.9716" cy="143.149" rx="0.748451" ry="0.752173" fill="white" stroke="#3D3D3C" stroke-width="0.96" stroke-linecap="round" stroke-linejoin="round"/>
<ellipse cx="105.225" cy="143.149" rx="0.748451" ry="0.752173" fill="white" stroke="#3D3D3C" stroke-width="0.96" stroke-linecap="round" stroke-linejoin="round"/>
<ellipse cx="111.478" cy="143.149" rx="0.748451" ry="0.752173" fill="white" stroke="#3D3D3C" stroke-width="0.96" stroke-linecap="round" stroke-linejoin="round"/>
<ellipse cx="117.731" cy="143.149" rx="0.748451" ry="0.752173" fill="white" stroke="#3D3D3C" stroke-width="0.96" stroke-linecap="round" stroke-linejoin="round"/>
<ellipse cx="123.984" cy="143.149" rx="0.748451" ry="0.752173" fill="white" stroke="#3D3D3C" stroke-width="0.96" stroke-linecap="round" stroke-linejoin="round"/>
<ellipse cx="36.4391" cy="149.333" rx="0.748451" ry="0.752173" fill="white" stroke="#3D3D3C" stroke-width="0.96" stroke-linecap="round" stroke-linejoin="round"/>
<ellipse cx="42.6925" cy="149.333" rx="0.748451" ry="0.752173" fill="white" stroke="#3D3D3C" stroke-width="0.96" stroke-linecap="round" stroke-linejoin="round"/>
<ellipse cx="48.9457" cy="149.333" rx="0.748451" ry="0.752173" fill="white" stroke="#3D3D3C" stroke-width="0.96" stroke-linecap="round" stroke-linejoin="round"/>
<ellipse cx="55.1989" cy="149.333" rx="0.748451" ry="0.752173" fill="white" stroke="#3D3D3C" stroke-width="0.96" stroke-linecap="round" stroke-linejoin="round"/>
<ellipse cx="61.4521" cy="149.333" rx="0.748451" ry="0.752173" fill="white" stroke="#3D3D3C" stroke-width="0.96" stroke-linecap="round" stroke-linejoin="round"/>
<ellipse cx="67.7052" cy="149.333" rx="0.748451" ry="0.752173" fill="white" stroke="#3D3D3C" stroke-width="0.96" stroke-linecap="round" stroke-linejoin="round"/>
<ellipse cx="73.9587" cy="149.333" rx="0.748451" ry="0.752173" fill="white" stroke="#3D3D3C" stroke-width="0.96" stroke-linecap="round" stroke-linejoin="round"/>
<ellipse cx="86.465" cy="149.333" rx="0.748451" ry="0.752173" fill="white" stroke="#3D3D3C" stroke-width="0.96" stroke-linecap="round" stroke-linejoin="round"/>
<ellipse cx="80.2118" cy="149.333" rx="0.748451" ry="0.752173" fill="white" stroke="#3D3D3C" stroke-width="0.96" stroke-linecap="round" stroke-linejoin="round"/>
<ellipse cx="92.7182" cy="149.333" rx="0.748451" ry="0.752173" fill="white" stroke="#3D3D3C" stroke-width="0.96" stroke-linecap="round" stroke-linejoin="round"/>
<ellipse cx="98.9716" cy="149.333" rx="0.748451" ry="0.752173" fill="white" stroke="#3D3D3C" stroke-width="0.96" stroke-linecap="round" stroke-linejoin="round"/>
<ellipse cx="105.225" cy="149.333" rx="0.748451" ry="0.752173" fill="white" stroke="#3D3D3C" stroke-width="0.96" stroke-linecap="round" stroke-linejoin="round"/>
<ellipse cx="111.478" cy="149.333" rx="0.748451" ry="0.752173" fill="white" stroke="#3D3D3C" stroke-width="0.96" stroke-linecap="round" stroke-linejoin="round"/>
<ellipse cx="117.731" cy="149.333" rx="0.748451" ry="0.752173" fill="white" stroke="#3D3D3C" stroke-width="0.96" stroke-linecap="round" stroke-linejoin="round"/>
<ellipse cx="123.984" cy="149.333" rx="0.748451" ry="0.752173" fill="white" stroke="#3D3D3C" stroke-width="0.96" stroke-linecap="round" stroke-linejoin="round"/>
<ellipse cx="36.4391" cy="155.521" rx="0.748451" ry="0.752173" fill="white" stroke="#3D3D3C" stroke-width="0.96" stroke-linecap="round" stroke-linejoin="round"/>
<ellipse cx="42.6925" cy="155.521" rx="0.748451" ry="0.752173" fill="white" stroke="#3D3D3C" stroke-width="0.96" stroke-linecap="round" stroke-linejoin="round"/>
<ellipse cx="48.9457" cy="155.521" rx="0.748451" ry="0.752173" fill="white" stroke="#3D3D3C" stroke-width="0.96" stroke-linecap="round" stroke-linejoin="round"/>
<ellipse cx="55.1989" cy="155.521" rx="0.748451" ry="0.752173" fill="white" stroke="#3D3D3C" stroke-width="0.96" stroke-linecap="round" stroke-linejoin="round"/>
<ellipse cx="61.4521" cy="155.521" rx="0.748451" ry="0.752173" fill="white" stroke="#3D3D3C" stroke-width="0.96" stroke-linecap="round" stroke-linejoin="round"/>
<ellipse cx="67.7052" cy="155.521" rx="0.748451" ry="0.752173" fill="white" stroke="#3D3D3C" stroke-width="0.96" stroke-linecap="round" stroke-linejoin="round"/>
<ellipse cx="73.9587" cy="155.521" rx="0.748451" ry="0.752173" fill="white" stroke="#3D3D3C" stroke-width="0.96" stroke-linecap="round" stroke-linejoin="round"/>
<ellipse cx="86.465" cy="155.521" rx="0.748451" ry="0.752173" fill="white" stroke="#3D3D3C" stroke-width="0.96" stroke-linecap="round" stroke-linejoin="round"/>
<ellipse cx="80.2118" cy="155.521" rx="0.748451" ry="0.752173" fill="white" stroke="#3D3D3C" stroke-width="0.96" stroke-linecap="round" stroke-linejoin="round"/>
<ellipse cx="92.7182" cy="155.521" rx="0.748451" ry="0.752173" fill="white" stroke="#3D3D3C" stroke-width="0.96" stroke-linecap="round" stroke-linejoin="round"/>
<ellipse cx="98.9716" cy="155.521" rx="0.748451" ry="0.752173" fill="white" stroke="#3D3D3C" stroke-width="0.96" stroke-linecap="round" stroke-linejoin="round"/>
<ellipse cx="105.225" cy="155.521" rx="0.748451" ry="0.752173" fill="white" stroke="#3D3D3C" stroke-width="0.96" stroke-linecap="round" stroke-linejoin="round"/>
<ellipse cx="111.478" cy="155.521" rx="0.748451" ry="0.752173" fill="white" stroke="#3D3D3C" stroke-width="0.96" stroke-linecap="round" stroke-linejoin="round"/>
<ellipse cx="117.731" cy="155.521" rx="0.748451" ry="0.752173" fill="white" stroke="#3D3D3C" stroke-width="0.96" stroke-linecap="round" stroke-linejoin="round"/>
<ellipse cx="123.984" cy="155.521" rx="0.748451" ry="0.752173" fill="white" stroke="#3D3D3C" stroke-width="0.96" stroke-linecap="round" stroke-linejoin="round"/>
<ellipse cx="36.4391" cy="161.706" rx="0.748451" ry="0.752173" fill="white" stroke="#3D3D3C" stroke-width="0.96" stroke-linecap="round" stroke-linejoin="round"/>
<ellipse cx="42.6925" cy="161.706" rx="0.748451" ry="0.752173" fill="white" stroke="#3D3D3C" stroke-width="0.96" stroke-linecap="round" stroke-linejoin="round"/>
<ellipse cx="48.9457" cy="161.706" rx="0.748451" ry="0.752173" fill="white" stroke="#3D3D3C" stroke-width="0.96" stroke-linecap="round" stroke-linejoin="round"/>
<ellipse cx="55.1989" cy="161.706" rx="0.748451" ry="0.752173" fill="white" stroke="#3D3D3C" stroke-width="0.96" stroke-linecap="round" stroke-linejoin="round"/>
<ellipse cx="61.4521" cy="161.706" rx="0.748451" ry="0.752173" fill="white" stroke="#3D3D3C" stroke-width="0.96" stroke-linecap="round" stroke-linejoin="round"/>
<ellipse cx="67.7052" cy="161.706" rx="0.748451" ry="0.752173" fill="white" stroke="#3D3D3C" stroke-width="0.96" stroke-linecap="round" stroke-linejoin="round"/>
<ellipse cx="73.9587" cy="161.706" rx="0.748451" ry="0.752173" fill="white" stroke="#3D3D3C" stroke-width="0.96" stroke-linecap="round" stroke-linejoin="round"/>
<ellipse cx="86.465" cy="161.706" rx="0.748451" ry="0.752173" fill="white" stroke="#3D3D3C" stroke-width="0.96" stroke-linecap="round" stroke-linejoin="round"/>
<ellipse cx="80.2118" cy="161.706" rx="0.748451" ry="0.752173" fill="white" stroke="#3D3D3C" stroke-width="0.96" stroke-linecap="round" stroke-linejoin="round"/>
<ellipse cx="92.7182" cy="161.706" rx="0.748451" ry="0.752173" fill="white" stroke="#3D3D3C" stroke-width="0.96" stroke-linecap="round" stroke-linejoin="round"/>
<ellipse cx="98.9716" cy="161.706" rx="0.748451" ry="0.752173" fill="white" stroke="#3D3D3C" stroke-width="0.96" stroke-linecap="round" stroke-linejoin="round"/>
<ellipse cx="105.225" cy="161.706" rx="0.748451" ry="0.752173" fill="white" stroke="#3D3D3C" stroke-width="0.96" stroke-linecap="round" stroke-linejoin="round"/>
<ellipse cx="111.478" cy="161.706" rx="0.748451" ry="0.752173" fill="white" stroke="#3D3D3C" stroke-width="0.96" stroke-linecap="round" stroke-linejoin="round"/>
<ellipse cx="117.731" cy="161.706" rx="0.748451" ry="0.752173" fill="white" stroke="#3D3D3C" stroke-width="0.96" stroke-linecap="round" stroke-linejoin="round"/>
<ellipse cx="123.984" cy="161.706" rx="0.748451" ry="0.752173" fill="white" stroke="#3D3D3C" stroke-width="0.96" stroke-linecap="round" stroke-linejoin="round"/>
<ellipse cx="36.4391" cy="167.893" rx="0.748451" ry="0.752173" fill="white" stroke="#3D3D3C" stroke-width="0.96" stroke-linecap="round" stroke-linejoin="round"/>
<ellipse cx="42.6925" cy="167.893" rx="0.748451" ry="0.752173" fill="white" stroke="#3D3D3C" stroke-width="0.96" stroke-linecap="round" stroke-linejoin="round"/>
<ellipse cx="48.9457" cy="167.893" rx="0.748451" ry="0.752173" fill="white" stroke="#3D3D3C" stroke-width="0.96" stroke-linecap="round" stroke-linejoin="round"/>
<ellipse cx="55.1989" cy="167.893" rx="0.748451" ry="0.752173" fill="white" stroke="#3D3D3C" stroke-width="0.96" stroke-linecap="round" stroke-linejoin="round"/>
<ellipse cx="61.4521" cy="167.893" rx="0.748451" ry="0.752173" fill="white" stroke="#3D3D3C" stroke-width="0.96" stroke-linecap="round" stroke-linejoin="round"/>
<ellipse cx="67.7052" cy="167.893" rx="0.748451" ry="0.752173" fill="white" stroke="#3D3D3C" stroke-width="0.96" stroke-linecap="round" stroke-linejoin="round"/>
<ellipse cx="73.9587" cy="167.893" rx="0.748451" ry="0.752173" fill="white" stroke="#3D3D3C" stroke-width="0.96" stroke-linecap="round" stroke-linejoin="round"/>
<ellipse cx="86.465" cy="167.893" rx="0.748451" ry="0.752173" fill="white" stroke="#3D3D3C" stroke-width="0.96" stroke-linecap="round" stroke-linejoin="round"/>
<ellipse cx="80.2118" cy="167.893" rx="0.748451" ry="0.752173" fill="white" stroke="#3D3D3C" stroke-width="0.96" stroke-linecap="round" stroke-linejoin="round"/>
<ellipse cx="92.7182" cy="167.893" rx="0.748451" ry="0.752173" fill="white" stroke="#3D3D3C" stroke-width="0.96" stroke-linecap="round" stroke-linejoin="round"/>
<ellipse cx="98.9716" cy="167.893" rx="0.748451" ry="0.752173" fill="white" stroke="#3D3D3C" stroke-width="0.96" stroke-linecap="round" stroke-linejoin="round"/>
<ellipse cx="105.225" cy="167.893" rx="0.748451" ry="0.752173" fill="white" stroke="#3D3D3C" stroke-width="0.96" stroke-linecap="round" stroke-linejoin="round"/>
<ellipse cx="111.478" cy="167.893" rx="0.748451" ry="0.752173" fill="white" stroke="#3D3D3C" stroke-width="0.96" stroke-linecap="round" stroke-linejoin="round"/>
<ellipse cx="117.731" cy="167.893" rx="0.748451" ry="0.752173" fill="white" stroke="#3D3D3C" stroke-width="0.96" stroke-linecap="round" stroke-linejoin="round"/>
<ellipse cx="123.984" cy="167.893" rx="0.748451" ry="0.752173" fill="white" stroke="#3D3D3C" stroke-width="0.96" stroke-linecap="round" stroke-linejoin="round"/>
<ellipse cx="36.4391" cy="174.077" rx="0.748451" ry="0.752173" fill="white" stroke="#3D3D3C" stroke-width="0.96" stroke-linecap="round" stroke-linejoin="round"/>
<ellipse cx="42.6925" cy="174.077" rx="0.748451" ry="0.752173" fill="white" stroke="#3D3D3C" stroke-width="0.96" stroke-linecap="round" stroke-linejoin="round"/>
<ellipse cx="48.9457" cy="174.077" rx="0.748451" ry="0.752173" fill="white" stroke="#3D3D3C" stroke-width="0.96" stroke-linecap="round" stroke-linejoin="round"/>
<ellipse cx="55.1989" cy="174.077" rx="0.748451" ry="0.752173" fill="white" stroke="#3D3D3C" stroke-width="0.96" stroke-linecap="round" stroke-linejoin="round"/>
<ellipse cx="61.4521" cy="174.077" rx="0.748451" ry="0.752173" fill="white" stroke="#3D3D3C" stroke-width="0.96" stroke-linecap="round" stroke-linejoin="round"/>
<ellipse cx="67.7052" cy="174.077" rx="0.748451" ry="0.752173" fill="white" stroke="#3D3D3C" stroke-width="0.96" stroke-linecap="round" stroke-linejoin="round"/>
<ellipse cx="73.9587" cy="174.077" rx="0.748451" ry="0.752173" fill="white" stroke="#3D3D3C" stroke-width="0.96" stroke-linecap="round" stroke-linejoin="round"/>
<ellipse cx="86.465" cy="174.077" rx="0.748451" ry="0.752173" fill="white" stroke="#3D3D3C" stroke-width="0.96" stroke-linecap="round" stroke-linejoin="round"/>
<ellipse cx="80.2118" cy="174.077" rx="0.748451" ry="0.752173" fill="white" stroke="#3D3D3C" stroke-width="0.96" stroke-linecap="round" stroke-linejoin="round"/>
<ellipse cx="92.7182" cy="174.077" rx="0.748451" ry="0.752173" fill="white" stroke="#3D3D3C" stroke-width="0.96" stroke-linecap="round" stroke-linejoin="round"/>
<ellipse cx="98.9716" cy="174.077" rx="0.748451" ry="0.752173" fill="white" stroke="#3D3D3C" stroke-width="0.96" stroke-linecap="round" stroke-linejoin="round"/>
<ellipse cx="105.225" cy="174.077" rx="0.748451" ry="0.752173" fill="white" stroke="#3D3D3C" stroke-width="0.96" stroke-linecap="round" stroke-linejoin="round"/>
<ellipse cx="111.478" cy="174.077" rx="0.748451" ry="0.752173" fill="white" stroke="#3D3D3C" stroke-width="0.96" stroke-linecap="round" stroke-linejoin="round"/>
<ellipse cx="117.731" cy="174.077" rx="0.748451" ry="0.752173" fill="white" stroke="#3D3D3C" stroke-width="0.96" stroke-linecap="round" stroke-linejoin="round"/>
<ellipse cx="123.984" cy="174.077" rx="0.748451" ry="0.752173" fill="white" stroke="#3D3D3C" stroke-width="0.96" stroke-linecap="round" stroke-linejoin="round"/>
</g>
<path fill-rule="evenodd" clip-rule="evenodd" d="M128.43 133.689C128.45 133.533 128.451 133.383 128.466 133.228C128.488 133.002 128.508 132.777 128.519 132.555C128.525 132.445 128.542 132.33 128.546 132.22C128.551 132.04 128.535 131.868 128.533 131.69C128.531 131.482 128.531 131.274 128.519 131.07C128.515 130.988 128.52 130.903 128.514 130.822C128.498 130.614 128.46 130.416 128.434 130.212C128.411 130.023 128.393 129.831 128.361 129.645C128.351 129.591 128.349 129.535 128.339 129.481C128.295 129.247 128.227 129.023 128.17 128.794C128.128 128.621 128.094 128.446 128.044 128.277C128.034 128.245 128.03 128.212 128.02 128.18C127.898 127.783 127.754 127.392 127.59 127.01L119.49 108.201C119.666 108.614 119.817 109.037 119.944 109.468C119.994 109.636 120.027 109.812 120.07 109.983C120.14 110.265 120.211 110.547 120.261 110.837C120.292 111.022 120.311 111.214 120.334 111.403C120.37 111.686 120.403 111.97 120.419 112.261C120.431 112.465 120.431 112.673 120.433 112.882C120.436 113.167 120.434 113.454 120.419 113.746C120.408 113.968 120.388 114.193 120.366 114.419C120.338 114.706 120.302 114.997 120.257 115.29C120.219 115.536 120.175 115.783 120.125 116.032C120.068 116.316 120.001 116.603 119.928 116.892C119.856 117.179 119.776 117.468 119.689 117.759C119.561 118.182 119.431 118.606 119.269 119.039C119.262 119.059 119.256 119.079 119.248 119.099C119.028 119.684 118.777 120.278 118.494 120.88C118.27 121.357 118.027 121.834 117.769 122.31C117.646 122.536 117.51 122.76 117.38 122.986C117.245 123.22 117.116 123.454 116.974 123.688C116.836 123.914 116.684 124.138 116.539 124.363C116.389 124.596 116.245 124.83 116.087 125.062C115.789 125.499 115.48 125.935 115.157 126.369C115.13 126.406 115.1 126.442 115.073 126.479C114.774 126.877 114.465 127.274 114.145 127.669C114.027 127.815 113.901 127.96 113.78 128.105C113.544 128.39 113.307 128.674 113.06 128.957C112.911 129.127 112.755 129.295 112.603 129.464C112.369 129.724 112.135 129.984 111.892 130.242C111.759 130.384 111.623 130.524 111.487 130.665C111.23 130.932 110.968 131.198 110.703 131.463C110.555 131.61 110.406 131.757 110.255 131.903C109.981 132.17 109.702 132.435 109.419 132.699C109.276 132.832 109.134 132.966 108.989 133.099C108.636 133.422 108.275 133.743 107.909 134.062C107.831 134.13 107.756 134.199 107.677 134.267C107.209 134.67 106.732 135.07 106.245 135.466C106.15 135.542 106.051 135.617 105.956 135.694C105.562 136.011 105.164 136.327 104.758 136.639C104.577 136.778 104.39 136.914 104.206 137.052C103.879 137.298 103.552 137.544 103.217 137.787C103.006 137.94 102.79 138.091 102.576 138.242C102.266 138.462 101.956 138.681 101.641 138.898C101.332 139.11 101.016 139.319 100.702 139.528C100.439 139.702 100.178 139.879 99.911 140.051C99.5873 140.261 99.2577 140.466 98.9291 140.672C98.6756 140.831 98.4243 140.992 98.168 141.148C97.324 141.664 96.4646 142.167 95.5897 142.657C95.3902 142.77 95.1898 142.881 94.9887 142.992C94.2978 143.374 93.5995 143.747 92.8937 144.113C92.7864 144.168 92.6812 144.226 92.5735 144.281C91.8214 144.666 91.061 145.04 90.2923 145.403C90.0719 145.508 89.8491 145.608 89.6275 145.712C89.0946 145.959 88.5587 146.201 88.0198 146.439C87.7585 146.555 87.4965 146.668 87.2339 146.781C86.7262 146.998 86.2159 147.21 85.703 147.418C85.457 147.518 85.212 147.619 84.965 147.717C84.35 147.96 83.7319 148.196 83.1109 148.424C82.9839 148.471 82.858 148.521 82.7309 148.567C81.989 148.837 81.2438 149.095 80.4954 149.343C80.2857 149.413 80.0747 149.477 79.8645 149.545C79.3188 149.721 78.7723 149.894 78.2241 150.059C77.9538 150.14 77.6831 150.217 77.4123 150.295C76.9062 150.441 76.3994 150.583 75.8918 150.719C75.6122 150.794 75.3325 150.867 75.0526 150.939C74.4989 151.081 73.9448 151.215 73.3903 151.343C73.1559 151.398 72.9217 151.455 72.6873 151.507C71.866 151.689 71.0447 151.858 70.2235 152.012C70.0875 152.037 69.9518 152.058 69.8158 152.082C69.0513 152.22 68.2879 152.344 67.5255 152.454C67.0953 152.517 66.6648 152.583 66.2355 152.637C65.3539 152.748 64.4902 152.836 63.6407 152.907C63.4672 152.922 63.2991 152.93 63.127 152.943C62.4977 152.99 61.8776 153.026 61.2664 153.052C61.0167 153.063 60.7698 153.07 60.5234 153.077C60.0053 153.091 59.4962 153.095 58.9924 153.093C58.7074 153.093 58.4209 153.093 58.1404 153.088C57.6194 153.077 57.1103 153.054 56.6057 153.027C56.3824 153.015 56.1536 153.008 55.9336 152.992C55.2187 152.942 54.5182 152.877 53.8384 152.794C53.7638 152.785 53.6941 152.771 53.6199 152.761C53.0167 152.683 52.4276 152.592 51.8528 152.488C51.6367 152.449 51.4296 152.402 51.2176 152.359C50.7946 152.273 50.3761 152.184 49.97 152.084C49.7401 152.027 49.5159 151.966 49.2913 151.904C48.9163 151.802 48.5488 151.694 48.1889 151.58C47.9708 151.51 47.754 151.44 47.5417 151.366C47.1824 151.241 46.8345 151.107 46.4922 150.968C46.3053 150.893 46.1146 150.82 45.9328 150.742C45.5367 150.569 45.157 150.385 44.7855 150.195C44.6765 150.139 44.5603 150.089 44.4536 150.031C43.9836 149.78 43.5348 149.514 43.1073 149.234C42.9959 149.161 42.8954 149.082 42.787 149.007C42.478 148.794 42.1759 148.577 41.891 148.349C41.7514 148.238 41.6211 148.121 41.4873 148.005C41.2498 147.801 41.0186 147.593 40.7998 147.378C40.669 147.25 40.5428 147.118 40.4188 146.986C40.2142 146.768 40.0203 146.544 39.8342 146.315C39.7241 146.18 39.6128 146.045 39.5092 145.906C39.3215 145.654 39.15 145.395 38.9843 145.132C38.9058 145.007 38.8204 144.886 38.7468 144.759C38.5175 144.368 38.3115 143.963 38.1301 143.547L46.2302 162.355C46.4117 162.772 46.6177 163.177 46.8469 163.569C46.9205 163.695 47.0058 163.817 47.0845 163.941C47.2502 164.204 47.4217 164.464 47.6092 164.715C47.713 164.854 47.8241 164.989 47.9343 165.124C48.1205 165.353 48.3143 165.577 48.519 165.795C48.643 165.928 48.769 166.059 48.8997 166.187C49.1187 166.402 49.3498 166.61 49.5873 166.814C49.7211 166.93 49.8514 167.047 49.9911 167.158C50.2756 167.385 50.577 167.602 50.8854 167.815C50.9945 167.89 51.0957 167.97 51.2079 168.043C51.6353 168.323 52.0837 168.589 52.5531 168.84C52.6611 168.898 52.7789 168.949 52.8892 169.005C53.2593 169.194 53.6375 169.378 54.0323 169.55C54.2144 169.629 54.4053 169.702 54.5927 169.778C54.9352 169.916 55.2831 170.05 55.6426 170.175C55.8546 170.249 56.0709 170.319 56.2887 170.389C56.6479 170.503 57.015 170.611 57.39 170.713C57.6155 170.775 57.8405 170.836 58.0713 170.893C58.4767 170.993 58.894 171.082 59.3161 171.167C59.5287 171.211 59.7362 171.258 59.953 171.297C60.5299 171.402 61.1216 171.493 61.7281 171.572C61.7993 171.581 61.8661 171.594 61.9376 171.603C62.6178 171.687 63.3185 171.751 64.0339 171.801C64.2532 171.817 64.4811 171.824 64.7037 171.836C65.2096 171.863 65.7198 171.886 66.2422 171.897C66.5213 171.903 66.8058 171.902 67.0896 171.903C67.3709 171.904 67.6444 171.912 67.9303 171.908C68.158 171.905 68.3946 171.892 68.6251 171.886C68.8709 171.879 69.1168 171.872 69.3659 171.861C69.9765 171.836 70.5969 171.8 71.2269 171.752C71.3992 171.739 71.5672 171.731 71.7409 171.716C71.7915 171.713 71.8401 171.711 71.8908 171.706C72.6914 171.637 73.5063 171.551 74.3357 171.447C74.6367 171.409 74.9379 171.368 75.2394 171.326C75.3679 171.308 75.497 171.282 75.6256 171.264C76.388 171.152 77.1514 171.028 77.9158 170.891C78.0183 170.873 78.1203 170.86 78.2228 170.841C78.2565 170.835 78.2901 170.827 78.3237 170.821C79.1442 170.668 79.9649 170.5 80.7856 170.317C80.847 170.303 80.9087 170.292 80.9702 170.278C81.1452 170.239 81.3197 170.192 81.4947 170.151C82.0476 170.023 82.6001 169.89 83.1522 169.748C83.2806 169.716 83.4094 169.688 83.5378 169.655C83.6897 169.615 83.8406 169.569 83.9925 169.528C84.4991 169.392 85.0049 169.251 85.51 169.105C85.6832 169.055 85.8575 169.011 86.0307 168.96C86.1294 168.931 86.2271 168.897 86.3257 168.867C86.8731 168.703 87.4186 168.531 87.9634 168.355C88.1331 168.299 88.304 168.251 88.4732 168.195C88.5141 168.181 88.5546 168.166 88.5954 168.152C89.3438 167.904 90.0892 167.645 90.8315 167.376C90.8477 167.37 90.864 167.365 90.88 167.359C90.9894 167.319 91.097 167.275 91.2062 167.235C91.8288 167.005 92.4487 166.769 93.0659 166.526C93.1405 166.496 93.2164 166.47 93.291 166.44C93.4624 166.372 93.6305 166.297 93.8014 166.228C94.3145 166.02 94.8255 165.807 95.3342 165.59C95.4641 165.534 95.5965 165.483 95.7261 165.427C95.8586 165.369 95.9878 165.307 96.12 165.249C96.6592 165.011 97.1951 164.768 97.7277 164.521C97.8845 164.448 98.0446 164.38 98.2008 164.306C98.2654 164.276 98.328 164.243 98.3924 164.212C99.1606 163.848 99.9216 163.473 100.675 163.089C100.699 163.077 100.723 163.067 100.746 163.054C100.828 163.012 100.908 162.967 100.989 162.924C101.697 162.559 102.397 162.185 103.089 161.801C103.2 161.74 103.314 161.683 103.425 161.622C103.515 161.572 103.6 161.517 103.69 161.467C104.563 160.975 105.423 160.472 106.269 159.957C106.305 159.935 106.343 159.915 106.379 159.893C106.598 159.758 106.811 159.618 107.028 159.482C107.357 159.276 107.686 159.071 108.01 158.862C108.278 158.688 108.541 158.511 108.806 158.334C109.119 158.126 109.433 157.918 109.741 157.707C109.808 157.661 109.879 157.616 109.946 157.57C110.193 157.399 110.432 157.224 110.676 157.052C110.89 156.9 111.106 156.749 111.317 156.596C111.652 156.354 111.979 156.107 112.306 155.861C112.49 155.723 112.677 155.587 112.858 155.448C113.259 155.14 113.651 154.829 114.041 154.515C114.142 154.434 114.246 154.355 114.347 154.274C114.819 153.89 115.283 153.502 115.738 153.11C115.752 153.099 115.764 153.088 115.777 153.076C115.856 153.008 115.931 152.939 116.009 152.871C116.375 152.552 116.735 152.231 117.089 151.908C117.235 151.775 117.376 151.641 117.519 151.508C117.802 151.244 118.081 150.979 118.356 150.712C118.506 150.566 118.655 150.42 118.802 150.273C119.069 150.008 119.331 149.741 119.588 149.472C119.723 149.332 119.86 149.192 119.992 149.051C120.05 148.99 120.111 148.929 120.169 148.868C120.351 148.672 120.523 148.473 120.701 148.276C120.854 148.106 121.011 147.936 121.161 147.765C121.406 147.485 121.641 147.203 121.876 146.92C121.999 146.772 122.126 146.626 122.246 146.478C122.562 146.088 122.866 145.697 123.161 145.303C123.192 145.262 123.227 145.22 123.258 145.178C123.569 144.76 123.868 144.341 124.156 143.92C124.167 143.904 124.176 143.888 124.187 143.871C124.345 143.639 124.489 143.406 124.64 143.172C124.785 142.947 124.936 142.723 125.074 142.497C125.216 142.264 125.346 142.029 125.481 141.795C125.602 141.584 125.732 141.373 125.847 141.162C125.855 141.148 125.861 141.133 125.869 141.119C126.127 140.643 126.369 140.167 126.594 139.689C126.717 139.428 126.834 139.169 126.945 138.911C127.089 138.574 127.224 138.24 127.348 137.908C127.356 137.888 127.362 137.869 127.369 137.849C127.478 137.557 127.582 137.266 127.675 136.979C127.721 136.84 127.747 136.707 127.789 136.568C127.877 136.277 127.956 135.988 128.029 135.701C128.066 135.554 128.119 135.402 128.151 135.256C128.183 135.116 128.197 134.981 128.225 134.842C128.275 134.592 128.319 134.345 128.357 134.099C128.378 133.964 128.412 133.823 128.43 133.689Z" stroke="#3D3D3C" stroke-width="0.96" stroke-linecap="round" stroke-linejoin="round"/>
<path d="M81.0353 124.481C80.9268 125.857 80.2831 127.134 79.2424 128.039L81.0353 124.481Z" fill="#F5F6F7"/>
<path d="M81.0353 124.481C80.9268 125.857 80.2831 127.134 79.2424 128.039" stroke="#3D3D3C" stroke-width="0.96" stroke-linecap="round" stroke-linejoin="round"/>
<path d="M268.987 200.551C244.871 176.315 211.801 170.255 195.124 187.015C178.446 203.775 184.476 237.009 208.592 261.245C218.336 271.038 229.54 277.856 240.535 281.403C250.721 284.69 259.988 290.809 267.554 298.793C267.951 299.212 268.354 299.627 268.765 300.04C285.892 317.252 308.467 322.471 319.188 311.696C329.909 300.922 324.717 278.234 307.59 261.022C307.179 260.61 306.766 260.204 306.349 259.805C298.404 252.202 292.315 242.889 289.045 232.652C285.516 221.603 278.731 210.343 268.987 200.551Z" fill="white" stroke="#3D3D3C" stroke-width="0.96" stroke-linecap="round" stroke-linejoin="round"/>
<path d="M232.654 209.768C233.694 214.925 232.926 220.282 230.479 224.939L232.654 209.768Z" fill="#F5F6F7"/>
<path d="M232.654 209.768C233.694 214.925 232.926 220.282 230.479 224.939" stroke="#3D3D3C" stroke-width="0.96" stroke-linecap="round" stroke-linejoin="round"/>
<path d="M224.66 49.788C208.596 39.8863 167.811 7.07436 185.77 1.48714C203.729 -4.10008 215.472 39.7344 288.663 63.2933C361.854 86.8523 371.819 142.718 335.335 118.535C298.85 94.3525 309.394 119.404 255.07 86.1929C207.875 57.3396 224.66 49.788 224.66 49.788Z" fill="#93C9C7" stroke="#3D3D3C" stroke-width="0.96" stroke-linecap="round" stroke-linejoin="round"/>
<path d="M252.326 61.7041L255.288 67.7781L252.326 61.7041Z" fill="#F5F6F7"/>
<path d="M252.326 61.7041L255.288 67.7781" stroke="#3D3D3C" stroke-width="0.96" stroke-linecap="round" stroke-linejoin="round"/>
<ellipse cx="207.69" cy="94.0002" rx="14.0305" ry="12.2707" fill="#4F4F5B" stroke="#3D3D3C" stroke-width="0.96" stroke-linecap="round" stroke-linejoin="round"/>
<ellipse cx="219.409" cy="90.2839" rx="14.2659" ry="16.1736" transform="rotate(-82.9915 219.409 90.2839)" fill="#4F4F5B" stroke="#3D3D3C" stroke-width="0.96" stroke-linecap="round" stroke-linejoin="round"/>
<path d="M210.959 98.8353C210.959 98.8353 202.054 116.553 200.186 120.661L217.116 131.314L223.842 98.4746L210.959 98.8353Z" fill="white"/>
<mask id="mask1_520_4935" style="mask-type:luminance" maskUnits="userSpaceOnUse" x="200" y="98" width="24" height="34">
<path fill-rule="evenodd" clip-rule="evenodd" d="M210.959 98.8353C210.959 98.8353 202.054 116.553 200.186 120.661L217.116 131.314L223.842 98.4746L210.959 98.8353Z" fill="white"/>
</mask>
<g mask="url(#mask1_520_4935)">
<path d="M218.618 106.752C217.977 115.208 218.146 114.894 219.96 118.006C222.441 122.262 238.629 120.542 238.629 120.542L234.125 108.712L218.618 106.752Z" fill="#CFCFD0"/>
</g>
<path fill-rule="evenodd" clip-rule="evenodd" d="M210.959 98.8353C210.959 98.8353 202.054 116.553 200.186 120.661L217.116 131.314L223.842 98.4746L210.959 98.8353Z" stroke="#3D3D3C" stroke-width="0.96" stroke-linecap="round" stroke-linejoin="round"/>
<path d="M218.618 106.752C224.045 110.962 227.567 111.58 230.732 108.587C236.429 103.199 231.193 82.6778 228.658 81.3707C226.122 80.0635 214.718 85.8609 214.718 85.8609L210.731 99.6198" fill="white"/>
<path d="M218.618 106.752C224.045 110.962 227.567 111.58 230.732 108.587C236.429 103.199 231.193 82.6778 228.658 81.3707C226.122 80.0635 214.718 85.8609 214.718 85.8609L210.731 99.6198" stroke="#3D3D3C" stroke-width="0.96" stroke-linecap="round" stroke-linejoin="round"/>
<path d="M231.825 78.6997C227.811 73.9436 218.842 73.1728 211.793 76.9781C209.743 78.0845 208.095 79.4602 206.867 80.9661C204.29 81.493 201.799 82.3762 199.466 83.5904C190.607 88.2302 187.17 96.2187 191.791 101.433C196.411 106.647 207.338 107.113 216.198 102.473C220.019 100.472 222.824 97.8471 224.416 95.0915C225.069 94.8293 225.708 94.5324 226.33 94.2019C233.379 90.3966 235.84 83.4562 231.825 78.6997Z" fill="#4F4F5B" stroke="#3D3D3C" stroke-width="0.96" stroke-linecap="round" stroke-linejoin="round"/>
<path d="M220.239 103.198C212.014 99.3693 216.416 88.0378 224.355 96.538L220.239 103.198Z" fill="white"/>
<path d="M220.239 103.198C212.014 99.3693 216.416 88.0378 224.355 96.538" stroke="#3D3D3C" stroke-width="0.96" stroke-linecap="round" stroke-linejoin="round"/>
<path d="M102.993 230.402L79.9061 222.001L72.7922 236.204L98.2187 247.422L102.993 230.402Z" fill="white"/>
<mask id="mask2_520_4935" style="mask-type:luminance" maskUnits="userSpaceOnUse" x="72" y="222" width="31" height="26">
<path fill-rule="evenodd" clip-rule="evenodd" d="M102.993 230.402L79.9061 222.001L72.7922 236.204L98.2187 247.422L102.993 230.402Z" fill="white"/>
</mask>
<g mask="url(#mask2_520_4935)">
<path d="M84.2732 241.268C93.6748 242.871 92.6238 232.274 94.5199 229.456C96.4161 226.639 95.2307 240.712 95.3047 241.456C95.3788 242.201 93.4525 246.296 93.3043 246.594C93.1561 246.892 85.2285 247.86 85.2285 247.86" fill="#CFCFD0"/>
</g>
<path fill-rule="evenodd" clip-rule="evenodd" d="M102.993 230.402L79.9061 222.001L72.7922 236.204L98.2187 247.422L102.993 230.402V230.402Z" stroke="#3D3D3C" stroke-width="0.96" stroke-linecap="round" stroke-linejoin="round"/>
<path d="M47.6875 250.86L75.7103 217.561L90.299 225.329C90.299 225.329 82.7776 234.617 81.2936 242.083C81.2936 242.083 74.0191 236.339 64.2237 247.422C55.231 257.597 47.6875 250.86 47.6875 250.86Z" fill="#4F4F5B"/>
<mask id="mask3_520_4935" style="mask-type:luminance" maskUnits="userSpaceOnUse" x="47" y="217" width="44" height="37">
<path fill-rule="evenodd" clip-rule="evenodd" d="M47.6875 250.86L75.7103 217.561L90.299 225.329C90.299 225.329 82.7776 234.617 81.2936 242.083C81.2936 242.083 74.0191 236.339 64.2237 247.422C55.231 257.597 47.6875 250.86 47.6875 250.86Z" fill="white"/>
</mask>
<g mask="url(#mask3_520_4935)">
<path d="M46.5837 254.641L83.1843 212.646L81.7025 208.477L40.5083 249.159" fill="#4F4F5B"/>
<path d="M46.5837 254.641L83.1843 212.646L81.7025 208.477L40.5083 249.159" stroke="#3D3D3C" stroke-width="0.96" stroke-linecap="round" stroke-linejoin="round"/>
</g>
<path fill-rule="evenodd" clip-rule="evenodd" d="M47.6875 250.86L75.7103 217.561L90.299 225.329C90.299 225.329 82.7776 234.617 81.2936 242.083C81.2936 242.083 74.0191 236.339 64.2237 247.422C55.231 257.597 47.6875 250.86 47.6875 250.86Z" stroke="#3D3D3C" stroke-width="0.96" stroke-linecap="round" stroke-linejoin="round"/>
<path d="M251.648 326.118L266.449 349.851L278.307 344.867L262.86 317.29L251.648 326.118Z" fill="white"/>
<mask id="mask4_520_4935" style="mask-type:luminance" maskUnits="userSpaceOnUse" x="251" y="317" width="28" height="33">
<path fill-rule="evenodd" clip-rule="evenodd" d="M251.648 326.117L266.449 349.85L278.307 344.866L262.86 317.289L251.648 326.117Z" fill="white"/>
</mask>
<g mask="url(#mask4_520_4935)">
<path d="M258.525 339.182C255.525 332.704 267.675 325.886 267.675 325.886L256.525 326.115L248.634 334.715" fill="#CFCFD0"/>
</g>
<path fill-rule="evenodd" clip-rule="evenodd" d="M251.648 326.118L266.449 349.851L278.307 344.867L262.86 317.29L251.648 326.118V326.118Z" stroke="#3D3D3C" stroke-width="0.96" stroke-linecap="round" stroke-linejoin="round"/>
<path d="M304.741 351.004L268.604 353.99C267.402 354.088 266.249 353.492 265.634 352.455L259.588 342.293C259.588 342.293 269.636 341.219 274.067 336.882C274.067 336.882 278.307 348.66 291.496 345.193C301.135 342.659 304.741 351.004 304.741 351.004Z" fill="#4F4F5B"/>
<mask id="mask5_520_4935" style="mask-type:luminance" maskUnits="userSpaceOnUse" x="259" y="336" width="46" height="18">
<path fill-rule="evenodd" clip-rule="evenodd" d="M304.741 351.004L268.604 353.99C267.402 354.088 266.249 353.492 265.634 352.455L259.588 342.293C259.588 342.293 269.636 341.219 274.067 336.882C274.067 336.882 278.307 348.66 291.496 345.193C301.135 342.659 304.741 351.004 304.741 351.004Z" fill="white"/>
</mask>
<g mask="url(#mask5_520_4935)">
<path d="M260.905 352.069L308.693 348.048L305.603 354L259.588 355.83" fill="#4F4F5B"/>
<path d="M260.905 352.069L308.693 348.048L305.603 354L259.588 355.83" stroke="#3D3D3C" stroke-width="0.96" stroke-linecap="round" stroke-linejoin="round"/>
</g>
<path fill-rule="evenodd" clip-rule="evenodd" d="M304.741 351.004L268.604 353.99C267.402 354.088 266.249 353.492 265.634 352.455L259.588 342.293C259.588 342.293 269.636 341.219 274.067 336.882C274.067 336.882 278.307 348.66 291.496 345.193C301.135 342.659 304.741 351.004 304.741 351.004Z" stroke="#3D3D3C" stroke-width="0.96" stroke-linecap="round" stroke-linejoin="round"/>
<path d="M95.3328 227.198C94.2799 228.654 90.2991 237.095 90.2991 244.838L128.998 274.767C136.612 280.169 145.736 279.516 152.906 273.056L209.883 210.933L187 160.613L140.258 241.76L95.3328 227.198Z" fill="#ECEDEE"/>
<mask id="mask6_520_4935" style="mask-type:luminance" maskUnits="userSpaceOnUse" x="90" y="160" width="120" height="119">
<path fill-rule="evenodd" clip-rule="evenodd" d="M95.3328 227.197C94.2799 228.653 90.2991 237.094 90.2991 244.837L128.998 274.766C136.612 280.168 145.736 279.515 152.906 273.055L209.883 210.932L187 160.612L140.258 241.759L95.3328 227.197Z" fill="white"/>
</mask>
<g mask="url(#mask6_520_4935)">
<path d="M107.975 194.45C176.519 205.768 204.969 245.678 204.969 245.678L193.333 255.288C193.333 255.288 158.763 230.19 127.04 233.764C95.316 237.338 107.975 194.45 107.975 194.45Z" fill="#00D2C4" stroke="#3D3D3C" stroke-width="0.96" stroke-linecap="round" stroke-linejoin="round"/>
</g>
<path fill-rule="evenodd" clip-rule="evenodd" d="M95.3328 227.198C94.2799 228.654 90.2991 237.095 90.2991 244.838L128.998 274.767C136.612 280.169 145.736 279.516 152.906 273.056L209.883 210.933L187 160.613L140.258 241.76L95.3328 227.198Z" stroke="#3D3D3C" stroke-width="0.96" stroke-linecap="round" stroke-linejoin="round"/>
<path d="M182.024 166.525L172.15 170.01C156.558 192.771 164.695 210.388 181.453 230.502L217.473 265.544L254.084 331.582C254.084 331.582 261.086 333.572 268.599 325.408L239.234 247.099L200.186 181.96L182.024 166.525Z" fill="#ECEDEE"/>
<mask id="mask7_520_4935" style="mask-type:luminance" maskUnits="userSpaceOnUse" x="163" y="166" width="106" height="166">
<path fill-rule="evenodd" clip-rule="evenodd" d="M182.025 166.525L172.15 170.01C156.558 192.771 164.695 210.388 181.453 230.502L217.473 265.544L254.084 331.582C254.084 331.582 261.086 333.572 268.599 325.408L239.234 247.099L200.186 181.96L182.025 166.525Z" fill="white"/>
</mask>
<g mask="url(#mask7_520_4935)">
<path d="M215.912 191.414C136.922 166.525 195.888 244.545 197.695 246.303C199.502 248.06 145.069 221.684 145.489 219.509C145.908 217.333 168.135 169.883 168.135 169.883L182.024 166.525" fill="#CFCFD0"/>
<path d="M192.949 256.453C261.493 267.771 289.944 307.68 289.944 307.68L278.307 317.291C278.307 317.291 243.738 292.193 212.014 295.767C180.29 299.341 192.949 256.453 192.949 256.453Z" fill="#93C9C7" stroke="#3D3D3C" stroke-width="0.96" stroke-linecap="round" stroke-linejoin="round"/>
</g>
<path fill-rule="evenodd" clip-rule="evenodd" d="M182.024 166.525L172.15 170.01C156.558 192.771 164.695 210.388 181.453 230.502L217.473 265.544L254.084 331.582C254.084 331.582 261.086 333.572 268.599 325.408L239.234 247.099L200.186 181.96L182.024 166.525Z" stroke="#3D3D3C" stroke-width="0.96" stroke-linecap="round" stroke-linejoin="round"/>
<path d="M282.803 97.458C280.968 96.4042 280.97 99.1486 279.061 102.247C277.152 105.345 275.28 103.927 275.28 103.927C277.267 102.025 276.93 98.7614 276.93 98.7614C276.93 98.7614 272.639 102.745 270.194 104.577C267.749 106.409 267.221 114.291 267.221 114.291L255.731 124.776L261.362 137.792L275.25 116.535C282.126 110.407 284.639 98.5118 282.803 97.458Z" fill="white"/>
<mask id="mask8_520_4935" style="mask-type:luminance" maskUnits="userSpaceOnUse" x="255" y="97" width="29" height="41">
<path fill-rule="evenodd" clip-rule="evenodd" d="M282.803 97.457C280.968 96.4032 280.97 99.1476 279.061 102.246C277.152 105.344 275.28 103.926 275.28 103.926C277.267 102.024 276.93 98.7605 276.93 98.7605C276.93 98.7605 272.639 102.744 270.194 104.576C267.749 106.408 267.221 114.29 267.221 114.29L255.731 124.775L261.362 137.791L275.25 116.534C282.126 110.406 284.639 98.5108 282.803 97.457Z" fill="white"/>
</mask>
<g mask="url(#mask8_520_4935)">
<path d="M272.459 120.806C268.099 125.756 260.868 119.67 260.868 119.67L259.137 126.641L266.03 130.646L272.806 128.707L272.084 122.062L272.459 120.806Z" fill="#CFCFD0"/>
</g>
<path fill-rule="evenodd" clip-rule="evenodd" d="M282.803 97.458C280.968 96.4042 280.97 99.1486 279.061 102.247C277.152 105.345 275.28 103.927 275.28 103.927C277.267 102.025 276.93 98.7614 276.93 98.7614C276.93 98.7614 272.639 102.745 270.194 104.577C267.749 106.409 267.221 114.291 267.221 114.291L255.731 124.776L261.362 137.792L275.25 116.535C282.126 110.407 284.639 98.5118 282.803 97.458Z" stroke="#3D3D3C" stroke-width="0.96" stroke-linecap="round" stroke-linejoin="round"/>
<path d="M238.756 139.851L219.021 123.762C227.93 137.963 218.87 149.892 215.912 155.928L231.577 161.618C237.79 163.875 244.87 161.751 248.446 156.556L270.083 130.216C268.157 122.621 260.867 119.671 260.867 119.671L238.756 139.851Z" fill="#00D2C4"/>
<path fill-rule="evenodd" clip-rule="evenodd" d="M238.756 139.851L219.021 123.762C227.93 137.963 218.87 149.892 215.912 155.928L231.577 161.618C237.79 163.875 244.87 161.751 248.446 156.556L270.083 130.216C268.157 122.621 260.867 119.671 260.867 119.671L238.756 139.851Z" stroke="#3D3D3C" stroke-width="0.96" stroke-linecap="round" stroke-linejoin="round"/>
<path d="M145.357 167.039C144.714 173.359 145.193 190.334 150.254 186.143C152.828 184.012 152.892 173.883 153.25 175.289C153.609 176.695 153.996 179.971 154.953 178.565C157.057 175.473 154.326 167.236 154.207 165.957C154.171 165.581 157.055 156.626 158.209 153.041H147.135L145.357 167.039Z" fill="white" stroke="#3D3D3C" stroke-width="0.96" stroke-linecap="round" stroke-linejoin="round"/>
<path d="M145.979 160.999L155.225 162.728L154.483 165.377L145.489 164.004L145.979 160.999Z" fill="#4F4F5B" stroke="#3D3D3C" stroke-width="0.96" stroke-linecap="round" stroke-linejoin="round"/>
<path d="M151.964 166.23L147.73 165.457C147.231 165.365 146.901 164.886 146.992 164.387L147.626 160.885C147.668 160.645 147.804 160.432 148.004 160.293C148.204 160.154 148.451 160.1 148.691 160.143L152.925 160.916C153.424 161.009 153.754 161.488 153.662 161.987L153.029 165.489C152.987 165.729 152.851 165.942 152.651 166.081C152.451 166.22 152.204 166.274 151.964 166.23Z" fill="#4F4F5B" stroke="#3D3D3C" stroke-width="0.96" stroke-linecap="round" stroke-linejoin="round"/>
<path d="M225.627 138.721C225.192 133.768 223.481 127.794 219.652 120.689C219.652 120.689 214.149 124.141 205.546 109.184L164.452 118.263C155.568 119.319 150.327 123.62 147.862 136.467C147.862 136.467 142.056 156.437 144.135 158.431C148.394 162.515 159.102 161.037 159.102 161.037C161.899 150.482 165.328 138.674 165.328 138.674L188.881 133.791C188.881 133.791 185.985 143.277 180.658 151.945C175.332 160.613 163.455 163.141 164.495 171.515C165.534 179.89 209.392 190.002 209.392 190.002L217.74 158.656C217.74 158.656 221.586 156.203 223.946 150.621C225.221 147.605 226.062 143.674 225.627 138.721Z" fill="#00D2C4"/>
<path d="M225.627 138.721C225.192 133.768 223.482 127.794 219.652 120.689C219.652 120.689 214.149 124.141 205.546 109.184L164.452 118.263C155.568 119.319 150.327 123.62 147.862 136.467C147.862 136.467 142.056 156.437 144.135 158.431C148.394 162.515 159.102 161.037 159.102 161.037C161.899 150.482 165.328 138.674 165.328 138.674L188.881 133.791C188.881 133.791 185.985 143.277 180.658 151.945C175.332 160.613 163.455 163.141 164.495 171.515C165.534 179.89 209.392 190.002 209.392 190.002L217.74 158.656C217.74 158.656 221.586 156.203 223.946 150.621C225.221 147.605 226.062 143.674 225.627 138.721" stroke="#3D3D3C" stroke-width="0.96" stroke-linecap="round" stroke-linejoin="round"/>
<path d="M274.829 114.346L274.235 114.178C273.902 114.083 273.709 113.738 273.803 113.405L282.126 83.6095C282.17 83.4498 282.276 83.3143 282.421 83.2328C282.565 83.1514 282.736 83.1308 282.895 83.1755L283.489 83.3431C283.822 83.4378 284.015 83.7834 283.921 84.116L275.598 113.911C275.554 114.071 275.448 114.207 275.304 114.288C275.159 114.37 274.988 114.39 274.829 114.346Z" fill="#4F4F5B"/>
<mask id="mask9_520_4935" style="mask-type:luminance" maskUnits="userSpaceOnUse" x="273" y="83" width="11" height="32">
<path fill-rule="evenodd" clip-rule="evenodd" d="M274.829 114.346L274.235 114.179C273.902 114.084 273.709 113.739 273.803 113.406L282.126 83.6105C282.17 83.4508 282.276 83.3153 282.421 83.2338C282.565 83.1524 282.736 83.1317 282.895 83.1765L283.489 83.3441C283.822 83.4388 284.015 83.7844 283.921 84.117L275.598 113.912C275.554 114.072 275.448 114.208 275.304 114.289C275.159 114.371 274.988 114.391 274.829 114.346Z" fill="white"/>
</mask>
<g mask="url(#mask9_520_4935)">
<path d="M273.965 113.216L271.976 112.655C271.536 112.529 271.279 112.07 271.403 111.629L279.157 83.8743C279.215 83.6624 279.356 83.4825 279.547 83.3744C279.739 83.2663 279.965 83.2389 280.177 83.2983L282.166 83.8593C282.607 83.985 282.863 84.4435 282.739 84.8849L274.986 112.64C274.927 112.852 274.786 113.032 274.595 113.14C274.403 113.248 274.177 113.275 273.965 113.216Z" fill="#4F4F5B" stroke="#3D3D3C" stroke-width="0.96" stroke-linecap="round" stroke-linejoin="round"/>
</g>
<path fill-rule="evenodd" clip-rule="evenodd" d="M274.829 114.346L274.235 114.178C273.902 114.083 273.709 113.738 273.803 113.405L282.126 83.6095C282.17 83.4498 282.276 83.3143 282.421 83.2328C282.565 83.1514 282.736 83.1308 282.895 83.1755L283.489 83.3431C283.822 83.4378 284.015 83.7834 283.921 84.116L275.598 113.911C275.554 114.071 275.448 114.207 275.304 114.288C275.159 114.37 274.988 114.39 274.829 114.346V114.346Z" stroke="#3D3D3C" stroke-width="0.96" stroke-linecap="round" stroke-linejoin="round"/>
<ellipse cx="220.361" cy="98.4674" rx="1.34641" ry="1.35309" fill="#4F4F5B"/>
<rect x="219.96" y="98.707" width="0.716634" height="3.97199" fill="#4F4F5B"/>
<path d="M201.184 130.433L184.714 134.654L201.184 130.433Z" fill="#F5F6F7"/>
<path d="M201.184 130.433L184.714 134.654" stroke="#3D3D3C" stroke-width="0.96" stroke-linecap="round" stroke-linejoin="round"/>
<path d="M229.681 97.0678C229.413 97.1132 229.138 97.0502 228.917 96.8928C228.696 96.7353 228.546 96.4963 228.502 96.2285L228.211 94.5189C228.115 93.9611 228.489 93.431 229.046 93.3337C229.314 93.2883 229.589 93.3513 229.81 93.5088C230.031 93.6663 230.181 93.9053 230.226 94.1731L230.516 95.8827C230.612 96.4405 230.238 96.9706 229.681 97.0678Z" fill="#4F4F5B"/>
<path d="M229.367 89.791C226.302 90.1775 225.84 91.5612 227.772 91.4452C229.704 91.3292 231.37 89.5384 229.367 89.791Z" fill="#4F4F5B"/>
<path d="M231.837 94.5C235.95 96.2514 235.246 100.41 232.516 99.9193L231.837 94.5Z" fill="white"/>
<path d="M231.837 94.5C235.95 96.2514 235.246 100.41 232.516 99.9193" stroke="#3D3D3C" stroke-width="0.96" stroke-linecap="round" stroke-linejoin="round"/>
<g opacity="0.27">
<ellipse cx="226.117" cy="98.2635" rx="2.3269" ry="1.72442" fill="#CFCFD0"/>
</g>
<path d="M227.512 100.549C229.103 102.33 231.11 101.777 231.11 101.777L227.512 100.549Z" fill="white"/>
<path d="M227.512 100.549C229.103 102.33 231.11 101.777 231.11 101.777" stroke="#3D3D3C" stroke-width="0.96" stroke-linecap="round" stroke-linejoin="round"/>
<path d="M213.927 82.8174C213.268 83.0249 212.765 83.5626 212.603 84.2346L213.927 82.8174Z" fill="#F5F6F7"/>
<path d="M213.927 82.8174C213.268 83.0249 212.765 83.5626 212.603 84.2346" stroke="#3D3D3C" stroke-width="0.96" stroke-linecap="round" stroke-linejoin="round"/>
<path d="M206.523 96.0762C205.884 96.6237 205.063 96.9119 204.222 96.8836L206.523 96.0762Z" fill="#F5F6F7"/>
<path d="M206.523 96.0762C205.884 96.6237 205.063 96.9119 204.222 96.8836" stroke="#3D3D3C" stroke-width="0.96" stroke-linecap="round" stroke-linejoin="round"/>
<path d="M165.445 138.824L164.528 137.051L165.445 138.824Z" fill="#F5F6F7"/>
<path d="M165.445 138.824L164.528 137.051" stroke="#3D3D3C" stroke-width="0.96" stroke-linecap="round" stroke-linejoin="round"/>
<path d="M239.266 139.405L237.784 141.788L239.266 139.405Z" fill="#F5F6F7"/>
<path d="M239.266 139.405L237.784 141.788" stroke="#3D3D3C" stroke-width="0.96" stroke-linecap="round" stroke-linejoin="round"/>
<path d="M181.154 162.634C181.013 165.28 181.75 167.899 183.248 170.085" stroke="#3D3D3C" stroke-width="0.96" stroke-linecap="round" stroke-linejoin="round"/>
<path d="M195.528 195.509C192.355 199.053 188.604 202.033 184.435 204.324L195.528 195.509Z" fill="#F5F6F7"/>
<path d="M195.528 195.509C192.355 199.053 188.604 202.033 184.435 204.324" stroke="#3D3D3C" stroke-width="0.96" stroke-linecap="round" stroke-linejoin="round"/>
<path d="M139.858 241.595L141.099 246.345L139.858 241.595Z" fill="#F5F6F7"/>
<path d="M139.858 241.595L141.099 246.345" stroke="#3D3D3C" stroke-width="0.96" stroke-linecap="round" stroke-linejoin="round"/>
<path d="M276.828 334.513C276.162 336.329 275.84 338.253 275.879 340.188C280.364 339.133 284.599 337.211 288.346 334.531" stroke="#3D3D3C" stroke-width="0.96" stroke-linecap="round" stroke-linejoin="round"/>
<path d="M79.3162 247.927C79.2682 245.156 78.6334 242.426 77.4536 239.918C75.4634 243.281 74.2044 247.02 72.9597 250.728" stroke="#3D3D3C" stroke-width="0.96" stroke-linecap="round" stroke-linejoin="round"/>
<path d="M224.406 132.167C230.972 150.198 217.74 158.656 217.74 158.656L224.406 132.167Z" fill="#F5F6F7"/>
<path d="M224.406 132.167C230.972 150.198 217.74 158.656 217.74 158.656" stroke="#3D3D3C" stroke-width="0.96" stroke-linecap="round" stroke-linejoin="round"/>
<path d="M197.309 195.403C199.019 197.35 198.342 200.577 196.548 202.445C194.753 204.314 192.181 205.162 189.717 205.945" stroke="#3D3D3C" stroke-width="0.96" stroke-linecap="round" stroke-linejoin="round"/>
<path d="M214.672 254.885H215.265H214.672Z" fill="#F5F6F7"/>
<path d="M214.672 254.885H215.265" stroke="#3D3D3C" stroke-width="0.96" stroke-linecap="round" stroke-linejoin="round"/>
<path d="M61.1922 197.507C76.5014 204.245 91.2574 214.757 103.302 227.315C106.573 230.713 110.067 233.888 113.761 236.819C133.851 252.803 155.606 258.817 162.352 250.253C169.099 241.689 158.283 221.789 138.193 205.805C134.38 202.762 130.36 199.987 126.162 197.502C110.93 188.526 97.3338 176.172 86.8354 162.577C81.3233 155.439 74.1353 148.145 65.6532 141.396C39.9833 120.972 12.1852 113.287 3.56436 124.23C-5.05644 135.173 8.76473 160.601 34.4346 181.025C43.3969 188.155 52.6183 193.733 61.1922 197.507Z" fill="white" stroke="#3D3D3C" stroke-width="0.96" stroke-linecap="round" stroke-linejoin="round"/>
<path d="M27.6389 134.977L28.1174 139.303L27.6389 134.977Z" fill="#F5F6F7"/>
<path d="M27.6389 134.977L28.1174 139.303" stroke="#3D3D3C" stroke-width="0.96" stroke-linecap="round" stroke-linejoin="round"/>
<path d="M136.291 223.82L132.771 234.569L136.291 223.82Z" fill="#F5F6F7"/>
<path d="M136.291 223.82L132.771 234.569" stroke="#3D3D3C" stroke-width="0.96" stroke-linecap="round" stroke-linejoin="round"/>
<path d="M332.135 200.599L295.973 222.104L290.166 187.258L326.329 165.753L332.135 200.599Z" fill="white" stroke="#3D3D3C" stroke-width="0.96" stroke-linecap="round" stroke-linejoin="round"/>
<path d="M332.135 200.6L359.37 221.392L323.207 242.896L295.973 222.104L332.135 200.6Z" fill="#00D2C4"/>
<mask id="mask10_520_4935" style="mask-type:luminance" maskUnits="userSpaceOnUse" x="296" y="200" width="64" height="43">
<path fill-rule="evenodd" clip-rule="evenodd" d="M332.423 200.47L359.657 221.262L323.495 242.766L296.26 221.975L332.423 200.47Z" fill="white"/>
</mask>
<g mask="url(#mask10_520_4935)">
<path d="M281.271 243.151H374.071H281.271Z" fill="#F5F6F7"/>
<path d="M281.271 243.151H374.071" stroke="#3D3D3C" stroke-width="0.96" stroke-linecap="round" stroke-linejoin="round"/>
<path d="M281.271 239.586H374.071H281.271Z" fill="#F5F6F7"/>
<path d="M281.271 239.586H374.071" stroke="#3D3D3C" stroke-width="0.96" stroke-linecap="round" stroke-linejoin="round"/>
<path d="M281.271 236.017H374.071H281.271Z" fill="#F5F6F7"/>
<path d="M281.271 236.017H374.071" stroke="#3D3D3C" stroke-width="0.96" stroke-linecap="round" stroke-linejoin="round"/>
<path d="M281.271 232.45H374.071H281.271Z" fill="#F5F6F7"/>
<path d="M281.271 232.45H374.071" stroke="#3D3D3C" stroke-width="0.96" stroke-linecap="round" stroke-linejoin="round"/>
<path d="M281.271 228.883H374.071H281.271Z" fill="#F5F6F7"/>
<path d="M281.271 228.883H374.071" stroke="#3D3D3C" stroke-width="0.96" stroke-linecap="round" stroke-linejoin="round"/>
<path d="M281.271 225.316H374.071H281.271Z" fill="#F5F6F7"/>
<path d="M281.271 225.316H374.071" stroke="#3D3D3C" stroke-width="0.96" stroke-linecap="round" stroke-linejoin="round"/>
<path d="M281.271 221.748H374.071H281.271Z" fill="#F5F6F7"/>
<path d="M281.271 221.748H374.071" stroke="#3D3D3C" stroke-width="0.96" stroke-linecap="round" stroke-linejoin="round"/>
<path d="M281.271 218.18H374.071H281.271Z" fill="#F5F6F7"/>
<path d="M281.271 218.18H374.071" stroke="#3D3D3C" stroke-width="0.96" stroke-linecap="round" stroke-linejoin="round"/>
<path d="M281.271 214.613H374.071H281.271Z" fill="#F5F6F7"/>
<path d="M281.271 214.613H374.071" stroke="#3D3D3C" stroke-width="0.96" stroke-linecap="round" stroke-linejoin="round"/>
<path d="M281.271 211.045H374.071H281.271Z" fill="#F5F6F7"/>
<path d="M281.271 211.045H374.071" stroke="#3D3D3C" stroke-width="0.96" stroke-linecap="round" stroke-linejoin="round"/>
<path d="M281.271 207.479H374.071H281.271Z" fill="#F5F6F7"/>
<path d="M281.271 207.479H374.071" stroke="#3D3D3C" stroke-width="0.96" stroke-linecap="round" stroke-linejoin="round"/>
<path d="M281.271 203.911H374.071H281.271Z" fill="#F5F6F7"/>
<path d="M281.271 203.911H374.071" stroke="#3D3D3C" stroke-width="0.96" stroke-linecap="round" stroke-linejoin="round"/>
<path d="M281.271 200.345H374.071H281.271Z" fill="#F5F6F7"/>
<path d="M281.271 200.345H374.071" stroke="#3D3D3C" stroke-width="0.96" stroke-linecap="round" stroke-linejoin="round"/>
</g>
<path fill-rule="evenodd" clip-rule="evenodd" d="M332.135 200.6L359.37 221.392L323.207 242.896L295.973 222.104L332.135 200.6V200.6Z" stroke="#3D3D3C" stroke-width="0.96" stroke-linecap="round" stroke-linejoin="round"/>
<path d="M326.329 165.753L353.563 186.545L359.37 221.391L332.135 200.599L326.329 165.753Z" fill="white" stroke="#3D3D3C" stroke-width="0.96" stroke-linecap="round" stroke-linejoin="round"/>
<path d="M313.086 188.087C310.967 191.286 308.572 194.294 305.929 197.077L313.086 188.087Z" fill="#F5F6F7"/>
<path d="M313.086 188.087C310.967 191.286 308.572 194.294 305.929 197.077" stroke="#3D3D3C" stroke-width="0.96" stroke-linecap="round" stroke-linejoin="round"/>
</svg>
