<svg width="440" height="445" viewBox="0 0 440 445" fill="none" xmlns="http://www.w3.org/2000/svg">
<path d="M374.715 231.64C460.835 280.44 461.295 359.55 375.715 408.34C290.135 457.13 151.005 457.09 64.8849 408.34C-21.2351 359.59 -21.6851 280.44 63.8849 231.65C149.455 182.86 288.605 182.85 374.715 231.64Z" fill="#0A0A0A" fill-opacity="0.14"/>
<path d="M291.495 11.3198L295.905 8.75977L295.645 99.8898L291.245 102.46L291.495 11.3198Z" fill="#5C5C5C"/>
<path d="M291.245 102.46L295.645 99.8896L422.785 173.29L418.375 175.85L291.245 102.46Z" fill="#5C5C5C"/>
<path d="M286.445 2.57031L423.715 81.8203L423.425 184.61L286.155 105.35L286.445 2.57031ZM418.375 175.85L418.635 84.7203L291.495 11.3203L291.245 102.45L418.375 175.85Z" fill="#BCBCBC"/>
<path d="M286.445 2.57L290.855 0L428.125 79.26L423.715 81.82L286.445 2.57Z" fill="#5C5C5C"/>
<path d="M423.715 81.8198L428.125 79.2598L427.835 182.05L423.425 184.61L423.715 81.8198Z" fill="#5C5C5C"/>
<path d="M352.525 46.5596L352.265 137.69L357.335 140.62L357.595 49.4796L352.525 46.5596Z" fill="#BCBCBC"/>
<path d="M357.595 49.4805L357.335 140.62L361.745 138.06L361.995 52.0205L357.595 49.4805Z" fill="#5C5C5C"/>
<path opacity="0.2" d="M357.595 53.5796L357.605 49.4796L352.535 46.5596L352.515 50.6496L357.595 53.5796Z" fill="black"/>
<path opacity="0.2" d="M357.585 53.5805L361.145 51.5305L357.595 49.4805L357.585 53.5805Z" fill="black"/>
<path d="M78.1549 289.09C75.3249 290.73 75.3049 293.38 78.1549 295.01L88.2849 300.9C89.8694 301.706 91.6221 302.126 93.3999 302.126C95.1777 302.126 96.9304 301.706 98.5149 300.9L220.645 229.95C223.475 228.32 223.505 225.66 220.645 224.02L210.505 218.13C208.92 217.324 207.168 216.903 205.39 216.903C203.612 216.903 201.859 217.324 200.275 218.13L78.1549 289.09Z" fill="#958080"/>
<path d="M95.2948 362.09L185.565 414.54C186.824 415.271 188.254 415.657 189.71 415.657C191.166 415.657 192.596 415.271 193.855 414.54L357.805 319.92C358.118 319.738 358.378 319.477 358.559 319.163C358.74 318.848 358.835 318.492 358.835 318.13C358.835 317.767 358.74 317.411 358.559 317.097C358.378 316.783 358.118 316.522 357.805 316.34L268.805 264.62C267.551 263.9 266.131 263.521 264.685 263.521C263.239 263.521 261.818 263.9 260.565 264.62L95.3149 358.52C95.0027 358.701 94.7433 358.96 94.5623 359.272C94.3813 359.584 94.285 359.938 94.283 360.299C94.281 360.66 94.3733 361.015 94.5508 361.329C94.7283 361.643 94.9848 361.905 95.2948 362.09Z" fill="#958080"/>
<path d="M56.6545 49.5202L56.7245 71.5302L59.3845 73.0802L59.3145 47.9902L56.6545 49.5202Z" fill="#5C5C5C"/>
<path d="M27.9246 88.1603L27.9346 91.2403L59.3846 73.0803L56.7246 71.5303L27.9246 88.1603Z" fill="#5C5C5C"/>
<path d="M62.5245 42.4297L24.6245 64.3097L24.7145 96.8097L62.6245 74.9297L62.5245 42.4297ZM27.9245 91.2397V88.1597L27.8545 66.1597L56.6545 49.5297L59.3145 47.9997L59.3845 73.0897L27.9245 91.2397Z" fill="#BCBCBC"/>
<path d="M62.5246 42.4299L59.8646 40.8799L21.9546 62.7599L24.6246 64.3099L62.5246 42.4299Z" fill="#5C5C5C"/>
<path d="M21.9546 62.7598L22.0446 95.2598L24.7146 96.8098L24.6246 64.3098L21.9546 62.7598Z" fill="#5C5C5C"/>
<path d="M56.6545 95.3896L56.7245 117.4L59.3845 118.95L59.3145 93.8496L56.6545 95.3896Z" fill="#5C5C5C"/>
<path d="M27.9246 134.029L27.9346 137.109L59.3846 118.949L56.7246 117.399L27.9246 134.029Z" fill="#5C5C5C"/>
<path d="M62.5245 88.29L24.6245 110.18L24.7145 142.68L62.6245 120.79L62.5245 88.29ZM27.9245 137.09V134L27.8545 112L56.6545 95.38L59.3145 93.84L59.3845 118.94L27.9245 137.09Z" fill="#BCBCBC"/>
<path d="M62.5246 88.2902L59.8646 86.7402L21.9546 108.63L24.6246 110.18L62.5246 88.2902Z" fill="#5C5C5C"/>
<path d="M21.9546 108.63L22.0446 141.12L24.7146 142.68L24.6246 110.18L21.9546 108.63Z" fill="#5C5C5C"/>
<path d="M47.5046 57.8799L55.3646 64.0599L55.3746 70.0999L29.2546 85.1799L29.2346 79.1399L34.2146 69.2599L38.6846 72.7299L37.1046 77.6399L39.4046 73.2799L47.5046 57.8799Z" fill="#BCBCBC"/>
<path d="M38.9246 60.9195C40.1546 60.2095 41.1546 60.7795 41.1646 62.1995C41.1304 62.9777 40.9111 63.7365 40.5251 64.413C40.139 65.0895 39.5972 65.6642 38.9446 66.0895C37.7146 66.7995 36.7146 66.2295 36.7046 64.8195C36.7372 64.0396 36.9557 63.2788 37.3419 62.6004C37.728 61.9221 38.2707 61.3458 38.9246 60.9195Z" fill="#BCBCBC"/>
<path d="M47.5046 103.75L55.3646 109.93L55.3746 115.97L29.2546 131.05L29.2346 125.01L34.2146 115.12L38.6846 118.59L37.1046 123.5L39.4046 119.14L47.5046 103.75Z" fill="#BCBCBC"/>
<path d="M38.9246 106.79C40.1546 106.08 41.1546 106.65 41.1646 108.06C41.1242 108.831 40.902 109.582 40.5162 110.251C40.1304 110.92 39.5919 111.489 38.9446 111.91C37.7146 112.62 36.7146 112.05 36.7046 110.63C36.7466 109.86 36.9695 109.112 37.3552 108.444C37.741 107.777 38.2786 107.21 38.9246 106.79Z" fill="#BCBCBC"/>
<path d="M214.105 33.6003C214.105 25.1703 211.105 19.2503 206.295 16.4603L195.505 10.0903L195.355 10.0103C194.923 9.76047 194.476 9.53997 194.015 9.35031C193.93 9.31586 193.843 9.28582 193.755 9.26031L193.295 9.10031C193.065 9.02031 192.845 8.92031 192.605 8.85031C192.365 8.78031 192.085 8.73031 191.835 8.67031L191.355 8.57031C191.273 8.54448 191.189 8.52443 191.105 8.51031C190.569 8.41627 190.028 8.35284 189.485 8.32031H188.995C188.575 8.32031 188.155 8.32031 187.715 8.32031L187.275 8.37031L186.475 8.45031C186.225 8.45031 185.975 8.45031 185.725 8.52031L185.055 8.67031C184.695 8.73031 184.335 8.81031 183.965 8.90031C183.765 8.90031 183.575 8.97031 183.375 9.03031C182.925 9.15031 182.475 9.29031 182.015 9.44031H181.875C181.325 9.62031 180.785 9.83031 180.225 10.0603L179.565 10.3603L178.935 10.6503C178.125 11.0303 177.315 11.4403 176.485 11.9203L97.6047 57.4703C96.7447 57.9703 95.8947 58.5103 95.0547 59.0903L94.2547 59.6703C93.6847 60.0803 93.1247 60.5003 92.5647 60.9403L91.6547 61.7003C91.1447 62.1303 90.6547 62.5703 90.1447 63.0203L89.2447 63.8603L88.6747 64.3903C88.4847 64.5803 88.2947 64.8003 88.1047 65.0003C87.5047 65.6103 86.9047 66.2403 86.3247 66.8903C86.1447 67.1003 85.9447 67.2903 85.7547 67.5003L85.3047 68.0503C84.9547 68.4603 84.6147 68.8903 84.3047 69.3103C83.9947 69.7303 83.8447 69.8603 83.6247 70.1403C83.4047 70.4203 83.2747 70.6203 83.1047 70.8603C82.9347 71.1003 82.6047 71.5203 82.3647 71.8603L81.8447 72.5503C81.5647 72.9503 81.3047 73.3603 81.0347 73.7703L80.5147 74.5403L80.3047 74.8603C79.8247 75.6103 79.3647 76.3603 78.9147 77.1303L78.8347 77.2803L78.5747 77.7403C78.2647 78.2803 77.9547 78.8303 77.6647 79.3803C77.5247 79.6303 77.4047 79.8903 77.2747 80.1503L76.8647 80.9503C76.7547 81.1903 76.6247 81.4203 76.5147 81.6503C76.2047 82.2803 75.9247 82.9103 75.6447 83.5503L75.4947 83.8803L75.4447 83.9703C75.1047 84.7703 74.7747 85.5703 74.4447 86.3703C74.3947 86.5203 74.3447 86.6703 74.2847 86.8203C74.2247 86.9703 74.0847 87.4003 73.9747 87.6903C73.8647 87.9803 73.6747 88.4903 73.5447 88.9003C73.4147 89.3103 73.3547 89.5203 73.2547 89.8403C73.1547 90.1603 73.0247 90.5703 72.9247 90.9303C72.8247 91.2903 72.7747 91.3903 72.7147 91.6203C72.5947 92.0303 72.5147 92.4403 72.4147 92.8503C72.3147 93.2603 72.1747 93.7603 72.0747 94.2103C72.0747 94.3703 71.9947 94.5303 71.9547 94.6903C71.8847 95.0203 71.8547 95.3403 71.7947 95.6903C71.6547 96.4003 71.5247 97.1103 71.4247 97.8203C71.4247 98.0203 71.3447 98.2203 71.3247 98.4103C71.2647 98.8603 71.2347 99.3003 71.1947 99.7503C71.1547 100.2 71.1247 100.38 71.1047 100.69C71.0247 101.69 70.9747 102.69 70.9847 103.64L71.3247 255.85C71.3247 264.28 74.3247 270.21 79.1347 273L89.9347 279.39C89.6313 279.202 89.3375 278.998 89.0547 278.78C93.9747 282.21 101.055 282.09 108.945 277.53L187.805 231.97C202.565 223.45 214.505 202.78 214.455 185.8L214.105 33.6003Z" fill="#BE9FFD"/>
<path opacity="0.6" d="M214.105 33.6003C214.105 25.1703 211.105 19.2503 206.295 16.4603L195.505 10.0903L195.355 10.0103C194.923 9.76047 194.476 9.53997 194.015 9.35031C193.93 9.31586 193.843 9.28582 193.755 9.26031L193.295 9.10031C193.065 9.02031 192.845 8.92031 192.605 8.85031C192.365 8.78031 192.085 8.73031 191.835 8.67031L191.355 8.57031C191.273 8.54448 191.189 8.52443 191.105 8.51031C190.569 8.41627 190.028 8.35284 189.485 8.32031H188.995C188.575 8.32031 188.155 8.32031 187.715 8.32031L187.275 8.37031L186.475 8.45031C186.225 8.45031 185.975 8.45031 185.725 8.52031L185.055 8.67031C184.695 8.73031 184.335 8.81031 183.965 8.90031C183.765 8.90031 183.575 8.97031 183.375 9.03031C182.925 9.15031 182.475 9.29031 182.015 9.44031H181.875C181.325 9.62031 180.785 9.83031 180.225 10.0603L179.565 10.3603L178.935 10.6503C178.125 11.0303 177.315 11.4403 176.485 11.9203L97.6047 57.4703C96.7447 57.9703 95.8947 58.5103 95.0547 59.0903L94.2547 59.6703C93.6847 60.0803 93.1247 60.5003 92.5647 60.9403L91.6547 61.7003C91.1447 62.1303 90.6547 62.5703 90.1447 63.0203L89.2447 63.8603L88.6747 64.3903C88.4847 64.5803 88.2947 64.8003 88.1047 65.0003C87.5047 65.6103 86.9047 66.2403 86.3247 66.8903C86.1447 67.1003 85.9447 67.2903 85.7547 67.5003L85.3047 68.0503C84.9547 68.4603 84.6147 68.8903 84.3047 69.3103C83.9947 69.7303 83.8447 69.8603 83.6247 70.1403C83.4047 70.4203 83.2747 70.6203 83.1047 70.8603C82.9347 71.1003 82.6047 71.5203 82.3647 71.8603L81.8447 72.5503C81.5647 72.9503 81.3047 73.3603 81.0347 73.7703L80.5147 74.5403L80.3047 74.8603C79.8247 75.6103 79.3647 76.3603 78.9147 77.1303L78.8347 77.2803L78.5747 77.7403C78.2647 78.2803 77.9547 78.8303 77.6647 79.3803C77.5247 79.6303 77.4047 79.8903 77.2747 80.1503L76.8647 80.9503C76.7547 81.1903 76.6247 81.4203 76.5147 81.6503C76.2047 82.2803 75.9247 82.9103 75.6447 83.5503L75.4947 83.8803L75.4447 83.9703C75.1047 84.7703 74.7747 85.5703 74.4447 86.3703C74.3947 86.5203 74.3447 86.6703 74.2847 86.8203C74.2247 86.9703 74.0847 87.4003 73.9747 87.6903C73.8647 87.9803 73.6747 88.4903 73.5447 88.9003C73.4147 89.3103 73.3547 89.5203 73.2547 89.8403C73.1547 90.1603 73.0247 90.5703 72.9247 90.9303C72.8247 91.2903 72.7747 91.3903 72.7147 91.6203C72.5947 92.0303 72.5147 92.4403 72.4147 92.8503C72.3147 93.2603 72.1747 93.7603 72.0747 94.2103C72.0747 94.3703 71.9947 94.5303 71.9547 94.6903C71.8847 95.0203 71.8547 95.3403 71.7947 95.6903C71.6547 96.4003 71.5247 97.1103 71.4247 97.8203C71.4247 98.0203 71.3447 98.2203 71.3247 98.4103C71.2647 98.8603 71.2347 99.3003 71.1947 99.7503C71.1547 100.2 71.1247 100.38 71.1047 100.69C71.0247 101.69 70.9747 102.69 70.9847 103.64L71.3247 255.85C71.3247 264.28 74.3247 270.21 79.1347 273L89.9347 279.39C89.6313 279.202 89.3375 278.998 89.0547 278.78C93.9747 282.21 101.055 282.09 108.945 277.53L187.805 231.97C202.565 223.45 214.505 202.78 214.455 185.8L214.105 33.6003Z" fill="black"/>
<path opacity="0.1" d="M82.1046 262.21L81.8046 110.01L71.0046 103.62L71.3446 255.83C71.3446 264.26 74.3446 270.19 79.1546 272.98L89.9546 279.37C85.1146 276.58 82.1346 270.65 82.1046 262.21Z" fill="black"/>
<path opacity="0.3" d="M190.365 16.7603C191.118 16.4141 191.889 16.107 192.675 15.8403H192.815C193.475 15.6203 194.125 15.4503 194.815 15.3003L195.905 15.0603C196.385 14.9703 196.855 14.9003 197.325 14.8503L198.125 14.7603C198.698 14.7306 199.272 14.7306 199.845 14.7603H200.235C200.906 14.8004 201.574 14.8839 202.235 15.0103L202.715 15.1203C203.209 15.2365 203.696 15.38 204.175 15.5503L204.635 15.7003C205.238 15.9355 205.823 16.2164 206.385 16.5403L195.505 10.0903L195.355 10.0103C194.923 9.76047 194.476 9.53997 194.015 9.35031C193.93 9.31586 193.843 9.28582 193.755 9.26031L193.295 9.10031C193.065 9.02031 192.845 8.92031 192.605 8.85031C192.365 8.78031 192.085 8.73031 191.835 8.67031L191.355 8.57031C191.273 8.54448 191.189 8.52443 191.105 8.51031C190.569 8.41627 190.028 8.35284 189.485 8.32031H188.995C188.575 8.32031 188.155 8.32031 187.715 8.32031L187.275 8.37031L186.475 8.45031C186.225 8.45031 185.975 8.45031 185.725 8.52031L185.055 8.67031C184.695 8.73031 184.335 8.81031 183.965 8.90031C183.765 8.90031 183.575 8.97031 183.375 9.03031C182.925 9.15031 182.475 9.29031 182.015 9.44031H181.875C181.325 9.62031 180.785 9.83031 180.225 10.0603L179.565 10.3603L178.935 10.6503C178.125 11.0303 177.315 11.4403 176.485 11.9203L97.6047 57.4703C96.7447 57.9703 95.8947 58.5103 95.0547 59.0903L94.2547 59.6803C93.6847 60.0803 93.1247 60.5003 92.5647 60.9403L91.6547 61.7003C91.1447 62.1303 90.6547 62.5703 90.1447 63.0203L89.2447 63.8603L88.6747 64.3903C88.4847 64.5803 88.2947 64.8003 88.1047 65.0003C87.5047 65.6103 86.9047 66.2403 86.3247 66.8903C86.1447 67.1003 85.9447 67.2903 85.7547 67.5003L85.3047 68.0503C84.9547 68.4603 84.6147 68.8903 84.3047 69.3103C83.9947 69.7303 83.8447 69.8603 83.6247 70.1403C83.4047 70.4203 83.2747 70.6203 83.1047 70.8603C82.9347 71.1003 82.6047 71.5203 82.3647 71.8603L81.8447 72.5503C81.5647 72.9503 81.3047 73.3603 81.0347 73.7703L80.5147 74.5403L80.3047 74.8603C79.8247 75.6103 79.3647 76.3603 78.9147 77.1303L78.8347 77.2803L78.5747 77.7403C78.2647 78.2903 77.9547 78.8303 77.6647 79.3803C77.5247 79.6303 77.4047 79.8903 77.2747 80.1503L76.8647 80.9503C76.7547 81.1903 76.6247 81.4203 76.5147 81.6503C76.2047 82.2803 75.9247 82.9103 75.6447 83.5503L75.4947 83.8803L75.4447 83.9703C75.1047 84.7703 74.7747 85.5703 74.4447 86.3703C74.3947 86.5203 74.3447 86.6703 74.2847 86.8203C74.2247 86.9703 74.0847 87.4003 73.9747 87.6903C73.8647 87.9803 73.6747 88.4903 73.5447 88.9003C73.4147 89.3103 73.3547 89.5203 73.2547 89.8403C73.1547 90.1603 73.0247 90.5703 72.9247 90.9303C72.8247 91.2903 72.7747 91.3903 72.7147 91.6203C72.5947 92.0303 72.5147 92.4403 72.4147 92.8503C72.3147 93.2603 72.1747 93.7603 72.0747 94.2103C72.0747 94.3703 71.9947 94.5303 71.9547 94.6903C71.8847 95.0203 71.8547 95.3403 71.7947 95.6903C71.6547 96.4003 71.5247 97.1103 71.4247 97.8203C71.4247 98.0203 71.3447 98.2203 71.3247 98.4103C71.2647 98.8603 71.2347 99.3003 71.1947 99.7503C71.1547 100.2 71.1247 100.38 71.1047 100.69C71.0247 101.69 70.9747 102.69 70.9847 103.64L81.7847 110.03C81.7847 109.03 81.7847 108.03 81.8947 107.08C81.8947 106.76 81.9647 106.45 81.9947 106.13C82.0547 105.49 82.1347 104.85 82.2247 104.21C82.3147 103.57 82.4547 102.79 82.5947 102.08C82.6847 101.59 82.7647 101.08 82.8747 100.62C82.9847 100.16 83.0947 99.7103 83.2147 99.2503C83.3747 98.6203 83.5347 97.9803 83.7147 97.3403C83.8247 96.9803 83.9447 96.6103 84.0547 96.2403C84.2847 95.5303 84.5247 94.8103 84.7747 94.1003C84.8747 93.8103 84.9747 93.5103 85.0847 93.2203C85.4547 92.2203 85.8447 91.2203 86.2747 90.2903L86.4247 89.9503C86.8147 89.0803 87.2147 88.2203 87.6447 87.3603C87.7747 87.0903 87.9147 86.8203 88.0547 86.5603C88.4647 85.7503 88.9047 84.9503 89.3547 84.1503L89.6147 83.6903C90.1547 82.7603 90.7147 81.8503 91.2947 80.9503L91.8147 80.1703C92.2447 79.5303 92.6847 78.9003 93.1347 78.2703L93.8847 77.2703C94.2747 76.7503 94.6847 76.2703 95.0847 75.7303L96.0847 74.4603L97.0847 73.3103C97.6647 72.6603 98.2647 72.0303 98.8647 71.4203C99.2447 71.0303 99.6147 70.6503 100.005 70.2803C100.395 69.9103 100.605 69.7103 100.905 69.4403C101.405 68.9803 101.905 68.5403 102.415 68.1203L103.325 67.3603C103.885 66.9203 104.445 66.5003 105.015 66.0903C105.285 65.9003 105.545 65.6903 105.815 65.5103C106.655 64.9303 107.505 64.3903 108.365 63.8903L187.245 18.3503C188.075 17.8703 188.885 17.4603 189.695 17.0803L190.365 16.7603Z" fill="black"/>
<path d="M95.5546 262.171C95.5546 265.481 96.2846 267.171 96.6546 267.691C96.7677 267.7 96.8814 267.7 96.9946 267.691C97.6046 267.691 99.3246 267.511 102.205 265.851L181.085 220.311C191.735 214.161 201.085 198.051 201.005 185.821L200.925 146.721L95.4246 208.291L95.5546 262.171Z" fill="#BE9FFD"/>
<path d="M200.665 33.6401C200.665 30.2901 199.905 28.6401 199.545 28.1201H199.095H198.785L198.345 28.1901L197.925 28.2801C197.665 28.3401 197.295 28.4401 197.025 28.5301H196.895C196.625 28.6301 196.265 28.7701 195.895 28.9601L195.525 29.1301C194.925 29.4101 194.455 29.6501 194.045 29.8901L115.165 75.4301C114.675 75.7201 114.165 76.0601 113.555 76.4301L112.955 76.8601C112.565 77.1501 112.175 77.4401 111.795 77.7401L111.255 78.1801L111.145 78.2801C110.765 78.5901 110.405 78.9101 110.045 79.2301L109.375 79.8601L108.655 80.5901L108.525 80.7201C108.065 81.1801 107.615 81.6601 107.185 82.1501L107.035 82.3101L106.395 83.0301L105.585 84.0301C105.265 84.4301 104.945 84.8301 104.645 85.2401L104.055 86.0201C103.705 86.5201 103.355 87.0201 103.055 87.5301L102.635 88.1501C102.155 88.9001 101.705 89.6301 101.315 90.3001L101.095 90.6901C100.735 91.3201 100.395 91.9601 100.095 92.6001L99.7747 93.2301C99.4347 93.9101 99.1147 94.5901 98.7747 95.2301C98.7147 95.3601 98.6646 95.4901 98.5946 95.6301C98.3146 96.2901 98.0247 97.0101 97.7147 97.8201L97.4746 98.5001C97.2746 99.0501 97.0947 99.6001 96.9247 100.15C96.8347 100.43 96.7447 100.71 96.6646 100.98C96.5246 101.46 96.4047 101.93 96.2847 102.43L96.2147 102.7L96.0347 103.42L95.9146 104.04L95.8346 104.48C95.7346 104.99 95.6446 105.48 95.5746 106C95.5046 106.52 95.4546 106.88 95.4146 107.32L95.3447 107.96C95.2847 108.71 95.2646 109.33 95.2646 109.88L95.4746 203.73L200.975 142.16L200.665 33.6401Z" fill="#FAFDFF"/>
<path d="M95.4146 203.831L95.4246 208.311L200.925 146.741L200.905 142.261L95.4146 203.831Z" fill="black"/>
<path d="M183.855 86.5505L173.805 92.3605C177.425 84.3605 176.925 76.3605 172.305 73.7605C169.725 72.2905 166.305 72.7605 162.985 74.7605C159.097 77.1773 155.895 80.5517 153.685 84.5605L150.935 89.3205L150.465 83.2405C150.465 82.7305 150.045 82.5305 149.535 82.7905C149.293 82.9483 149.087 83.154 148.929 83.3948C148.771 83.6357 148.664 83.9065 148.615 84.1905L147.755 89.8005L146.175 88.9005C143.595 87.4305 140.175 87.9005 136.845 89.8505C132.958 92.2655 129.759 95.6405 127.555 99.6505C122.955 107.651 122.505 116.111 126.165 119.921L116.095 125.731C115.821 125.904 115.593 126.14 115.431 126.421C115.269 126.701 115.178 127.017 115.165 127.341C115.165 127.931 115.585 128.171 116.095 127.881L127.805 121.091L131.415 123.151L150.105 133.791L152.235 130.101L152.325 131.251C152.325 131.771 152.765 131.971 153.255 131.701C153.507 131.534 153.721 131.314 153.882 131.057C154.042 130.8 154.146 130.511 154.185 130.211L154.555 126.081L168.665 101.641L172.255 95.4305L183.915 88.7005C184.177 88.5189 184.394 88.2791 184.548 87.9998C184.703 87.7205 184.79 87.4093 184.805 87.0905C184.805 86.4905 184.375 86.2505 183.855 86.5505Z" fill="#BE9FFD"/>
<path d="M149.525 82.7398C150.035 82.4798 150.415 82.6798 150.455 83.1898L150.925 89.2698L153.315 119.63L156.205 87.9998C156.235 87.7067 156.329 87.4238 156.481 87.1714C156.633 86.919 156.839 86.7033 157.085 86.5398C157.565 86.2598 157.955 86.3898 158.035 86.8598L161.455 105.34L162.095 100.03C162.136 99.738 162.24 99.4584 162.398 99.2099C162.557 98.9615 162.767 98.7501 163.015 98.5898L173.805 92.3598L183.865 86.5498C184.385 86.2498 184.805 86.4898 184.805 87.0898C184.786 87.4121 184.692 87.7256 184.531 88.0051C184.369 88.2847 184.144 88.5226 183.875 88.6998L172.215 95.4298L163.805 100.27L162.475 111.27C162.435 111.558 162.334 111.835 162.179 112.082C162.024 112.328 161.818 112.539 161.575 112.7C161.105 112.97 160.725 112.83 160.635 112.37L157.365 94.6198L154.505 126.09L154.135 130.22C154.096 130.52 153.992 130.809 153.832 131.066C153.672 131.323 153.458 131.543 153.205 131.71C152.715 131.98 152.315 131.78 152.275 131.26L152.185 130.11L149.185 91.7898L144.185 124.28C144.134 124.561 144.028 124.829 143.871 125.068C143.715 125.307 143.512 125.511 143.275 125.67C142.755 125.94 142.385 125.74 142.345 125.23L140.345 102.23L138.075 114.36C138.019 114.632 137.909 114.891 137.753 115.121C137.597 115.351 137.397 115.547 137.165 115.7L127.805 121.09L116.135 127.83C115.625 128.12 115.205 127.83 115.205 127.29C115.218 126.966 115.309 126.651 115.471 126.37C115.633 126.09 115.861 125.853 116.135 125.68L126.205 119.87L136.465 113.94L139.865 95.8098C139.918 95.5352 140.026 95.2741 140.182 95.0421C140.338 94.8101 140.54 94.6121 140.775 94.4598C141.295 94.1998 141.655 94.4098 141.705 94.8998L143.645 116.9L147.795 89.7298L148.655 84.1198C148.7 83.8434 148.801 83.5789 148.95 83.3419C149.1 83.1049 149.295 82.9002 149.525 82.7398Z" fill="black"/>
<path d="M136.965 153.28L136.995 166.33L133.165 168.54L133.135 158.81L131.185 159.93V156.62L136.965 153.28Z" fill="black"/>
<path d="M142.595 149.73C145.285 148.18 147.185 148.73 147.195 151.17C147.195 152.45 146.915 153.77 145.255 156.45L143.645 159.09L147.465 156.89V160.3L138.365 165.56V162.86L142.465 156.12C142.976 155.451 143.285 154.65 143.355 153.81C143.355 153.19 142.975 153.01 142.245 153.43C141.453 153.938 140.863 154.705 140.575 155.6H137.685C138.578 153.126 140.317 151.047 142.595 149.73Z" fill="black"/>
<path d="M153.365 143.51C156.365 141.79 158.515 143.04 158.525 147.36C158.589 149.295 158.152 151.214 157.255 152.93C156.357 154.645 155.031 156.1 153.405 157.15C150.405 158.89 148.245 157.63 148.235 153.3C148.173 151.365 148.613 149.446 149.512 147.73C150.411 146.015 151.738 144.561 153.365 143.51ZM153.365 153.63C154.105 153.2 154.655 152.1 154.645 149.63C154.635 147.16 154.085 146.63 153.345 147.09C152.605 147.55 152.045 148.62 152.055 151.09C152.065 153.56 152.625 154.09 153.365 153.64" fill="black"/>
<path d="M163.475 146.86C164.405 146.32 165.205 146.67 165.205 147.98C165.197 148.603 165.037 149.215 164.737 149.761C164.437 150.306 164.007 150.77 163.485 151.11C163.045 151.36 162.725 151.42 162.485 151.27V151.6L161.085 152.41V146.84L162.555 145.99V147.74C162.773 147.367 163.092 147.062 163.475 146.86ZM163.125 150C163.312 149.875 163.464 149.703 163.566 149.501C163.667 149.3 163.715 149.076 163.705 148.85C163.705 148.32 163.445 148.2 163.125 148.39C162.938 148.512 162.788 148.68 162.688 148.878C162.587 149.077 162.542 149.298 162.555 149.52C162.555 150.05 162.805 150.18 163.125 150Z" fill="black"/>
<path d="M168.045 144.21C168.975 143.68 169.765 144.04 169.765 145.36C169.761 145.98 169.603 146.589 169.304 147.133C169.006 147.676 168.576 148.136 168.055 148.47C167.665 148.69 167.365 148.76 167.145 148.64V150.38L165.675 151.23V145.68L167.075 144.87V145.2C167.299 144.786 167.635 144.443 168.045 144.21ZM167.705 147.36C167.892 147.237 168.044 147.067 168.146 146.867C168.248 146.668 168.295 146.445 168.285 146.22C168.285 145.69 168.025 145.56 167.695 145.75C167.506 145.875 167.354 146.047 167.252 146.249C167.15 146.45 167.103 146.675 167.115 146.9C167.115 147.43 167.375 147.55 167.705 147.36Z" fill="black"/>
<path d="M174.955 140.221C175.765 139.761 176.375 139.971 176.375 141.221V143.561L174.905 144.411V142.411C174.905 141.891 174.745 141.791 174.515 141.921C174.355 142.031 174.229 142.182 174.148 142.358C174.067 142.534 174.035 142.728 174.055 142.921V144.921L172.585 145.771V143.771C172.585 143.251 172.425 143.151 172.175 143.291C172.015 143.401 171.889 143.552 171.808 143.728C171.727 143.904 171.695 144.098 171.715 144.291V146.291L170.235 147.141V143.041L171.635 142.241V142.611C171.877 142.198 172.221 141.853 172.635 141.611C173.105 141.341 173.505 141.311 173.755 141.611C174.013 141.042 174.429 140.559 174.955 140.221Z" fill="black"/>
<path d="M113.895 209.09C117.435 207.04 120.315 208.69 120.335 212.75C120.22 214.972 119.58 217.134 118.467 219.06C117.355 220.986 115.801 222.621 113.935 223.83C110.385 225.88 107.505 224.24 107.495 220.16C107.612 217.941 108.253 215.781 109.365 213.857C110.478 211.933 112.03 210.3 113.895 209.09Z" fill="black"/>
<path d="M191.145 170.44L191.155 173.21L127.295 210.08L127.285 207.32L191.145 170.44Z" fill="black"/>
<path d="M191.215 191.95V194.72L127.355 231.59L127.345 228.82L191.215 191.95Z" fill="black"/>
<path d="M161.605 214.23L161.615 216.99L127.365 236.76V234L161.605 214.23Z" fill="black"/>
<path d="M152.475 209.13V211.9L127.335 226.42V223.65L152.475 209.13Z" fill="black"/>
<path d="M184.195 179.641L184.205 182.401L127.305 215.251V212.491L184.195 179.641Z" fill="black"/>
<path d="M166.495 179.5L166.505 182.26L127.275 204.91V202.14L166.495 179.5Z" fill="black"/>
<path d="M113.955 230.56C117.495 228.51 120.385 230.15 120.395 234.22C120.277 236.441 119.636 238.602 118.524 240.528C117.412 242.453 115.86 244.089 113.995 245.3C110.455 247.35 107.565 245.7 107.555 241.63C107.672 239.411 108.313 237.251 109.426 235.327C110.538 233.403 112.09 231.769 113.955 230.56Z" fill="black"/>
<path d="M273.745 259.701L262.815 253.351L117.165 325.881L128.125 332.211L273.745 259.701Z" fill="#455A64"/>
<path d="M344.395 300.76L199.025 373.14L210.785 379.93L356.105 307.56L344.395 300.76Z" fill="#455A64"/>
<path opacity="0.3" d="M273.745 259.701L262.815 253.351L117.165 325.881L128.125 332.211L273.745 259.701Z" fill="white"/>
<path d="M199.025 373.14L128.125 332.21L117.165 325.88L96.7847 323.2L190.085 377.42L210.785 379.93L199.025 373.14Z" fill="#455A64"/>
<path opacity="0.5" d="M199.025 373.14L128.125 332.21L117.165 325.88L96.7847 323.2L190.085 377.42L210.785 379.93L199.025 373.14Z" fill="white"/>
<path opacity="0.3" d="M344.395 300.76L199.025 373.14L210.785 379.93L356.105 307.56L344.395 300.76Z" fill="white"/>
<path d="M190.085 377.42L96.7847 323.2L96.8047 347.8L96.8247 358.64L190.115 412.86L190.085 377.42Z" fill="#455A64"/>
<path d="M105.805 350.56V342.38C105.803 342.028 105.895 341.682 106.07 341.377C106.245 341.072 106.497 340.818 106.801 340.642C107.106 340.466 107.451 340.372 107.803 340.372C108.154 340.372 108.5 340.464 108.805 340.64L178.525 381.16C179.285 381.599 179.916 382.23 180.355 382.99C180.794 383.75 181.025 384.612 181.025 385.49V393.67C181.026 394.022 180.935 394.368 180.76 394.673C180.585 394.978 180.332 395.232 180.028 395.408C179.724 395.585 179.378 395.678 179.027 395.678C178.675 395.678 178.329 395.586 178.025 395.41L108.335 354.89C107.569 354.455 106.932 353.825 106.488 353.065C106.043 352.305 105.808 351.441 105.805 350.56Z" fill="#37474F"/>
<path d="M190.085 377.421L190.115 412.861L356.145 317.001L356.105 307.561L210.785 379.931L190.085 377.421Z" fill="#455A64"/>
<path opacity="0.1" d="M190.085 377.421L190.115 412.861L356.145 317.001L356.105 307.561L210.785 379.931L190.085 377.421Z" fill="white"/>
<path d="M273.745 259.7L273.735 264.17H264.765L273.745 259.7Z" fill="#455A64"/>
<path d="M266.215 263.45L128.125 332.21L199.025 373.14L340.245 302.82L272.865 263.66C271.861 263.076 270.727 262.751 269.566 262.714C268.405 262.678 267.254 262.931 266.215 263.45Z" fill="#37474F"/>
<path d="M191.915 269.28C191.119 269.28 190.356 269.596 189.793 270.159C189.231 270.722 188.915 271.485 188.915 272.28V371.97C190.728 373.102 192.785 373.787 194.915 373.97V272.29C194.916 271.895 194.839 271.504 194.689 271.139C194.539 270.774 194.318 270.442 194.039 270.162C193.761 269.883 193.43 269.661 193.065 269.51C192.7 269.358 192.309 269.28 191.915 269.28Z" fill="#BCBCBC"/>
<path opacity="0.2" d="M191.915 269.28C191.119 269.28 190.356 269.596 189.793 270.159C189.231 270.722 188.915 271.485 188.915 272.28V371.97C190.728 373.102 192.785 373.787 194.915 373.97V272.29C194.916 271.895 194.839 271.504 194.689 271.139C194.539 270.774 194.318 270.442 194.039 270.162C193.761 269.883 193.43 269.661 193.065 269.51C192.7 269.358 192.309 269.28 191.915 269.28Z" fill="black"/>
<path opacity="0.3" d="M191.915 269.28C191.119 269.28 190.356 269.596 189.793 270.159C189.231 270.722 188.915 271.485 188.915 272.28V280.91C190.687 281.226 192.484 281.386 194.285 281.39H194.925V272.29C194.926 271.895 194.849 271.503 194.698 271.137C194.547 270.771 194.326 270.439 194.046 270.159C193.766 269.879 193.434 269.658 193.068 269.507C192.702 269.356 192.31 269.279 191.915 269.28Z" fill="black"/>
<path d="M112.945 226.64C112.149 226.64 111.386 226.956 110.823 227.518C110.261 228.081 109.945 228.844 109.945 229.64V327.36C111.782 328.402 113.836 329.004 115.945 329.12V229.65C115.946 229.255 115.869 228.864 115.719 228.499C115.569 228.133 115.348 227.802 115.069 227.522C114.791 227.242 114.46 227.02 114.095 226.869C113.73 226.718 113.339 226.64 112.945 226.64Z" fill="#BCBCBC"/>
<path opacity="0.2" d="M112.945 226.64C112.149 226.64 111.386 226.956 110.823 227.518C110.261 228.081 109.945 228.844 109.945 229.64V327.36C111.782 328.402 113.836 329.004 115.945 329.12V229.65C115.946 229.255 115.869 228.864 115.719 228.499C115.569 228.133 115.348 227.802 115.069 227.522C114.791 227.242 114.46 227.02 114.095 226.869C113.73 226.718 113.339 226.64 112.945 226.64Z" fill="black"/>
<path opacity="0.3" d="M112.945 226.64C112.149 226.64 111.386 226.956 110.823 227.518C110.261 228.081 109.945 228.844 109.945 229.64V237.47L115.945 240.95V229.65C115.946 229.255 115.869 228.864 115.719 228.499C115.569 228.133 115.348 227.802 115.069 227.522C114.791 227.242 114.46 227.02 114.095 226.869C113.73 226.718 113.339 226.64 112.945 226.64Z" fill="black"/>
<path d="M135.745 206.33C135.543 206.05 135.275 205.824 134.964 205.674C134.653 205.524 134.31 205.454 133.965 205.47L114.645 209.87C115.002 209.834 115.362 209.895 115.688 210.047C116.013 210.198 116.292 210.434 116.495 210.73C117.098 211.529 117.503 212.459 117.677 213.445C117.851 214.43 117.788 215.443 117.495 216.4C117.415 216.75 117.244 217.071 116.997 217.332C116.751 217.592 116.439 217.781 116.095 217.88L135.325 213.48C135.673 213.385 135.989 213.197 136.239 212.936C136.489 212.675 136.664 212.352 136.745 212C137.033 211.043 137.092 210.031 136.918 209.046C136.745 208.062 136.343 207.131 135.745 206.33Z" fill="#455A64"/>
<path d="M117.535 216.4C117.828 215.444 117.89 214.431 117.717 213.445C117.543 212.459 117.138 211.529 116.535 210.73C116.332 210.434 116.053 210.198 115.727 210.047C115.402 209.895 115.042 209.834 114.685 209.87L114.565 209.92C114.249 210.036 113.966 210.227 113.739 210.476C113.513 210.725 113.35 211.025 113.265 211.35C112.973 212.307 112.911 213.32 113.085 214.305C113.259 215.291 113.663 216.221 114.265 217.02C114.464 217.315 114.74 217.551 115.061 217.704C115.383 217.857 115.74 217.921 116.095 217.89H116.145C116.489 217.789 116.799 217.598 117.044 217.336C117.288 217.074 117.458 216.75 117.535 216.4Z" fill="#263238"/>
<path d="M229.575 261.54C229.377 261.258 229.11 261.03 228.801 260.878C228.492 260.726 228.149 260.655 227.805 260.67L208.485 265.09C208.843 265.055 209.204 265.118 209.529 265.271C209.855 265.424 210.133 265.662 210.335 265.96C210.935 266.758 211.339 267.687 211.513 268.67C211.687 269.654 211.626 270.665 211.335 271.62C211.249 271.968 211.073 272.288 210.826 272.547C210.579 272.807 210.268 272.997 209.925 273.1L229.155 268.71C229.5 268.608 229.812 268.418 230.061 268.158C230.31 267.899 230.487 267.579 230.575 267.23C230.87 266.27 230.933 265.254 230.759 264.265C230.585 263.276 230.179 262.342 229.575 261.54Z" fill="#455A64"/>
<path d="M208.345 265.09C208.385 265.086 208.425 265.086 208.465 265.09H208.345Z" fill="#455A64"/>
<path d="M211.375 271.6C211.666 270.644 211.727 269.634 211.553 268.65C211.379 267.667 210.976 266.738 210.375 265.94C210.173 265.642 209.895 265.404 209.569 265.251C209.244 265.098 208.883 265.035 208.525 265.07C208.485 265.066 208.445 265.066 208.405 265.07C208.089 265.188 207.807 265.38 207.582 265.631C207.358 265.882 207.197 266.183 207.115 266.51C206.821 267.465 206.759 268.476 206.933 269.46C207.107 270.444 207.512 271.373 208.115 272.17C208.315 272.465 208.59 272.701 208.911 272.854C209.233 273.007 209.59 273.071 209.945 273.04C210.287 272.944 210.599 272.761 210.849 272.508C211.1 272.256 211.281 271.943 211.375 271.6Z" fill="#263238"/>
<g opacity="0.4">
<path d="M135.745 206.33C135.543 206.05 135.275 205.824 134.964 205.674C134.653 205.524 134.309 205.454 133.965 205.47L114.645 209.87C115.002 209.834 115.362 209.895 115.687 210.047C116.013 210.198 116.292 210.434 116.495 210.73C117.098 211.529 117.503 212.459 117.676 213.445C117.85 214.43 117.788 215.443 117.495 216.4C117.415 216.75 117.243 217.071 116.997 217.332C116.751 217.592 116.439 217.781 116.095 217.88L135.325 213.48C135.673 213.385 135.989 213.197 136.239 212.936C136.489 212.675 136.664 212.352 136.745 212C137.032 211.043 137.092 210.031 136.918 209.046C136.744 208.062 136.343 207.131 135.745 206.33Z" fill="white"/>
</g>
<g opacity="0.4">
<path d="M229.575 261.54C229.377 261.258 229.11 261.03 228.801 260.878C228.492 260.726 228.149 260.655 227.805 260.67L208.485 265.09C208.843 265.055 209.204 265.118 209.529 265.271C209.855 265.424 210.133 265.662 210.335 265.96C210.935 266.758 211.339 267.687 211.513 268.67C211.687 269.654 211.626 270.665 211.335 271.62C211.249 271.968 211.073 272.288 210.826 272.547C210.579 272.807 210.268 272.997 209.925 273.1L229.155 268.71C229.5 268.608 229.812 268.418 230.061 268.158C230.31 267.899 230.487 267.579 230.575 267.23C230.87 266.27 230.933 265.254 230.759 264.265C230.585 263.276 230.179 262.342 229.575 261.54Z" fill="white"/>
<path d="M208.345 265.09C208.385 265.086 208.425 265.086 208.465 265.09H208.345Z" fill="white"/>
</g>
<path d="M208.085 266.611L200.405 268.531C194.102 270.119 187.427 269.182 181.805 265.921L111.445 225.301C110.749 224.906 110.188 224.313 109.833 223.597C109.478 222.88 109.346 222.074 109.453 221.282C109.561 220.49 109.904 219.748 110.437 219.153C110.97 218.557 111.669 218.135 112.445 217.941L115.525 217.181C116.585 216.321 116.465 211.651 114.215 211.311L110.985 212.101C109.038 212.574 107.279 213.621 105.934 215.106C104.59 216.591 103.722 218.446 103.444 220.43C103.166 222.413 103.49 224.435 104.375 226.233C105.259 228.03 106.663 229.52 108.405 230.511L178.805 271.091C183.513 273.824 188.86 275.266 194.305 275.271C196.869 275.25 199.422 274.914 201.905 274.271L209.425 272.401C210.455 271.631 210.335 266.961 208.085 266.611Z" fill="#BCBCBC"/>
<path d="M119.715 237.47V216.62L164.835 242.68V263.52L119.715 237.47Z" fill="#455A64"/>
<path d="M164.835 242.68L191.915 255.89V263.52H164.835V242.68Z" fill="#455A64"/>
<path d="M119.715 216.62L164.835 242.68L191.915 255.89L146.785 229.84L119.715 216.62Z" fill="#455A64"/>
<path opacity="0.1" d="M164.835 242.68L191.915 255.89V263.52H164.835V242.68Z" fill="white"/>
<path opacity="0.3" d="M119.715 216.62L164.835 242.68L191.915 255.89L146.785 229.84L119.715 216.62Z" fill="white"/>
<path opacity="0.2" d="M270.355 299.29C287.625 309.29 287.715 325.42 270.565 335.39C253.415 345.36 225.505 345.39 208.235 335.39C190.965 325.39 190.885 309.26 208.035 299.29C225.185 289.32 253.095 289.32 270.355 299.29Z" fill="black"/>
<path d="M237.675 186.62L241.465 170.09C236.297 170.813 231.41 172.882 227.295 176.09L207.455 191.69L221.105 195.9L237.675 186.62Z" fill="#FFCAB3"/>
<path d="M246.945 260.949L249.715 267.199C250.491 268.96 251.811 270.426 253.481 271.382C255.151 272.337 257.084 272.733 258.995 272.509L282.395 269.839C284.361 269.617 286.352 269.763 288.265 270.269L293.385 271.629V259.629L291.985 260.039C289.291 260.84 286.434 260.909 283.705 260.239L275.175 258.139C271.138 257.148 266.909 257.251 262.925 258.439L262.055 251.359L246.945 260.949Z" fill="#FFCAB3"/>
<path d="M310.535 276.749C310.447 273.852 309.23 271.103 307.145 269.089C305.605 267.629 303.665 266.649 302.205 265.089C300.515 263.279 299.815 261.289 298.375 259.239C298.121 258.893 297.774 258.626 297.375 258.469C297.229 258.454 297.081 258.454 296.935 258.469C296.425 258.509 295.928 258.652 295.475 258.889C296.057 258.989 296.577 259.312 296.925 259.789C298.375 261.789 299.395 264.189 301.095 265.959C302.545 267.469 304.485 268.429 306.025 269.859C308.101 271.805 309.32 274.495 309.415 277.339C309.495 280.149 308.465 284.999 306.415 284.999C307.062 285.156 307.744 285.052 308.315 284.709C310.095 282.939 310.585 278.839 310.535 276.749Z" fill="#EBEBEB"/>
<path d="M298.375 259.24C299.815 261.29 300.515 263.24 302.205 265.09C303.665 266.65 305.605 267.63 307.145 269.09C309.23 271.104 310.446 273.852 310.535 276.75C310.535 278.84 310.095 282.94 308.385 284.68C310.565 283.37 311.165 278.74 311.095 276.48C310.999 273.638 309.784 270.95 307.715 269C306.175 267.57 304.225 266.61 302.775 265.09C301.075 263.32 300.385 261.37 298.935 259.38C298.754 259.133 298.526 258.925 298.263 258.768C298 258.612 297.708 258.51 297.405 258.47C297.793 258.632 298.129 258.898 298.375 259.24Z" fill="#455A64"/>
<path d="M291.465 259.729C290.969 259.947 290.423 260.027 289.885 259.959C289.885 259.959 288.305 259.799 287.785 259.699C286.785 259.509 286.685 260.639 286.685 260.639C287.28 260.702 287.88 260.702 288.475 260.639C288.61 260.847 288.788 261.024 288.996 261.159C289.205 261.293 289.44 261.382 289.685 261.419C290.186 261.518 290.675 261.669 291.145 261.869C291.377 261.976 291.574 262.148 291.709 262.365C291.844 262.582 291.912 262.834 291.905 263.089C291.815 263.649 291.265 263.979 290.905 264.449C290.737 264.723 290.642 265.034 290.628 265.354C290.614 265.674 290.682 265.993 290.825 266.279C290.504 266.141 290.146 266.119 289.81 266.215C289.475 266.312 289.183 266.522 288.985 266.809C288.609 267.414 288.383 268.1 288.325 268.809C288.222 269.282 288.188 269.767 288.225 270.249C288.242 270.493 288.308 270.73 288.42 270.947C288.532 271.163 288.686 271.355 288.875 271.509C289.066 271.659 289.302 271.74 289.545 271.74C289.788 271.74 290.023 271.659 290.215 271.509C291.495 273.589 297.345 274.379 300.275 278.309C303.205 282.239 303.845 285.029 306.445 285.029C308.445 285.029 309.445 280.179 309.445 277.369C309.35 274.525 308.131 271.835 306.055 269.889C304.515 268.459 302.575 267.499 301.125 265.989C299.425 264.219 298.405 261.819 296.955 259.819C296.607 259.342 296.087 259.019 295.505 258.919C295.329 258.899 295.151 258.899 294.975 258.919C293.764 258.967 292.574 259.242 291.465 259.729Z" fill="#BE9FFD"/>
<path d="M305.685 284.3L306.345 282.49C306.389 282.373 306.465 282.27 306.564 282.192C306.662 282.114 306.78 282.065 306.905 282.05C308.905 281.81 309.535 281.51 310.405 280.59C310.28 281.713 309.919 282.797 309.345 283.77C309.009 284.354 308.459 284.784 307.812 284.971C307.164 285.157 306.47 285.085 305.875 284.77C305.789 284.73 305.722 284.66 305.687 284.573C305.651 284.485 305.651 284.388 305.685 284.3Z" fill="#455A64"/>
<path d="M293.025 267.46C293.024 267.531 293.009 267.602 292.98 267.667C292.95 267.733 292.908 267.791 292.855 267.84C292.191 268.411 291.737 269.187 291.565 270.046C291.393 270.905 291.512 271.797 291.905 272.58C291.953 272.696 291.956 272.827 291.912 272.945C291.868 273.064 291.782 273.161 291.669 273.218C291.556 273.275 291.426 273.287 291.305 273.252C291.184 273.217 291.08 273.138 291.015 273.03C290.526 272.046 290.375 270.928 290.585 269.85C290.797 268.772 291.364 267.797 292.195 267.08C292.296 266.994 292.427 266.951 292.56 266.96C292.693 266.97 292.816 267.03 292.905 267.13C292.983 267.221 293.026 267.339 293.025 267.46Z" fill="#37474F"/>
<path d="M296.095 268.869C296.095 269.004 296.041 269.134 295.945 269.229C295.312 269.856 294.852 270.635 294.609 271.492C294.365 272.349 294.347 273.253 294.555 274.119C294.571 274.185 294.573 274.253 294.563 274.32C294.552 274.386 294.529 274.45 294.493 274.508C294.458 274.566 294.412 274.616 294.357 274.655C294.302 274.695 294.24 274.723 294.175 274.739C294.109 274.755 294.041 274.758 293.974 274.747C293.908 274.737 293.844 274.713 293.786 274.678C293.729 274.642 293.679 274.596 293.639 274.541C293.599 274.487 293.571 274.425 293.555 274.359C293.309 273.324 293.332 272.242 293.623 271.218C293.913 270.194 294.461 269.261 295.215 268.509C295.261 268.462 295.317 268.425 295.378 268.4C295.438 268.374 295.504 268.361 295.57 268.361C295.636 268.361 295.701 268.374 295.762 268.4C295.823 268.425 295.878 268.462 295.925 268.509C295.977 268.554 296.019 268.609 296.048 268.671C296.077 268.733 296.093 268.801 296.095 268.869Z" fill="#37474F"/>
<path d="M298.805 271.09C298.805 271.165 298.788 271.239 298.755 271.307C298.722 271.374 298.674 271.433 298.615 271.48C298.05 271.943 297.616 272.545 297.355 273.227C297.094 273.909 297.014 274.648 297.125 275.37C297.145 275.501 297.114 275.634 297.037 275.743C296.961 275.851 296.845 275.925 296.715 275.949C296.584 275.97 296.45 275.939 296.342 275.862C296.233 275.786 296.159 275.67 296.135 275.54C295.992 274.639 296.089 273.717 296.416 272.866C296.742 272.014 297.287 271.264 297.995 270.69C298.098 270.608 298.23 270.57 298.361 270.585C298.492 270.6 298.612 270.666 298.695 270.77C298.768 270.86 298.806 270.973 298.805 271.09Z" fill="#37474F"/>
<path d="M301.035 273.24C301.033 273.31 301.018 273.379 300.988 273.442C300.959 273.506 300.917 273.563 300.865 273.61C300.384 274.053 300.014 274.604 299.786 275.217C299.559 275.831 299.479 276.49 299.555 277.14C299.572 277.271 299.536 277.403 299.456 277.508C299.375 277.613 299.256 277.682 299.125 277.7C299.06 277.709 298.993 277.706 298.929 277.689C298.865 277.673 298.806 277.644 298.753 277.604C298.701 277.564 298.657 277.513 298.625 277.456C298.593 277.398 298.572 277.335 298.565 277.27C298.468 276.459 298.565 275.638 298.848 274.873C299.132 274.108 299.593 273.421 300.195 272.87C300.241 272.823 300.297 272.786 300.357 272.76C300.418 272.735 300.484 272.722 300.55 272.722C300.616 272.722 300.681 272.735 300.742 272.76C300.803 272.786 300.858 272.823 300.905 272.87C300.992 272.973 301.038 273.104 301.035 273.24Z" fill="#37474F"/>
<path d="M236.805 218.149C236.055 228.769 238.895 241.149 239.805 244.809L238.235 248.569C237.845 258.219 252.065 263.489 258.585 259.729C268.805 243.389 273.985 234.529 271.975 224.249L236.805 218.149Z" fill="#263238"/>
<path opacity="0.3" d="M240.655 243.17L246.945 230.65C241.685 229.08 237.675 222.81 237.675 222.81C238.485 228.14 243.565 231.52 243.565 231.52C241.332 234.974 240.309 239.071 240.655 243.17Z" fill="black"/>
<path d="M258.805 256.169C257.465 250.169 248.355 243.639 240.585 245.729L233.325 261.779C232.103 264.483 231.365 267.38 231.145 270.339L228.255 309.089C228.057 311.801 227.568 314.483 226.795 317.089L226.705 317.389L236.805 320.089C236.844 315.613 237.684 311.18 239.285 306.999L247.005 286.859C248.5 282.938 249.18 278.752 249.005 274.559L248.885 271.389L258.805 256.169Z" fill="#FFCAB3"/>
<path d="M221.025 337.089C223.919 336.998 226.663 335.782 228.675 333.699C230.145 332.159 231.125 330.219 232.675 328.769C234.485 327.069 236.485 326.369 238.525 324.929C238.871 324.675 239.138 324.329 239.295 323.929C239.31 323.783 239.31 323.636 239.295 323.489C239.256 322.98 239.117 322.484 238.885 322.029C238.789 322.613 238.465 323.134 237.985 323.479C235.985 324.929 233.595 325.949 231.825 327.649C230.305 329.099 229.345 331.049 227.915 332.579C225.969 334.656 223.279 335.875 220.435 335.969C217.635 336.049 212.775 335.029 212.775 332.969C212.618 333.616 212.722 334.299 213.065 334.869C214.805 336.609 218.925 337.089 221.025 337.089Z" fill="#EBEBEB"/>
<path d="M238.525 324.89C236.525 326.33 234.525 327.03 232.675 328.73C231.125 330.18 230.145 332.12 228.675 333.66C226.663 335.743 223.919 336.959 221.025 337.05C218.925 337.11 214.835 336.61 213.085 334.9C214.395 337.08 219.035 337.68 221.285 337.61C224.127 337.519 226.818 336.303 228.765 334.23C230.195 332.69 231.155 330.75 232.675 329.29C234.445 327.6 236.395 326.9 238.395 325.45C238.643 325.271 238.851 325.043 239.006 324.78C239.161 324.516 239.259 324.223 239.295 323.92C239.133 324.308 238.866 324.644 238.525 324.89Z" fill="#455A64"/>
<path d="M238.045 317.98C237.825 317.488 237.745 316.944 237.815 316.41C237.815 316.41 237.965 314.82 238.065 314.31C238.255 313.31 237.485 313.26 237.485 313.26C237.485 313.26 237.335 314.05 237.205 314.98C236.99 315.117 236.804 315.296 236.658 315.505C236.512 315.714 236.409 315.95 236.355 316.2C236.257 316.701 236.106 317.19 235.905 317.66C235.8 317.893 235.628 318.09 235.411 318.225C235.193 318.361 234.941 318.428 234.685 318.42C234.135 318.34 233.795 317.78 233.335 317.42C233.06 317.252 232.747 317.157 232.425 317.143C232.103 317.129 231.783 317.197 231.495 317.34C231.636 317.021 231.66 316.663 231.563 316.328C231.467 315.993 231.255 315.704 230.965 315.51C230.362 315.129 229.676 314.9 228.965 314.84C228.488 314.742 228 314.708 227.515 314.74C227.273 314.756 227.037 314.822 226.822 314.933C226.606 315.045 226.417 315.201 226.265 315.39C226.114 315.58 226.032 315.817 226.032 316.06C226.032 316.303 226.114 316.539 226.265 316.73C224.175 318.01 223.385 323.86 219.455 326.79C215.525 329.72 212.735 330.37 212.735 332.96C212.735 334.96 217.595 335.96 220.395 335.96C223.239 335.865 225.929 334.646 227.875 332.57C229.305 331.04 230.265 329.09 231.785 327.64C233.555 325.94 235.945 324.92 237.945 323.47C238.252 323.238 238.498 322.935 238.662 322.586C238.826 322.238 238.902 321.854 238.885 321.47C238.816 320.266 238.531 319.084 238.045 317.98Z" fill="#BE9FFD"/>
<path d="M213.465 332.199L215.275 332.859C215.396 332.902 215.503 332.978 215.582 333.079C215.662 333.18 215.711 333.301 215.725 333.429C215.955 335.429 216.255 336.059 217.175 336.919C216.055 336.799 214.974 336.441 214.005 335.869C213.42 335.531 212.99 334.98 212.803 334.331C212.617 333.682 212.689 332.986 213.005 332.389C213.046 332.308 213.115 332.243 213.199 332.208C213.284 332.174 213.378 332.17 213.465 332.199Z" fill="#455A64"/>
<path d="M230.315 319.55C230.242 319.55 230.17 319.534 230.104 319.503C230.039 319.472 229.981 319.426 229.935 319.37C229.359 318.71 228.583 318.256 227.725 318.08C226.863 317.909 225.968 318.032 225.185 318.43C225.065 318.49 224.927 318.499 224.801 318.457C224.674 318.415 224.569 318.324 224.51 318.205C224.45 318.086 224.44 317.947 224.482 317.821C224.525 317.694 224.615 317.59 224.735 317.53C225.723 317.026 226.853 316.869 227.941 317.085C229.029 317.301 230.014 317.877 230.735 318.72C230.82 318.82 230.862 318.949 230.853 319.08C230.844 319.211 230.783 319.333 230.685 319.42C230.635 319.465 230.577 319.5 230.513 319.523C230.449 319.545 230.382 319.554 230.315 319.55Z" fill="#37474F"/>
<path d="M228.895 322.61C228.76 322.609 228.63 322.555 228.535 322.46C227.91 321.828 227.132 321.368 226.277 321.125C225.422 320.881 224.519 320.862 223.655 321.07C223.591 321.086 223.524 321.089 223.458 321.08C223.392 321.07 223.329 321.047 223.272 321.013C223.215 320.978 223.166 320.933 223.127 320.879C223.088 320.825 223.06 320.764 223.045 320.7C223.028 320.637 223.025 320.571 223.034 320.506C223.043 320.442 223.065 320.38 223.099 320.324C223.132 320.268 223.177 320.22 223.229 320.181C223.282 320.142 223.342 320.115 223.405 320.1C224.44 319.852 225.522 319.874 226.547 320.165C227.571 320.455 228.504 321.005 229.255 321.76C229.324 321.83 229.371 321.919 229.389 322.016C229.407 322.113 229.397 322.214 229.358 322.305C229.32 322.396 229.255 322.473 229.173 322.527C229.09 322.582 228.994 322.61 228.895 322.61Z" fill="#37474F"/>
<path d="M226.715 325.28C226.638 325.279 226.563 325.261 226.494 325.228C226.425 325.195 226.364 325.148 226.315 325.09C225.853 324.523 225.251 324.086 224.569 323.823C223.887 323.56 223.148 323.479 222.425 323.59C222.292 323.611 222.157 323.578 222.048 323.5C221.939 323.421 221.866 323.302 221.845 323.17C221.824 323.037 221.856 322.901 221.935 322.793C222.013 322.684 222.132 322.611 222.265 322.59C223.164 322.448 224.084 322.545 224.934 322.872C225.783 323.198 226.532 323.742 227.105 324.45C227.166 324.523 227.205 324.612 227.217 324.707C227.229 324.802 227.213 324.898 227.172 324.984C227.131 325.071 227.066 325.143 226.985 325.194C226.904 325.244 226.81 325.271 226.715 325.27V325.28Z" fill="#37474F"/>
<path d="M224.535 327.55C224.464 327.55 224.395 327.535 224.331 327.506C224.267 327.477 224.21 327.434 224.165 327.38C223.718 326.9 223.165 326.533 222.55 326.307C221.935 326.081 221.276 326.003 220.625 326.08C220.493 326.092 220.362 326.053 220.258 325.971C220.154 325.889 220.085 325.771 220.065 325.64C220.056 325.574 220.061 325.507 220.079 325.444C220.097 325.38 220.127 325.32 220.168 325.268C220.209 325.216 220.259 325.172 220.317 325.14C220.375 325.108 220.439 325.087 220.505 325.08C221.315 324.984 222.136 325.081 222.901 325.365C223.666 325.648 224.353 326.109 224.905 326.71C224.967 326.783 225.007 326.872 225.021 326.967C225.035 327.061 225.022 327.158 224.983 327.246C224.944 327.333 224.882 327.408 224.803 327.462C224.723 327.516 224.631 327.546 224.535 327.55Z" fill="#37474F"/>
<path d="M263.305 169.22C257.831 168.79 252.334 168.75 246.855 169.1C244.395 169.136 241.974 169.717 239.765 170.8C238.357 171.698 237.144 172.868 236.196 174.242C235.248 175.616 234.585 177.166 234.245 178.8C233.593 182.067 233.384 185.407 233.625 188.73C233.915 199.59 234.725 208.86 235.895 219.66C246.685 225.89 260.895 228.84 272.895 225.42C273.065 211.42 272.375 196.61 269.555 182.89C268.555 177.93 267.105 172.57 263.305 169.22Z" fill="#455A64"/>
<path opacity="0.3" d="M263.305 169.22C257.831 168.79 252.334 168.75 246.855 169.1C244.395 169.136 241.974 169.717 239.765 170.8C238.357 171.698 237.144 172.868 236.196 174.242C235.248 175.616 234.585 177.166 234.245 178.8C233.593 182.067 233.384 185.407 233.625 188.73C233.915 199.59 234.725 208.86 235.895 219.66C246.685 225.89 260.895 228.84 272.895 225.42C273.065 211.42 272.375 196.61 269.555 182.89C268.555 177.93 267.105 172.57 263.305 169.22Z" fill="white"/>
<path d="M295.915 197.089C296.051 195.61 295.82 194.12 295.24 192.752C294.661 191.384 293.752 190.181 292.595 189.249L272.695 173.179C270 170.996 266.747 169.61 263.305 169.179L261.355 169.029C259.575 170.679 258.795 182.429 266.815 187.199L284.115 197.299L283.945 219.529L278.025 226.289C277.918 226.407 277.84 226.548 277.799 226.702C277.757 226.855 277.753 227.016 277.786 227.172C277.82 227.327 277.889 227.472 277.99 227.595C278.091 227.718 278.219 227.816 278.365 227.879C278.705 228.039 279.084 228.099 279.457 228.053C279.83 228.007 280.183 227.857 280.475 227.619L282.395 226.049C281.205 228.289 280.165 230.839 278.975 233.049C278.678 233.484 278.531 234.003 278.555 234.529C278.595 234.751 278.684 234.962 278.815 235.145C278.947 235.328 279.117 235.48 279.315 235.589C279.705 235.812 280.138 235.948 280.585 235.989C282.148 236.173 283.731 235.891 285.135 235.179C286.535 234.469 287.771 233.475 288.765 232.259C290.665 229.971 291.805 227.146 292.025 224.179C293.812 215.227 295.111 206.183 295.915 197.089Z" fill="#FFCAB3"/>
<path d="M243.275 164.969V166.769C243.229 168.088 242.987 169.392 242.555 170.639C242.374 171.164 242.374 171.734 242.555 172.259C242.74 172.7 243.022 173.094 243.381 173.411C243.739 173.728 244.164 173.96 244.625 174.089C245.539 174.334 246.497 174.365 247.425 174.179C250.2 173.706 252.72 172.273 254.545 170.129L254.135 157.819L243.275 164.969Z" fill="#FFCAB3"/>
<path opacity="0.2" d="M251.955 163.17C252.835 161.63 253.4 159.93 253.615 158.17L243.275 164.96V166.76C243.265 167.286 243.215 167.811 243.125 168.33C244.583 168.077 246.004 167.644 247.355 167.04C249.233 166.226 250.832 164.881 251.955 163.17Z" fill="black"/>
<path d="M231.805 145C230.623 145.038 229.454 144.751 228.425 144.171C227.395 143.591 226.544 142.74 225.965 141.71C225.883 141.558 225.847 141.387 225.861 141.215C225.876 141.044 225.94 140.881 226.047 140.745C226.153 140.61 226.297 140.509 226.46 140.455C226.623 140.401 226.799 140.395 226.965 140.44C227.782 140.584 228.618 140.584 229.435 140.44C228.492 139.213 227.804 137.811 227.409 136.316C227.014 134.82 226.921 133.261 227.135 131.73C227.161 131.559 227.227 131.397 227.327 131.257C227.428 131.117 227.56 131.003 227.712 130.923C227.865 130.843 228.035 130.8 228.207 130.798C228.379 130.796 228.55 130.834 228.705 130.91C232.095 132.591 235.867 133.353 239.645 133.12C241.645 132.98 243.645 132.55 245.645 132.4C247.657 132.15 249.699 132.462 251.545 133.3C252.472 133.726 253.266 134.397 253.841 135.241C254.415 136.085 254.749 137.07 254.805 138.09C255.034 137.763 255.332 137.49 255.677 137.29C256.023 137.09 256.407 136.967 256.805 136.93C257.22 136.879 257.64 136.915 258.041 137.033C258.442 137.152 258.814 137.352 259.135 137.62L255.675 139.54C256.323 139.41 256.997 139.499 257.59 139.792C258.183 140.085 258.663 140.566 258.955 141.16C259.463 142.323 259.683 143.593 259.595 144.86C259.66 146.529 259.586 148.202 259.375 149.86C259.148 151.536 258.49 153.124 257.465 154.47C256.563 155.569 255.361 156.383 254.005 156.81C252.157 157.326 250.195 157.263 248.385 156.63C246.587 156.002 244.877 155.149 243.295 154.09C239.194 151.418 235.348 148.375 231.805 145Z" fill="#263238"/>
<path d="M231.585 141.649C230.426 148.609 231.194 155.754 233.805 162.309C234.28 163.881 235.27 165.247 236.615 166.189C238.095 167.039 239.935 166.859 241.615 166.609C244.355 166.3 247.027 165.547 249.525 164.379C252.044 163.192 254.007 161.079 255.005 158.479C255.9 158.662 256.828 158.581 257.678 158.248C258.528 157.914 259.263 157.341 259.795 156.599C260.85 155.059 261.395 153.226 261.355 151.359C261.355 150.179 261.135 148.779 260.075 148.259C259.554 148.1 258.999 148.086 258.471 148.218C257.942 148.35 257.46 148.624 257.075 149.009C255.651 150.154 254.606 151.701 254.075 153.449C253.295 150.559 252.075 147.769 251.295 144.889C251.119 143.718 250.522 142.651 249.615 141.889C248.405 141.109 246.825 141.559 245.425 141.889C240.866 142.991 236.102 142.908 231.585 141.649Z" fill="#FFCAB3"/>
<path d="M239.995 150.409L236.625 156.099L240.645 156.849L239.995 150.409Z" fill="#FFCAB3"/>
<path d="M244.525 158.81L241.465 160.3C241.727 160.647 242.095 160.9 242.514 161.019C242.933 161.138 243.379 161.117 243.785 160.96C244.138 160.742 244.405 160.409 244.54 160.017C244.675 159.625 244.67 159.198 244.525 158.81Z" fill="#FFCAB3"/>
<path opacity="0.3" d="M244.525 158.81L241.465 160.3C241.727 160.647 242.095 160.9 242.514 161.019C242.933 161.138 243.379 161.117 243.785 160.96C244.138 160.742 244.405 160.409 244.54 160.017C244.675 159.625 244.67 159.198 244.525 158.81Z" fill="black"/>
<path d="M242.725 161.09C243.08 161.159 243.449 161.125 243.785 160.99C244.065 160.832 244.292 160.595 244.438 160.309C244.584 160.023 244.642 159.699 244.605 159.38C244.168 159.376 243.744 159.524 243.405 159.8C243.212 159.959 243.052 160.155 242.935 160.377C242.819 160.598 242.747 160.841 242.725 161.09Z" fill="#FFCAB3"/>
<path d="M245.805 150.64C245.836 150.869 245.797 151.103 245.694 151.31C245.592 151.517 245.429 151.689 245.228 151.803C245.027 151.918 244.797 151.969 244.566 151.951C244.335 151.933 244.115 151.847 243.934 151.703C243.753 151.56 243.619 151.365 243.549 151.144C243.479 150.924 243.477 150.687 243.543 150.465C243.608 150.244 243.739 150.047 243.917 149.899C244.096 149.752 244.314 149.662 244.545 149.64C244.844 149.606 245.145 149.692 245.381 149.88C245.617 150.067 245.77 150.341 245.805 150.64Z" fill="#263238"/>
<path d="M236.135 151.239C236.164 151.397 236.161 151.559 236.125 151.716C236.088 151.872 236.02 152.02 235.923 152.148C235.827 152.277 235.705 152.384 235.565 152.463C235.425 152.542 235.27 152.591 235.11 152.607C234.95 152.623 234.789 152.606 234.636 152.556C234.483 152.506 234.342 152.425 234.222 152.318C234.102 152.211 234.006 152.081 233.939 151.934C233.873 151.788 233.837 151.63 233.835 151.469C233.831 151.179 233.936 150.897 234.129 150.681C234.323 150.464 234.59 150.328 234.879 150.299C235.168 150.27 235.458 150.35 235.69 150.525C235.923 150.699 236.081 150.954 236.135 151.239Z" fill="#263238"/>
<path d="M234.555 146.779L232.175 148.779C232.033 148.473 231.988 148.131 232.045 147.799C232.102 147.467 232.259 147.16 232.495 146.919C232.79 146.704 233.14 146.577 233.505 146.552C233.869 146.528 234.233 146.606 234.555 146.779Z" fill="#263238"/>
<path d="M244.385 145.639L247.115 147.149C247.194 146.823 247.172 146.48 247.05 146.167C246.928 145.854 246.714 145.586 246.435 145.399C246.104 145.249 245.738 145.192 245.376 145.234C245.015 145.277 244.672 145.417 244.385 145.639Z" fill="#263238"/>
<path d="M245.145 213.17C245.145 212.89 245.145 212.62 245.075 212.35C244.739 210.043 243.744 207.883 242.209 206.129C240.675 204.374 238.666 203.1 236.425 202.46L221.545 193.46L211.545 188.46L207.425 191.71C206.497 192.431 205.802 193.408 205.425 194.52C204.94 196.004 205.054 197.619 205.741 199.022C206.428 200.424 207.635 201.503 209.105 202.03L233.105 210.49C234.674 212.131 235.67 214.236 235.945 216.49C236.008 217.152 236.139 217.805 236.335 218.44C236.671 219.194 237.242 219.819 237.964 220.221C238.685 220.623 239.517 220.78 240.335 220.67C241.145 220.546 241.915 220.235 242.583 219.761C243.252 219.287 243.8 218.663 244.185 217.94C244.957 216.475 245.29 214.819 245.145 213.17Z" fill="#FFCAB3"/>
<path d="M237.125 202.46V201.01H236.065V201.54L233.805 200.22C233.57 200.083 233.302 200.011 233.03 200.011C232.758 200.011 232.49 200.083 232.255 200.22L228.485 202.4V201.77L227.485 201.86V203.29C227.486 203.38 227.51 203.468 227.556 203.545C227.601 203.622 227.667 203.686 227.745 203.73L230.845 205.53C231.081 205.663 231.348 205.733 231.62 205.733C231.891 205.733 232.158 205.663 232.395 205.53L236.945 202.9C237.02 202.858 237.082 202.797 237.126 202.723C237.17 202.65 237.194 202.566 237.195 202.48L237.125 202.46Z" fill="#BE9FFD"/>
<path d="M232.215 199.03L228.365 201.26C228.296 201.296 228.238 201.351 228.198 201.418C228.157 201.485 228.136 201.561 228.136 201.64C228.136 201.718 228.157 201.794 228.198 201.861C228.238 201.928 228.296 201.983 228.365 202.02L231.005 203.54C231.205 203.657 231.433 203.72 231.665 203.72C231.897 203.72 232.125 203.657 232.325 203.54L236.185 201.31C236.251 201.271 236.306 201.215 236.345 201.149C236.383 201.082 236.403 201.006 236.403 200.93C236.403 200.853 236.383 200.777 236.345 200.711C236.306 200.644 236.251 200.588 236.185 200.55L233.535 199.03C233.335 198.912 233.107 198.85 232.875 198.85C232.643 198.85 232.415 198.912 232.215 199.03Z" fill="#BE9FFD"/>
<path opacity="0.3" d="M237.125 202.46V201.01H236.065V201.54L233.805 200.22C233.57 200.083 233.302 200.011 233.03 200.011C232.758 200.011 232.49 200.083 232.255 200.22L228.485 202.4V201.77L227.485 201.86V203.29C227.486 203.38 227.51 203.468 227.556 203.545C227.601 203.622 227.667 203.686 227.745 203.73L230.845 205.53C231.081 205.663 231.348 205.733 231.62 205.733C231.891 205.733 232.158 205.663 232.395 205.53L236.945 202.9C237.02 202.858 237.082 202.797 237.126 202.723C237.17 202.65 237.194 202.566 237.195 202.48L237.125 202.46Z" fill="black"/>
<path d="M232.205 198.79L227.675 201.41C227.596 201.454 227.53 201.518 227.484 201.597C227.438 201.675 227.414 201.764 227.414 201.855C227.414 201.945 227.438 202.034 227.484 202.112C227.53 202.191 227.596 202.255 227.675 202.3L230.805 204.09C231.041 204.223 231.308 204.293 231.58 204.293C231.851 204.293 232.118 204.223 232.355 204.09L236.905 201.46C236.981 201.413 237.045 201.348 237.089 201.27C237.133 201.192 237.156 201.104 237.156 201.015C237.156 200.925 237.133 200.837 237.089 200.759C237.045 200.681 236.981 200.616 236.905 200.57L233.805 198.79C233.564 198.643 233.287 198.565 233.005 198.565C232.723 198.565 232.446 198.643 232.205 198.79Z" fill="#BE9FFD"/>
<path opacity="0.5" d="M232.215 199.03L228.365 201.26C228.296 201.296 228.238 201.351 228.198 201.418C228.157 201.485 228.136 201.561 228.136 201.64C228.136 201.718 228.157 201.794 228.198 201.861C228.238 201.928 228.296 201.983 228.365 202.02L231.005 203.54C231.205 203.657 231.433 203.72 231.665 203.72C231.897 203.72 232.125 203.657 232.325 203.54L236.185 201.31C236.251 201.271 236.306 201.215 236.345 201.149C236.383 201.082 236.403 201.006 236.403 200.93C236.403 200.853 236.383 200.777 236.345 200.711C236.306 200.644 236.251 200.588 236.185 200.55L233.535 199.03C233.335 198.912 233.107 198.85 232.875 198.85C232.643 198.85 232.415 198.912 232.215 199.03Z" fill="white"/>
<path d="M230.505 209.549C229.895 208.979 229.565 205.869 230.775 204.859L227.675 203.069C226.675 204.339 226.925 207.069 227.485 208.449C227.551 208.607 227.65 208.749 227.776 208.865C227.902 208.98 228.052 209.067 228.215 209.119C228.815 209.319 229.825 209.669 230.215 209.799C230.334 209.842 230.461 209.858 230.588 209.846C230.714 209.834 230.836 209.794 230.945 209.729L230.505 209.549Z" fill="#455A64"/>
</svg>
