<svg width="81" height="93" viewBox="0 0 81 93" fill="none" xmlns="http://www.w3.org/2000/svg">
<path d="M22.7201 53.6277C23.3141 53.6277 23.7957 53.1461 23.7957 52.5521C23.7957 51.9581 23.3141 51.4766 22.7201 51.4766C22.1261 51.4766 21.6445 51.9581 21.6445 52.5521C21.6445 53.1461 22.1261 53.6277 22.7201 53.6277Z" fill="#D7E8F0"/>
<path d="M15.5739 41.5424C15.8709 41.5424 16.1117 41.3016 16.1117 41.0046C16.1117 40.7075 15.8709 40.4668 15.5739 40.4668C15.2769 40.4668 15.0361 40.7075 15.0361 41.0046C15.0361 41.3016 15.2769 41.5424 15.5739 41.5424Z" fill="#D7E8F0"/>
<path d="M36.9814 34.4921C37.2478 34.4921 37.4638 34.2762 37.4638 34.0097C37.4638 33.7434 37.2478 33.5273 36.9814 33.5273C36.715 33.5273 36.499 33.7434 36.499 34.0097C36.499 34.2762 36.715 34.4921 36.9814 34.4921Z" fill="#D7E8F0"/>
<path d="M57.9609 17.9999C58.2273 17.9999 58.4433 17.7839 58.4433 17.5176C58.4433 17.2511 58.2273 17.0352 57.9609 17.0352C57.6945 17.0352 57.4785 17.2511 57.4785 17.5176C57.4785 17.7839 57.6945 17.9999 57.9609 17.9999Z" fill="#D7E8F0"/>
<path d="M25.8545 30.4775C25.9646 30.5178 26.0799 30.5423 26.1969 30.55H26.1999C26.2046 30.5506 26.2093 30.5511 26.2139 30.5514C26.2257 30.5519 26.2376 30.5515 26.2493 30.55H26.3178C26.2825 30.5536 26.2473 30.5541 26.2139 30.5514H26.2138C26.2471 30.5541 26.2824 30.5541 26.3177 30.5541H26.2493C26.2318 30.5561 26.2143 30.5561 26.1969 30.5541C26.0879 30.5538 25.9796 30.5389 25.8746 30.5098C25.8706 30.5057 25.8676 30.5007 25.8646 30.4957C25.8615 30.4906 25.8585 30.4856 25.8545 30.4816V30.4775Z" fill="#FFC6B2"/>
<path d="M31.9717 30.5503C32.3312 30.5382 32.6051 30.4416 32.9355 30.0468V30.0508C33.0034 29.9697 33.0729 29.8883 33.1444 29.808C33.6205 29.273 34.1827 28.789 34.9375 28.803C34.9037 28.8036 34.8703 28.8051 34.8372 28.8078C34.8703 28.8066 34.9037 28.8064 34.9375 28.8071C34.1117 28.8202 33.5125 29.4466 33.0039 30.0508C32.6494 30.4657 32.3624 30.5463 31.9717 30.5544C32.029 30.5524 32.0842 30.5484 32.1377 30.5413C32.0843 30.5464 32.0291 30.5492 31.9717 30.5503Z" fill="#FFC6B2"/>
<path d="M35.0176 28.8062C35.0403 28.8042 35.0633 28.8042 35.0861 28.8062V28.8102C36.0831 28.8878 35.7598 29.7388 35.1948 30.5374L35.1183 30.5535C35.1194 30.552 35.1205 30.5504 35.1216 30.5488L35.1183 30.5495C35.4204 30.1225 35.6631 29.6824 35.6631 29.347C35.6631 29.3445 35.6632 29.3419 35.6632 29.3393C35.6623 29.0514 35.4836 28.847 35.0176 28.8102C35.0272 28.8094 35.037 28.8089 35.0467 28.8088C35.0371 28.8078 35.0274 28.807 35.0176 28.8062Z" fill="#FFC6B2"/>
<path d="M54.2441 51.0964C54.3049 51.0204 54.3697 50.9478 54.4385 50.8789C54.4422 50.8919 54.446 50.905 54.4497 50.9181C54.4702 50.9905 54.4912 51.0645 54.515 51.1327C54.4768 51.104 54.4318 51.0857 54.3843 51.0793C54.3369 51.073 54.2887 51.0788 54.2441 51.0964Z" fill="#FFC6B2"/>
<path d="M69.1026 84.5956C70.2729 84.5184 71.4081 84.1646 72.4149 83.5633C77.822 80.3588 79.677 72.5146 79.5572 66.6684C79.5074 64.5853 79.2374 62.5132 78.7515 60.487C77.7867 56.3791 76.0032 52.4484 73.7402 48.9629C70.86 44.5317 63.2353 38.7581 65.5607 31.6924" stroke="#CCDDE2" stroke-miterlimit="10"/>
<path d="M41.6279 6.21922C42.2704 5.86392 42.9448 5.56958 43.6421 5.34C62.1725 -0.732718 72.2906 18.7161 66.1897 29.4819C66.0371 29.7522 65.8999 30.0308 65.7788 30.3167" stroke="#CCDDE2" stroke-miterlimit="10"/>
<path d="M21.1937 72.0142C18.8868 70.3871 16.6903 68.6091 14.6184 66.6918C8.14286 60.7036 1.75492 52.646 2.36018 43.3042C2.90098 34.9454 8.86494 28.068 15.9558 24.1344C20.6972 21.5029 26.4758 21.0557 30.8979 17.8431C33.0934 16.2539 34.9414 14.1753 36.1801 11.7583C36.545 11.048 36.9759 10.3737 37.4672 9.74414" stroke="#CCDDE2" stroke-miterlimit="10"/>
<path d="M16.5703 83.2587C16.5098 83.7622 16.0546 83.9274 15.6357 84.3584L15.6035 84.3906H5.05123C4.84468 84.396 4.63923 84.3598 4.44688 84.2844C4.25453 84.209 4.0792 84.0958 3.93125 83.9516C3.78331 83.8074 3.66579 83.6351 3.58552 83.4447C3.50526 83.2543 3.46387 83.0499 3.46387 82.8432C3.46387 82.6367 3.50526 82.4321 3.58552 82.2418C3.66579 82.0515 3.78331 81.879 3.93125 81.7348C4.0792 81.5906 4.25453 81.4775 4.44688 81.4021C4.63923 81.3268 4.84468 81.2906 5.05123 81.2958L13.3476 80.0088C13.3476 80.0088 13.0717 83.448 16.5703 83.2587Z" fill="#FFC6B2"/>
<path d="M56.7393 91.1342C56.623 91.278 56.4783 91.3962 56.3142 91.4814C56.1499 91.5665 55.9699 91.6169 55.7853 91.6291C55.6008 91.6413 55.4157 91.6151 55.2418 91.5523C55.0678 91.4895 54.9088 91.3914 54.7745 91.2641C54.5755 91.0893 54.3592 90.9351 54.129 90.8039C55.4483 86.6396 51.2084 83.7825 51.0977 83.71C51.6787 83.9164 52.2316 84.1128 52.7483 84.3072C53.132 84.4482 53.4945 84.5861 53.8379 84.71C55.0764 85.1824 56.0794 86.1229 56.6306 87.3284C57.0777 88.3144 57.5057 90.2278 56.7393 91.1342Z" fill="#FFC6B2"/>
<path d="M35.4589 39.6109C35.4589 39.6109 33.1184 44.8921 37.2716 50.28C37.2716 50.28 41.7028 48.1077 41.6978 49.7694C41.6978 49.7694 44.6334 58.8583 44.862 64.5091C44.862 64.5091 46.987 66.6008 48.1512 65.4497C49.3153 64.2986 54.5965 58.6267 54.8896 54.5923C55.1826 50.5579 54.1947 51.0947 54.1947 51.0947C54.1947 51.0947 58.2935 46.0804 65.8769 49.294C65.8769 49.294 69.3291 64.8142 52.5169 69.1608C52.5169 69.1608 65.7953 76.162 65.609 78.0876C65.609 78.0876 69.882 70.6261 69.5366 64.2422C69.1912 57.8583 69.1177 46.5537 60.4467 38.7025L54.1977 35.3922L53.0758 37.5021C53.0758 37.5021 50.1865 40.5707 48.8672 40.6885C47.5479 40.8063 46.0081 40.1144 46.1732 37.3168C46.3384 34.5191 46.9789 34.8383 45.4683 35.3469C43.9577 35.8555 35.4589 39.6109 35.4589 39.6109Z" fill="#2E2E2E"/>
<path d="M57.9424 23.3459C57.4857 23.0102 56.99 22.7313 56.466 22.515L55.6392 22.1676C55.4569 22.0911 55.2676 22.0185 55.0783 21.9581C53.6774 21.5221 52.5606 21.4546 51.6602 21.5986C51.2439 21.6611 50.839 21.7836 50.4578 21.9621C49.5521 22.3974 48.8343 23.1453 48.4366 24.068C48.3157 24.3419 48.0649 24.5765 47.7588 24.7659C47.9602 23.2975 48.6984 21.3206 51.2242 21.0397C52.766 20.8745 54.2343 21.1968 55.5133 21.7053C56.3834 22.1571 57.1985 22.7076 57.9424 23.3459Z" fill="#FFC6B2"/>
<path d="M57.9424 23.3459C57.4857 23.0102 56.99 22.7313 56.466 22.515L55.6392 22.1676C55.4569 22.0911 55.2676 22.0185 55.0783 21.9581C53.6774 21.5221 52.5606 21.4546 51.6602 21.5986C51.2439 21.6611 50.839 21.7836 50.4578 21.9621C49.5521 22.3974 48.8343 23.1453 48.4366 24.068C48.3157 24.3419 48.0649 24.5765 47.7588 24.7659C47.9602 23.2975 48.6984 21.3206 51.2242 21.0397C52.766 20.8745 54.2343 21.1968 55.5133 21.7053C56.3834 22.1571 57.1985 22.7076 57.9424 23.3459Z" fill="#FFC6B2"/>
<path d="M60.1537 28.1913C60.1464 28.4274 60.1248 28.6627 60.0893 28.8963C60.0766 29.0103 60.0578 29.1236 60.0329 29.2357C60.0329 29.2357 60.0329 29.2478 60.0329 29.2518C60.0129 29.3797 59.9846 29.5061 59.9483 29.6304C59.5928 31.0404 58.7982 32.3345 57.5877 33.1411C56.5584 33.827 55.2956 34.0687 54.0689 34.0767C53.9038 34.0818 53.7336 34.0767 53.5654 34.0687C53.081 32.5681 55.2442 32.12 54.9048 30.7282C54.8919 30.6722 54.8757 30.6171 54.8565 30.563C54.5825 29.8037 53.6017 29.8581 52.9279 29.5217C52.9803 29.2397 53.2834 28.9366 53.4244 28.5146C53.6258 27.8892 53.368 27.4421 52.9037 27.0906C52.803 26.7431 52.52 26.4732 52.1615 26.2436C51.9287 26.0987 51.7099 25.9325 51.5079 25.7471C51.4499 25.6384 51.4014 25.5248 51.3629 25.4077C51.3101 25.2541 51.2697 25.0965 51.242 24.9364C50.9792 23.4258 52.3237 22.1226 53.8544 22.2818C54.4759 22.3507 55.0888 22.4817 55.6843 22.6725C55.8736 22.7329 56.063 22.8054 56.2452 22.882L57.0721 23.2294C57.596 23.4455 58.0917 23.7245 58.5485 24.0603C58.5555 24.0681 58.5637 24.0749 58.5726 24.0804C58.5777 24.0804 58.5726 24.0885 58.5817 24.0885C59.059 24.0693 59.5435 24.3382 59.3712 24.7854C59.3612 24.8115 59.3843 24.8085 59.3843 24.8267C59.6104 25.1782 59.7857 25.5599 59.905 25.9606C60.111 26.6852 60.195 27.439 60.1537 28.1913Z" fill="#FFC6B2"/>
<path d="M44.3405 27.9805V28.6311C44.3414 28.7037 44.3162 28.7741 44.2694 28.8296C44.2226 28.8851 44.1574 28.9218 44.0857 28.9332L36.3312 30.329L35.0844 30.5556C35.3865 30.1276 35.6252 29.6875 35.6292 29.3532C35.6292 29.0581 35.455 28.8496 34.9837 28.8124C34.0773 28.7479 33.4378 29.4096 32.901 30.0511C32.3844 30.6684 32.0098 30.5546 31.2303 30.5546H26.215C26.0885 30.5549 25.9626 30.5387 25.8404 30.5063C25.6403 30.249 25.5321 29.9319 25.5332 29.6059V26.9321C25.5333 26.5446 25.6848 26.1725 25.9553 25.895C26.2258 25.6176 26.594 25.4567 26.9814 25.4467C26.9925 25.5678 27.0228 25.6865 27.071 25.7982C27.1216 25.9335 27.203 26.0553 27.3087 26.1537C27.4172 26.2524 27.5579 26.3081 27.7045 26.3108C27.7567 26.3096 27.8083 26.3001 27.8576 26.2826C28.021 26.2207 28.1587 26.1053 28.2483 25.9553C28.4789 25.6008 28.4991 25.1496 28.5112 24.7246C28.5273 25.0761 28.483 25.4296 28.5474 25.774C28.6038 26.0761 28.7609 26.3954 29.0238 26.5444C29.0624 26.5665 29.1028 26.5854 29.1446 26.6008C29.2441 26.6369 29.3507 26.6492 29.4558 26.6371C29.6045 26.6263 29.7477 26.5762 29.8707 26.492C30.0815 26.3465 30.24 26.1371 30.3229 25.8948C30.3839 25.7203 30.4218 25.5384 30.4357 25.354C30.4371 25.754 30.5052 26.1508 30.6371 26.5283C30.6843 26.6607 30.7523 26.7848 30.8385 26.8959C30.8734 26.9388 30.9126 26.9779 30.9554 27.0127C31.1086 27.1233 31.2954 27.1774 31.4841 27.1658C31.6007 27.1591 31.7153 27.1318 31.8225 27.0852C32.2142 26.908 32.472 26.4961 32.5375 26.0721C32.5576 26.48 32.7752 26.9523 33.1508 27.1416C33.2644 27.2038 33.392 27.2357 33.5214 27.2343C33.6318 27.2322 33.7411 27.2118 33.8447 27.1738C34.0146 27.1096 34.1674 27.007 34.2912 26.874C34.415 26.7411 34.5065 26.5815 34.5587 26.4074C34.6675 26.056 34.6393 25.3863 34.4781 24.9975C34.7964 25.0298 35.168 25.0902 35.4137 25.1425L35.1358 25.2876L44.3405 27.9805Z" fill="#D7E8F0"/>
<path d="M44.6388 64.3853C44.4777 60.5584 43.7032 56.0013 41.964 50.6305C41.0093 47.6788 40.5631 45.2517 40.5098 43.2627" stroke="black" stroke-miterlimit="10"/>
<path d="M57.4737 71.8434L52.8672 69.1666L47.5005 66.0447L44.6394 64.382L40.04 61.7071C38.4818 60.8648 36.7002 60.5283 34.9421 60.7444C33.1841 60.9604 31.5369 61.7182 30.229 62.9126L13.5597 79.7068C13.3152 79.9526 12.9968 80.1114 12.6533 80.1589L4.86455 81.2395C4.47289 81.3007 4.1184 81.5064 3.87116 81.8163C3.62382 82.1262 3.50186 82.5174 3.52915 82.9129C3.55654 83.3084 3.73117 83.6792 4.0187 83.9521C4.30632 84.225 4.68569 84.38 5.08208 84.3867H14.2254C14.5088 84.3862 14.787 84.31 15.0311 84.1661L21.1461 80.5406L31.7859 74.2464C33.218 73.3994 34.9029 73.5192 36.2876 74.3994C37.1295 74.9362 37.7801 75.7348 38.5133 76.4076C40.5605 78.2834 42.8155 79.9188 45.2345 81.2819C46.1382 81.7914 47.0637 82.2614 48.0111 82.6918" stroke="black" stroke-miterlimit="10"/>
<path d="M52.6865 84.3102C52.6865 84.3102 52.6865 84.3102 52.6946 84.3102C53.7784 84.4065 54.8674 84.4321 55.9545 84.3867C58.8751 84.2779 61.5066 82.9103 63.6617 80.6222C70.4364 73.4316 72.4657 57.1571 63.7624 42.3661C63.758 42.3596 63.754 42.3529 63.7504 42.3459C61.8369 39.1021 58.0774 36.6892 54.1146 35.5391" stroke="black" stroke-miterlimit="10"/>
<path d="M63.7538 42.3496C63.7538 42.3496 73.8699 62.5245 52.8672 69.1663" stroke="black" stroke-miterlimit="10"/>
<path d="M47.5 66.0473C49.2272 64.5307 56.5638 57.6059 54.5415 51.3358C52.2534 44.2419 54.1387 42.3496 54.1387 42.3496" stroke="black" stroke-miterlimit="10"/>
<path opacity="0.28" d="M38.5766 25.6846L39.5011 25.9061L37.6018 30.3091H36.499L38.5766 25.6846Z" fill="white"/>
<path opacity="0.28" d="M30.229 25.6846L31.1535 25.9061L29.2541 30.3091H28.1523L30.229 25.6846Z" fill="white"/>
<path d="M46.5882 35.0078C46.5882 35.0078 32.6008 38.9959 28.9521 45.1794" stroke="black" stroke-miterlimit="10"/>
<path d="M25.457 30.3066C23.04 36.6825 22.9313 43.5619 23.3422 47.98C23.4161 48.7669 23.6657 49.5273 24.0727 50.2048C24.4797 50.8824 25.0336 51.46 25.6935 51.8949C26.3536 52.3299 27.1027 52.6112 27.8859 52.7179C28.669 52.8247 29.4663 52.7543 30.2185 52.5119L41.4556 48.9528" stroke="black" stroke-miterlimit="10"/>
<path d="M46.5881 35.0076C46.3021 35.9563 46.1238 36.9805 46.1691 37.9725C46.2134 38.9302 46.6545 40.0974 47.579 40.5255C48.1551 40.7913 48.8409 40.7188 49.426 40.4751C51.4221 39.6463 53.262 37.6291 54.1936 35.7196L53.4503 33.9502" stroke="black" stroke-miterlimit="10"/>
<path d="M48.084 40.452L46.2783 33.3369" stroke="black" stroke-miterlimit="10"/>
<path d="M50.8204 32.6066C50.8204 32.6066 48.7629 34.7899 45.2593 32.8765C41.7557 30.963 44.2643 28.8965 44.2643 28.8965" stroke="black" stroke-miterlimit="10"/>
<path d="M34.351 79.2871C36.1748 79.4966 38.2363 79.9125 40.3502 80.4412C40.5043 80.4775 40.6574 80.5178 40.8145 80.5581C42.4933 80.9901 44.2003 81.4866 45.8499 81.9942C48.3847 82.7857 50.7695 83.6125 52.686 84.3104C53.0727 84.4514 53.4443 84.5894 53.7938 84.7133C55.0443 85.1815 56.0611 86.1217 56.6257 87.3317C57.0779 88.3045 57.514 90.221 56.7345 91.1324C56.6153 91.2768 56.468 91.3951 56.3014 91.4803C56.135 91.5655 55.9527 91.6157 55.7661 91.6278C55.5793 91.64 55.3921 91.6139 55.216 91.5511C55.0397 91.4881 54.8783 91.39 54.7415 91.2624C53.818 90.4063 47.2568 86.8392 32.5695 85.9842C21.8843 85.3629 20.8953 82.2117 21.1501 80.546" stroke="black" stroke-miterlimit="10"/>
<path d="M40.8145 80.5606C41.7418 80.3045 42.6875 80.121 43.6434 80.0117" stroke="black" stroke-miterlimit="10"/>
<path d="M34.5322 25C34.8799 25.0309 35.2253 25.0834 35.5665 25.1571L44.4107 27.272V28.6285C44.4104 28.7005 44.3848 28.7703 44.3385 28.8255C44.2922 28.8807 44.2279 28.9179 44.1569 28.9307L35.1506 30.5521" stroke="black" stroke-miterlimit="10"/>
<path d="M47.6094 24.8463C47.6094 24.8463 47.122 20.9731 50.5884 20.6166C54.5412 20.2137 57.9602 23.3719 57.9602 23.3719" stroke="black" stroke-miterlimit="10"/>
<path d="M27.1718 24.9062H26.2755C25.8816 24.9066 25.504 25.0631 25.2254 25.3416C24.9469 25.6202 24.7903 25.9978 24.79 26.3917V29.0665C24.7897 29.2621 24.8281 29.4559 24.9028 29.6366C24.9775 29.8174 25.0871 29.9817 25.2253 30.1199C25.3636 30.2583 25.5278 30.3681 25.7085 30.4429C25.8893 30.5176 26.0829 30.5561 26.2785 30.556H31.2958C32.0743 30.556 32.4489 30.6688 32.9656 30.0525C33.5023 29.4109 34.1398 28.7493 35.0482 28.8137C36.0553 28.8903 35.7179 29.7534 35.1489 30.557C34.7169 31.1613 34.1418 31.7433 33.9223 31.9045C33.1583 32.4564 32.3073 32.8764 31.4046 33.1472C31.0061 33.2707 30.6534 33.5101 30.3916 33.835C30.1299 34.1598 29.971 34.5554 29.9352 34.9711C29.6892 37.7606 29.9589 40.5716 30.7308 43.2634" stroke="black" stroke-miterlimit="10"/>
<path d="M32.6017 26.1061C32.5735 26.7356 33.067 27.4778 33.9109 27.1747C34.0808 27.1104 34.2336 27.0078 34.3575 26.8749C34.4813 26.742 34.5728 26.5823 34.625 26.4083C34.7418 26.0286 34.778 25.516 34.5766 25.1454C34.5551 25.0994 34.5281 25.0561 34.4961 25.0165C34.488 25.0084 34.4799 24.9963 34.4719 24.9883" stroke="black" stroke-miterlimit="10"/>
<path d="M32.2427 24.5403C32.5095 24.9885 32.6848 25.5394 32.6082 26.0641C32.5458 26.4931 32.29 26.908 31.8942 27.0842C31.7561 27.1504 31.6029 27.1786 31.4503 27.1658C31.2977 27.1531 31.1513 27.0999 31.0261 27.0117C30.8779 26.8821 30.7675 26.7146 30.7069 26.5273C30.4843 25.9432 30.4783 25.2765 30.5125 24.6602C30.5125 25.0781 30.5387 25.4961 30.3886 25.8959C30.3038 26.1369 30.1461 26.3456 29.9374 26.4931C29.8326 26.5652 29.7128 26.6124 29.587 26.6314C29.4611 26.6502 29.3327 26.64 29.2113 26.6019C28.874 26.483 28.6756 26.1245 28.6131 25.773C28.5507 25.4215 28.593 25.06 28.5759 24.7025C28.5658 25.1345 28.5487 25.5907 28.314 25.9543C28.1922 26.1446 27.9938 26.3058 27.7682 26.3098C27.6222 26.3081 27.482 26.2525 27.3744 26.1537C27.2686 26.0547 27.1863 25.9331 27.1337 25.7982C27.0023 25.4701 27.0023 25.104 27.1337 24.776C27.2177 24.5407 27.3915 24.3485 27.6171 24.2412C27.7159 24.1989 27.8232 24.1798 27.9305 24.1854C28.0379 24.1909 28.1425 24.2209 28.2365 24.2731C28.3304 24.3253 28.4113 24.3982 28.4727 24.4865C28.5342 24.5747 28.5746 24.6758 28.591 24.782C28.6491 24.6475 28.7352 24.5269 28.8436 24.4283C28.9519 24.3297 29.08 24.2552 29.2194 24.21C29.5011 24.1218 29.8044 24.1321 30.0794 24.2392C30.2009 24.2795 30.3108 24.3486 30.3997 24.4406C30.4434 24.4872 30.4758 24.5433 30.4946 24.6043C30.5132 24.6654 30.5176 24.73 30.5075 24.7931C30.5484 24.6538 30.619 24.525 30.7145 24.4157C30.8099 24.3062 30.9278 24.2187 31.0601 24.1591C31.1926 24.0995 31.3363 24.0692 31.4814 24.0703C31.6266 24.0716 31.7698 24.104 31.9013 24.1657C32.1349 24.2664 32.2537 24.5383 32.3615 24.7559C32.3615 24.6088 32.6274 24.3772 32.7412 24.3198C33.424 23.9744 34.2518 24.5605 34.5841 25.1426" stroke="black" stroke-miterlimit="10"/>
<path d="M51.6442 21.5986C51.6442 21.5986 50.0823 22.7407 50.7379 24.6934C50.9755 25.3984 51.464 25.8435 52.0773 26.2353C52.6584 26.6059 53.033 27.0862 52.7994 27.8003C52.5536 28.5304 51.8386 28.898 52.7188 29.4468C53.3885 29.8668 54.4822 29.749 54.7723 30.5546C55.3292 32.0794 52.9766 32.5033 53.4812 34.0613" stroke="black" stroke-miterlimit="10"/>
<path d="M74.6599 61.5805C72.7545 61.233 71.3204 60.0598 70.3203 58.4333C69.414 56.961 68.8903 55.2802 68.5479 53.5993C68.5479 53.5903 68.5479 53.5852 68.5479 53.5822L65.6404 43.0078C65.6373 43.0051 65.6349 43.0017 65.6334 42.9977C65.6313 42.9901 65.6282 42.9826 65.6243 42.9756C65.6243 42.9756 65.6243 42.9695 65.6243 42.9675C65.585 42.8608 65.4692 42.5738 65.3222 42.1327C65.323 42.13 65.323 42.1273 65.3222 42.1246C64.8658 40.7459 64.547 39.3253 64.3705 37.8838C64.3181 37.4618 64.2768 37.0187 64.2547 36.5645C64.2547 36.4638 64.2426 36.3631 64.2325 36.2674C64.1426 35.3761 63.9043 34.5061 63.5275 33.6933C63.5014 33.6278 63.4691 33.5624 63.4389 33.504C63.3956 33.4143 63.3553 33.3277 63.309 33.2411C63.1741 32.9742 63.0321 32.7285 62.886 32.4939C62.8014 32.3589 62.7158 32.232 62.6333 32.1071C62.3805 31.7345 62.1297 31.4143 61.9061 31.1464L61.6886 30.8986C61.6443 30.8442 61.598 30.7929 61.5547 30.7496C61.4469 30.6318 61.3533 30.5401 61.2807 30.4636C61.2566 30.4354 59.902 29.7687 59.8799 29.7516L60.0259 28.8945C61.3462 28.8945 63.73 29.7244 64.7179 30.2934C66.6878 31.4304 67.9889 33.6258 68.3767 35.8182C68.5922 37.0388 68.6325 38.2886 68.8389 39.5102C69.3505 42.5677 71.4573 45.1348 73.4282 47.4742C74.2288 48.4189 75.2007 49.3122 76.1322 50.1742C76.2108 50.2508 76.2903 50.3263 76.3679 50.3968C76.5149 50.5297 76.6569 50.6637 76.7949 50.7996L76.8613 50.8651C77.9393 51.893 78.8325 53.0986 79.5019 54.4292C79.5039 54.43 79.5058 54.4314 79.507 54.4332C79.5083 54.435 79.509 54.4371 79.509 54.4392C79.7386 54.9089 79.8754 55.4184 79.9118 55.9398C79.9105 55.9496 79.9105 55.9593 79.9118 55.969C79.9541 56.4232 79.9642 56.8945 79.9934 57.3789C79.9917 57.4672 79.985 57.5554 79.9732 57.6428C79.9708 57.7124 79.9637 57.7817 79.9521 57.8502C79.9399 57.9766 79.9197 58.1021 79.8917 58.2259C79.891 58.2484 79.8862 58.2706 79.8776 58.2913C79.8687 58.3473 79.8569 58.4028 79.8423 58.4575C79.8252 58.526 79.8081 58.5945 79.79 58.6589C79.7718 58.7234 79.7507 58.7909 79.7305 58.8603C79.7013 58.95 79.6701 59.0376 79.6298 59.1232C79.6065 59.192 79.5789 59.2592 79.5472 59.3246C79.5027 59.4262 79.4523 59.5251 79.3962 59.6207C79.3777 59.6631 79.355 59.7036 79.3287 59.7415C79.2882 59.8198 79.2425 59.8952 79.1917 59.9671C78.1927 61.4445 76.3457 61.8886 74.6599 61.5805Z" fill="#FFC6B2"/>
<path d="M65.6217 42.9638C65.4001 42.4602 65.1665 41.9567 64.9258 41.4531C65.0547 41.6696 65.1846 41.8912 65.3125 42.1218C65.3133 42.1244 65.3133 42.1273 65.3125 42.1299C66.6741 44.6043 69.5171 57.3288 68.4284 52.7365C67.9108 50.5542 66.4727 44.3052 68.5422 53.5814L65.6348 43.0071C65.6316 43.0043 65.6292 43.0009 65.6277 42.997C65.6257 42.9893 65.6226 42.9819 65.6186 42.9748C65.6186 42.9748 65.6247 42.9658 65.6217 42.9638Z" fill="#2E2E2E"/>
<path d="M60.0795 28.1855C61.7109 28.1855 63.705 28.962 64.6949 29.53C66.6678 30.662 67.967 32.8635 68.3517 35.0559C68.5662 36.2785 68.6085 37.5253 68.8139 38.7499C69.3265 41.8064 70.957 44.5144 72.9319 46.8519C73.9311 48.0181 74.9946 49.1276 76.1173 50.1752C77.2764 51.274 78.3852 52.1894 79.1385 53.6225C80.1154 55.4906 80.4246 58.1242 79.1949 59.9581C78.1979 61.4435 76.354 61.8897 74.6631 61.5825C72.7567 61.235 71.3195 60.0618 70.3215 58.4374C69.3235 56.8129 68.9116 54.9931 68.4081 53.1683L66.7484 47.0905C65.9196 44.0552 64.7342 41.0188 64.3576 37.8828C64.3072 37.4578 64.27 37.0167 64.2448 36.5655C64.2448 36.4648 64.2297 36.3641 64.2196 36.2634C64.0664 34.8952 63.6005 33.5807 62.858 32.4213C62.4928 31.8404 62.0664 31.3002 61.5861 30.81C61.0916 30.3065 60.4239 30.0527 59.874 29.6277" stroke="black" stroke-miterlimit="10"/>
<path d="M44.4092 27.4291L45.3901 26.8249C45.4773 26.7366 45.5265 26.6176 45.527 26.4935V25.9245C45.5266 25.819 45.5621 25.7165 45.6276 25.6338C45.6931 25.551 45.7848 25.4931 45.8876 25.4693C46.4873 25.3404 47.0665 25.1296 47.6087 24.8429C47.9763 24.6415 48.2824 24.3797 48.4204 24.0645C48.8184 23.1419 49.5362 22.3941 50.4416 21.9586C50.8228 21.78 51.2279 21.6575 51.6441 21.5951C52.5404 21.4511 53.6582 21.5165 55.0611 21.9536C55.2525 22.013 55.4408 22.0855 55.6251 22.1631L56.4509 22.5115C57.3795 22.8851 58.2074 23.4715 58.8679 24.2236C59.3061 24.7252 59.6326 25.3142 59.8256 25.9517C60.5608 28.4584 59.7582 31.6337 57.5093 33.1333C56.3401 33.9117 54.8667 34.1242 53.4891 34.0638" stroke="black" stroke-miterlimit="10"/>
<path d="M48.4766 25.2871C48.4766 25.2871 49.1322 25.8833 48.7384 26.834" stroke="black" stroke-miterlimit="10"/>
<path d="M0 84.4121H24.1398" stroke="black" stroke-miterlimit="10"/>
<path d="M53.791 84.7178H75.6568" stroke="black" stroke-miterlimit="10"/>
<path d="M38.5137 17.9869L40.2308 17.0352L40.4553 20.0272L42.5058 18.8912L42.2127 23.5369L41.3194 20.9114L39.6205 21.8964L38.5137 17.9869Z" fill="#D7E8F0"/>
<path d="M49.8091 9.99219L51.7367 11.2873L48.4022 13.5915L50.7054 15.1374L45.2168 17.9884L47.804 15.1757L45.8472 13.9259L49.8091 9.99219Z" fill="#FFC6B2"/>
<path d="M42.8829 9.06805L41.0147 7.15962L40.5263 7.84948L39.8525 7.15962L38.2865 9.37118L33.4082 3.89564L34.9138 1.86133L37.5282 6.18275L38.1657 5.32369L40.0862 2.72541L40.5182 3.7053L42.8829 9.06805Z" fill="#FFC6B2"/>
<path d="M32.249 3.89436L34.3911 1L37.5272 6.18246L40.0852 2.72514L43.8305 11.2189L39.8535 7.15732L37.7759 10.099L32.249 3.89436Z" stroke="black" stroke-miterlimit="10"/>
</svg>
